<?xml version="1.0" encoding="utf-8"?>
<!-- Generator: Adobe Illustrator 23.0.1, SVG Export Plug-In . SVG Version: 6.00 Build 0)  -->
<svg version="1.1" xmlns="http://www.w3.org/2000/svg" xmlns:xlink="http://www.w3.org/1999/xlink" x="0px" y="0px"
	 viewBox="0 0 1366 1366" style="enable-background:new 0 0 1366 1366;" xml:space="preserve">
<style type="text/css">
	.st0{opacity:0.42;}
	.st1{opacity:0.53;fill:#E9C46A;stroke:#FFFFFF;stroke-miterlimit:10;enable-background:new    ;}
	.st2{fill:#2D2D2D;}
</style>
<g id="Camada_2">
</g>
<g id="Camada_1">
	<g class="st0">
		
			<ellipse transform="matrix(0.8574 -0.5146 0.5146 0.8574 -272.2151 453.8205)" class="st1" cx="682.9" cy="718.2" rx="561.9" ry="453.7"/>
		
			<ellipse transform="matrix(0.8574 -0.5146 0.5146 0.8574 -271.7931 481.4073)" class="st1" cx="732.9" cy="731.2" rx="561.9" ry="453.7"/>
		
			<ellipse transform="matrix(0.8938 -0.4485 0.4485 0.8938 -162.7503 133.2294)" class="st1" cx="199.9" cy="410.2" rx="63.8" ry="50.5"/>
		
			<ellipse transform="matrix(0.9245 -0.3812 0.3812 0.9245 -303.9134 540.3077)" class="st1" cx="1211.9" cy="1037.3" rx="43" ry="33"/>
		
			<ellipse transform="matrix(0.8437 -0.5369 0.5369 0.8437 -610.7874 312.9837)" class="st1" cx="232" cy="1205.2" rx="33.5" ry="27.2"/>
	</g>
	<g>
		<path class="st2" d="M562.9,600.1C415.7,600.1,296,716.7,296,860s119.7,259.9,266.8,259.9S829.7,1003.3,829.7,860
			S710,600.1,562.9,600.1z M349.4,860c0-23.4,4.2-45.8,11.5-66.8l41.9,40.8l53.4,52v52l53.4,52l26.7,26v50.2
			C431.1,1053.2,349.4,965.8,349.4,860z M731.8,986.6c-17.4-13.7-43.8-22.7-62.2-22.7v-26c0-28.7-23.9-52-53.4-52H509.5v-52v-26
			c29.5,0,53.4-23.3,53.4-52v-26h26.7c29.5,0,53.4-23.3,53.4-52v-10.7c78,31.1,133.3,105.7,133.3,192.8
			C776.3,907.6,759.6,951.5,731.8,986.6z"/>
		<path class="st2" d="M1034.2,414.7c-4.5-2.8-10.3-3.2-15.3-1.1L756.3,525.4c-5.5,2.3-8.9,7.4-8.9,12.9c0.1,5.5,3.7,10.4,9.3,12.6
			l83.4,33v94l90.2-58.3l73.6,29.1c2,0.8,4.1,1.2,6.2,1.2c2.8,0,5.6-0.7,8-2c4.3-2.4,7.1-6.5,7.4-11l15.4-209.8
			C1041.3,422.2,1038.8,417.5,1034.2,414.7z M996.1,615.2L914.7,583l49-86.8l-118.2,59.4l-45.3-17.9l208.1-88.7L996.1,615.2z"/>
	</g>
</g>
</svg>
