<?xml version="1.0" encoding="utf-8"?>
<!-- Generator: Adobe Illustrator 23.0.1, SVG Export Plug-In . SVG Version: 6.00 Build 0)  -->
<svg version="1.1" xmlns="http://www.w3.org/2000/svg" xmlns:xlink="http://www.w3.org/1999/xlink" x="0px" y="0px"
	 viewBox="0 0 1366 1366" style="enable-background:new 0 0 1366 1366;" xml:space="preserve">
<style type="text/css">
	.st0{opacity:0.42;}
	.st1{opacity:0.53;fill:#79D4DB;stroke:#FFFFFF;stroke-miterlimit:10;enable-background:new    ;}
	.st2{fill:#2D2D2D;}
</style>
<g id="Camada_1" class="st0">
	
		<ellipse transform="matrix(0.8574 -0.5146 0.5146 0.8574 -272.2122 453.8063)" class="st1" cx="682.9" cy="718.2" rx="561.9" ry="453.7"/>
	
		<ellipse transform="matrix(0.8574 -0.5146 0.5146 0.8574 -271.7755 481.4219)" class="st1" cx="732.9" cy="731.2" rx="561.9" ry="453.7"/>
	
		<ellipse transform="matrix(0.8938 -0.4485 0.4485 0.8938 -162.7365 133.2439)" class="st1" cx="199.9" cy="410.2" rx="63.8" ry="50.5"/>
	
		<ellipse transform="matrix(0.9245 -0.3812 0.3812 0.9245 -303.8919 540.307)" class="st1" cx="1211.9" cy="1037.3" rx="43" ry="33"/>
	
		<ellipse transform="matrix(0.8437 -0.5369 0.5369 0.8437 -610.8019 312.965)" class="st1" cx="232" cy="1205.2" rx="33.5" ry="27.2"/>
</g>
<g id="Camada_2">
	<path class="st2" d="M666,862c9.6,0.4,19.1,0.3,28.7-0.4c1.5-0.1,3-0.3,4.5-0.4c9.2-0.8,18.4-2,27.6-3.8c0.7-0.1,1.5-0.2,2.2-0.4
		c9.4-1.9,18.8-4.4,28-7.3c1.8-0.6,3.7-1.2,5.5-1.8c9.1-3.1,18-6.5,26.8-10.6c1.1-0.5,2.1-1.1,3.1-1.6c8.1-3.9,15.9-8.2,23.7-12.8
		c1.4-0.9,2.9-1.7,4.3-2.6c8.1-5.1,15.8-10.7,23.4-16.7c1.6-1.2,3.1-2.6,4.6-3.9c7.6-6.4,15-13.1,21.9-20.4l7.2-7.5l-32.9-28.4
		l-7.2,7.5c-2.9,3-6.2,5.5-9.2,8.3L631.8,590c2.7-3.1,5.3-6.2,8.1-9.3l7.2-7.5l-32.9-28.4l-7.2,7.5c-76.3,80.3-90.4,198.3-34.5,287
		c0.1,0.2,0.2,0.4,0.3,0.5c34.5,54.5,34,123.6,1.6,180.2L385.2,856.9l44.4-21.6l125.2,108c3.3-20.8,2.5-41.9-2.7-62.2l-65.8-56.8
		c14-0.7,27.8,0.8,41.6,3.2c-8.1-14.8-14.2-30.3-18.4-46.2c-70.4-3.3-142.3,23.6-192.9,76.9l-31.1,32.7l32.9,28.4l31.1-32.7
		c0.1-0.1,0.2-0.2,0.3-0.2l197.4,170.3c-0.1,0.1-0.1,0.2-0.2,0.3l-31.1,32.7l32.9,28.4l31.1-32.7c59.9-63.1,78.7-151,52.3-226.7
		c9.6,1.7,19.3,2.6,29,3.2C662.9,861.8,664.4,861.9,666,862z M671.5,818.7c-20.1-0.7-40.2-4.2-59.4-10.8c-2.1-0.7-4.1-1.5-6.2-2.3
		c-13.1-24-20.3-50.2-21.8-76.8l103.5,89.3c-5.3,0.2-10.7,0.8-16,0.6C671.6,818.7,671.6,818.7,671.5,818.7z M791.3,787.6
		c-0.3,0.2-0.6,0.4-1,0.6c-1,0.6-2.1,1.3-3.1,1.9c-8,4.5-16.1,8.4-24.5,11.9c-1.2,0.5-2.3,1-3.5,1.4c-4.6,1.8-9.2,3-13.9,4.5
		l-156-134.6c3.7-15.5,9.4-30.8,17-45.3L791.3,787.6z"/>
	<path class="st2" d="M812.7,528.6l-22.9,94.3c-1.4,5.8,1,11.9,6.2,15.3c2.6,1.7,5.7,2.6,8.7,2.6c3,0,6-0.8,8.5-2.5l83.7-53.1
		l83.7,53.1c5.4,3.4,12.4,3.3,17.6-0.4c5.2-3.6,7.5-9.9,5.7-15.8L976,528.7l69.8-59.7c4.6-3.9,6.2-10,4.3-15.6
		c-2-5.5-7.2-9.4-13.4-9.9l-87.7-6.6l-37.9-79.8c-2.5-5.2-8-8.6-14-8.6c-6,0-11.5,3.4-14,8.6l-37.9,79.8l-87.7,6.6
		c-6,0.5-11.2,4.2-13.2,9.6c-2.1,5.4-0.6,11.4,3.7,15.4L812.7,528.6z M856.6,465.4c5.6-0.4,10.5-3.7,12.8-8.6l27.7-58.2l27.7,58.2
		c2.3,4.9,7.2,8.1,12.8,8.6l61.1,4.6l-50.3,43c-4.4,3.7-6.1,9.5-4.5,14.9l19.3,64.1l-57.5-36.4c-5.2-3.3-11.9-3.3-17.1,0l-60,38
		l16.1-66.4c1.2-5-0.4-10.2-4.2-13.7l-46.7-43.3L856.6,465.4z"/>
</g>
</svg>
