<?xml version="1.0" encoding="utf-8"?>
<!-- Generator: Adobe Illustrator 23.0.1, SVG Export Plug-In . SVG Version: 6.00 Build 0)  -->
<svg version="1.1" xmlns="http://www.w3.org/2000/svg" xmlns:xlink="http://www.w3.org/1999/xlink" x="0px" y="0px"
	 viewBox="0 0 484.6 491.2" style="enable-background:new 0 0 484.6 491.2;" xml:space="preserve">
<style type="text/css">
	.st0{fill:#A1FFFC;}
	.st1{font-family:'ArialMT';}
	.st2{font-size:12px;}
	.st3{fill:#8592A4;stroke:#8592A4;}
	.st4{fill:#6A7A8B;stroke:#6A7A8B;}
	.st5{fill:#8592A4;}
	.st6{fill:none;stroke:#8E8E8E;}
	.st7{stroke:#000000;}
	.st8{fill:#8592A4;stroke:#000000;}
	.st9{fill:#FFFFFF;stroke:#000000;}
	.st10{fill:#F8EEE0;stroke:#F8EEE0;}
	.st11{fill:#6A7A8B;stroke:#6A7A8B;stroke-miterlimit:10;}
	.st12{fill:#F1E7DA;}
	.st13{fill:#D6CFC9;stroke:#D6CFC9;}
	.st14{fill:#CC6540;stroke:#CC6540;}
	.st15{fill:#C95B3A;stroke:#C95B3A;stroke-miterlimit:10;}
	.st16{display:none;}
	.st17{display:inline;fill:none;stroke:#FFFF06;stroke-width:4;stroke-miterlimit:10;}
	.st18{display:inline;opacity:0.17;fill:#06FCFC;enable-background:new    ;}
	.st19{display:inline;opacity:0.18;fill:#06FCFC;enable-background:new    ;}
	.st20{fill:#2E2F29;stroke:#2E2F29;}
	.st21{fill:#2D344A;stroke:#2D344A;}
	.st22{fill:#2D344A;stroke:#000000;}
	.st23{fill:#D19022;stroke:#000000;}
	.st24{fill:#2D344A;stroke:#262C3A;}
	.st25{fill:#262C3A;stroke:#262C3A;}
	.st26{fill:#D19022;stroke:#D19022;stroke-width:0.5;}
	.st27{fill:#2D344A;stroke:#2B3244;}
	.st28{fill:#1F2634;stroke:#1F2634;}
	.st29{fill:#1C242F;stroke:#1C242F;}
	.st30{fill:#8592A4;stroke:#5D6B7C;}
	.st31{fill:#D19022;stroke:#D19022;}
	.st32{fill:#271F1B;stroke:#271F1B;}
	.st33{fill:#939FAD;stroke:#939FAD;}
	.st34{fill:#4E5355;stroke:#4E5355;}
</style>
<g id="Camada_1">
	<g>
		<g id="Camada_34">
			<text transform="matrix(0.9933 0.1155 -0.1155 0.9933 205.5258 329.2804)" class="st0 st1 st2">A1FFFC</text>
			<text transform="matrix(0.9933 0.1155 -0.1155 0.9933 204.5326 329.1649)" class="st1 st2">D2FFFD</text>
		</g>
		<g id="Camada_35">
		</g>
		<g id="Camada_7">
			<path class="st3" d="M-37.4,350.9"/>
		</g>
		<g id="Camada_39">
		</g>
		<g id="Camada_23">
		</g>
		<g id="Camada_8">
		</g>
		<g id="Camada_3">
			<path class="st3" d="M385.5,402.7c1.7-1.6,3-2.8,4-3.7"/>
			<path class="st3" d="M339.2,455.8c0,0,34.7-11.7,58.9-54.3c0.3-0.6,0.7-1.2,0.7-1.2l0,0c0.2-0.4,0.5-0.8,0.6-1.2
				c0,0,9.7-18.6,11.7-48.5c0-0.5,0.1-1,0.1-1c0.4-8.3-0.8-14.6-1.2-16.8c-9-59.7-15.7-62.2-21.3-100.4
				c-2.3-15.5-2.9-26.4-10.6-30.2c-8.9-4.5-22.4,3.2-28.6-4.2c-1.2-1.5-0.9-2-2.2-4.4c-1.3-2.5-8-9.3-21-14.4
				c-0.6-0.3-1.5-0.6-2.6-1c-19.3-6.8-43-2.2-44.6-6.5c-0.8-2.3,11.7-3.9,16.5-13.7c3-6.3,2.8-15.4-1.3-18
				c-7.4-4.7-23.6,9.2-24.3,9.9c-7.2,6.4-8.9,14-10.6,13.5c-1.3-0.3,2.1-7.3,0-16.4c-1-4.2-2.5-6.1-3-6.8c-0.2-0.3-4.5-5.2-10.8-4.5
				c-0.7,0.1-3.1,0.3-5.1,1.9c-7.3,5.4-1.7,20.1-6.1,21.9c-3.7,1.6-7.7-8-19.7-11.8c-6.4-2-15.4-2.4-17.4,1.4
				c-1.8,3.3,2.3,9.3,5.9,12.6c5.5,5,11.4,5.1,11.3,6.2c-0.2,1.8-15.9-0.9-30.4,2.9c-6.4,1.8-18.2,6.2-19,6.6c0,0-0.7,0.3-1,0.4
				l-1,0.4c-6.2,2.8-6.4,3.2-11.8,5.7c-29.6,13.6-50.7,12.3-52.9,22c-0.6,2.8,0.9,4.1,0.4,12.5c0,0.4-0.3,5-1.5,10
				c-3.9,17.9-23.3,67-26.1,107.9c-0.5,7-0.7,11.8-0.7,13.5c-0.2,20.2,3.9,37.9,7.4,47.4c0,0,11.1,26,46.2,48.9
				c2.1,1.4,4.2,2.4,4.2,2.4c6.7,3.5,12.7,4.7,16.8,5.3c73.1,10.5,163.7,5.8,163.7,5.8C327.3,458.6,332.1,458.2,339.2,455.8z"/>
			<path class="st3" d="M124,446c0.4,0.2,0.8,0.5,1.2,0.7"/>
		</g>
		<g id="Camada_4">
			<path class="st4" d="M179.2,197.1c1.7,1,1.9-3.1,3.5-2.1c-0.3-3.9,4.7,2.1,5.5,2.1c1.1-0.1,9.6,0.2,11.4-1.6
				c2.2-2.2,8.4-5.9,14.5-4.8c15.7,2.9,16.3-0.4,22.1,1.9c6.9-9.4,19.5,10.5,18.5,16.9l-8.4,1.6c2.1,1.5,8.8-6.3,9.2-6
				c2.4,1.8,8.6-1.3,9.7-0.4c8.8-0.1,24.9,7.4,4.3,14.9c-4.1,4.5-19.1,5.3-21.9,6.4c-9.6,3.4-15.9-7.1-27.3-4.1
				c-5.1,1.3-5,3.8-9.1,3.8c-7.8,0-20.2,2.9-22.8-5.1C172.1,223.3,179.2,199.2,179.2,197.1z"/>
		</g>
		<g>
			
				<ellipse transform="matrix(0.9998 -2.223587e-02 2.223587e-02 0.9998 -6.54 1.8626)" class="st5" cx="80.5" cy="295" rx="3" ry="6"/>
			<path class="st6" d="M156.7,182.3c2.4,1.1,4.7,2.4,7,3.4"/>
			<path class="st3" d="M365.7,232.9c2.2-0.4,4.4-0.8,6.6-1.1c0,0,0,0,0.1,0c4.7-1.2,9.2-2.4,13.8-3.5c0.6-0.1,1.1,0.2,1.1,0.6
				c5,19.9,10.1,39.8,15.1,59.6c0,0,0,0.1,0,0.2c0.1,1.5,0,3,0.5,4.5c6.1,21.3,9.9,42.9,6.9,65.2c-2.6,14-10.7,25.2-18.5,36.7"/>
			<path class="st7" d="M89.7,168.8"/>
			<path class="st7" d="M224.4,330.6"/>
			<path class="st7" d="M342.6,237"/>
			<path class="st7" d="M250.2,348.6"/>
			<path class="st7" d="M244.5,335.5"/>
			<path class="st7" d="M330.4,384.2"/>
			<path class="st8" d="M117.7,222.5"/>
			<path class="st4" d="M197.6,219.1c0.8-0.2,2.4-0.4,2.3-0.6c1.3-11,1.4-11.2,12.7-8.9c2.6,0.5,5.2,1.5,7.6,2.3
				c-3.7-0.6-7.1-1.2-10.8-1.9c-7-1.1-9.9,2-8.2,8.8c0.7,3.1,2.2,6,3.4,9.2c-0.4,0.3-1,0.5-1.4,0.8
				C201.5,225.5,199.6,222.4,197.6,219.1z"/>
			<path class="st4" d="M161.8,185.1c0.1-0.2,0.1-0.6,0.2-0.8"/>
			<path class="st7" d="M172.1,190.9"/>
			<path class="st7" d="M169.8,189.5"/>
			<path class="st7" d="M205.8,263.7"/>
			<path class="st7" d="M191.1,252"/>
			<path class="st7" d="M198.6,257.9"/>
			<path class="st9" d="M126.6,339.5"/>
			<path class="st8" d="M271.9,269.3"/>
			<path class="st7" d="M275,355.4"/>
			<path class="st7" d="M246.5,323.9"/>
			<path class="st8" d="M79.7,293.5"/>
			<path class="st10" d="M202.8,273.2c0.6-0.1,1.2-0.1,1.8-0.2c7,10,11.2,22.1,11.4,35.1c0.8,36.1-28.6,66-65.7,66.8
				S82.4,347.1,81.6,311c-0.4-16.5,5.6-31.7,15.7-43.4c1,0.5,2.1,0.9,3.1,1.4c0,0,0.2,0.1,0.4,0.2c28.4,11.9,48.6,13.6,48.6,13.6
				c9.1,0.8,25.5,0.8,46.1-6.8L202.8,273.2z"/>
			<path class="st11" d="M318.4,245.9c-1.4-3.6-4.8-10.6-12.1-13.9c-7.1-3.2-14.4-0.9-21.5,0.5c-16.9,3.2-18.3,6.7-28,6
				c-6.5-0.6-8.4-2.3-13.8-1.1c-3.2,0.7-3.6,1.6-14,8.6c-9,6-12.3,7.8-13.6,12.3c-0.7,2.2-0.6,4.2-0.4,5.6c0.1,2,0.1,3.8,0.1,5.9
				c1,0.3,2.4,0.8,4.2,1.1c3.8,0.7,7,0.8,10.3,0.6c5.7-0.2,10.5-0.6,16.1-1.9c0.8-0.2,1.6-0.5,2.3-0.7c2.6-1,4.3-1.9,6.5-3.2
				c1.7-1-0.8,0.5,6.1-3.1c8.2-4.4,8.4-4.6,10.7-5.8c5.7-2.8,10.2-4.1,15.5-5.7c5.3-1.5,9.2-2.2,13.6-3c4.8-0.9,9-1.5,12.3-1.9"/>
			<path class="st12" d="M468.8,169c-0.3,0.1-0.7,0.2-1.1,0.2"/>
			<path class="st12" d="M444.2,146c-1.2,0.4-2.3,0.7-3.4,1"/>
			<path class="st12" d="M432.7,149.5c-0.4,0.2-0.8,0.2-1.2,0.4"/>
			<path class="st12" d="M428,151c-0.3,0.2-0.7,0.2-1.2,0.4"/>
			<path class="st11" d="M115.3,233.9c0.4,0.1,0.8,0.2,1.3,0.4c0.1,0,0.1,0.1,0.2,0.1"/>
			<path class="st11" d="M142.9,246.6c0.1,0,0.6,0.1,1.3,0.2c0.5,0,0.9,0.1,1,0.1c1,0,1.6-0.2,4.4-0.1c4.6,0,8.3,0.6,10.4,0.9
				c1.2,0.2,4.3,0.7,8.4,2c4.6,1.4,7.8,2.9,10.4,4.2c2.9,1.3,2.3,1.3,7,3.8c3,1.6,6.6,3.5,11.6,5.7c0.9,0.3,3.2,1.4,6.4,2.7
				c4.7,1.8,10.8,4.3,11,3.8c0.2-0.6,0.7-13.3-7.1-17.3c-12.8-6.3-16.2-7-29.8-13.4c-19.3-9.2-26.8-2-35.7-5.5
				c-5.5-2.2-13.7-5-24.7-10.7c-0.1,0-0.2-0.1-0.4-0.1c-5.5-2.9-18.6-9.6-20.8-6.9c-0.2,0.3-0.1,0.4-0.1,2.5c0,0.8,0.1,1.5,0.1,2.1
				c0,0,0,1.2,0,2.8c0,1.8-1.8,12.2-4.9,26.3c0.2-0.1,0.8-0.2,1.5-0.4C120.8,242.8,142.3,246.5,142.9,246.6z"/>
			<path class="st11" d="M108.4,232c0.2,0,0.5,0.2,0.6,0.1"/>
			<path class="st11" d="M111,232.7c0.5,0.2,1,0.2,1.4,0.5"/>
			<path class="st13" d="M144.1,248.3"/>
			<path class="st14" d="M233,450.5l-3.8,5.7c-1.8-3.5-3.2-6.1-4.6-8.9c-5.1-18.4-15-34.3-26.1-49.6c-1.3-1.8-2.3-5.7-1.3-6.7
				c12.8-13.5,19.1-29.8,22.8-47.4c0.8-4.5,1.6-8.8,2.5-13.5c8.4,3.5,10.4,11.2,13.6,18.1c1.5,3.4,3.8,6.3,5.9,9.6l0,0
				c5.4,10.8,13.1,19.8,23.9,25.9c0.7,0.4,1.4,0.9,2,1.4c10.4,7.4,10.4,7.9,0.2,15.1c-11.5,8.1-18.9,19.7-25.3,31.6
				c-3.2,6-6.1,12.2-9.3,18.2C233.3,450.1,233.1,450.2,233,450.5z"/>
			<path class="st15" d="M223.7,329c-0.3,0.2-0.5,1.2,5,15.2c5.4,13.6,8.1,20.4,10.6,24.7c5.8,10,9.3,11.5,9.6,18
				c0.1,2.3-0.2,4.1-3.4,13.3c-3.9,11-6,14.2-9.8,23.9c-3.5,9-5.1,15.3-6.3,21.2c-0.2,1.4-2.3,11.7-1.2,12.1
				c-0.5-0.2,4.5-8.2,8.5-17c4.9-10.7,7.5-16,10.6-21.2c4.7-7.6,7.7-12.7,12.1-15.9c0.9-0.6,3.4-2.4,6.5-5.7
				c2.2-2.4,3.5-3.5,3.6-4.6c0.4-3.2-4-5.5-10.8-11.3c-2.9-2.7-7.4-6.5-11.4-12.1c-3.8-5.1-5.9-9.9-8.3-15.6
				c-3.5-7.5-3.2-9.1-6.2-14.3C229.2,333.9,224.7,328.3,223.7,329z"/>
		</g>
		<g id="Camada_33" class="st16">
			<path class="st17" d="M230.4,488.3"/>
			<circle class="st18" cx="13.7" cy="344.6" r="62.3"/>
			<circle class="st18" cx="463.2" cy="320" r="62.3"/>
			<circle class="st19" cx="408.2" cy="139.8" r="90.2"/>
			<circle class="st18" cx="201.7" cy="112.7" r="109.3"/>
			<circle class="st18" cx="29.1" cy="182.6" r="63.9"/>
		</g>
		<path class="st20" d="M454.6,325.6"/>
	</g>
	<g id="Camada_4_3_">
		<path class="st11" d="M337.3,456.6c1.2,1.6,17.8-7.8,32.6-20.9c6.6-5.9,15.2-13.5,23.1-26.1c9.3-14.8,12.4-27.8,16.7-45.8
			c2.2-9.1,2.6-13.9,2.5-18.6c-0.1-4.2-0.8-9.2-2.3-19.3c-0.3-2.4-0.8-5.3-1.4-8.6c-1.1-5.9-2.3-11.4-3.8-18
			c-3.4-15.5-6-25.5-8.6-36.3c-2.1-8.3-4.9-20.7-10.2-50.2l-24.9,6.4l-51.7,12.3l-11.2,15.9c3.7-0.5,6.8-0.5,9.1-0.5
			c8.3,0.1,14.4,1.4,16.5,1.8c1.3,0.3,2.3,0.6,3,0.8c9-0.6,16.7-0.5,22.4-0.1c19.5,1.1,37,5.5,39.6,12.1c1.7,4.2,2.2,9,2.2,9
			c0.1,0.8,0.1,1.7,0.2,3.4c0.2,5.1,0.2,9.8,0.2,9.8s-1.8,4.2-1.5,7.6c0.3,2.9,2,4.9,2.7,5.7c0.6,0.7,0.9,1.3,1,1.4
			c4,5.6,5.4,31.9,5.4,31.9c0.6,11.6,1.9,9.8,1.9,17.3c0,5.8-0.7,15.4-8.2,33.1c-9.3,22.3-20.8,37.6-24,41.8
			C351.5,445,336.1,455.1,337.3,456.6z"/>
	</g>
	<g id="Camada_5_1_">
		<path class="st5" d="M93.9,214.8"/>
		<path class="st5" d="M66.5,214.8"/>
		<path class="st21" d="M66.9,100.2l-0.1,0.1c-4-1.8-8.1-3.7-12.2-5.3c-10.7-3.8-12.7-3.7-12.8-18.6c4.8-1,9.6-2.2,14.4-3.2
			c11.9-2.6,23.9-5.3,35.8-7.8l-0.2,0.1c13.9-2.7,27.9-5.3,41.8-8.2c12.4-2.7,24.6-5.8,36.8-8.6c23.9-5,47.9-9.9,71.8-15.3
			c6.8-1.5,12.7-0.9,18.8,2.6c25.5,15,51.1,29.7,76.6,44.6c8,4.5,16,9.1,24,13.6c9.1,4,18.3,7.8,27.3,11.9
			c32.4,14.7,38.3,18.2,44.9,21c0.7,0.3,2.7,0.8,4.8,2.4c2.1,1.8,5.3,5.3,3.4,8.5c-1.3,2.3-7.2,3.8-9.6,5c-5.3,2.8-11.2,4.9-17,6.2
			c-0.1,0-0.2,0-0.2,0l-19,5.4c-9,1.9-17.9,4.1-27,6.2c-9.4,2.2-31.5,7.4-31.5,7.2l0.2-0.1c0-0.3-3,0.1-3.6,0.3
			c-5.5,0.8-52.4,11.7-59.4,13.3c-21.9,5-33.9,7.7-47.8,2.6c-1.2-0.4-7.6-3.5-20.7-9.5c-12.6-5.9-17.7-8.3-23.8-11.7
			c-6.7-3.6-5.5-3.3-13.2-7.6c-13.2-7.2-25.5-13.1-25.7-13l0.2,0.1c0,0-14.9-9.9-32.8-18.3c-7.6-3.6-17.3-7.7-17.3-7.6
			c0,0,0.2,0.1,0.2,0.3c0,0-2-1.3-3.3-2.1c0,0-0.2-0.1-3.4-2.2c-3.3-2.1-16.6-9.7-22.2-13.1"/>
		<path class="st22" d="M190,86.4"/>
		<path class="st22" d="M98.9,91.6"/>
		<path class="st23" d="M166.3,83.6"/>
		<path class="st23" d="M190.8,85.2"/>
		<path class="st23" d="M97.5,91.8"/>
		<path class="st9" d="M213.3,73.1"/>
		<path class="st7" d="M130.7,57.2"/>
		<path class="st7" d="M93.6,65.6"/>
		<path class="st7" d="M135.4,57.4"/>
		<path class="st7" d="M172.3,48.8"/>
		<path class="st7" d="M60.4,170.1"/>
		<path class="st24" d="M186.3,214.1c-1.3-0.5-11.6-4.2-26.6-9.5c-3.3-1.2-5.9-2.1-7.6-2.7c-2.6-1.9-5.3-3.7-8-5.6
			c-3-2.1-5.8-4-8.6-5.9c1.2-8.5,2.3-16.8,3.3-25.1l-0.1,0.3c1.2-6.3,2.3-12.6,3.8-18.7c0.5-1.7,2.3-2.9,3.6-4.4l-0.2-0.1
			c8.6,4.4,17.1,8.7,25.7,13c4.4,2.6,8.8,5,13.2,7.6c8,3.8,15.8,7.8,23.8,11.7c6.9,3.2,13.8,6.3,20.7,9.5c3.9,1.2,7.8,3.5,11.5,3.1
			c18.5-2.3,36.5-5.9,54.9-9.4c16.4-5.1,29.7-6,44.2-9.7l-0.1,0.3c3-0.4,5.8-0.8,10.1-1.3c-2,8.6-3.9,16.9-5.8,25.1
			c-11.3,2.6-22.7,5.3-34,7.8c-0.1-0.3-0.3-0.8-0.7-1.2c-4.4-4.1-20.4,11-36.6,18.5C272.7,217.2,238.6,232.8,186.3,214.1z"/>
		<path class="st25" d="M146.1,142.6c-1.2,1.4-3.1,2.7-3.6,4.4c-1.5,6.2-2.6,12.6-3.8,18.7c0.8-6.3,1.2-12.7,2.6-18.9
			c1.3-5.1-0.7-6.5-4.4-8.5c-12.4-6.2-24.6-12.6-36.8-18.9c-1.5-0.8-2.9-1.9-4.3-2.9c5.8,2.4,11.8,4.6,17.3,7.6
			C124.4,130.1,135.2,136.5,146.1,142.6z"/>
		<path class="st25" d="M171.5,155.4c-8.6-4.4-17.1-8.7-25.7-13C154.5,146.8,162.9,151,171.5,155.4z"/>
		<path class="st8" d="M87.7,230"/>
		<path class="st7" d="M144.1,196.4"/>
		<path class="st7" d="M141.7,194.9"/>
		<path class="st4" d="M305.1,188.1c3.8-2.7,7.6-5.3,11.4-7.8c0.5,0.4,1.1,0.8,1.5,1.2c-1.9,4-3.9,7.8-5.8,11.8
			c1.1-3.1,2-6.2,3.3-10C311.8,185,308.4,186.5,305.1,188.1z"/>
		<path class="st26" d="M204.4,74.3c9.3-5.6,22-9.1,35.9-9.1c28.3,0,51.2,14.2,51.2,31.8s-22.9,31.8-51.2,31.8s-51.2-14.2-51.2-31.8
			c0-4.6,1.5-8.8,4.4-12.8c-12.2,0.1-22.3,0.3-29.6,0.4c-24.4,0.5-32,1.2-35.9,1.7c-9.9,1-17.2,0-25.1,3.7
			c-7,3.3-11.4,8.2-13.1,10.4c-1.4,1.9-2.5,4-2.5,4c-1.3,2.6-2,4.7-2.4,6c-3.6,12.6-7.8,47.7-9.5,58.2c-1.2,7.4,4.2,13,5.3,20
			c0,0,0.1,1,0.2,1.5c1.9,12.3,4.5,26.7,1.7,39c-0.7,3.1-3,9.6-5.5,3.8c-2.1-4.9-5.7-9-10.1-11.7c-0.7-0.4-1.4-0.8-2.1-1.2
			c-0.6-0.3-1.2-0.4-1.9-0.6c-6.2-1.8-13.1-0.1-18.7,3.2c-1.9,1.2-2,1.2-2,1.2c-1.7,1-1.9,1.3-2,1.3c-1-0.4,0.4-6.3,1.4-12.7
			c1.2-7.6,0.4-7.2,1.3-12.2c0.7-3.7,1.9-9.6,5.6-16c0,0,3.9-6.7,10.8-12.4c0.2-0.3,0.2-0.1,0.2-0.3c5.8-5,4.2-12.6,6.3-35.6
			c0.1-0.8,0.1-1.2,0.1-1.7c0.7-7.4,2.1-21.3,7.7-33c1.4-3.1,7-14.9,18.5-21.8c7.4-4.5,13.8-4.9,29.3-5.1
			c35.2-0.6,60.4-0.1,88.4-1.5c1.2,0,2.3-0.1,2.9-0.1"/>
		<ellipse class="st27" cx="238.8" cy="96.3" rx="38.6" ry="23.2"/>
		<path class="st28" d="M198.7,198.5c7.7,5,16.2,8.8,28.3,9c1.4,0,5.5-0.5,13.7-1.4c24.5-2.8,44.2-6,57.3-8.3l13.7,8.3l24.8-1.7
			l5-0.9l5.7-20.3l4.8-16.3l-48.6,9.9l-41.2,8.8c-10.6,0.9-15.1,1.7-17.3,2.2c-0.5,0.1-1.9,0.5-3.9,0.5c-1.5,0-3-0.3-4.8-0.6
			c-3.8-1-6.7-2.3-6.8-2.4c-9.1-4.5-18.8-8.1-27.8-13c-28.5-15.3-23.9-12.3-29.8-15.8c-9.3-5.4-15.2-9.6-19.5-12.3l-11.1-6.5
			l-1.3,23.2L198.7,198.5z"/>
		<path class="st7" d="M141.2,140.5c-0.5,0.3-0.8,0.6-1.3,1.2"/>
		<path class="st12" d="M426.4,144.9c-0.4,0.1-0.7,0.3-1.2,0.4"/>
		<path class="st12" d="M420.3,147c-1.2,0.4-2.4,0.8-3.6,1.2"/>
		<path class="st12" d="M408.5,151c-0.5,0.1-0.8,0.3-1.3,0.4"/>
		<path class="st12" d="M403.7,152.7c-0.4,0.1-0.7,0.3-1.2,0.4"/>
		<path class="st29" d="M399,154.4c-1.9,0.6-3.1,1-3.1,1l-44.1,11.5l-30.9,6.3c-20.6,3.7-41.1,7.7-61.9,11.8
			c-2.3,0.4-7.2,2.7-14.4,2.8c-12,0.1-28.4-9.7-28.9-10L52.4,95.6c-2.3-0.6-5.3-2.1-7.6-5c-1.4-1.8-2-3.8-2.4-4.7
			c-0.7-2.2-2.1-7.6-0.7-9.4s6.9-0.8,23.1,9.9l34.1,18.7l66.9,32.6c22.8,10.3,40,18.2,47.5,21.8c4,1.9,6.2,2.9,9.4,4.6
			c7,3.7,8.2,4.9,11.2,6c3.3,1.3,8.4,2.3,15.8,0.5l65.5-12.1l63.3-13c23.6-5.9,41-10.3,46.2-11.5c5-1.2,5.9-1.3,8.1-2.3
			c2.9-1.3,4-2.6,5.8-2.1c0.6,0.1,1.1,0.5,2.1,1.3s1.7,1.2,2.1,1.9c1.3,2.1,0.6,4.7,0.5,5.3c-0.7,2.6-2.7,3.8-3.2,4.1L399,154.4z"/>
		<path class="st12" d="M429.2,144"/>
		<path class="st12" d="M437.8,141"/>
		<g id="Camada_6">
			<path class="st12" d="M206.7,72.9l-37.8,0.9l-29.1,0.3c-7.5,0.3-11.3,0.3-16.5,0.3c-6.1,0-7.8-0.3-14.7,0.5
				c-3.4,0.4-6.2,0.9-8,1.2"/>
		</g>
		<g id="Camada_3_3_">
			<path class="st26" d="M204.4,74.3c9.3-5.6,22-9.1,35.9-9.1c28.3,0,51.2,14.2,51.2,31.8s-22.9,31.8-51.2,31.8
				s-51.2-14.2-51.2-31.8c0-4.6,1.5-8.8,4.4-12.8c-12.2,0.1-22.3,0.3-29.6,0.4c-24.4,0.5-32,1.2-35.9,1.7c-9.9,1-17.2,0-25.1,3.7
				c-7,3.3-11.4,8.2-13.1,10.4c-1.4,1.9-2.5,4-2.5,4c-1.3,2.6-2,4.7-2.4,6c-3.6,12.6-7.8,47.7-9.5,58.2c-1.2,7.4,4.2,13,5.3,20
				c0,0,0.1,1,0.2,1.5c1.9,12.3,4.5,26.7,1.7,39c-0.7,3.1-3,9.6-5.5,3.8c-2.1-4.9-5.7-9-10.1-11.7c-0.7-0.4-1.4-0.8-2.1-1.2
				c-0.6-0.3-1.2-0.4-1.9-0.6c-6.2-1.8-13.1-0.1-18.7,3.2c-1.9,1.2-2,1.2-2,1.2c-1.7,1-1.9,1.3-2,1.3c-1-0.4,0.4-6.3,1.4-12.7
				c1.2-7.6,0.4-7.2,1.3-12.2c0.7-3.7,1.9-9.6,5.6-16c0,0,3.9-6.7,10.8-12.4c0.2-0.3,0.2-0.1,0.2-0.3c5.8-5,4.2-12.6,6.3-35.6
				c0.1-0.8,0.1-1.2,0.1-1.7c0.7-7.4,2.1-21.3,7.7-33c1.4-3.1,7-14.9,18.5-21.8c7.4-4.5,13.8-4.9,29.3-5.1
				c35.2-0.6,60.4-0.1,88.4-1.5c1.2,0,2.3-0.1,2.9-0.1"/>
			<ellipse class="st27" cx="240" cy="95" rx="38.6" ry="23.2"/>
		</g>
	</g>
	<g>
		<g id="Camada_4_2_">
			<path class="st30" d="M47.8,238.7c-0.6,0.9-1.2,1.9-1.7,2.8"/>
			<path class="st3" d="M204.9,222.7c-0.6,0.8-0.4,1.4-0.9,1.9c-2.6,2.3-15.2-8.3-15.2-8.3c-6-5.1-24.8-20.9-37.9-29.8
				c-5.6-3.8-16.4-10.6-32-14.2c-19.2-4.5-34.4-1.4-43.1,0.3c-2.2,0.4-9.1,1.8-9,2.9c0.1,0.9,5,1.2,7.7,1.4
				c18.5,1.6,33.4,9.9,33.2,10.3c-0.1,0.4-10.6-4.8-23.5-2.4c-5.6,1-10.3,3.2-10.1,4.3c0.3,1.6,10.6-0.8,23,3.8
				c1.8,0.7,10.4,3.9,10.1,6.7c-0.3,2.6-7.7,2.6-16.3,4.8C61,212.1,45,239.6,44,241.5c-0.3,0.5-2.2,4.3-3.1,6.2
				c-0.7,1.5-1.6,3.4-1.6,3.4c-0.6,1.4-1.2,2.6-1.6,3.6c1.1-0.3,3-0.7,5.3-1.3c53.2-13.1,80.5-19.6,111-14.7c14.3,2.3,28,7.3,28,7.3
				c1.4,0.5,2.1,0.7,2.7,1c15.7,6.3,25.3,19.7,25.8,25.4c0,0.6,0.2,2.8,1.4,5.2c0,0,0.8,1.5,2,2.8c6.3,6.7,19.4,8,25.3,2.7
				c1.1-1,1.8-2.1,1.8-2.1c1.7-2.6,1-6.9,1-6.9c-0.2-2.3,1.1-4.7,3.7-9.6c3.3-6.1,17.8-19.8,44.9-23.8c4.8-0.7,13.7-0.3,31.4,0.4
				c0,0,50.6,2,70.6,11.7c3.3,1.6,6.5,3.4,6.5,3.4c6.2,3.4,10.3,5.4,14.8,9.4c2.6,2.3,4,4,4.7,3.6c1.6-0.9-2.1-12.2-7.2-21.6
				c-3.4-6.3-10.2-18.3-23.4-25.8c-3.7-2.1-6.2-2.9-6.1-3.4c0.4-1.3,19.6-0.3,36.7,10.1c19.5,11.7,30.2,30.6,30.2,30.6
				c2.1,3.7,4.3,8.3,5.8,7.9c2.3-0.6,0.7-14.1-0.7-21.6c-2-10.1-5.8-30.4-23.4-45.4c-15.3-13-32.7-14.9-40.7-15.8
				c-14-1.6-26.3,0.7-26.3,0.7c-8,1.5-14.1,3.9-14.4,3.2c-0.5-1.3,24.2-10.7,23.4-13.5c-0.8-2.6-23.4,0.8-44.6,7.7
				c-6.8,2.2-17.2,5.7-29.9,12.6c-27.7,15-45.7,35.3-52.2,30.9c0,0-0.4-0.3-0.8-0.6c0,0-1.3-0.9-2.8-1.4c-3.5-1.1-17.9,0.6-28.3-1.7
				C211.2,221.9,206.6,220.6,204.9,222.7z"/>
		</g>
	</g>
	<g id="Camada_6_1_">
		<g id="Camada_3_2_">
			<path class="st26" d="M205,73c9.3-5.6,22-9.1,35.9-9.1c28.3,0,51.2,14.2,51.2,31.8s-22.9,31.8-51.2,31.8s-51.2-14.2-51.2-31.8
				c0-4.6,1.5-8.8,4.4-12.8c-12.2,0.1-22.3,0.3-29.6,0.4c-24.4,0.5-32,1.2-35.9,1.7c-9.9,1-17.2,0-25.1,3.7
				c-7,3.3-11.4,8.2-13.1,10.4c-1.4,1.9-2.5,4-2.5,4c-1.3,2.6-2,4.7-2.4,6c-3.6,12.6-7.8,47.7-9.5,58.2c-1.2,7.4,4.2,13,5.3,20
				c0,0,0.1,1,0.2,1.5c1.9,12.3,4.5,26.7,1.7,39c-0.7,3.1-3,9.6-5.5,3.8c-2.1-4.9-5.7-9-10.1-11.7c-0.7-0.4-1.4-0.8-2.1-1.2
				c-0.6-0.3-1.2-0.4-1.9-0.6c-6.2-1.8-13.1-0.1-18.7,3.2c-1.9,1.2-2,1.2-2,1.2c-1.7,1-1.9,1.3-2,1.3c-1-0.4,0.4-6.3,1.4-12.7
				c1.2-7.6,0.4-7.2,1.3-12.2c0.7-3.7,1.9-9.6,5.6-16c0,0,3.9-6.7,10.8-12.4c0.2-0.3,0.2-0.1,0.2-0.3c5.8-5,4.2-12.6,6.3-35.6
				c0.1-0.8,0.1-1.2,0.1-1.7c0.7-7.4,2.1-21.3,7.7-33c1.4-3.1,7-14.9,18.5-21.8c7.4-4.5,13.8-4.9,29.3-5.1
				c35.2-0.6,60.4-0.1,88.4-1.5c1.2,0,2.3-0.1,2.9-0.1"/>
			<ellipse class="st27" cx="240.7" cy="93.6" rx="38.6" ry="23.2"/>
		</g>
	</g>
	<path class="st10" d="M371.4,272.9c0.6-0.1,1.2-0.1,1.8-0.2c7,10,11.2,22.1,11.4,35.1c0.8,36.1-28.6,66-65.7,66.8
		s-67.8-27.7-68.6-63.8c-0.4-16.5,5.6-31.7,15.7-43.4c1,0.5,2.1,0.9,3.1,1.4c0,0,0.2,0.1,0.4,0.2c28.4,11.9,48.6,13.6,48.6,13.6
		c9.1,0.8,25.5,0.8,46.1-6.8L371.4,272.9z"/>
</g>
<g id="Camada_3_1_">
	
		<ellipse transform="matrix(0.9998 -2.223587e-02 2.223587e-02 0.9998 -7.3962 7.0681)" class="st31" cx="314.1" cy="336.1" rx="39.6" ry="38.5"/>
	<path class="st32" d="M284.7,343c-0.2-17,12-29.7,29.2-29.9c16.5-0.4,31,13.2,31.1,29.1c0.2,16-14.7,31.7-31.2,31
		C299.1,372.7,285.4,362.2,284.7,343z"/>
	
		<ellipse transform="matrix(0.9998 -2.223587e-02 2.223587e-02 0.9998 -7.46 3.4083)" class="st31" cx="149.5" cy="337.2" rx="39.6" ry="38.5"/>
	<path class="st32" d="M119.1,344c-0.2-17,12-29.7,29.2-29.9c16.5-0.4,31,13.2,31.1,29.1c0.2,16-14.7,31.7-31.2,31
		C133.5,373.7,119.8,363.2,119.1,344z"/>
	<path class="st33" d="M277.9,227c5-6.6,11.9-11.6,43.9-23c3.8-1.4,8.8-3.1,9.4-2.2c0.9,1.8-13.7,11-13,12.2
		c0.7,1.1,11.7-7.3,27.4-7.9c2-0.1,10.5-0.2,19.4,4.3c0.5,0.3,7,3.6,6.5,5c-0.6,1.6-9.3-1.1-23-0.7c-1,0-12.8,0.4-13,2.2
		c-0.1,1.4,7.1,2,16.6,6.5c5.9,2.8,14.2,7.9,13.6,9.5c-1.4,3.7-43-20.4-74.1-5.2c-5.9,2.9-15.6,9.2-17.3,7.2
		C273.1,233.4,277,228.2,277.9,227z"/>
	<path class="st33" d="M187.9,230.6c-8.5-8.2-19.5-17.6-32.4-25.9c-3.1-2-11.4-7.3-23-9.4c-1.6-0.3-9.5-1.7-10.1,0
		c-0.4,1.1,4.6,2.9,11.5,8.6c3.6,3,6.3,5.9,6,6.2c-0.4,0.5-4.8-4-12.5-5.8c-4.2-1-7-0.6-10.1-0.2c-1.7,0.2-3.7,0.5-3.8,1.2
		c-0.2,1,3.3,2.2,6.2,3.4c7.8,3,18.3,7.9,18,9.1c-0.2,0.7-4.3,0-7.7-0.2c-1.7-0.1-14.8-0.5-27.1,6c-2.1,1.1-4.8,2.6-4.6,3.6
		c0.4,1.7,8.5,1,13.7,0.7c5.7-0.3,23.1-1.4,37,0.7c19.3,2.9,29.8,11.6,36.2,6C186.8,233.3,187.6,231.6,187.9,230.6z"/>
	
		<ellipse transform="matrix(0.5775 -0.8164 0.8164 0.5775 -209.3374 243.3031)" class="st12" cx="130.4" cy="323.9" rx="6.3" ry="10.7"/>
	
		<ellipse transform="matrix(0.5775 -0.8164 0.8164 0.5775 -142.9162 376.2803)" class="st12" cx="292.1" cy="326.2" rx="6.3" ry="10.7"/>
</g>
<g id="Camada_2">
	<g>
		<path class="st20" d="M390.7,283.4c0.5,1,0.6,1.5,0.6,1.5c-0.1,0-1.2-1.8-3.2-5.2 M391.5,285.6c0,0,3.5,18.4-2.8,28
			c-0.4,0.5-0.7,1-0.7,1c-2.6,3.4-5.8,4.3-7.9,5.6c-2.5,1.8-3.6,4.1-5.4,8c-5,11.1-3,18.9-7.5,32.1c-1.9,5.8-4,12-9.8,17
			c-4,3.6-8.3,5.1-11.9,6.2c-24.2,7.3-50.2,2.4-50.2,2.4c-18.8-3.5-28.3-5.3-36.1-13.1c-12-12-17.7-34-18.3-36.6
			c0-0.1-0.1-0.6-0.4-1.2c-2.7-10-5-18.5-8.2-18.8c-0.7,0-1.5,0.3-3.3,1.3c-1.2,0.6-2.1,1.2-3.1,2.3c-0.1,0.1-0.1,0.1-1.3,1.7
			c-0.7,0.9-1.2,1.5-1.3,1.7c-2,2.7-9.7,25.5-9.7,25.5c-1.7,5-4.9,14.4-13.1,22.5c-3.8,3.8-7.3,6-9.2,7.1
			c-11.4,6.8-31.8,12.9-54.2,7.7c-8-1.8-35.6-8.4-42-26.8c-1.4-4.3-5.7-20.9-7.6-28.7c-0.8-3.3-2-8-5.6-10.2
			c-1.5-0.9-3.8-1.3-6.4-3.6c0,0-1.6-1.3-2.7-2.7c-3-3.8-2.7-9.8-0.7-27.1c0.5-5,1-8.8,3.6-10.1c1.7-0.8,3.8-0.2,4.4-0.1
			c7.7,2.5,26.5,1.9,64.2,0.8c0.5,0,1.5,0,2.9-0.1c3.1,0,8.3,0.2,14.9,1.1c0.1,0,0.1,0,0.2,0c12.6,1.9,20.1,2.5,27,4.3
			c0.1,0,0.5,0.2,0.8,0.2c0,0,4.7,1.2,9,3.3c6.5,3.1,9.3,7.2,17.6,11.1c3.8,1.9,5.7,2.7,8.5,3.2c0,0,9.3,1.3,21.4-5.9
			c0.7-0.4,1.4-0.8,1.4-0.8c0.7-0.4,1-0.7,2.2-1.6c0.4-0.4,0.9-0.7,1.4-0.9c15.8-10.9,33.2-13.7,33.2-13.7c2.3-0.2,4.8-0.4,7-0.7
			c41.4-3.2,60.1-3.3,68-2.2c2,0.3,4.1,0.8,8.1,1c12.1,0.9,17.5-1.6,20.9,1.7C390.4,279.5,390.7,281.4,391.5,285.6z M209.6,334.8
			c2.8-9.3,1.8-15.1,1.1-17.8c-1.3-5.2-3.8-8.9-5.6-11.1c-10.1-9.7-22.4-15.5-35.9-18.2c-4.9-0.6-11.9-1.3-20.5-1.8
			c-19.4-1.1-29.3-1.7-35.9,1.9c-9.3,5.1-15.6,15.3-16.8,24.8c-0.2,1.6,0.7,7.1,2.3,18c1.5,10.1,3.2,18.6,3.8,21.8
			c0,0.2,0.2,0.3,0.2,0.3c3.5,16.6,25,23.3,29.6,24.8c7,2.2,12.7,2.6,16.1,2.8c4.3,0.2,14.8,0.6,26-3.4
			C199.9,367,208.2,339.3,209.6,334.8z M269.9,368.7C270,368.8,269.6,368.4,269.9,368.7c0.1,0.1,0.4,0.2,0.5,0.4 M275.5,295.9
			c-9.8,4.2-13.7,7.7-15.1,9.1c-1.5,1.4-3.6,3.5-5.3,6.4c-2.5,4.5-3.6,10.5-1.4,21.8c3.2,15.8,5.5,27.2,15.7,34.7
			c10.1,7.4,25.1,8.7,32.1,9.3c0.3,0,0.8,0.1,1.1,0.1c6.3,0.5,12.9,1,20.6,0.7c5.6-0.2,10.1-0.5,15.8-2.5c3.4-1.2,8-2.8,12.4-6.9
			c4-3.7,5.7-7.6,6.8-10.2c1.5-3.3,2.1-6,2.4-7.2c3.4-13.3,9.2-31.2,8.7-46.5c0-1.2-0.1-3.1-1.2-5.4c-2.8-5.2-9.4-6.7-12.4-7.2
			c-0.2-0.1-0.6-0.4-0.8-0.5c0,0-0.4-0.2-0.9-0.3c-28.5-9.3-63.3-0.7-63.3-0.7C288.8,291.2,282.9,292.7,275.5,295.9z"/>
	</g>
	<path class="st34" d="M214.3,323.3c0.3-1.8,1.7-8.3,3.7-11.3c3.3-4.8,9.3-7,10.9-7.6"/>
	<path class="st34" d="M386.7,287c-0.1-0.9-0.4-2.1-0.7-3.2c-0.6-1.7-0.9-2.6-1.6-3.3c0.2,0.2-8.5,0.3-12,0.7
		c-4.5,0.6-4.8-0.5-14.1-1.2c-3.5-0.3-8.5-0.5-14.7-0.3l-11.9,0.2l-10.4,0.2"/>
	<path class="st34" d="M72,294.3c0.6-3.7,1.2-6.5,1.6-9.5c0.2-1.2,0.4-2.1,1.2-2.7c1.3-1.1,3.2,0.1,6.7,0.9c1.5,0.3,4.3,0.5,9.7,0.8
		c2.1,0,3.7,0.1,6.8,0.3c3.6,0.1,6.7,0.2,9.6,0.2"/>
</g>
</svg>
