<?xml version="1.0" encoding="utf-8"?>
<!-- Generator: Adobe Illustrator 23.0.1, SVG Export Plug-In . SVG Version: 6.00 Build 0)  -->
<svg version="1.1" xmlns="http://www.w3.org/2000/svg" xmlns:xlink="http://www.w3.org/1999/xlink" x="0px" y="0px"
	 viewBox="0 0 725 656" style="enable-background:new 0 0 725 656;" xml:space="preserve">
<style type="text/css">
	.st0{fill:#8592A4;stroke:#8592A4;stroke-miterlimit:10;}
	.st1{fill:#455771;}
	.st2{fill:#8592A4;}
	.st3{fill:#6A7A8B;}
	.st4{fill:#CC6540;stroke:#BF5E40;stroke-width:4;stroke-miterlimit:10;}
	.st5{fill:none;stroke:#BF5E40;stroke-width:4;stroke-miterlimit:10;}
	.st6{fill:#CC6540;}
	.st7{fill:#FFFFFF;}
	.st8{fill:none;stroke:#8E8E8E;stroke-width:3;}
	.st9{fill:none;stroke:#8E8E8E;}
	.st10{fill:#2D344A;stroke:#2D344A;}
	.st11{fill:#2D344A;stroke:#000000;}
	.st12{fill:#8592A4;stroke:#8592A4;}
	.st13{fill:#D19022;stroke:#000000;}
	.st14{fill:#FFFFFF;stroke:#000000;}
	.st15{stroke:#000000;}
	.st16{fill:#2D344A;stroke:#262C3A;}
	.st17{fill:#262C3A;stroke:#262C3A;}
	.st18{fill:#8592A4;stroke:#000000;}
	.st19{fill:#6A7A8B;stroke:#6A7A8B;}
	.st20{fill:#CC6540;stroke:#CC6540;}
	.st21{fill:#D19022;stroke:#D19022;stroke-width:0.5;}
	.st22{fill:#2D344A;stroke:#2B3244;}
	.st23{fill:#F8EEE0;stroke:#F8EEE0;}
	.st24{fill:#D19022;stroke:#D19022;}
	.st25{fill:#271F1B;stroke:#271F1B;}
	.st26{fill:#2E2F29;stroke:#2E2F29;}
	.st27{fill:#6A7A8B;stroke:#6A7A8B;stroke-miterlimit:10;}
	.st28{fill:#1F2634;stroke:#1F2634;}
	.st29{fill:#4E5355;stroke:#4E5355;}
	.st30{fill:#F1E7DA;}
	.st31{fill:#1C242F;stroke:#1C242F;}
	.st32{fill:#DBDDE5;stroke:#DBDDE5;}
	.st33{fill:#F7F7F7;stroke:#F2F3F4;}
	.st34{fill:#C95B3A;stroke:#C95B3A;stroke-miterlimit:10;}
	.st35{fill:#D6CFC9;stroke:#D6CFC9;}
	.st36{fill:none;stroke:#D6CFC9;}
	.st37{fill:#939FAD;stroke:#939FAD;}
</style>
<g id="Camada_2">
	<g id="Camada_8">
		<path class="st0" d="M404.1,487.4c-1.2,2.4-29.6,51.6-58.3,49.4c-11.2-0.9-22.9-5.8-22.9-5.8c-12.2-5.2-21.9-12.9-22.1-12.5
			c-0.1,0.2,2.2,2,8,7.1c10.5,8.9,15.1,11.8,14.8,15.1c-0.1,2.1-2.4,3.2-4.2,4.1c-5.8,3-11.5,0.5-14.6,0c-2.1-0.3-10.9-2.2-24-12.1
			c-13.2-10.1-20.8-20.9-21.4-20.1c-0.5,0.7,4.1,7.8,8.2,13.2c3.1,3.9,4.6,5.3,9,11c6.9,8.8,7.2,9.8,7,10.4
			c-0.7,5.1-15.8,8.6-27.4-0.1c-4.5-3.5-7.1-7.8-10.7-13.5c-8.4-13.8-12.3-27.9-12.2-28.1c0.2-0.1,4.3,8.5,6.2,19.6
			c0.7,4,3.3,19-0.8,21.7c-1.4,0.9-3.2,0.1-5.5-1.1c-4.9-2.4-8.1-7-9.6-9.4c-5.1-8.5-6.1-18.1-6.8-25.7c-1.1-11,0.4-15.9-1-16.7
			c-2.6-1.4-12,12.7-15.6,30c-0.7,3.7-1.8,10.5-5.9,16.7c-1.3,2-4.5,7.2-7.4,6c-0.7-0.3-1.6-1.6-3.9-9.7c-2.2-7.8-2.2-14.2-2.1-18.7
			c0-4.3,0.4-15.7,5.5-27.3c3.6-8,7.5-11.7,6.9-12.8s-7,3.1-12.8,8.7c-11.7,11.3-18.2,24.7-33,42.9c-2.2,2.7-6.1,7.4-8.5,5.7
			c-1.7-1.2-1.6-5.2-1.8-8.7c-1.1-11,3.2-19.8,5.6-24.9c3.8-7.9,7.3-10.7,6.9-11.5c-0.9-1.4-11.5,5.9-36.7,23.6
			c-8.7,6.2-16.1,11.3-19.6,7.6c-1.9-1.9-2-5.6-1.8-8.7c4.9-15.2,5.6-16.6,5.6-16.6c2.1-5.3,3.8-7.3,13.4-20.4
			c12.5-16.8,15.2-20.5,14.5-21.9c-1.4-2.7-13,5.9-14.1,3.6c-0.8-1.6,3-7.9,8-10.6c12.3-6.6,30,8.7,29.5,13.7
			c-0.2,2.5-10.6-0.4-24.8,2.1c-27.5,4.8-54.3,26.4-60.5,31.6c-5.1,4.2-14.6,12.4-18.6,8.5c-1.4-1.3-1.6-4.1-1.6-6.1
			c0,0,2.3-8.4,2.6-9.4c2.9-10.3,11.9-20.9,12.5-21.7c13.1-15.6,13.6-27.8,22.5-38.2c21.8-25.1,65.7-7.5,65.7-3.6
			c0,3.2-29.1-5.8-62.3,13.9c-32,19.1-38.1,24.8-38.1,24.8c-5.6,5.2-15.7,15.6-25,12.1c-1.1-0.3-5.8-2.1-6.6-5.9
			c-0.2-0.7,0.5-2.5,2.4-7.7c7-19.6,19.1-32,57.6-55.1c46.6-27.8,70-41.8,91.2-40.3c1.6,0.1,15.2,1.3,15.7-2.7
			c0.4-3.5-9.8-9-9.4-10.6c0.6-2.3,14.1,3.4,14.1,3.4c58.4,14.6,74.3,25.7,98.8,27.4c14.6,0.9,36.2-1.2,63.1-18L404.1,487.4z"/>
	</g>
	<g id="Camada_17">
		<path class="st1" d="M656.8-86.6c0.3-0.3,2.8-2.8,5.3-2.2"/>
		<path class="st1" d="M742.2,69.8"/>
		<path class="st1" d="M65.4,413.6c0.1,0.3-1,1.3-1.1,1.6c-2.6,2.3-8,11.9-11.3,25c-3.6,14.4-0.3,16.6-4.6,22.4
			c-1.6,2.1-4.7,4.6-10.9,9.3c-4.1,3.1-5.8,4.1-7.8,4.9c-2,0.8-5.7,2-9.7,0.5c-1.1-0.3-5.8-1.9-6.6-5.9c-0.3-1,0.2-1.8,1.3-5.4
			c2.1-6.2,1.5-5.7,2.6-8.1c1.6-4.2,3.6-7,5.4-9.8c2.1-3.1,4.1-5.5,6.3-8.1c5.1-5.5,6.7-6,15.6-13.7c1.9-1.7,11.5-10.1,17.7-12.3
			C63,413.8,65.2,413.1,65.4,413.6z"/>
		<path class="st1" d="M29.4,439.9c0.3-0.3,0.5-0.6,0.6-0.8"/>
		<path class="st1" d="M68.3,450.4c-1.4-0.2-1.8,3.9-8.4,13.2c-3.8,5.4-4.6,5.1-7.5,9.9c-2.4,3.7-3.7,7.1-6.7,13.7
			c-1.9,4.3-2.6,6.6-2.6,9.4c0.1,1.5,0.1,4.7,1.6,6.1c3.2,3.1,13-2,18.6-8.5C76.6,479.1,71.8,450.9,68.3,450.4z"/>
		<path class="st1" d="M118.6,465.3c-1.8-0.3-2,2.7-13,17.4c-3.5,4.7-4.6,6.1-6.5,9.4c-2.7,5.2-1.5,5.3-5.3,14.4
			c-0.5,1.3-1.9,4.3-1.9,8.1c-0.1,1.7,0.2,3.1,0.7,4.4c0.3,0.6,0.9,2.3,2.3,3c1.2,0.7,2.6,0.7,5.2-0.3c3.6-1.2,6.1-3.1,8.7-4.9
			c5.7-4.1,6.6-4.4,7.4-5.1C126.1,503.9,124.6,466.2,118.6,465.3z"/>
		<path class="st1" d="M149.9,490.4c-0.7-0.3-1.9,3.2-6.9,11.5c-1.9,3-2.4,3.7-3.3,6c-0.5,1.1-2,4.7-2.9,9.6
			c-0.2,1.2-0.6,4.2-0.5,7.9c0.1,2.4,0.3,1.8,0.6,5.6c0.1,1.8,0.2,2.6,0.6,3.7c0.1,0.3,1,1.9,2.6,2.2c0.5,0,1.6,0.1,4.4-2.5
			c2-1.9,2.9-3.2,4.9-5.8c3.9-4.9,4.7-4.8,5.1-6.5c0.7-3.3-2.2-5-4-8.8C145.5,503.7,151.6,490.9,149.9,490.4z"/>
		<path class="st1" d="M193.4,478.1c-1.7,1.8-4,4.6-6.2,8.4c-2.4,4.3-3.4,8.1-4.4,11.6c-0.2,1-1.7,5.9-2.4,12.6
			c-0.6,6-0.5,10.7-0.4,12.4c0.1,3.7,0.3,7.6,1.5,12.2c1,3.7,1.7,3.7,2.2,7c0.2,0.7,0.4,2.3,1.3,3.8c0.5,0.7,1.2,2,2.4,2.1
			c0.7,0.1,1.3-0.3,2.1-0.8c1.6-1.2,2.7-2,4.2-3.9c0.5-0.6,1.7-2.4,3.9-8.1c1.3-3.3,2-5.1,2.1-6.1c0.6-5.5-4.3-9.8-5.9-11.4
			C190.2,513.5,187.4,503.5,193.4,478.1z"/>
	</g>
	<g id="Camada_8_1_">
		<path class="st2" d="M433.4,303.6c26.5-17.4,37.4-36.1,42.7-49.8c8.8-22.9,5.4-42,16.5-101.2c0,0,0.5-14.6,2.8-14.2
			c1.7,0.3,2.3,11.9,5.7,13c3.8,1.2,8.5-11.7,9-13.1c7.5-19.9,30-35.2,74.7-66c37.1-25.3,53.5-31.1,74.2-29.3c5.5,0.5,7.4,0.6,8,1.1
			c3.1,2.4,2.7,7.4,2.6,8.5c-0.7,10-14.5,14.8-21.5,17.7c0,0-7.8,3.1-38.5,24.2c-31.8,21.9-35.8,52.1-38.7,50.8
			c-3.6-1.7-1.1-48.9,30.8-58.2c13.2-3.8,24.5,0.9,44.1-4.5c1-0.2,14.4-4,25-2.3c1,0.2,9.7,1.6,9.7,1.6c1.8,0.9,4.2,2.2,4.9,4
			c1.9,5.2-9.5,10.4-15.5,13.3c-7.3,3.5-38.2,18.7-54,41.7c-8.2,11.9-9.9,22.6-12.3,21.7c-4.8-1.7-11.3-24.2-0.1-32.6
			c4.6-3.4,11.9-4.2,13-2.8c1.7,2-11,9-9.2,11.3c1,1.2,5.5,0.3,26-4c15.9-3.2,18.4-3.9,24.1-3.6c0,0,1.5,0,17.4,1.9
			c2.9,1.1,6.2,2.8,7.1,5.3c1.9,4.7-5.9,9.4-15.1,14.7c-26.6,15.6-37.6,22.1-36.8,23.5c0.6,0.7,4.6-1.3,13.3-1.5
			c5.6-0.1,15.3-0.3,24.9,5.3c3.1,1.7,6.7,3.2,7.1,5.3c0.6,2.8-5.4,4.5-8.7,5.3c-22.8,5.8-37.6,6-52.8,12c-7.5,2.9-13.9,6.9-13.2,8
			c0.7,1,5.8-1,14.5-0.9c12.6,0.2,23.1,4.7,27,6.4c4.2,1.8,10,4.4,16.1,9.7c6.4,5.5,7.3,6.9,7.2,7.7c-0.1,3.1-6.2,3.8-8.6,4.2
			c-7.4,1.1-14-0.8-17.7-1.7c-17.2-4-34-1.4-33.8,1.6c0.1,1.6,5.1,2.3,14.7,7.9c6.6,3.8,14.9,8.7,20.5,16.9
			c1.6,2.4,4.4,7.2,4.5,12.7c0.1,2.6,0.1,4.5-1.4,5.5c-4.2,2.7-16.7-6-20.1-8.3c-9.3-6.4-15.3-13.7-15.2-13.8
			c0.3,0,11.4,9.4,20.5,22.9c3.7,5.6,6.5,9.8,7.8,15.4c3,14.2-6.4,26.5-11.4,25c-0.6-0.1-1.5-0.8-6.6-10.7c-3.3-6.3-4-8.4-6.2-12.8
			c-3.1-6-7.6-13.1-8.5-13c-1,0.2,5.6,11.6,9.3,27.8c3.5,16.1,1.6,24.8,1,26.9c-0.8,3-0.9,9.2-6.1,13.2c-1.6,1.3-3.5,2.9-5.4,2.1
			c-3.1-1.1-3.8-6.5-7.5-19.8c-2.2-7.4-2.8-10.2-3.1-10.2c-0.5,0,2.5,12,2.1,25.3c0,0-0.4,12.6-4.3,23.2c-10,27-66.6,32.2-69.2,32.3
			L433.4,303.6z"/>
	</g>
	<g id="Camada_17_1_">
		<path class="st1" d="M-110.2,399.1c0.6-2.5,3.9-3.8,4.3-3.9"/>
		<path class="st1" d="M0.4,538.3"/>
		<path class="st1" d="M597.5,64.9c4.6-4.7,16.2-9.9,18.6-11c10.8-4.9,11.8-6.1,19-8.5c3.2-0.9,6.3-1.8,10-2.4
			c3.3-0.5,6.6-1.1,11.1-0.8c2.7,0.1,1.9,0.3,8.5,1.1c3.7,0.5,4.6,0.4,5.4,1.1c3.2,2.5,2.7,7.4,2.6,8.5c-0.3,4.2-3,7.1-4.5,8.6
			c-1.5,1.5-3.2,2.6-7.7,5.1c-6.8,3.7-10.4,5.4-13,6c-7,1.4-7.7-2.5-22.3-5.2c-13.3-2.5-24.3-1.6-27.4-0.2c-0.3,0-1.6,0.6-1.9,0.4
			C595.5,67,597,65.3,597.5,64.9z"/>
		<path class="st1" d="M633.7,46c0.3,0,0.6-0.1,1-0.2"/>
		<path class="st1" d="M669.9,99.3c8.2-2.3,16.9-9.1,15.5-13.3c-0.7-2-3.6-3.4-4.9-4c-2.5-1.2-4.9-1.5-9.7-1.6
			c-7.2,0-10.8-0.2-15.2,0.4c-5.5,0.7-5.6,1.5-12.1,2.7c-11.1,2-15.1,0.7-15.5,2.1C627,88.9,650.6,105,669.9,99.3z"/>
		<path class="st1" d="M663.8,154.7c1-0.5,1.7-1.2,7.8-4.6c2.7-1.6,5.5-3.1,8.1-5.9c2-1.9,2.5-3.2,2.4-4.6c-0.1-1.6-1.4-2.8-1.8-3.4
			c-1-1-2.2-1.8-3.7-2.5c-3.4-1.6-6.7-1.5-8.1-1.6c-9.9-0.4-9.5-1.5-15.3-1.2c-3.8,0.3-5.5,0.7-11.3,1.9c-18,3.8-20.7,2.8-21.2,4.5
			C618.8,143.2,652.4,160.4,663.8,154.7z"/>
		<path class="st1" d="M650.6,186.5c2.7,3.3,3.1,6.6,6.3,7.3c1.7,0.3,1.9-0.4,8-1.9c3.2-0.7,4.8-1,7.3-2c3.6-1.5,3.9-2.5,4.1-3
			c0.4-1.6-0.6-3.1-0.9-3.3c-0.8-0.9-1.5-1.2-3.1-2.1c-3.3-1.9-2.7-1.8-4.8-2.9c-3.3-1.7-6.2-2.6-7.3-2.9c-4.8-1.2-8.6-1.4-9.9-1.4
			c-2.4-0.1-3.3,0-6.8,0.5c-9.7,1.1-13.3,0.7-13.3,1.5C629.9,178.1,644.1,177.9,650.6,186.5z"/>
		<path class="st1" d="M636.7,227.8c0.8,2.1,2.7,8.4,7.9,10.1c0.9,0.3,2.8,0.4,6.4,0.6c6.1,0.4,8.3,0,9-0.2c2.4-0.6,3.6-1.3,5.3-2.2
			c0.8-0.6,1.5-0.9,1.7-1.6c0.4-1.1-0.4-2.3-0.9-3.1c-1-1.5-2.3-2.4-2.9-2.8c-2.8-1.9-2.5-2.5-5.5-4.9c-3.7-3-7.1-4.8-10.4-6.5
			c-1.5-0.8-5.7-2.8-11.4-4.8c-6.4-2.1-11.4-2.8-12.4-3.1c-3.6-0.6-7.5-1.3-12.4-0.9c-4.4,0.4-7.9,1.3-10.2,2.1
			C626.4,215.9,634.3,222.6,636.7,227.8z"/>
	</g>
</g>
<g id="Camada_4_2_">
	<path class="st3" d="M477.9,278.4c-0.6,0.9-1.4,1.6-2.4,2.1c-2.4,1.3-6.3,1.8-8,0c-3.6-3.9,6.3-15,11-32c3.9-14.2,2-28,2-28
		c-0.7-6.8-2.6-17.2-1.5-17.5c0.2-0.1,0.4,0.4,2.5,2.5c0.8,0.8,1.2,1.2,1.4,1.4c1,1,3.8,4.3,5.6,8.6c1.1,2.6,1.4,4.9,1.9,10.6
		c0.6,8.2,0.9,12.3,0.6,15.9c-0.4,4.7-1.5,11.8-5,20"/>
	<path class="st3" d="M262,377c0.8-1.9,9.6,2.1,27,4c11.4,1.2,16.6,0.5,29,3c5.4,1.1,13.1,2.6,13,4c0.6-8.5-20.8,2.1-33,2
		c-11.6-0.1-17.9-0.6-25-4C267.3,383.3,261.3,378.7,262,377z"/>
</g>
<g id="Camada_1">
	<g>
		<g id="Camada_5">
			<path class="st4" d="M518,616.3c3.2-2.9,4.8-4.3,5.8-6.5c2.2-4.7-0.1-7.5,0.9-13.3c0.7-4.2,2.5-6.9,5.2-11.1
				c12.3-19.3,29-29.1,29-29.1c2.3-1.3,4.1-2.2,4.1-3.5c0-4.5-17.4-11.6-32.8-9.1c-10.9,1.8-11,6.9-34.3,23.6
				c-31.9,22.9-10.8-1-36.7,29.1c-6.9,8.2-8.3,15.6-8.6,17.5c-0.1,0.6-0.1,1.1-0.2,1.3c-0.4,3.4-0.6,10.6,3.5,17.7
				c1.8,3.2,4,7,8.1,8.2c7.2,2.2,16.2-5,16.2-5s-2.6,1-2.5,1.6c0.2,1,8,2.2,14.9-1c7.2-3.3,14.3-8.6,13.3-12.1
				c0-0.1-0.3-0.3-0.2-0.5c0.1-0.9,2.8-1.1,3.9-1.3C511.2,622.4,513.7,620.1,518,616.3z"/>
			<path class="st5" d="M504.7,623.4c-1.4,0.7-9.9-0.9-13.7-1.4c-5.7-0.7-9.1-4.8-10.1-6.1c-4.2-5.1-4.1-11-4.1-14
				c0-1.1,0.2-5.4,2.2-10.5c1-2.5,2.2-4.3,3.2-5.7"/>
			<path class="st5" d="M478.1,636.3c-2-0.1-9.4-3.1-12.1-5.7c-3.7-3.5-6.2-6.8-6.2-13.2c-0.1-4.7,0-12.5,4.9-20.1
				c1.6-2.4,3.3-4.2,4.4-5.3"/>
			<path class="st4" d="M658.8,493.7c-3.3,2.7-4.9,4.1-7.2,4.8c-4.9,1.5-7.4-1.1-13.3-0.9c-4.3,0.1-7.2,1.5-11.7,3.6
				c-20.8,9.5-32.8,24.7-32.8,24.7c-1.6,2.1-2.7,3.7-4.1,3.5c-4.4-0.7-9.1-18.8-4.5-33.7c3.3-10.5,8.3-9.9,28.1-30.7
				c27.1-28.5,0.5-10.9,33.9-32.4c9-5.8,16.6-6.1,18.6-6.1c0.6,0,1.1,0,1.3,0c3.4,0.1,10.6,0.9,17,5.9c2.9,2.3,6.4,4.9,7,9.1
				c1.2,7.5-7.2,15.3-7.2,15.3s1.4-2.4,1.9-2.2c1,0.4,1.1,8.2-3.1,14.6c-4.3,6.6-10.5,13-13.8,11.5c-0.1,0-0.3-0.3-0.5-0.2
				c-0.9,0-1.5,2.6-1.8,3.7C665.9,487.8,663.2,490.1,658.8,493.7z"/>
			<path class="st5" d="M667.8,481.5c0.9-1.3,0.5-10,0.5-13.7c0-5.7-3.5-9.7-4.6-10.8c-4.5-4.8-10.3-5.6-13.3-6
				c-1.1-0.1-5.4-0.6-10.8,0.7c-2.6,0.7-4.6,1.6-6,2.3"/>
			<path class="st5" d="M684.1,457c0.1-2-1.8-9.7-3.9-12.7c-3-4.2-5.9-7.1-12.2-7.9c-4.6-0.7-12.4-1.7-20.6,2.1
				c-2.6,1.2-4.6,2.7-5.9,3.6"/>
		</g>
		<g id="Camada_3_2_">
			
				<rect x="233.8" y="173.3" transform="matrix(0.7543 -0.6565 0.6565 0.7543 -79.4424 284.0887)" class="st2" width="212.2" height="149.8"/>
			
				<rect x="321.3" y="302.3" transform="matrix(0.7543 -0.6565 0.6565 0.7543 -131.1088 322.9441)" class="st2" width="89.2" height="68.7"/>
			
				<rect x="225" y="244.6" transform="matrix(0.7543 -0.6565 0.6565 0.7543 -140.2499 229.4575)" class="st2" width="23" height="115"/>
			
				<ellipse transform="matrix(0.7543 -0.6565 0.6565 0.7543 -152.6369 237.0167)" class="st2" cx="240.4" cy="322.4" rx="18.1" ry="31.4"/>
			
				<ellipse transform="matrix(0.7543 -0.6565 0.6565 0.7543 -103.2172 274.5557)" class="st2" cx="315.2" cy="275.2" rx="18.1" ry="31.4"/>
			
				<ellipse transform="matrix(0.7543 -0.6565 0.6565 0.7543 -142.7856 215.0089)" class="st2" cx="215.9" cy="298.3" rx="4.2" ry="14"/>
			
				<ellipse transform="matrix(0.7543 -0.6565 0.6565 0.7543 -162.2949 230.2691)" class="st2" cx="226.5" cy="332" rx="2.6" ry="5.2"/>
			<circle class="st2" cx="223.6" cy="328.4" r="2.5"/>
		</g>
		<g>
			<g>
				<path class="st6" d="M485.1,584.2c-0.3,0.4-0.5,0.7-0.7,1.2"/>
				<path class="st6" d="M656.7,467.5c0.8-0.2-1.3,11.5-0.6,11.2"/>
				<path class="st7" d="M431.4,494.3c-24-6.3-44.4-22.6-69.6-24.5c-6.4-0.5-7.1,9.5-0.7,10c24.1,2,44,18,67.2,24
					C434.4,505.3,437.7,495.8,431.4,494.3z"/>
				<path class="st7" d="M425.8,521.5c-10.6-9.2-24.8-14.6-37.4-20.3c-13-5.8-26-11.7-37.4-20.4c-5.1-3.9-10.6,4.4-5.5,8.3
					c11.1,8.5,23.7,14.5,36.5,20.2c13,5.8,27.4,11.1,38.3,20.6C425.2,534,430.6,525.7,425.8,521.5z"/>
			</g>
			<g>
				<g>
					<g>
						<path class="st8" d="M313.4,384.7c16.9-1.9,44.3-7,73.9-23.1c25.6-14,43.2-30.7,53.9-42.7"/>
						<path class="st9" d="M215,215.4c2.2-0.6,4.4-1,6.5-1.5"/>
						<path class="st10" d="M131.6,198.7l0,0.1c-3.5,1.2-7,2.3-10.5,3.7c-8.8,3.6-10,4.8-17.7-3.8c2.5-3.2,5-6.6,7.5-9.8
							c6.2-8.1,12.5-16.3,18.7-24.4l-0.1,0.2c7.4-9.3,15-18.5,22.4-27.9c6.5-8.4,12.7-17,19-25.4c12.6-16.1,25.3-32.3,37.7-48.6
							c3.5-4.6,7.6-7.6,13.2-8.9c23.9-5.3,47.7-10.7,71.5-16.1c7.4-1.8,14.8-3.5,22.2-5.3c7.8-2.7,15.6-5.5,23.5-8.1
							c28.1-9.2,33.6-10.4,39.3-12.4c0.6-0.2,2.1-1.1,4.3-1.2c2.3-0.1,6.1,0.1,6.5,3.1c0.4,2.1-2.6,6.3-3.5,8.3c-2,4.6-4.6,9-7.6,13
							c-0.1,0.1-0.2,0.1-0.2,0.1l-9.3,13.7c-4.7,6.1-9.3,12.3-14,18.5c-4.8,6.5-16.2,21.8-16.3,21.6l0.1-0.2
							c-0.1-0.2-1.8,1.7-2.1,2.1c-3.1,3.5-27.3,35.8-30.9,40.7c-11.3,15-17.6,23.2-29,27.9c-1,0.4-6.6,2.2-18,5.8
							c-11,3.5-15.5,4.9-21.1,6.3c-6.1,1.6-5.2,1.1-12.2,2.8c-12,3.1-22.9,6.4-22.9,6.6l0.2-0.1c0,0-14.5,2.4-30.2,7.3
							c-6.7,2.1-15,5.1-14.9,5.1c0,0,0.2-0.1,0.3,0c0,0-1.9,0.4-3.2,0.6c0,0-0.2,0.1-3.3,0.6c-3.2,0.6-15.5,3.5-20.8,4.6"/>
						<path class="st11" d="M202.7,122.6"/>
						<path class="st11" d="M147.5,176"/>
						<path class="st12" d="M381.3,133.8c1.2-1.5,2.5-2.9,3.7-4.4c0,0,0,0,0.1-0.1c2.4-3.3,4.8-6.7,7.2-10c0.3-0.4,0.8-0.4,1.1-0.2
							c14.3,10.3,28.5,20.8,42.9,31.1c0,0,0.1,0.1,0.1,0.2c0.9,0.9,1.6,2,2.8,2.7c15.8,10.8,30.2,22.9,40.4,39.3
							c6,10.7,6.8,22.6,8,34.4c0.9,8.9,1.4,12,1.2,14.4c-0.8,13.3-7.4,23-12.1,29.7c-20,28.2-25.3,27-43.6,51.6
							c-9.5,12.8-19.2,28.2-36.2,30.6c-0.3,0-0.5,0.1-0.7,0.1 M390.8,355.4c0.1,0.2,0.3,0.3,0.3,0.3c0.3,0.4,0.2,1-0.2,1.3
							c-2.9,1.9-5.7,3.6-8.6,5.4c0.2,0.4,0.3,1.2,0.6,1.1c5.6-2.9,10.5-7.8,15.7-11.2c5.2-5.9,16.1-11.9,23.4-18.4
							c16.4-14.8,32-28.1,45-46.1c1.3-1.8,3.2-3,4.8-4.5c0.3-0.3,0.7-0.3,1-0.1c0.3,0.2,0.8,0.5,1.2,0.7c8.4,4.6,17.6,4.5,26.7,4.2
							c11.8-0.3,17.1,3.2,21,13.6c3.4,9.1-0.3,14.6-10.2,14.8c-1.7,0-3.4,0-5.1,0.1c-0.9,0-1.2,1.3-0.3,1.7c1.9,0.6,3.8,1,5.7,1.1
							c13.9,0.3,24.2,7.4,33.5,16.7c3.2,3.2,2.4,6.3-2.1,7.4c-3.7,0.9-7.6,1.7-11.4,1.4c-6.9-0.5-13.8-1.5-20.2-2.4
							c-0.9-0.1-1.3,1-0.6,1.6c3.7,2.2,8.3,3.3,14.4,4.2c4.4,0.7,9.5,2.1,12.6,5c11.4,10.9,22.3,22.3,32.9,34.1
							c19.3,21.8,31.6,47,36.3,75.9c1,6-0.6,11.5-0.6,11.5c-1,7.1-3.2,12.8-4.6,16.6c-1.2,3.3-2,4.6-4.3,10.5
							c-1.5,3.9-2.2,5.8-2.4,6.6c-2.1,7.8,0.1,11.1-1.8,18.7c-0.8,3.2-1.9,5.5-2.9,7.6c-0.9,2-9.4,18.4-27.9,24.3
							c-3.1,1-5.6,1.5-7.1,1.6c-9.7,1.5-15.4-0.4-21.2-0.8c-9.5-0.7-10.7,3.2-31.9,9.5c-10.9,3.2-16.2,4.8-22.5,5.4
							c-24,2.1-42.6-9.5-46.7-12c-8.2-5.1-14.7-11.4-16.5-13.2c-0.9-0.9-3.4-3.3-9.1-10c-15.3-18-23-27-25.2-31.5
							c-1.3-2.6-4.5-9.6-8.1-9.4c-0.2,0.1-0.9,0-1.5,0.5c-1.8,1.6,0.6,5.1-0.4,10c-0.1,1.1-0.9,4.6-3.3,5.7c-1.5,0.7-3.3,0.1-5-0.8
							c-6.4-3.3-10.1-9.4-10.8-10.5c-4.3-7.2-12.4-23.7-11.5-32.3c0.1-1,0.6-4.6-1.2-5.8c-0.6-0.4-1.4-0.4-1.5-0.4
							c-2.4,0.2-3.1,3.9-5.2,6.8c-2.7,3.8-8.1,6.9-11.2,5.7c-3.5-1.3-4-8.1-4.2-12.3c-0.6-11.3,2.4-15.8,4.2-26.1
							c2.3-14.2,2.1-37.8-1.9-46.8c-0.1-0.3-2.3-5.2-0.5-6.8c0.7-0.6-1.4,1,0,0c0.2-0.2-7.4,1.8,0,0c0.2-0.1-4.9-1.2-4.9-1.2
							s9.1-2.8,8.8-2.9c-0.1,0-8.8,2.9-8.8,2.9c-16.6,3.8-8.4,1.2-8.4,1.2c-1.4,0.4-7.9,2.2-15.5,1.7c-1.6-0.1-5.4-0.4-14.9-4
							c-9.5-3.6-14.6-5.5-20.9-9.8c-3.4-2.4-12.1-8.3-17.4-17.1c-2.3-3.7-8-14.8-9.1-16.9c0,0,0,0-0.1-0.1c0,0-1.4-2.6-2.4-5.6
							c0,0-0.1-0.1,0-0.1c-0.2-0.5-0.3-1.1-0.3-1.4 M447.7,452.2c0.9,0.3,1.5-0.8,0.9-1.4c-10.1-8.7-14.5-20.9-19-33.1
							c-2.8-7.3-5.1-14.7-8.4-21.8c-1.2-2.6-2.8-4.9-4.7-7.5c-0.6-0.8-1.8-0.1-1.5,0.7c3.8,10.6,7.3,20.3,11,30
							c2.5,6.8,4.8,13.9,8.2,20.3C437.2,445,441.5,449.9,447.7,452.2z M489.2,483.8c-16.5-13.1-28.3-29-35.9-48.1
							c-0.4-1-1.8-0.6-1.6,0.5c3.5,19.9,19,40.9,36.6,49C489.2,485.6,490,484.4,489.2,483.8z"/>
						<path class="st12" d="M241.3,255.2c0,0-2,0.4-2.9,0.6c0,0-0.1,0.1-0.1,0c-7.7,2.2-15.4,4.4-23.1,6.6c-1.2,0.3-3.6,1.2-4.9,1.6
							c-4.6,1.4-8-0.5-10.6-4.4c-1.3-2-3.1-4-4.7-5.7c-3-3.2-6.3-6.2-9.4-9.2c-0.1-0.1-0.1-0.1-0.1-0.2c-0.4-0.3-0.8-0.6-1.2-0.9
							c-0.1-0.1-0.1-0.1-0.2-0.1c-0.9-0.6-1.9-1.1-3.1-1.8c-1.2-0.7-0.9-2.4,0.3-2.8l0.1-0.1c1.6-0.5,1.4-2.8-0.2-3
							c-4-0.5-8.6,0-10.8-5.1c-0.3-0.7,0-1.6,0.7-1.9c2.1-1.2,3.6-2.3,5.8-3.2c2.8-1.1,2.8-2.1,5.9-4c2.1-1.3,4.6-2.4,9.3-3.5
							c13.4-3.3,29.6-4.1,29.6-4.1c4.7-0.2,10.9-0.5,18.3-0.3"/>
						<path class="st13" d="M186.2,134"/>
						<path class="st13" d="M202.6,121.4"/>
						<path class="st13" d="M146.8,176.8"/>
						<path class="st14" d="M210.6,101.9"/>
						<path class="st12" d="M163.5,274.2c-7.2,0.2-14.2,5-26.7,5.2c-12,0.1-21.3-0.1-27.1-0.1c0.8-1.7,1-3.8,2.3-4.9
							c2.7-2.4,5.9-4.2,9-6.1c5.7-3.5,11.5-6.9,17.2-10.4c8.2-4,16.4-7.9,24.6-11.8c-3.4,9.3,0.7,17.6,4.2,25.8
							c-0.1,0.1-0.2,0.1-0.2,0.1c-0.1,0.3,1.1,0.9,1.1,1.3C167.9,274.2,163.5,274.2,163.5,274.2z"/>
						<path class="st15" d="M150.1,138.1"/>
						<path class="st15" d="M130.9,163.6"/>
						<path class="st15" d="M153.2,135.7"/>
						<path class="st15" d="M172.2,110.3"/>
						<path class="st15" d="M163.3,243.5"/>
						<path class="st12" d="M138.3,257.9c-5.8,3.4-11.5,6.9-17.2,10.4c-3.1,1.9-6.3,3.7-9,6.1c-1.2,1.1-1.6,3.2-2.3,4.9
							c-1.1-0.1-2.2-0.4-3.7-0.6C115.8,269.5,126.5,263,138.3,257.9z"/>
						<path class="st16" d="M339.6,88c1.7-1.9,3.3-3.7,5.8-6.3c3.1,6.2,6.2,12.1,9.2,18c-5.9,7.7-11.7,15.6-17.6,23.4
							c-0.5-0.1-0.9-0.3-1.4-0.4c-0.2-1.6-0.3-3.3-0.6-4.9c-0.8-3.4-1.5-6.8-2.3-10.2c-0.5,0-1.1,0.1-1.6,0.2
							c-1,3.7-2.1,7.3-3.2,10.9c-9.4,15.4-15.2,31.1-23.1,48.7c-0.5,2.4-1.6,4.7-2.4,7.1c-6.2,8-14.8,12.7-23,18
							c-1.6,1.2-3,2.7-4.8,3.5c-10.2,4.3-20.4,8.6-30.6,12.8c-2,0.9-4.2,1.8-6.2,2.6c-2.6,0.3-5.3,0.8-7.9,1.1
							c-2.9,0.4-5.7,0.9-8.5,1.3c-3.6-5.6-7.2-11.1-10.8-16.6l0.1,0.2c-2.5-4.4-5-8.6-7.2-13.1c-0.6-1.2-0.1-3,0-4.5l-0.2,0.1
							c7.7-2.2,15.3-4.3,22.9-6.6c4.1-0.9,8.1-1.9,12.2-2.8c7-2.1,14-4.1,21.1-6.3c6-1.9,12-3.9,18-5.8c3.1-1.5,6.8-2.3,8.9-4.6
							c10.6-11.6,20.1-23.6,30.1-35.8c7.8-12.1,15.8-20,23.1-30.2L339.6,88z"/>
						<path class="st17" d="M203.6,179.8c0,1.5-0.6,3.3,0,4.5c2.2,4.5,4.8,8.8,7.2,13.1c-2.7-4.2-5.7-8.1-8-12.5
							c-1.8-3.7-3.8-3.5-7.1-2.5c-11,3.2-22,6.2-33,9.3c-1.4,0.4-2.8,0.4-4.2,0.6c4.9-1.8,9.8-3.8,14.9-5.1
							C183.4,184.5,193.6,182.3,203.6,179.8z"/>
						<path class="st17" d="M226.2,173.4c-7.7,2.2-15.3,4.3-22.9,6.6C211.1,177.7,218.6,175.6,226.2,173.4z"/>
						<path class="st12" d="M450.9,454.1c-8.5-1.5-14-7.1-17.6-14c-3.5-6.4-5.7-13.4-8.2-20.3c-4.2-11.4-8.4-22.9-13.1-35.9
							c3.3,5,6.4,8.5,8.3,12.7c3.3,7.1,5.7,14.6,8.4,21.8C433.7,431.8,438.5,445.3,450.9,454.1z"/>
						<path class="st12" d="M493.1,488.1c-21.7-6.5-42.2-34.3-42.9-58.1C458.1,453.7,472.2,472.9,493.1,488.1z"/>
						<path class="st15" d="M341.4,276.2"/>
						<path class="st15" d="M368.2,149.1"/>
						<path class="st15" d="M368.4,273.8"/>
						<path class="st15" d="M357.4,268.4"/>
						<path class="st15" d="M441.1,253.2"/>
						<path class="st18" d="M208.8,287.9c0,0,0.2,0.6,0.7,1.7"/>
						<path class="st12" d="M225.3,329.6c0.2,0.5,2.1,4,2.1,4c-3.7-5.4-26-56-29.6-61.1c1.1-0.4,1.8-0.7,2.6-1
							c1.9,0.8,3.6,1.8,5.5,2.2c0.6,0.1,1.5-1.2,2.3-1.8c-0.8-2.1-1.6-4.2-2.3-6c1.8-0.9,3.3-1.5,4.8-2.3"/>
						<path class="st18" d="M211.3,263.6"/>
						<path class="st19" d="M237.9,211.6c2-0.9,4.1-1.8,6.1-2.7c10.2-4.3,20.4-8.5,30.6-12.8c1.8-0.7,3.2-2.3,4.8-3.5
							c1.3-0.5,2.8-0.6,3.9-1.4c5.6-3.7,10.9-7.5,16.5-11.3c0.3,1.4,0.5,2.4,0.8,3.5c-0.7,5.4-1.4,10.7-2.1,16.2
							c-0.6,0-1,0.1-1.1-0.1c-5.4-7.6-7-7.9-17.4-2.9c-2.3,1-4.4,2.2-6.6,3.4c-2.1,0.9-4.2,1.7-6.3,2.7c-8.8,4.7-8.8,4.8-3.5,12.9
							c0.2,0.2-0.7,1.2-1.2,1.7c-6.6-1.3-13.1-2.7-19.6-4.1C241.2,212.8,239.5,212.1,237.9,211.6z"/>
						<path class="st19" d="M262.4,217.2c0.4-0.6,1.3-1.5,1.2-1.7c-5.3-8-5.2-8.2,3.5-12.9c2-1.1,4.2-1.8,6.3-2.7
							c-2.7,1.6-5.4,3.1-8.1,4.7c-5.2,3.1-5.5,6.8-0.6,10.3c2.2,1.6,4.8,2.7,7.2,4.2c-0.2,0.4-0.3,0.8-0.4,1.3
							C268.5,219.4,265.4,218.3,262.4,217.2z"/>
						<path class="st19" d="M300.6,183.4c-0.2-1-0.4-2.2-0.8-3.5c-5.6,3.8-11,7.7-16.5,11.3c-1.1,0.7-2.6,1-3.9,1.4
							c8.2-5.3,16.9-10,23-18C301.8,177.5,301.2,180.5,300.6,183.4z"/>
						<path class="st19" d="M219.9,214.4c-0.1-0.2-0.3-0.4-0.3-0.7"/>
						<path class="st15" d="M229.9,212.6"/>
						<path class="st15" d="M227.6,213"/>
						<path class="st15" d="M292.4,242.2"/>
						<path class="st15" d="M276.1,242.6"/>
						<path class="st15" d="M284.4,242.4"/>
						<path class="st19" d="M327.8,118.8c1-3.7,2.1-7.3,3.2-10.9c0.5,0,1.1-0.1,1.6-0.2c0.8,3.4,1.5,6.8,2.3,10.2
							c-0.9-2.4-1.9-4.7-3-7.7C330.5,113.3,329.2,116,327.8,118.8z"/>
						<path class="st14" d="M281.6,336"/>
						<path class="st18" d="M339.2,209.5"/>
						<path class="st15" d="M388.5,264.7"/>
						<path class="st15" d="M352.4,259.5"/>
						<path class="st20" d="M395,339.3l0.3,5.5c-2.8-1.4-4.9-2.5-7.1-3.6c-12-9.5-25.7-15.1-40.1-19.7c-1.7-0.5-4.1-2.6-4-3.7
							c1.7-14.6-2-28.1-8.1-41.1c-1.6-3.2-3.2-6.4-4.8-9.8c7-1.7,11.9,2.4,17.2,5.3c2.6,1.5,5.4,2.3,8.3,3.4l0,0
							c8.5,4.5,17.7,6.6,27.4,5.6c0.6,0,1.3-0.1,2,0c10.1-0.1,10.3,0.3,7.3,9.7c-3.4,10.5-2.6,21.4-1.1,32.1
							c0.8,5.4,1.9,10.7,2.8,16C394.9,338.9,394.9,339,395,339.3z"/>
					</g>
				</g>
				<g id="Camada_4">
				</g>
				<g id="Camada_3">
				</g>
				<path class="st21" d="M205.6,107.5c3-8.4,9.3-17.5,18.1-25.2c18-15.6,39.8-19.9,48.8-9.6s1.7,31.4-16.2,47
					c-18,15.6-39.8,19.9-48.8,9.6c-2.4-2.7-3.5-6.1-3.8-10c-7.7,6.8-14,12.5-18.6,16.6c-15.2,13.8-19.7,18.3-21.9,20.8
					c-5.7,6.1-10.9,9.5-14,16c-2.7,5.8-3,11.1-3,13.3c0.1,1.9,0.5,3.7,0.5,3.7c0.5,2.2,1.1,3.9,1.6,4.9c4.2,9.4,19.4,32.4,23.8,39.5
					c3.1,5,9.3,5.3,13.6,8.8c0,0,0.6,0.5,0.9,0.8c7.5,6.2,16.5,13.2,21,22c1.1,2.2,3,7.3-1.5,5.3c-3.9-1.7-8.2-2.1-12.4-1.3
					c-0.6,0.2-1.3,0.3-1.9,0.5c-0.5,0.2-1,0.4-1.5,0.7c-4.8,2.4-8.4,7.1-10.2,12.2c-0.6,1.7-0.7,1.8-0.7,1.8
					c-0.5,1.5-0.6,1.8-0.6,1.9c-0.8,0.3-3-3.9-5.6-8.3c-3.1-5.1-3.5-4.4-5.4-7.9c-1.5-2.6-3.7-6.7-4.7-12.5c0,0-0.9-6.1,0.5-13.3
					c0-0.3,0.1-0.2,0-0.3c1.1-6.2-3.8-9.7-14.3-24.4c-0.3-0.5-0.5-0.7-0.8-1c-3.4-4.8-9.5-13.7-12-23.7c-0.7-2.6-3.2-12.6,0.6-23.1
					c2.4-6.7,6.3-10.5,16-19.2c22-19.8,38.3-33.4,55.3-49.7c0.8-0.7,1.4-1.3,1.7-1.7"/>
				
					<ellipse transform="matrix(0.7543 -0.6565 0.6565 0.7543 -7.9158 181.6509)" class="st22" cx="238.7" cy="101.4" rx="32.5" ry="18.1"/>
			</g>
			<g id="Camada_3_1_">
			</g>
			<path class="st18" d="M225.2,331.4"/>
			
				<ellipse transform="matrix(0.7543 -0.6565 0.6565 0.7543 -49.598 307.4339)" class="st23" cx="386" cy="220" rx="57.9" ry="56.2"/>
			
				<ellipse transform="matrix(0.7543 -0.6565 0.6565 0.7543 -49.765 307.7421)" class="st24" cx="386.3" cy="220.4" rx="34.1" ry="33.1"/>
			<path class="st25" d="M366.2,236.9c-9.6-11.2-8.4-26.2,2.8-35.9c10.7-9.3,27.7-8.4,36.6,2c9,10.5,7.8,29-3.6,37.7
				C392.1,248.6,377.2,249.2,366.2,236.9z"/>
			
				<ellipse transform="matrix(0.7543 -0.6565 0.6565 0.7543 -131.9839 260.4045)" class="st23" cx="281.9" cy="306.5" rx="57.9" ry="56.2"/>
			
				<ellipse transform="matrix(0.7543 -0.6565 0.6565 0.7543 -131.9992 258.9613)" class="st24" cx="280" cy="305.8" rx="34.1" ry="33.1"/>
			<path class="st25" d="M260.7,321.8c-9.6-11.2-8.4-26.2,2.8-35.9c10.7-9.3,27.7-8.4,36.6,2c9,10.5,7.8,29-3.6,37.7
				C286.5,333.4,271.7,334,260.7,321.8z"/>
		</g>
		<g>
			<path class="st26" d="M414.1,143c0.8,0.3,1.2,0.7,1.2,0.7c-0.1,0.1-1.7-0.5-5-1.6 M415.8,144.1c0,0,12.6,10.2,13.8,19.8
				c0,0.5,0.1,1.1,0.1,1.1l0,0c0.2,3.7-1.5,6.1-2.1,8.2c-0.7,2.6,0,4.7,1,8.3c2.9,10.1,8.5,14.1,13,25.1c2,4.9,4,10.1,3,16.6
				c-0.7,4.6-2.6,8-4.4,10.7c-11.8,18.2-31.6,29.6-31.6,29.6c-14.3,8.2-21.5,12.3-31,11.6c-14.5-1.1-30.5-12.4-32.4-13.7
				c-0.1-0.1-0.4-0.3-0.9-0.6c-7.3-5-13.6-9.4-15.8-7.7c-0.5,0.4-0.8,1.1-1.4,2.7c-0.4,1-0.8,2-0.8,3.2c0,0.1,0,0.1,0.1,1.8
				c0.1,1,0.1,1.6,0.1,1.8c0.2,2.9,7.9,22.2,7.9,22.2c1.7,4.2,4.8,12.2,4,22.1c-0.4,4.6-1.5,8-2.1,9.8
				c-3.7,10.9-13.7,26.2-31.2,35.3c-6.3,3.2-28,14.4-42.5,5.8c-3.3-2-15.4-10.5-21-14.5c-2.4-1.7-5.7-4.2-9.3-3.6
				c-1.5,0.3-3.2,1.2-6.2,1.3c0,0-1.7,0-3.3-0.3c-4.1-0.8-7.2-4.9-15.5-17.4c-2.4-3.6-4.2-6.4-3.2-8.6c0.7-1.5,2.4-2.2,2.9-2.5
				c6.4-2.7,18.4-13.5,42.6-35.3c0.3-0.3,1-0.9,1.9-1.6c2-1.8,5.6-4.6,10.4-7.6c0.1-0.1,0.1-0.1,0.2-0.1c9.3-5.8,14.6-9.5,20.1-12.2
				c0.1-0.1,0.4-0.2,0.7-0.3c0,0,3.7-1.8,7.7-2.9c6-1.6,10.2-0.5,17.8-2.6c3.5-1,5.3-1.4,7.3-2.7c0,0,6.8-4.3,10.8-15.8
				c0.2-0.7,0.4-1.3,0.4-1.3c0.2-0.7,0.3-1,0.6-2.2c0.1-0.5,0.2-1,0.4-1.4c4.3-15.9,14.2-27.4,14.2-27.4c1.4-1.5,2.9-2.9,4.3-4.4
				c25.4-25.2,37.6-35.7,43.4-39.4c1.5-0.9,3.2-1.8,5.9-3.8c8.4-6.1,10.6-10.8,14.7-10.5C411.7,140.8,413,141.8,415.8,144.1z
				 M323.8,277.9c-3.4-7.7-7.3-10.9-9.2-12.3c-3.8-2.7-7.5-3.7-9.8-4.2c-12.1-0.8-23.3,2.4-33.7,8.2c-3.5,2.4-8.6,5.9-14.5,10.3
				c-13.4,10.1-20.1,15.3-22.5,21.3c-3.3,8.6-1.7,18.7,2.8,25.6c0.8,1.2,4.4,4.3,11.5,10.5c6.6,5.8,12.5,10.4,14.7,12.1
				c0.1,0.2,0.3,0.2,0.3,0.2c11.6,8.9,29.4,1.3,33.3-0.3c5.8-2.4,9.7-5.4,12.1-7.2c2.9-2.3,10.1-7.9,15.1-16.7
				C335.5,304.4,325.5,281.6,323.8,277.9z M382.3,266.4C382.5,266.4,382,266.4,382.3,266.4c0.1,0,0.4,0,0.5,0 M345.4,215.6
				c-4,8.2-4.7,12.7-4.8,14.4c-0.2,1.8-0.4,4.4,0.1,7.2c0.9,4.4,3.5,8.9,11.2,15c10.9,8.6,18.8,14.8,29.7,14
				c10.8-0.7,21.3-8.3,26.3-11.9c0.2-0.2,0.6-0.4,0.7-0.5c4.4-3.2,9-6.5,13.9-11c3.6-3.2,6.3-6,8.9-10.4c1.5-2.7,3.7-6.3,4.3-11.4
				c0.5-4.6-0.5-8.2-1.2-10.5c-0.9-3-1.9-5.1-2.3-6c-5.2-10.6-11.4-25.6-20.2-35.3c-0.7-0.8-1.8-2-3.8-2.8
				c-4.8-1.8-9.9,0.8-12.1,2.2c-0.2,0.1-0.6,0.1-0.8,0.2c0,0-0.4,0-0.7,0.2c-23.9,9.9-42,34.9-42,34.9
				C351.6,205.1,348.5,209.4,345.4,215.6z"/>
		</g>
	</g>
	<g id="Camada_5_1_">
		<path class="st27" d="M357.1,168.4c-2.9-1.6-9-4.4-15.6-2.6c-6.4,1.8-10,7.4-14,12.1c-9.4,11.4-8.4,14.5-15.2,19.4
			c-4.6,3.2-6.8,3.1-9.7,6.8c-1.7,2.3-1.5,3-4.5,13.4c-2.6,8.9-3.8,11.9-2.3,15.6c0.8,1.8,1.9,3.1,2.8,3.9c1.1,1.3,2.2,2.5,3.3,3.8
			c0.8-0.3,2-0.9,3.4-1.6c2.9-1.6,5.1-3.3,7.2-5.3c3.6-3.3,6.7-6.2,9.6-10.2c0.4-0.6,0.8-1.2,1.1-1.8c1.2-2.1,1.7-3.6,2.6-5.7
			c0.6-1.6-0.3,0.8,2.3-5.4c3-7.4,3-7.7,3.9-9.8c2.2-5,4.5-8.4,7.1-12.3c2.7-3.9,4.9-6.6,7.3-9.6c2.7-3.3,5.2-6,7.1-8"/>
		<path class="st27" d="M533.7,146.8"/>
		<path class="st28" d="M265.6,183.7c7.5-1.3,14.8-3.7,22.5-10.3c0.9-0.8,3.2-3.3,8-8.4c14.1-15.2,25-28,32.1-36.5l12.9-2.6
			l14.9-14.7l2.7-3.3L352,92.7l-5.3-12.2l-25.8,32.7l-21.6,28c-6.3,6.4-8.7,9.3-9.9,10.9c-0.2,0.3-0.9,1.4-2.2,2.5
			c-1,0.9-2,1.5-3.3,2.2c-2.9,1.5-5.4,2.3-5.5,2.3c-8.1,2.4-16.1,5.6-24.3,7.7c-25.9,6.8-21.5,6-27,7.2c-8.6,2-14.6,2.7-18.7,3.5
			l-10.4,2.3l11.1,14.4L265.6,183.7z"/>
		<path class="st15" d="M199.4,181.4c-0.2,0.4-0.2,0.8-0.2,1.4"/>
		<path class="st29" d="M320.7,266.3c-0.8-1.3-3.5-6.4-3.8-9.5c-0.4-4.9,2.3-9.7,3-11"/>
		<path class="st29" d="M210.1,325.3c-1.6-2.7-2.8-4.9-4.1-7.2c-0.5-0.9-0.9-1.6-0.7-2.5c0.3-1.5,2.2-1.8,5-3.1
			c1.2-0.6,3.1-2.1,6.9-4.8c1.4-1.1,2.5-1.9,4.7-3.6c2.5-1.9,4.6-3.6,6.5-5.1"/>
		<path class="st29" d="M413.8,146.1c-0.6-0.5-1.4-1.2-2.3-1.7c-1.4-0.8-2-1.3-2.9-1.3c-2.6-0.3-4.1,3.4-7.5,7.1
			c-2.7,2.9-3.4,2.3-10,7c-2.5,1.7-5.9,4.3-9.8,7.9l-7.8,6.8l-6.8,5.9"/>
		
			<ellipse transform="matrix(0.995 -0.1003 0.1003 0.995 -29.0151 27.6274)" class="st30" cx="260.1" cy="302.2" rx="10.7" ry="6.3"/>
		<ellipse transform="matrix(0.995 -0.1003 0.1003 0.995 -19.9459 37.7245)" class="st30" cx="365" cy="217.1" rx="10.7" ry="6.3"/>
		<path class="st30" d="M382.7,26.3c-0.2,0.3-0.3,0.5-0.6,0.9"/>
		<path class="st30" d="M379.9,31c-0.6,0.9-1.1,1.8-1.7,2.6"/>
		<path class="st30" d="M374.5,39.9c-0.2,0.3-0.4,0.6-0.6,0.9"/>
		<path class="st30" d="M372.3,43.5c-0.2,0.3-0.3,0.5-0.6,0.9"/>
		<path class="st31" d="M370.2,47.1c-0.9,1.4-1.4,2.3-1.4,2.3l-22.1,31.1l-16.4,20.8c-11.1,13.5-22.2,27.2-33.3,41.1
			c-1.2,1.5-3.2,5.6-7.7,9.6c-7.6,6.7-23,10-23.5,10.1L120.1,204c-1.8,0.9-4.4,1.7-7.4,1.3c-1.8-0.3-3.3-1.1-3.9-1.5
			c-1.6-0.9-5.2-3.3-5.2-5.1s4-4.3,19.7-6.9l31.2-7.8l59.1-17.8c19.7-6.6,34.7-11.4,41.3-13.4c3.5-1.1,5.4-1.7,8.3-2.5
			c6.4-1.7,7.7-1.7,10.2-2.6c2.8-1.1,6.5-3.3,10.3-8.4l35.4-43.3l33.6-42.6c12-16.5,20.8-28.7,23.4-32.3c2.6-3.4,3.1-4,3.9-5.8
			c1.2-2.3,1.3-3.7,2.6-4.4c0.4-0.3,0.9-0.3,2-0.4c1-0.1,1.6-0.2,2.3-0.1c1.9,0.5,2.8,2.5,3,2.8c0.9,1.9,0.2,3.8,0.1,4.2L370.2,47.1
			z"/>
		<path class="st30" d="M384,24.3"/>
		<path class="st30" d="M388,17.8"/>
	</g>
	<g id="Camada_7">
		<path class="st27" d="M458.4,295.2c0.6-0.7,1.1-1.2,1.2-1.4 M464.2,288.3c0.4-0.9,0.5-0.6,6.1-7.7c1.2-1.5,1.6-2.1,2.5-2.6
			c2.5-1.4,5.3-0.3,8.1,0.3c1.2,0.3,0.3,0,13.1,0.1c15.1,0.3,7.3,0.5,12.8,0.5c1.3,0,4.7,0,8.3,1.6c0.4,0.2,0.6,0.3,0.7,0.3
			c4,2,6.3,4.9,7.3,6.5c1.1,1.4,2.8,3.8,3.7,7.3c0.9,3,2.1,7.3-0.2,10.6c-2,2.9-6.6,4.9-10.3,4.5c-0.1,0-0.8-0.2-1.7-0.3
			c-1.5-0.2-3.7-0.4-3.7-0.2c-0.1,0.3,5.7,1.4,13.3,3.4c6.5,1.8,9.7,2.6,12.6,3.9c0,0,6.9,3,14.3,11.2c0.2,0.2,0.8,0.8,1.3,1.6
			c0.8,1.4,0.9,2.8,0.9,3.5c0,0.1,0,2.4-1.1,4.1c-0.7,1.2-2.3,2.5-8.2,3c-5,0.4-6.8-0.3-13.6-0.7c-6.4-0.3-9.7,0.2-9.6,0.3
			c0,0,0.4,0,0.9,0c2.3,0,3.7,0.5,5.8,0.9c2.4,0.4,2.1,0.3,4,0.6c1.6,0.3,3.4,0.7,5.4,1.7c1.3,0.6,2.2,1.1,3.3,1.9
			c0,0,1.4,0.8,2.6,1.7c16,11.2,32.1,33.5,32.1,33.5c7.8,9,13.7,18.7,17.3,24.7c3.7,6.3,5.7,13.3,9.5,27.2
			c2.8,10.1,4.4,15.5,4.8,23.1c0.5,5.7,1,14.8-2.4,25.7c-3.1,9.7-7.2,15.2-7.2,15.2c-1,1.9-2.1,4-2.8,7c-1.1,4.5-0.4,7.4-0.4,10.5
			c0.2,9.2-5.2,16.7-7.5,19.9c-4.3,6-9.3,9.3-11.6,10.7c-6.3,4-11.9,5.5-13.7,5.9c-8.1,1.9-15.5,1-18.1,0.8c-4-0.5-5.9-1.1-9.5-0.7
			c-3.4,0.4-5.3,1.5-9.7,3.4c-4.2,1.8-8.4,3.2-12.5,4.8c-9.2,3.6-22.5,8.9-38,7.8c-5.9-0.4-11-1.7-12.9-2.2
			c-5.9-1.6-10.2-3.5-14.2-5.3c-3.9-1.8-6.8-3.4-12.3-6.5c-3.6-1.9-7.8-4.4-9.8-5.6c-16.7-10.4-22.7-26.8-31.7-33.2
			c-1-0.7-4.9-3.4-7.8-8.3c-0.4-0.6-0.4-0.7-0.8-1.3c-1.5-2.6-3.8-5.9-8.1-9.3c-0.2,0.1-0.9,0-1.5,0.5c-1.8,1.6,0.5,5.1-0.6,10
			c-0.1,1.1-1,4.7-3.4,5.7c-1.5,0.7-3.3,0.1-5-0.8c-6.3-3.3-9.9-9.3-10.6-10.4c-4.3-7.2-12.1-23.5-11.1-32.1c0.1-1,0.7-4.7-1-5.7
			c-0.6-0.4-1.4-0.4-1.5-0.4c-2.4,0.2-3.2,4-5.4,6.9c-2.8,3.9-8.2,7-11.3,5.9c-3.5-1.3-3.9-8-4-12.3c-0.4-11.3,2.7-15.8,4.7-26.2
			c0-0.1,0,0,0,0c4-14.7-5.6-33.4-0.3-41.8c4.2-6.6,14.2-1.2,33.5-6c11.8-2.9,19.4-7.6,31.3-15.2c21.4-13.5,18.1-17.9,44.5-38.7
			c16.8-13.3,33.6-23.8,31.6-33.9C465.1,296.8,462.2,292.7,464.2,288.3z M450.6,446.7c0.9,0.3,1.5-0.8,0.9-1.4
			c-10-8.6-14.2-20.8-18.6-32.8c-2.7-7.2-4.9-14.7-8.1-21.7c-1.2-2.6-2.7-4.8-4.6-7.4c-0.6-0.8-1.8-0.1-1.5,0.7
			c3.7,10.6,7.1,20.2,10.6,29.9c2.4,6.8,4.6,13.8,8,20.2C440.1,439.6,444.3,444.4,450.6,446.7z M491.9,477.7
			c-16.4-12.9-28-28.7-35.3-47.6c-0.4-1-1.8-0.6-1.6,0.5c3.2,19.9,18.5,40.6,36,48.6C491.9,479.5,492.7,478.3,491.9,477.7z"/>
		<path class="st27" d="M175.5,422.2"/>
		<path class="st27" d="M376.7,514.8c-0.4-0.6-0.4-0.7-0.8-1.3c-1.5-2.6-3.8-5.9-8.1-9.3c-0.2,0.1-0.9,0-1.5,0.5
			c-1.8,1.6,0.5,5.1-0.6,10c-0.1,1.1-1,4.7-3.4,5.7c-1.5,0.7-3.3,0.1-5-0.8c-6.3-3.3-9.9-9.3-10.6-10.4
			c-4.3-7.2-12.1-23.5-11.1-32.1c0.1-1,0.7-4.7-1-5.7c-0.6-0.4-1.4-0.4-1.5-0.4c-2.4,0.2-3.2,4-5.4,6.9c-2.8,3.9-8.2,7-11.3,5.9
			c-3.5-1.3-3.9-8-4-12.3c-0.4-11.3,2.7-15.8,4.7-26.2c0,0,4.4-13.9-1-46.4c-0.7-4-2.1-7.3-2.3-7.5c-0.4-0.9-1.2-1.4-1.1-2
			c0.4-0.9,2.8-0.1,6.6-0.6c1.5-0.3,1.2-0.3,5.9-1.6c3.6-1,3.7-0.9,6.7-1.7c1.8-0.5,3.3-1,6.2-2c2.7-0.9,4.9-1.6,6-2
			c0,0,3.7-1.2,6.8-2.4C364.1,374.3,378,366,378,366c7-4.1,13.7-9.3,27.2-19.5c0,0,16.2-12.4,25.8-22.6c0,0,0.3-0.3,0.5-0.6
			c0,0,0.7-0.7,1.4-1.3c0.8-0.9,1.4-1.2,2.2-2c0,0,0.6-0.5,2.5-2.3c9.4-8.8,14-14.3,14-14.3c6.5-7.9,9.7-11.8,10.5-13
			c0.3-0.5,1-1.8,2.5-2.6c2.5-1.4,5.3-0.3,8.1,0.3c1.2,0.3,0.3,0,13.1,0.1c15.1,0.3,7.3,0.5,12.8,0.5c1.3,0,4.7,0,8.3,1.6
			c0.4,0.2,0.6,0.3,0.7,0.3c4,2,6.3,4.9,7.3,6.5c1.1,1.4,2.8,3.8,3.7,7.3c0.9,3,2.1,7.3-0.2,10.6c-2,2.9-6.6,4.9-10.3,4.5
			c-0.1,0-0.8-0.2-1.7-0.3c-1.5-0.2-3.7-0.4-3.7-0.2c-0.1,0.3,5.7,1.4,13.3,3.4c6.5,1.8,9.7,2.6,12.6,3.9c0,0,6.9,3,14.3,11.2
			c0.2,0.2,0.8,0.8,1.3,1.6c0.8,1.4,0.9,2.8,0.9,3.5c0,0.1,0,2.4-1.1,4.1c-0.7,1.2-2.3,2.5-8.2,3c-5,0.4-6.8-0.3-13.6-0.7
			c-6.4-0.3-9.7,0.2-9.6,0.3c0,0,0.4,0,0.9,0c2.3,0,3.7,0.5,5.8,0.9c2.4,0.4,2.1,0.3,4,0.6c1.6,0.3,3.4,0.7,5.4,1.7
			c1.3,0.6,2.2,1.1,3.3,1.9c0,0,1.4,0.8,2.6,1.7c16,11.2,32.1,33.5,32.1,33.5c7.8,9,13.7,18.7,17.3,24.7c3.7,6.3,5.7,13.3,9.5,27.2
			c2.8,10.1,4.4,15.5,4.8,23.1c0.5,5.7,1,14.8-2.4,25.7c-3.1,9.7-7.2,15.2-7.2,15.2c-1,1.9-2.1,4-2.8,7c-1.1,4.5-0.4,7.4-0.4,10.5
			c0.2,9.2-5.2,16.7-7.5,19.9c-4.3,6-9.3,9.3-11.6,10.7c-6.3,4-11.9,5.5-13.7,5.9c-8.1,1.9-15.5,1-18.1,0.8c-4-0.5-5.9-1.1-9.5-0.7
			c-3.4,0.4-5.3,1.5-9.7,3.4c-4.2,1.8-8.4,3.2-12.5,4.8c-9.2,3.6-22.5,8.9-38,7.8c-5.9-0.4-11-1.7-12.9-2.2
			c-5.9-1.6-10.2-3.5-14.2-5.3c-3.9-1.8-6.8-3.4-12.3-6.5c-3.6-1.9-7.8-4.4-9.8-5.6c-16.7-10.4-22.7-26.8-31.7-33.2
			C383.5,522.3,379.6,519.7,376.7,514.8z M442.5,456.5c0.9,0.3,1.5-0.8,0.9-1.4c-10-8.6-14.2-20.8-18.6-32.8
			c-2.7-7.2-4.9-14.7-8.1-21.7c-1.2-2.6-2.7-4.8-4.6-7.4c-0.6-0.8-1.8-0.1-1.5,0.7c3.7,10.6,7.1,20.2,10.6,29.9
			c2.4,6.8,4.6,13.8,8,20.2C432.1,449.4,436.3,454.2,442.5,456.5z M483.8,487.5c-16.4-12.9-28-28.7-35.3-47.6
			c-0.4-1-1.8-0.6-1.6,0.5c3.2,19.9,18.5,40.6,36,48.6C483.8,489.3,484.6,488.1,483.8,487.5z"/>
	</g>
	<g>
		<path class="st32" d="M381.4,512c-0.4-0.6-0.4-0.7-0.8-1.3c-1.5-2.6-3.8-5.9-8.1-9.3c-0.2,0.1-0.9,0-1.5,0.5
			c-1.8,1.6,0.5,5.1-0.6,10c-0.1,1.1-1,4.7-3.4,5.7c-1.5,0.7-3.3,0.1-5-0.8c-6.3-3.3-9.9-9.3-10.6-10.4
			c-4.3-7.2-12.1-23.5-11.1-32.1c0.1-1,0.7-4.7-1-5.7c-0.6-0.4-1.4-0.4-1.5-0.4c-2.4,0.2-3.2,4-5.4,6.9c-2.8,3.9-8.2,7-11.3,5.9
			c-3.5-1.3-3.9-8-4-12.3c-0.4-11.3,2.7-15.8,4.7-26.2c0,0,4.4-13.9-1-46.4c-0.7-4-2.1-7.3-2.3-7.5c-0.4-0.9-1.2-1.4-1.1-2
			c0.4-0.9,2.8-0.1,6.6-0.6c1.5-0.3,1.2-0.3,5.9-1.6c3.6-1,3.7-0.9,6.7-1.7c1.8-0.5,3.3-1,6.2-2c2.7-0.9,4.9-1.6,6-2
			c0,0,3.7-1.2,6.8-2.4c13.2-4.9,27.1-13.1,27.1-13.1c7-4.1,13.7-9.3,27.2-19.5c0,0,16.2-12.4,25.8-22.6c0,0,0.3-0.3,0.5-0.6
			c0,0,0.7-0.7,1.4-1.3c0.8-0.9,1.4-1.2,2.2-2c0,0,0.6-0.5,2.5-2.3c9.4-8.8,14-14.3,14-14.3c6.5-7.9,9.7-11.8,10.5-13
			c0.3-0.5,1-1.8,2.5-2.6c2.5-1.4,5.3-0.3,8.1,0.3c1.2,0.3,0.3,0,13.1,0.1c15.1,0.3,7.3,0.5,12.8,0.5c1.3,0,4.7,0,8.3,1.6
			c0.4,0.2,0.6,0.3,0.7,0.3c4,2,6.3,4.9,7.3,6.5c1.1,1.4,2.8,3.8,3.7,7.3c0.9,3,2.1,7.3-0.2,10.6c-2,2.9-6.6,4.9-10.3,4.5
			c-0.1,0-0.8-0.2-1.7-0.3c-1.5-0.2-3.7-0.4-3.7-0.2c-0.1,0.3,5.7,1.4,13.3,3.4c6.5,1.8,9.7,2.6,12.6,3.9c0,0,6.9,3,14.3,11.2
			c0.2,0.2,0.8,0.8,1.3,1.6c0.8,1.4,0.9,2.8,0.9,3.5c0,0.1,0,2.4-1.1,4.1c-0.7,1.2-2.3,2.5-8.2,3c-5,0.4-6.8-0.3-13.6-0.7
			c-6.4-0.3-9.7,0.2-9.6,0.3c0,0,0.4,0,0.9,0c2.3,0,3.7,0.5,5.8,0.9c2.4,0.4,2.1,0.3,4,0.6c1.6,0.3,3.4,0.7,5.4,1.7
			c1.3,0.6,2.2,1.1,3.3,1.9c0,0,1.4,0.8,2.6,1.7c16,11.2,32.1,33.5,32.1,33.5c7.8,9,13.7,18.7,17.3,24.7c3.7,6.3,5.7,13.3,9.5,27.2
			c2.8,10.1,4.4,15.5,4.8,23.1c0.5,5.7,1,14.8-2.4,25.7c-3.1,9.7-7.2,15.2-7.2,15.2c-1,1.9-2.1,4-2.8,7c-1.1,4.5-0.4,7.4-0.4,10.5
			c0.2,9.2-5.2,16.7-7.5,19.9c-4.3,6-9.3,9.3-11.6,10.7c-6.3,4-11.9,5.5-13.7,5.9c-8.1,1.9-15.5,1-18.1,0.8c-4-0.5-5.9-1.1-9.5-0.7
			c-3.4,0.4-5.3,1.5-9.7,3.4c-4.2,1.8-8.4,3.2-12.5,4.8c-9.2,3.6-22.5,8.9-38,7.8c-5.9-0.4-11-1.7-12.9-2.2
			c-5.9-1.6-10.2-3.5-14.2-5.3c-3.9-1.8-6.8-3.4-12.3-6.5c-3.6-1.9-7.8-4.4-9.8-5.6c-16.7-10.4-22.7-26.8-31.7-33.2
			C388.1,519.6,384.2,517,381.4,512z M447.2,453.7c0.9,0.3,1.5-0.8,0.9-1.4c-10-8.6-14.2-20.8-18.6-32.8c-2.7-7.2-4.9-14.7-8.1-21.7
			c-1.2-2.6-2.7-4.8-4.6-7.4c-0.6-0.8-1.8-0.1-1.5,0.7c3.7,10.6,7.1,20.2,10.6,29.9c2.4,6.8,4.6,13.8,8,20.2
			C436.7,446.7,440.9,451.5,447.2,453.7z M488.5,484.7c-16.4-12.9-28-28.7-35.3-47.6c-0.4-1-1.8-0.6-1.6,0.5
			c3.2,19.9,18.5,40.6,36,48.6C488.5,486.6,489.3,485.4,488.5,484.7z"/>
		<path class="st33" d="M593.9,503"/>
		<path class="st34" d="M331.1,266.8c-0.2,0.3,0.2,1,10.9,6.8c10.4,5.7,15.6,8.5,19.4,9.9c9,3.2,12.2,2.3,15.6,6.2
			c1.2,1.4,1.8,2.7,3.8,10.1c2.4,9,2.8,12.7,4.7,20.7c1.7,7.5,3.1,11.6,5.1,16c0.5,1,3.9,8.6,4.9,8.2c0.8-0.3-0.1-4.4-1.9-15.1
			c-1.5-9.3-2.2-14-2.4-18.9c-0.2-7.2-0.4-12,1.3-16.4c0.3-0.8,1.4-3.3,2-6.9c0.5-2.7,0.8-4.1,0.5-4.8c-1.3-2.2-5.5-1.3-13.3-1.4
			c-3.4-0.1-8.5-0.2-14.1-1.5c-5.2-1.2-9.1-3.1-13.5-5.3c-6.1-2.9-6.7-4-11.3-5.7C337.5,266.9,331.5,265.8,331.1,266.8z"/>
		<path class="st27" d="M215.9,272.4c0.3-0.1,0.7-0.3,1.1-0.4c0.1-0.1,0.1,0,0.2-0.1"/>
		<path class="st27" d="M206.8,271.5c-0.3-0.2-0.6-0.4-0.6-0.4c-1.3-1.2-5.8-1.6-5.8-1.6c-2.2-0.4-6.1-0.9-6.6,0.3
			c-0.2,0.5,0.3,1.1,1.5,2.4c2.9,3.3,4.3,4.8,5.3,5.5c1.5,0.8,3,0.6,5-0.4l29-10.1c2.4-0.2,5.3-0.6,8.2-2.6c1.3-0.8,1.1-1.1,3.5-3
			c3.1-2.6,5.7-4.2,7.4-5.1c0.9-0.5,3.3-1.9,6.7-3.3c3.8-1.6,6.8-2.4,9.2-3c2.6-0.7,2.2-0.4,6.8-1.4c2.9-0.7,6.3-1.4,10.8-2.7
			c0.7-0.2,2.8-0.9,5.7-1.8c4.1-1.4,9.5-3.1,9.4-3.5c-0.2-0.5-10.6,1.8-18,3.5c-12,2.9-14.2,3.8-26.7,7.1
			c-17.8,4.5-15.5,2.9-23.3,5.5c-4.9,1.6-11.8,4.2-22.3,6.5l-3.9,0.9c0.2,0.2,0.4,0.6,0.6,1.1c0.1,0.3,0.2,0.6,0.3,1.5
			c0.1,1.2,0.2,1.7,0.2,2.2c0.1,1,0.1,1.3,0,1.6c-0.1,0.3-0.3,1-0.7,1.2C207.6,272,207.2,271.8,206.8,271.5z"/>
		<path class="st27" d="M210.4,274.9c0.2-0.1,0.4-0.2,0.4-0.3"/>
		<path class="st27" d="M212.5,273.9c0.4-0.2,0.7-0.4,1.2-0.5"/>
		<path class="st27" d="M402,140.2L402,140.2c-0.2-0.1-0.5-0.3-0.9-0.6c-0.6-0.3-1.6-0.9-2.4-1c-1.2-0.1-2.1,0.6-3,1
			c-2.6,1.2-4.1,3.2-4.5,3.7c-1.8,2.1-9.3,8.8-26.4,23c-0.6,0.2-1.4,0.7-2.4,1.2c-1.6,0.9-6.4,3.3-12,7.9c-1.6,1.2-3.6,3-5.8,5.3
			l12.8-16.8l22.4-28l13-18c10.6,8.2,19.3,14.7,25.3,19.1c7.7,5.8,14.8,11,25.7,19.3c6.7,5.1,11.8,9.2,18.1,14.6
			c0,0,0.1,0.1,0.1,0.1c0,0-20.8-10.2-42.5-26.5c-4.1-3.1-7.3-5.7-9-7.1"/>
	</g>
	<g id="Camada_6">
		<path class="st30" d="M206.4,105.4l-23.5,21.4L164.6,143c-4.6,4.3-7,6.4-10.4,9.3c-3.8,3.3-5.1,4.2-9.1,8.4
			c-2,2.1-3.5,3.9-4.5,5.1"/>
		<path class="st35" d="M294.5,250.6c-1.7-0.3-3.9-0.6-6.3-0.9c-3.4-0.2-9.3-0.5-16.4,1.1c-3.8,0.8-11.5,2.8-19.8,8.1
			c-3.4,2.2-6.1,4.4-8.2,6.4"/>
		<path class="st35" d="M243,266.1"/>
		<path class="st35" d="M363.7,168.2c-2.5,1.1-5.5,2.7-8.6,4.8c-3.5,2.4-6.1,4.6-7.4,5.9c-0.9,0.8-4.7,4.5-8.6,10.2
			c-2.5,3.7-4,6.5-4.3,7.2c-1.2,2.5-2.1,4.7-2.7,6.5"/>
	</g>
	<g id="Camada_4_1_">
		<path class="st12" d="M240.7,255.6l59.1-13.7c1.7-0.4,3.5-1.2,4.4-1.7c4.3-2.3,8.7-7.7,11.6-14.4c0-0.1,0.2-0.3,0.2-0.4
			c0-0.1,0.1-0.2,0.1-0.2c10.2-24.9,65.9-91.8,65.9-91.8c1.6-1.9,2.6-3.3,2.6-3.3c0.8-1.1,1.2-1.7,2.4-3.4c0.6-0.8,0.9-1.1,1.5-2
			c2.2-3,3.2-4.4,3.8-5.3c1.3-2.2,1.6-4.1,1.8-5c2.4-9.6,14.4-30.7,11.4-32.9c-0.6-0.4-1.5,0.1-8.9,5.1c-8.1,5.5-14.1,9.7-14.4,9.4
			c-0.1-0.1,0.2-0.3,3.4-4c0.3-0.4,0.6-0.7,1-1.1c0,0,1.4-1.6,2.4-2.9c3.5-4.4,5.2-17.4,5.2-17.4c1.1-8.4,1.7-14.1-0.3-18
			c-0.7-1.4-1.9-2.9-3.3-6.2c-0.7-1.8-1.3-3.5-1.8-3.4c-0.4,0-0.3,0.8-1,2.7c0,0,0,0-0.8,2.1c-1.5,4.1-21.7,34.3-25.7,41.7
			c-0.2,0.5-1.8,3.4-4.1,7c-1,1.6-1.7,2.6-2.2,3.4c-0.9,1.3-1.9,2.8-3.4,4.7c-1.7,2.1-2.1,2.2-3.1,3.6c-1.2,1.5-2.3,3.3-2.3,3.3
			s-7.8,12-8.8,11.7c0,0,0,0-0.1,0c-0.3-0.1-0.5-0.1-0.6-0.2c-0.5-0.1-0.7-0.2-0.7-0.2c-0.5-0.2-0.3-1.4-0.3-2.4c0,0,0-0.9-0.3-2.4
			c-0.3-1.4-0.7-1.8-1.4-3.6c-1.1-2.8-1.1-4-1.6-4.2c-0.6,0-0.9,1.6-2.2,4.5c0,0-0.7,1.4-2,4.1c-2.4,5-17.5,35-23.1,48.7
			c-0.5,1.4-1.5,3.8-2.4,7.1c-1.1,4-1.6,7.2-1.8,8.9c-1.3,9.5,0,15.5-2.1,16.2c-0.3,0.1-0.6,0-1.1-0.1c-3.6-0.9-3.7-4.7-6.3-6
			c-2-1.1-5,0.4-11.1,3.1c-1,0.5-0.4,0.2-6.6,3.4c-4.3,2.2-6,3-8.1,4.7c-2.5,1.9-4.1,3.3-4.1,5c-0.1,2.3,2.4,4.3,3.6,5.2
			c2.9,2.3,7.5,3.8,7.3,4.3c0,0-0.1,0.1-0.2,0.5c-0.1,0.1,0,0.1-0.1,0.2c-0.2,0.3-0.2,0.5-0.2,0.5c-0.3,0.4-3.9-1.3-4.5-1.5
			c-0.2-0.1-1.6-0.6-4.6-1.6c-8.4-2.9-13.6-0.7-19.6-4.1c-1-0.5-2.6-1.6-5-1.6c-1.3,0-1.3,0.3-4,0.6c0,0-3,0.2-4,0.6
			c0,0-0.1,0-0.3,0.1c-0.1,0-0.2,0.1-0.4,0"/>
	</g>
	<g id="Camada_3_3_">
		<path class="st21" d="M205.6,107.5c3-8.4,9.3-17.5,18.1-25.2c18-15.6,39.8-19.9,48.8-9.6s1.7,31.4-16.2,47
			c-18,15.6-39.8,19.9-48.8,9.6c-2.4-2.7-3.5-6.1-3.8-10c-7.7,6.8-14,12.5-18.6,16.6c-15.2,13.8-19.7,18.3-21.9,20.8
			c-5.7,6.1-10.9,9.5-14,16c-2.7,5.8-3,11.1-3,13.3c0.1,1.9,0.5,3.7,0.5,3.7c0.5,2.2,1.1,3.9,1.6,4.9c4.2,9.4,19.4,32.4,23.8,39.5
			c3.1,5,9.3,5.3,13.6,8.8c0,0,0.6,0.5,0.9,0.8c7.5,6.2,16.5,13.2,21,22c1.1,2.2,3,7.3-1.5,5.3c-3.9-1.7-8.2-2.1-12.4-1.3
			c-0.6,0.2-1.3,0.3-1.9,0.5c-0.5,0.2-1,0.4-1.5,0.7c-4.8,2.4-8.4,7.1-10.2,12.2c-0.6,1.7-0.7,1.8-0.7,1.8c-0.5,1.5-0.6,1.8-0.6,1.9
			c-0.8,0.3-3-3.9-5.6-8.3c-3.1-5.1-3.5-4.4-5.4-7.9c-1.5-2.6-3.7-6.7-4.7-12.5c0,0-0.9-6.1,0.5-13.3c0-0.3,0.1-0.2,0-0.3
			c1.1-6.2-3.8-9.7-14.3-24.4c-0.3-0.5-0.5-0.7-0.8-1c-3.4-4.8-9.5-13.7-12-23.7c-0.7-2.6-3.2-12.6,0.6-23.1
			c2.4-6.7,6.3-10.5,16-19.2c22-19.8,38.3-33.4,55.3-49.7c0.8-0.7,1.4-1.3,1.7-1.7"/>
		
			<ellipse transform="matrix(0.7543 -0.6565 0.6565 0.7543 -6.9655 181.3685)" class="st22" cx="238.8" cy="100" rx="32.5" ry="18.1"/>
		<path class="st36" d="M170.2,230.1c-0.2,0.1-0.3,0-0.3-0.1c-0.4-0.6,5-4.3,8.2-6.4c2.3-1.5,2.8-1.8,3.3-1.9
			c0.6-0.2,1.7-0.7,3.2-1.5c0.2-0.1,0.4-0.2,0.4-0.2c3.5-2,9.8-3.1,9.8-3.1c3.7-0.7,3.1-0.4,7.1-1.1c0.4,0,7-1.1,11.2-1.7
			c1.3-0.2,2.3-0.3,3.6-0.2c1,0.1,1.4,0.1,2.5,0.1c1.3-0.1,2.3-0.1,3-0.2c5.1-0.6,7.7-1,8.5-1.2c1.3-0.3,2.9-0.8,5.2-1
			c0.4,0,0.6,0,1.1-0.1c2.3,0.1,3.3,0.7,7,1.8c1.2,0.3,1.7,0.5,2,0.5c1.3,0.2,2.1,0.3,3.2,0.4c0.9,0.1,1.8,0.3,3.6,0.6
			c6.3,1.1,12.4,3,12.4,3c2.8,0.8,4.9,1.5,6.8,2.3c0.3,0.2,0.6,0.2,0.7,0.3"/>
		<path class="st36" d="M300,198.4c0.1-3.3,0.2-6.6,0.6-10.1c0.4-4.7,0.8-9.2,1.8-13.6c1.2-5,2.7-8.6,5.6-14.7
			c6.1-13,6.7-13,11.7-23.4c3.2-6.8,4.9-10.9,11.3-24.3c0.4-0.9,0.8-1.6,1.1-2.1"/>
	</g>
	<path class="st37" d="M321.6,187.6c-3.4-1.8,1.8-18.1,5.1-28.6c0.5-1.6,3.5-11.2,5.1-10.8c1.4,0.2,0.1,7.5,1.9,7.9
		c3.7,1.3,16.5-32,19.2-31c1.2,0.4,0.3,7.3-1.5,13.1c-2.5,7.5-6,11.3-5.4,11.7c1,0.8,13.2-11.6,23.8-24.2c2.2-2.6,3.7-4.4,3.9-4.3
		c0.5,0.3-10.2,16.7-20.9,31.2C338.6,171.7,325.6,189.6,321.6,187.6z"/>
	<path class="st37" d="M254.4,227c-5.5-3.1-10.8-2.9-20.6-2.5c-4,0.1-9.1,0.5-9.3,1.8c-0.3,1.7,9,3.2,8.9,5
		c-0.1,1.7-7.7,2.2-23.8,4.8c-10.3,1.7-10.7,2-10.7,2.3c-0.2,2.3,19.8,7.5,40.5,4.2c2.4-0.4,21-3.3,21.4-9.1
		C261,230.7,256.7,228.3,254.4,227z"/>
</g>
<g id="Camada_3_4_">
</g>
</svg>
