<?xml version="1.0" encoding="utf-8"?>
<!-- Generator: Adobe Illustrator 23.0.1, SVG Export Plug-In . SVG Version: 6.00 Build 0)  -->
<svg version="1.1" xmlns="http://www.w3.org/2000/svg" xmlns:xlink="http://www.w3.org/1999/xlink" x="0px" y="0px"
	 viewBox="0 0 612 379.1" style="enable-background:new 0 0 612 379.1;" xml:space="preserve">
<style type="text/css">
	.st0{fill:#CC6540;stroke:#BF5E40;stroke-width:3;stroke-miterlimit:10;}
	.st1{fill:#8592A4;stroke:#8592A4;stroke-miterlimit:10;}
	.st2{fill:#6A7A8B;stroke:#6A7A8B;stroke-miterlimit:10;}
	.st3{fill:#DBDDE5;stroke:#DBDDE5;stroke-miterlimit:10;}
	.st4{opacity:0.47;fill:#B5B6BC;stroke:#B5B6BC;stroke-width:3;stroke-miterlimit:10;}
	.st5{display:none;}
	.st6{display:inline;fill:#6A7A8B;stroke:#6A7A8B;stroke-miterlimit:10;}
	.st7{fill:#8592A4;stroke:#8592A4;}
	.st8{fill:#CC6540;}
	.st9{fill:#F8EEE0;stroke:#F8EEE0;}
	.st10{fill:#D19022;stroke:#D19022;}
	.st11{fill:#271F1B;stroke:#271F1B;}
	.st12{fill:#F1E7DA;}
	.st13{fill:#2E2F29;stroke:#2E2F29;}
	.st14{fill:#4E5355;stroke:#4E5355;}
	.st15{fill:#4E5355;stroke:#4E5355;stroke-width:0.75;}
	.st16{fill:#C95B3A;}
	.st17{fill:#6A7A8B;}
	.st18{fill:#455771;}
	.st19{fill:#939FAD;stroke:#939FAD;}
</style>
<g id="Camada_1">
	<path class="st0" d="M509.9,276c-1-8.5-1.1-15.6-1-20.9c0.2-9.8,1.2-12.9,3.6-14.6c2.4-1.7,6.2-2,8.6-0.4c2.9,2,3.1,6.3,3.3,7.8
		c1.1,13,2.7,10.4,13.7,30.3c4.8,8.7,8.3,13,9,21.2c0.2,2.3,0.5,6.7-1.8,8c-2.6,1.6-7.5-1.5-10.3-4.5c-4.9-5.2-5.8-12.7-5.7-12.7
		c0.2-0.1,7.2,13.4,2.4,20.1c-1.9,2.7-5.9,4.5-8.5,3.3c-5.6-2.5-2.9-17.6-4.5-17.8c-0.6-0.1,1.4,13.9-5.6,19
		c-2.6,1.9-6.5,2.7-8.6,1.1c-2.5-1.9-1.6-6.8-0.6-12.2C505.5,296.4,507.4,287,509.9,276z"/>
	<path class="st0" d="M458.9,311.1c-2.3-8.2-3.6-15.2-4.3-20.4c-1.4-9.7-0.8-12.9,1.3-15c2.1-2.1,5.8-3,8.5-1.8
		c3.2,1.5,4.1,5.7,4.5,7.2c1.6,6.6,7.3,13.6,18.4,27.8c6.1,7.8,10.3,11.6,12.2,19.5c0.5,2.2,1.5,6.5-0.5,8.2
		c-2.3,1.9-7.6-0.3-10.9-2.9c-5.7-4.4-7.8-11.6-7.6-11.6c0.2-0.1,9.2,12.1,5.6,19.4c-1.5,2.9-5.1,5.3-7.9,4.6
		c-5.9-1.6-5.7-16.9-7.2-16.9c-0.6,0,3.5,13.5-2.5,19.7c-2.2,2.3-6,3.7-8.3,2.5c-2.8-1.5-2.7-6.5-2.5-12
		C457.7,332,458.1,322.4,458.9,311.1z"/>
</g>
<g id="Camada_4">
	<path class="st1" d="M464.4,291.3c0.4,1.6,0.9,4,0.7,7c-0.5,7.5-5,12.4-5.9,13.4c-4.8,5.2-10.5,6.2-10.2,7.7
		c0.4,1.6,6.8,0.7,7.2,2.3c0.4,1.6-5.9,5.4-12.7,7.5c-4.8,1.5-20.7,6.5-35.1-2.8c-4.3-2.8-11-7.2-10.8-12
		C397.9,308.1,409.7,299.8,464.4,291.3z"/>
</g>
<g id="Camada_8">
	<path class="st1" d="M267,269.5c-1.1,1-25.6,21.4-42.2,14.3c-6.5-2.8-12.6-7.8-12.6-7.8c-6.4-5.3-10.9-11.4-11.1-11.2
		c-0.1,0.1,1,1.5,3.6,5.4c4.8,6.9,7.1,9.4,6.4,11.1c-0.4,1.1-1.9,1.2-3.1,1.3c-3.9,0.4-6.9-2.1-8.6-3c-1.2-0.6-6.1-3.4-12.3-11.4
		c-6.2-8.1-9-15.4-9.5-15.1c-0.4,0.3,1.2,5,2.8,8.7c1.2,2.7,1.9,3.8,3.6,7.7c2.7,6.1,2.7,6.7,2.5,7c-1.2,2.6-10.7,1.3-16.2-5.7
		c-2.1-2.8-3-5.6-4.2-9.4c-2.8-9.1-2.9-17.4-2.8-17.5c0.1,0,1.2,5.4,0.6,11.7c-0.2,2.3-1,10.8-3.9,11.4c-1,0.2-1.9-0.6-3.1-1.7
		c-2.5-2.3-3.7-5.4-4.2-7c-1.7-5.6-0.8-10.9,0-15.1c1.1-6.1,2.7-8.4,2-9.1c-1.3-1.3-9.1,4.3-13.9,12.8c-1,1.8-2.7,5.2-6.1,7.7
		c-1.1,0.8-3.8,2.9-5.3,1.7c-0.4-0.3-0.7-1.2-0.8-6c-0.1-4.6,0.9-8,1.7-10.4c0.7-2.3,2.7-8.3,7.5-13.4c3.4-3.5,6.3-4.7,6.1-5.4
		c-0.2-0.7-4.6,0.2-8.9,2c-8.7,3.6-14.6,9.4-26.2,16.1c-1.7,1-4.8,2.7-5.9,1.3c-0.8-1-0.1-3.1,0.3-5c1.1-6.1,5-9.9,7.2-12.1
		c3.5-3.4,6-4.2,5.9-4.7c-0.3-0.9-7.7,0.8-25.4,5c-6.1,1.5-11.3,2.7-12.8,0c-0.8-1.4-0.3-3.4,0.3-5c5.3-7.1,5.9-7.7,5.9-7.7
		c2.1-2.4,3.4-3.1,11.1-8.1c10-6.4,12.2-7.8,12-8.7c-0.4-1.7-8.6,0.5-8.9-1c-0.2-1,3-3.6,6.4-4c8.3-1,16.4,10.8,15.3,13.4
		c-0.5,1.3-6.2-2.4-15-4c-17-3.1-36.2,2.9-40.7,4.4c-3.7,1.2-10.6,3.6-12.3,0.7c-0.6-1-0.3-2.5,0-3.6c0,0,2.7-4,3-4.5
		c3.3-4.9,10.3-8.7,10.8-9c10.2-5.6,12.4-12,19.3-15.7c16.8-8.9,40,9.5,39.4,11.6c-0.5,1.7-16.3-9.1-39-5.4
		c-21.9,3.6-26.4,5.4-26.4,5.4c-4.1,1.6-11.7,5.1-16.7,1.3c-0.6-0.4-3.1-2.3-3-4.5c0-0.4,0.7-1.2,2.6-3.6c7.2-9,16.3-13.1,42.7-17.5
		c31.9-5.2,47.9-7.9,60.2-2.7c0.9,0.4,8.8,3.8,9.7,1.8c0.8-1.8-4.4-6.8-3.9-7.6c0.7-1.1,7.8,4.7,7.8,4.7
		c32.2,19.8,39.9,29,54.1,34.9c8.5,3.5,21.6,6.8,40.1,3.4L267,269.5z"/>
</g>
<g id="Camada_14">
	<path class="st2" d="M204.8,188.2c7.7,12.4,10.8,19.6,10.8,19.6c3,6.9,5.7,7.8,12.6,14.3c4.7,4.5,10,8.5,13.8,15.2
		c1.9,3.3,2.6,5.5,5.1,6.5c3.7,1.5,6.3-1.7,9.4-1.2c9.2,1.4,14,32.2,7.9,35c-2,0.9-5.6-1.2-9.6-1.5c-0.6,0-2.3-0.1-4.3-1.1
		c-0.1,0-0.1-0.1-0.2-0.1c-2.3-1.1-3.8-2.6-4-2.8c0,0,0,0,0,0c-2.1-2.1-4.8-3.2-5-3.3c-2.5-1.1-6.4-5.8-15.7-17.3
		c-5.9-7.4-6.8-8.6-7.7-9.9c-2.6-3.6-5-7-7.4-11.5c-4.5-8.5-6.5-16.2-8.1-23.4c-0.9-4.2-1-5.8-2.2-10c-3.1-10.5-7.5-16.7-6.3-17.5
		c0.6-0.4,1.6,0.9,3.4,1.7c1.4,0.6,7.8,4.7,7.8,4.7L204.8,188.2z"/>
</g>
<g id="Camada_2">
	<path class="st3" d="M272.8,290.7c-1.5-2.6-5.1-9.6-8.4-9.1c-3.9,0.6-4.5,10.9-7.3,10.9c-2.1,0-3.9-5.4-4.8-8.9
		c-3.3-12.2-10.9-40.5-3.2-59.5c12.4-30.3,55-17.1,68.3-29.2c1-0.9,3.8-3.7,6.4-2.1c3.2,2.1,3,9.5,6.4,12.5c2,1.8,3.3-0.4,7,0
		c4,0.4,6.9,3,8.3,4.2c4.2,3.6,6.7,8.3,8.3,11.5c1.8,3.6,3.1,7,3.8,9.4c1.1-0.3,2.8-0.7,4.8-1c7.1-1.3,18.8-2.4,37.3,2.1
		c16.6,4,14.3,6.6,21.1,6.3c13.4-0.6,16-10.2,27.5-11.5c12.4-1.3,28.9,7.8,31.3,24c3,20.2-17.6,41.8-18.5,42.8
		c-7.1,7.3-9.2,5.2-26.8,14.6c-4.4,2.4-7.7,4.3-10.5,6.1c-6.9,4.4-11.5,7.7-12.9,8.7c-10.4,7.3-27,6.5-39.3,5.8
		c-21.6-1.2-37.6-6.5-48.2-10.1C294.9,308.6,280.2,303.7,272.8,290.7z"/>
</g>
<g id="Camada_16">
	<path class="st4" d="M356.6,229.5c0.5,2.2,2.7,2.2,6.1,6.4c4.1,5,3.4,8.1,6.5,10.1c3.1,1.9,6.6,0.7,10.1,0
		c8.7-1.8,15.5-0.3,27.4,2.2c9.7,2.1,17.4,3.7,23,10.1c2.7,3,1.6,3.4,6.5,10.8c4.2,6.4,7.4,11.1,13,15.1c3.5,2.5,10.3,7.4,15.1,5
		c4.8-2.3,5.6-10.8,5-15.8c-0.6-5.3-3.6-15.7-42.2-38c-42.2-24.4-53.7-20.7-57.9-18.9C363.5,218.9,355.7,225,356.6,229.5z"/>
</g>
<g id="Camada_9" class="st5">
	<path class="st6" d="M298.6,76.6c0.7,0.1,11.1,1.5,13,1.8c0.9,0.1,1.9,0.3,2.7,0.4c0.7,0.1,0.8,0.1,1.8,0.3
		c17.9,2.4,31.2,2,43.2,5.4c1.4,0.4,8,2.3,13.8,7.8c2.2,2,5.7,5.9,4.8,7.2c-0.6,0.9-2.9,0.2-6.2-0.5c-5.8-1.1-6.9-0.4-13.9-1
		c-7.5-0.6-19.7-2.6-19.7-4.3c0-1.4,8.1-3.6,16.3-2.4c13.8,2,22.3,13,24.5,15.8c5.9,7.6,7.8,15.4,8.6,18.7c0.3,1.2,1.2,4.9,1.4,10.1
		c0.2,2.7,0.5,12-3.4,24.5c-12.4,40.5-31.2,58.1-31.2,58.1c-7.8,7.4-29.4,14.5-72.5,28.8c-21,7-29.8,6-34.2,4.7
		c-1.1-0.3-1.9-0.7-3.4-1.3c-6-2.5-19.9-8.2-26.9-20.5c-0.6-1.1-1.7-3.5-3.7-8.2c-2.5-5.7-4.1-9.4-5.3-12.9
		c-3.4-10.4-2.9-19.7-2.6-28.3c0.1-3.5,0.5-7.1,1.2-11.1c0-0.2,0.1-0.4,0.1-0.5c3.8-20.8,1.9-33.3,1.9-33.3
		c-2-11.8-5.9-11.6-4.7-16.6C206.7,109,223,111,248.6,99C265.1,91.2,289.6,75.5,298.6,76.6z"/>
</g>
<g id="Camada_12">
	<path class="st1" d="M354.2,147.6c0.2,0.5,0.3,1,0.4,1.5"/>
	<path class="st7" d="M368.4,199c4.3-7,6.2-13.4,7.2-17.7c1-4.5,3.2-15.2-0.4-27.3c-1.1-3.7-2.4-6.2-3.8-8.9
		c-15.7-30.7-19.4-30.7-29.4-50.4c-4.1-8-6.4-13.8-10.8-14.3c-5.2-0.7-10.1,6.1-14.5,3.3c-0.9-0.5-0.8-0.9-1.9-2
		c-1.1-1.1-5.6-3.5-12.8-3.8c-0.3,0-0.8,0-1.4-0.1c-10.6,0-21,7.1-22.6,5.1c-0.8-1.1,4.9-4.3,5.3-10.6c0.3-4-1.6-8.9-4.1-9.5
		c-4.5-1.1-9.6,9.6-9.8,10.1c-2.2,4.9-1.6,9.3-2.5,9.4c-0.7,0.1-0.4-4.4-3.1-8.9c-1.3-2.1-2.4-2.8-2.7-3.1c-0.1-0.2-3.2-1.9-6-0.3
		c-0.3,0.2-1.4,0.8-2,2c-2.5,4.4,3,11.2,1.3,13.1c-1.5,1.6-5.3-2.9-11.6-2.6c-3.4,0.2-7.8,1.7-8.1,4.1c-0.2,2.2,2.9,4.6,5.2,5.7
		c3.6,1.7,6.4,0.6,6.6,1.2c0.2,1-7.8,2.6-14,7.5c-2.8,2.2-7.5,6.9-7.8,7.2c0,0-0.3,0.3-0.4,0.4l-0.4,0.4c-2.4,2.8-2.5,3-4.6,5.3
		c-11.5,13.1-21.9,16.5-21.1,22.2c0.2,1.6,1.2,2.1,2.6,6.7c0.1,0.2,0.8,2.8,1.2,5.7c1.6,10.4,1.6,40.8,8.1,63.6
		c2.5,8.7,4.1,14.3,8.6,20.4c2.7,3.6,5.4,6.3,8.2,8.3c7.8,5.6,15.3,7,26.3,8.8c3.5,0.6,8.4,1.3,14.7,1.4c13.9,0.2,23.9-3.1,38.2-7.6
		c8.9-2.9,17.8-7,35.8-15.4c6-2.8,10.2-4.8,14.6-9.1C363.3,212.4,366.7,204.4,368.4,199z"/>
</g>
<g id="Camada_13">
	<path class="st2" d="M287.8,114.5c-0.2,0-0.4,0-0.4,0s-0.3,0-0.7-0.1c-3.4-1.3-5.3-9.3-3.1-15.7c4.7-14,28-20,45.2-18.1
		c2.1,0.2,3.8,0.6,4.9,0.8c1.2,1.4,2.4,2.8,3.6,4.3c4.4,9.4,8.6,16.6,11.7,21.5c2.5,3.9,3.8,5.6,7.6,11.7c4.4,7.1,7.5,12.5,9,15.1
		c5.2,9.2,7.7,13.8,9.1,18.3c2.5,7.9,2.6,14.3,2.6,16.7c0,8.2-2,14.3-2.5,15.9c-4.4,13.3-10.5,11.7-14.2,24.1
		c-1.4,4.8-2.2,10.7-6.8,12.9c-1.3,0.6-2.6,0.7-3.4,0.8c-7.2-13.5-4.2-19.6-3.3-21.1c1.4-2.3,5.5-7.1,7.2-9.1c4.6-5.3,7.2-8,8.2-9.1
		c9.2-10.7,4.2-33.3-0.5-45.6c-2-5.3-1.2-1.4-12.5-22.1c-1.8-3.3-3.7-9.5-9-16.1c-4.2-5.3-6.8-6.5-8.3-7c-0.4-0.2-0.9-0.3-1.3-0.4
		c0,0-0.4-0.1-0.9-0.2c-1.4-0.2-10.4,9.5-17.3,12.2c-7.5,2.9-11.6-2.8-16.2,1.1C293.9,107.2,288.4,114.4,287.8,114.5z"/>
	<path class="st2" d="M206.4,147.7c0-0.4,0.2-1.5,0.7-2.7c0,0,0.5-1.2,1.4-2.2c7.7-9.4,27.4-9.1,28.6-9.1c8.2,0.1,10.8,0.2,10.8,0.2
		c2.6,0.1,5.4,0.3,9.4,0.2c4.6-0.1,7-0.2,7.2-1c0.6-1.8-7.5-7.3-16.8-9.1c-4.5-0.9-8.1-0.7-12-0.5c-10.6,0.6-12.9,3.4-20.8,2.3
		c-3.3-0.5-4.5-1.2-7.1-0.7c-4.1,0.9-8.4,4.3-9.2,8.6c-0.3,2,0.1,4,0.3,5c0.5,2.4,1.4,4,1.7,4.5c1.9,3.7,1.9,8.5,1.9,13.2
		c0.1,13.2,0.9,21.8,0.9,21.8C203.6,178.4,206,150.7,206.4,147.7z"/>
</g>
<g id="Camada_15">
	<g id="Camada_4_1_">
		<path class="st2" d="M239.2,104.6c-1.3-0.3-2.6-0.4-2.6-0.4s-0.9-0.1-1.7-0.2c-3.8-0.3-7.8-0.7-8.4,0.7c-0.8,1.9,5.3,6.5,9.1,8.9
			c3.1,1.9,8.4,5.1,16.1,6.2c15.8,2.3,27.2-6.5,34.3-12c1.9-1.5,6.5-5.2,5.8-8.4c-0.2-0.8-0.4-0.7-0.7-1.6c-1.2-3.9,4-6.6,4.8-12.6
			c0.2-2,0.1-5-1.4-5.7c-0.9-0.4-2,0.2-3,0.8c-2.9,1.6-4.5,4-4.6,4.2c-8.6,13-12.6,15.5-14,16.3c-1.1,0.6-2.1,0.9-2.3,1
			c-2.5,0.8-4.5,0.8-5.7,0.8c-0.5,0-6.6,0.1-12.2,2.9c-2.8,1.4-2.6,2-4.1,2.2C245.4,107.9,242.6,105.3,239.2,104.6z"/>
	</g>
</g>
<g id="Camada_11">
	<g id="Camada_4_2_">
		<path class="st7" d="M289.7,119.3C313.3,97.5,324,90.5,324,90.5c11.6-7.7,12.6-7.1,16.4-11.3c7.1-7.8,10.7-17.4,12.6-24.4
			c-1.2,1.3-3.1,3-5.7,4.2c-3.5,1.7-8.2,2.1-8.6,0.8c-0.1-0.4,0.2-0.9,0.4-1.2c4.3-6.3,5.6-18.5,5.5-20.9c0-0.2,0-0.5-0.2-1.6
			c-0.2-2-0.2-2.5-0.4-2.6c-0.2-0.1-0.3,0.4-0.9,1.5c0,0,0,0-0.7,1.2c-1.4,2.2-16.5,16.5-19.8,20.2c-0.2,0.2-1.5,1.8-3.2,3.4
			c-0.8,0.8-1.3,1.3-1.7,1.6c-0.7,0.6-1.4,1.4-2.5,2.1c-1.2,0.9-1.4,0.9-2.2,1.6c-0.8,0.7-1.7,1.6-1.7,1.6s-5.9,5.7-6.3,5.3
			c0,0,0,0-0.1,0c-0.2-0.1-0.2-0.2-0.2-0.2c-0.2-0.2-0.3-0.3-0.3-0.3c-0.2-0.3,0.1-0.9,0.3-1.6c0,0,0.2-0.6,0.3-1.6
			c0.1-0.9-0.1-1.3-0.2-2.6c-0.1-2,0.1-2.8-0.1-3c-0.3-0.2-0.7,0.8-1.8,2.3c0,0-0.5,0.7-1.6,2.1c-2,2.6-14.5,17.9-19.5,25.3
			c-0.5,0.8-1.3,2-2.4,3.9c-1.1,2.2-1.9,4.1-2.4,5.2c-2.2,5.6-2.5,9.8-3.7,9.7c-0.2,0-0.3-0.2-0.6-0.3c-1.6-1.4-1.2-3.9-2.2-5.3
			c-0.9-1.2-2.6-1-6.1-0.6c-0.6,0.1-0.2,0-3.9,0.6c-2.6,0.3-3.5,0.5-4.9,1c-1.6,0.6-2.6,1.1-2.9,2.2c-0.4,1.4,0.6,3.3,1,4.2
			c1.1,2.1,3.2,4.2,3.1,4.4c0,0-0.1,0-0.2,0.2c-0.1,0,0,0.1-0.1,0.1c-0.1,0.1-0.2-2.8-0.2-2.8c-0.2,0.2-1.8,1.3-2.1,1
			c-0.4-0.5-1.2-1.2-2-2.1c0,0-3.7-3.5-8.5-6.2c-13.4-7.4-34-7.4-34-7.4c-2.8-0.1-9.8-0.2-9.9,1.1c0,0.4,0.7,0.7,2.1,1.8
			c1.3,0.9,5.8,4.2,5.7,5.5c-0.2,1.8-9.6,1-13.4,0.8c-8-0.5-19.2,0.4-33,6.4l3.6,2.2c2.5,1.6,6.4,3.7,11.2,5.8
			c10,4.1,17.6,4.8,30.5,6c18.4,1.7,27.6,2.6,28.3,2.8c8.5,1.6,14.5,2.8,18.9,3.5c7,1.2,10.2,1.7,13,5.1c1.5,2,2.5,4.3,4.8,5.3
			c2.9,1.2,5.6-0.8,6.3-1.2c2-1.4,3-5.2,5.2-12.4c1.3-4.4,1.6-6.2,3.1-8.7C287.4,121.6,288.9,120.1,289.7,119.3z"/>
	</g>
</g>
<g id="Camada_10">
	<path class="st8" d="M274.2,210.7L274.2,210.7c0.5-3.3,1-6.6,1.6-9.9c1.7-10.5,3.5-20.8,5.4-31c8.6,11.1,15.8,14.9,21,16.2
		c1.4,0.4,4.2,0.9,5.9,3.1c2.9,3.9-0.2,9.9-1.5,13c-2.5,6-4.1,15.4,0,29.7c-4.6-4.3-11-9.3-19.4-13.7c-0.6-0.3-1.1-0.6-1.7-0.9
		c-1-0.5-1.9-0.9-2.5-1.2c-2.1-0.9-2.8-0.5-4.9-1.3c-0.8-0.3-1.9-0.7-3.2-1.6"/>
	
		<ellipse transform="matrix(3.103010e-03 -1 1 3.103010e-03 167.9077 458.6559)" class="st9" cx="314" cy="145.1" rx="37.9" ry="28.2"/>
	
		<ellipse transform="matrix(4.453198e-03 -1 1 4.453198e-03 156.4622 451.7356)" class="st10" cx="305.1" cy="147.3" rx="20.3" ry="16.6"/>
	<path class="st11" d="M290.6,147.2c-0.1-8.3,4.8-14.5,11.8-14.6c6.7-0.3,12.7,6.2,12.8,13.9c0.1,7.8-5.9,15.4-12.6,15.2
		C296.6,161.5,291,156.5,290.6,147.2z"/>
	
		<ellipse transform="matrix(0.7095 -0.7047 0.7047 0.7095 -13.5836 249.5959)" class="st12" cx="296" cy="141.3" rx="3.1" ry="5.2"/>
	
		<ellipse transform="matrix(3.103010e-03 -1 1 3.103010e-03 72.4805 419.1015)" class="st9" cx="246.4" cy="173.2" rx="37.9" ry="28.2"/>
	
		<ellipse transform="matrix(4.453198e-03 -1 1 4.453198e-03 62.1264 411.148)" class="st10" cx="237.6" cy="174.4" rx="20.3" ry="16.6"/>
	<path class="st11" d="M223.1,174.3c-0.1-8.3,4.8-14.5,11.8-14.6c6.7-0.3,12.7,6.2,12.8,13.9c0.1,7.8-5.9,15.4-12.6,15.2
		C229,188.6,223.4,183.6,223.1,174.3z"/>
	
		<ellipse transform="matrix(0.7095 -0.7047 0.7047 0.7095 -53.5309 208.7462)" class="st12" cx="226.4" cy="169.3" rx="3.1" ry="5.2"/>
	<g>
		<path class="st13" d="M337.9,103.3c0.4,0.5,0.5,0.7,0.5,0.7c-0.1,0-0.8-0.7-2.2-2.2 M338.6,104.3c0,0,4.4,9.2,3.2,15.5
			c-0.1,0.3-0.2,0.7-0.2,0.7l0,0c-0.6,2.4-1.9,3.4-2.5,4.6c-0.8,1.4-0.9,2.9-1,5.3c-0.4,6.9,1.7,10.7,1.8,18.6
			c0.1,3.5,0.1,7.2-1.6,11c-1.2,2.7-2.8,4.3-4.1,5.6c-9.3,8.6-21.3,11-21.3,11c-8.7,1.7-13,2.6-17.6,0c-7.1-4.1-13-14.8-13.7-16.1
			c0-0.1-0.2-0.3-0.3-0.5c-2.7-4.9-5-8.9-6.5-8.5c-0.3,0.1-0.6,0.5-1.2,1.3c-0.4,0.5-0.7,1.1-1,1.8c0,0.1,0,0.1-0.3,1.2
			c-0.2,0.6-0.3,1-0.3,1.2c-0.5,1.8-0.2,15.6-0.2,15.6c0.1,3,0.2,8.7-2.1,14.6c-1,2.7-2.2,4.6-2.9,5.6c-3.8,5.9-11.7,13.1-22.2,14.6
			c-3.8,0.6-16.7,2.4-22.3-6.3c-1.3-2-5.8-10.1-7.8-13.9c-0.9-1.6-2.1-3.9-4-4.4c-0.8-0.2-1.9,0-3.3-0.7c0,0-0.9-0.4-1.6-0.9
			c-1.9-1.4-2.7-4.7-4.6-14.4c-0.6-2.7-0.9-5-0.1-6.1c0.6-0.7,1.6-0.8,1.9-0.9c3.7-0.1,11.7-4.1,27.8-12c0.2-0.1,0.7-0.3,1.3-0.6
			c1.3-0.6,3.6-1.5,6.6-2.3c0.1,0,0.1,0,0.1,0c5.7-1.4,9.1-2.5,12.3-2.9c0.1,0,0.2,0,0.4,0c0,0,2.2-0.2,4.4,0
			c3.3,0.4,5.2,2.1,9.3,2.5c1.9,0.3,2.9,0.3,4.2,0.1c0,0,4.2-1.1,8.3-7.3c0.2-0.4,0.5-0.8,0.5-0.8c0.2-0.4,0.3-0.5,0.7-1.2
			c0.2-0.3,0.3-0.5,0.5-0.8c5.1-8.9,12.2-13.7,12.2-13.7c1-0.6,2-1.1,2.9-1.7c17.3-9.7,25.4-13.3,29-14.3c0.9-0.2,1.9-0.4,3.7-1
			c5.4-1.9,7.3-4.3,9.3-3.1C337.1,101.2,337.6,102.3,338.6,104.3z M267.9,165.8c-0.2-5.5-1.6-8.5-2.3-9.8c-1.4-2.5-3.1-4-4.2-4.9
			c-5.9-3.3-12.1-4-18.4-2.8c-2.2,0.6-5.3,1.6-9.1,3c-8.5,3.1-12.9,4.7-15.2,7.9c-3.2,4.5-4.3,11.2-3.3,16.5
			c0.2,0.9,1.4,3.7,3.8,9.2c2.3,5.1,4.3,9.3,5.1,11c0,0.1,0.1,0.2,0.1,0.2c4.1,8.2,14.5,7.7,16.7,7.6c3.4-0.2,5.9-1.1,7.3-1.6
			c1.9-0.7,6.5-2.6,10.7-6.9C268.8,184.9,268,168.5,267.9,165.8z M299.2,172.3C299.3,172.3,299.1,172.2,299.2,172.3
			c0.1,0,0.2,0.1,0.3,0.1 M290.2,132.2c-3.6,4.1-4.7,6.7-5.1,7.8c-0.4,1.1-1,2.6-1.3,4.5c-0.4,2.9,0.1,6.3,2.8,11.9
			c3.9,7.8,6.6,13.5,12.3,15.6c5.5,2,12.2-0.2,15.3-1.2c0.2-0.1,0.4-0.1,0.5-0.1c2.8-0.9,5.7-1.9,9-3.6c2.4-1.2,4.3-2.3,6.4-4.4
			c1.3-1.3,3-3.1,4.3-6.1c1.1-2.7,1.2-5.2,1.4-6.8c0.1-2-0.1-3.6-0.1-4.3c-0.7-7.8-0.9-18.5-3.5-26.6c-0.2-0.7-0.5-1.7-1.3-2.7
			c-2-2.2-5.1-1.8-6.4-1.5c-0.1,0-0.3-0.1-0.4-0.1c0,0-0.2-0.1-0.4,0c-13.7,0.5-27.5,11.9-27.5,11.9
			C295.2,127.1,292.9,129.1,290.2,132.2z"/>
	</g>
	<path class="st14" d="M272.2,145.3c-0.6,0.5-1.5,1.3-2.2,2.4c-1.3,2-1.4,3.9-1.4,5.5c-0.1,2.6,0.4,4.8,1,6.3"/>
	<path class="st14" d="M337.1,106.5c-0.1-1.3-0.5-3.2-1.7-3.6c-0.9-0.3-1.7,0.4-3.5,1.3c-0.6,0.3-2.5,1-6.5,2.5
		c-3.2,1.2-3.8,1.3-6.3,2.3c-1.7,0.7-3,1.3-3.9,1.7"/>
	<path class="st15" d="M203.3,169.3l-0.7-4.1c-0.5-1-0.3-2.1,0.4-2.8c0.6-0.6,1.6-0.8,2.5-0.6l9.6-3.8l2.1-1"/>
	<path class="st16" d="M280.5,173.3c0,0,0.2-0.8,0.3-1.8c0.1-0.8,0.3-1.4,0.3-1.8c8.6,11.1,15.8,14.9,21,16.2
		c1.4,0.4,4.2,0.9,5.9,3.1c2.9,3.9-0.2,9.9-1.5,13c-2.5,6-4.1,15.4,0,29.7c-1.5-1.4-3.1-2.8-5-4.3l-1-5.1c-0.5-2.3-1.1-5.9-1.1-10.2
		c0-7,1.6-8.5,0.8-12.5c-0.7-3.3-3.7-6.3-9.6-12.4C290.7,187.4,279.9,176.5,280.5,173.3z"/>
	<path class="st16" d="M335.4,202.2"/>
</g>
<g id="Camada_5">
	<path class="st17" d="M478.4,244.9c11.8-7.1,21.9-10.5,28.8-12.2c11-2.8,19.3-2.9,25.9-10.1c3.5-3.8,7-10,5-13
		c-1.2-1.8-4.7-2.8-15.8,0c-23,5.7-43.9,18.8-43.2,20.2c0.6,1,15-8.2,43.9-26.6c1.7-1.1,5.4-3.5,5.8-7.2c0.3-3.6-2.6-7.7-6.2-9.1
		c-5.1-2-9.9,1.8-21.6,8.2c-4.9,2.7-11.9,6.3-20.6,10.1"/>
</g>
<g id="Camada_3">
	<path class="st1" d="M517.6,245.5c-2.6-2.4-5.8-0.1-10.2-3c-2.9-1.9-4.4-5.1-7.1-11.4c-2.8-6.6-2.4-7.8-4.3-11.5
		c0,0-3.5-6.8-10.1-11.5c-11.6-8.3-29-2.1-38.9,1.4c-7.8,2.8-32.2,11.5-32.4,25.2c-0.1,4.4,2.4,10.5,6.9,13.7c4,2.9,7.3,1.7,11.8,5
		c3.7,2.8,5,6.3,6.5,9.4c0.8,1.8,8.9,18.6,20.2,24.5c8,4.2,16.4,2.3,23.8,0.7c3.8-0.8,24.1-5.7,32.4-23
		C519,258.9,521.5,249.1,517.6,245.5z"/>
</g>
<g id="Camada_7">
	<path class="st17" d="M479.8,218.9c-1.8,3-5.3,7.3-14.8,15.1c-12.6,10.3-19.3,14.1-25.4,16.3c-1.9,0.7-7,0.6-7.2,2.1
		c-0.2,1,1.7,1.7,3.5,3.7c3,3.2,2.1,5.5,3.6,6.9c4.4,4.2,17.7-10.4,32.8-7.4c5.5,1.1,5.7,3.4,10.4,4c10.2,1.2,19.7-8.1,26.6-16.8
		c-0.7-0.2-1.7-0.6-2.8-1.3c-3-1.9-4.3-4.9-4.9-6.6c-0.6-1.5-0.4-1.7-1.2-3.6c-0.6-1.5-1-2-1.5-3.4c-0.6-1.6-0.8-2.4-1.2-4
		c-0.9-3.3-2.4-5.8-3-6.9c-1.9-3.1-3.9-5-5.1-6.2c-1.9-1.8-3.7-3.1-5.1-4c-0.1,0.4-0.2,0.9-0.3,1.6
		C484,208.7,482.8,213.9,479.8,218.9z"/>
	<path class="st18" d="M506.4,232.9c0.6,0.5,1.6-0.3,6.1-1.4c2.8-0.7,2.7-0.5,5.9-1.3c3.4-0.8,5.5-1.4,7.9-2.6c3-1.4,5-3.1,5.7-3.8
		c3.4-3.1,4.8-6,6.1-8.7c0.5-1.1,1-2.4,0.7-3.9c-0.1-0.5-0.4-1.7-1.5-2.5c-1-0.8-2.2-0.8-3.6-0.8c-4.4,0.1-8,0.9-10.3,1.5
		c-2.3,0.6-3.4,0.8-3.7,0.9c-3.4,1.5-4.8,4.2-8.9,12C506.7,230,505.6,232.2,506.4,232.9z"/>
	<path class="st18" d="M502,216.5c0.4,0.4,1.8-1,6.2-3.9c5.5-3.7,8.2-5.6,11.5-7.3c0.1,0,2.8-1.5,5.8-3.9c0.9-0.7,1.9-1.6,2.6-3
		c0.2-0.5,0.8-1.7,0.8-3.4c0-1.5-0.6-2.6-1-3.4c-0.2-0.4-0.9-1.6-2.2-2.9c-0.7-0.6-1.9-1.7-3.8-2.2c-1-0.3-1.9-0.3-2.3-0.2
		c-1,0-1.7,0.2-2.4,0.4c-0.8,0.2-1.5,0.5-2,0.7c-0.3,0.1-0.7,0.3-1.2,0.5c-1.6,0.8-2.5,1.2-2.7,1.4c-1.3,1.2,0,4.7,0.3,5.5
		C514,203.2,500.8,215.5,502,216.5z"/>
	<path class="st19" d="M282.8,114.8c-1.9-1.8,2.3-11.1,5-17.1c0.4-1,2.9-6.4,3.8-5.9c0.8,0.4-0.5,4.7,0.5,5.4
		c2.1,1.5,12-17.1,13.5-16c0.7,0.5-0.4,4.6-1.8,8c-2,4.3-4.2,6.2-4,6.4c0.4,0.4,8.6-4.9,15.8-10.8c1.5-1.2,2.5-2.1,2.7-2
		c0.3,0.3-7.3,8.7-14.6,15.8C294,107.9,285,116.7,282.8,114.8z"/>
	<path class="st19" d="M258.1,123.5c-14.1-7.6-22.5-9.5-27.1-10c-0.4,0-5.1-0.5-5.3,0.7c-0.3,1.4,6.2,3.9,6,5.4
		c-0.1,0.2-0.3,0.8-6.2,0.9c-3.8,0.1-6.1-0.1-9.6,0.5c-2,0.3-3.3,0.5-3.3,1c-0.1,1.2,9.2,3.4,16.8,4.4c3.1,0.4,6.4,0.8,10.5,0.7
		C244.4,126.9,250.7,126.2,258.1,123.5z"/>
</g>
<g id="Camada_6">
	<path class="st1" d="M354.4,228.5c0.7,0,1.6,0,2.8,0c3.6,0.1,5.4,0.1,7.2,0.8c4,1.3,6.4,4.6,6.9,5.3c0.7,0.9,0.7,1.2,3.8,6
		c0.5,0.8,0.9,1.4,1.2,1.9c1-0.1,2.4-0.2,4-0.4c1-0.1,4.4-0.3,9.3-0.4c6-0.1,10.7,0.2,12.6,0.4c5.4,0.4,8.2,0.6,10.3,1.1
		c4.8,1.2,6,2.6,10.7,3c0.7,0.1,3.2,0.2,6.4-0.2c3.5-0.5,6-1.4,6.7-1.7c3.1-1.2,3.5-2,6.4-3.2c1.6-0.7,3.9-1.4,7-1.8
		c3.9-2.4,7.9-5.3,12.1-8.7c1.8-1.5,3.5-3,5.2-4.5v-1.7c0.9-0.2,6.9-2.1,9.3-8.4c0.5-1.5,1.9-5.2,0.5-7.3
		c-4.1-6.2-28.1,3.1-27.6,6.2c0.2,1.7,8.3,1.8,12.7,1.4c3.3-0.3,19-2.1,26.1-14.9c0.7-1.3,1.2-2.4,1.5-3.1l-16.4,0.3
		c-1.1-0.5-2.6-1.1-4.4-1.4c-11-2.1-21.8,6.1-21.2,8.2c0.5,1.9,10.7-0.1,14.5-0.8c6.8-1.3,31.9-6.2,41.3-26.7
		c1.1-2.4,1.7-4.5,2.1-5.6c-21.6,7.5-26.6,9.3-26.6,9.3c0,0,2.5-0.8,5.4-2c6.2-2.5,10.9-5.4,13.4-7c9-5.9,15.5-10.1,16-16.6
		c0.2-2.5-0.4-6.1-2.1-6.8c-1.5-0.6-3.5,1.4-4.1,2c-8.3,8-33.1,12-32.8,13.2c0.3,1.1,11,0.7,20.7-3.9c3.4-1.6,10.8-5.8,16.4-8
		c0.3-0.1,1.1-0.5,2.2-1c1.2-0.6,4.7-2.2,7-4.8c2.7-3.1,5.3-8.3,3.9-10.1c-0.7-0.9-2.2-0.7-10.6,2c-8.2,2.6-12.2,4.1-12.4,3.7
		c-0.1-0.4,2.9-1.9,7.7-5.1c4.5-3,4-3.1,9.8-7.3c4.1-3,7.1-4.8,10.6-8.7c1.8-2,3-3.8,2.6-5.3c-0.3-1.1-1.5-2-2.6-2.3
		c-1-0.2-1.8,0.2-2.6,0.6c-2,0.9-0.9,0-5.7,1.7c-3.7,1.3-5.9,2.4-10.3,4.2c-4.9,2-8.6,3.5-8.8,3.1c-0.2-0.4,2.7-2.1,6.7-5.1
		c6.3-4.6,13.1-9.5,18.3-16.9c1.1-1.5,2-3.3,3.9-6.8c1.7-3.2,2.7-5.3,2.6-7.9c0-0.9-0.1-2.5-1-3.1c-0.5-0.3-1.2-0.3-3.1,0.8
		c-2.7,1.6-4.3,3.6-4.4,3.7c-1.4,1.6-3.6,3-8.3,5.6c-6.9,3.9-16.9,7.6-17.9,5.6c-1-1.9,9.7-8,19.3-22.5c6.8-10.2,12.9-24.4,9.3-28.5
		c-1-1.2-3-1.6-4.5-1.5c-3.3,0.3-5.5,3.8-6.2,4.9c-6.1,9.2-21.4,20.7-22.7,19.5c-1.4-1.2,10.3-15.4,15.5-37.9
		c0.9-3.9,3.4-15.1,0-17.3c-1.2-0.8-3-0.3-4.1,0.4c-2.9,1.8-3.1,6.4-3.6,7.5c-6,11.6-11.9,18.9-18.6,28.7
		c-9.2,13.6-13.9,20.5-19.6,26.4c-10.2,10.5-21.3,18.2-26.9,21.9c-11.5,7.8-14,7.8-20.1,14.1c-7.1,7.2-11.8,15.6-14.5,20.3
		c-4.6,8.1-3.5,8.5-7.7,15.8c-6.4,10.9-13.2,18.5-17,22.5c-7.9,8.2-9.8,7.8-18.1,16.9c-9.3,10.3-10.5,14.8-10.8,16.9
		c-1.6,8.5,2.2,15.9,4.1,19.1L354.4,228.5z"/>
</g>
<g id="Camada_17">
	<path class="st18" d="M494.2,70.8c-0.7-0.3,4-8.2,4.5-20.6c0.3-7.8-1.2-13.6,0.5-21.5c0.3-1.5,1.6-4.2,4-9.5c0.5-1.1,1.3-2.7,3-3.5
		c0.2-0.1,2.1-0.9,3.5-0.1c1.1,0.6,1.8,2.1,1.7,6.3c-0.1,6.2-1.7,10.9-1.7,11c-5.2,14.9-2.5,9.6-5.9,17.9
		C500.7,58.4,495.1,71.1,494.2,70.8z"/>
	<path class="st18" d="M499.7,97.2c-0.9-0.7,8.2-7.8,10.4-20.7c1.2-6.9,0.2-14.3,3.5-21c1.6-3.3,3.5-5.1,4.9-6.4
		c2.4-2.3,3.7-2.6,4.6-2.7c0.2,0,2.9-0.3,4.5,1.5c1.3,1.5,1.2,3.6,1,5.5c-1,7.1-4.3,12.8-5.6,15.2c-3.1,5.3-4.6,8-7.7,12.2
		C508.7,89.6,500.6,97.9,499.7,97.2z"/>
	<path class="st18" d="M519.8,91.6c-5.6,6.3-4.7,11.1-10.1,20.4c-4,7-8,10.2-7.5,10.8c0.7,0.7,7.9-5.4,15.6-11.8
		c0.8-0.7,2-1.7,3.5-3.2c1.6-1.5,4.2-4.2,6.7-8.1c0.3-0.5,0,0,3.1-5.6c1.3-2.3,1.7-2.9,2-4.2c0.5-1.8,0.8-3,0.6-4.2
		c0-0.2-0.5-2.2-1.9-2.7c-1.3-0.5-2.7,0.7-5.1,2.7C522.6,89.1,520.5,90.9,519.8,91.6z"/>
	<path class="st18" d="M503.8,140.3c0.1,0.1,1.6-0.8,4.5-2.8c0.7-0.5,1-0.7,1.6-1.1c1.5-1.1,2.5-1.9,5.6-4.2
		c4.2-3.1,6.6-4.8,6.6-4.8c1-0.7,2.3-1.7,4-3.1c1.2-1.1,2-1.8,2.7-2.6c1.2-1.3,1.8-2,2.3-2.7c0.7-1.1,1.1-1.6,1.1-2.4
		c0-1-0.4-2.1-1.3-2.7c-0.9-0.7-1.8-0.6-2.4-0.6c-1.4,0-1.8,0.5-4.1,1.3c-2.2,0.8-2.4,0.5-3.1,1c-1.7,1.1-2,3.4-2.2,4.5
		c-0.3,1.6-3,4.8-8.3,11.2C505.6,137.6,503.5,140,503.8,140.3z"/>
	<path class="st18" d="M497.2,159.2c0.8,1,6.1-3.5,16.4-7.9c1.2-0.5,3.5-1.5,5.8-3.6c1.6-1.5,2.5-2.9,4.1-5.5c0.6-1,1.2-2.1,1.3-3.4
		c0-0.6,0.1-2.1-0.7-2.7c-0.6-0.4-1.3-0.3-3.4,0.3c-2.5,0.7-3.8,1-4.2,1.2c-4,1.6-7.8,7.1-10.7,11
		C499.8,156.2,496.6,158.4,497.2,159.2z"/>
	<path class="st18" d="M78.4,160.5c0,0.2-0.8,0.5-0.9,0.6c-1.9,0.7-6.6,4.7-10.6,11c-4.4,6.9-2.8,8.8-6.2,11
		c-1.3,0.8-3.5,1.5-7.9,2.7c-2.9,0.8-4.1,1-5.4,1c-1.3,0-3.7-0.1-5.8-1.7c-0.6-0.4-3.1-2.2-3-4.5c0-0.6,0.4-0.9,1.6-2.6
		c2.2-2.9,1.8-2.7,2.8-3.8c1.6-1.9,3.2-3,4.7-4.1c1.7-1.2,3.3-2.1,5-3c3.9-1.9,4.9-1.8,11.4-4.1c1.4-0.5,8.4-3,12.4-2.9
		C76.9,160.1,78.3,160.2,78.4,160.5z"/>
	<path class="st18" d="M53,167.1c0.2-0.1,0.4-0.2,0.5-0.3"/>
	<path class="st18" d="M74.3,180.7c-0.8-0.4-1.7,1.7-7,5.3c-3.1,2.1-3.5,1.8-6,3.7c-2,1.5-3.3,3-6.1,5.9c-1.8,1.9-2.6,3-3,4.5
		c-0.2,0.8-0.7,2.5,0,3.6c1.4,2.3,8,1.6,12.3-0.7C74.7,197.7,76.3,181.7,74.3,180.7z"/>
	<path class="st18" d="M101.7,199c-1-0.5-1.6,1-10.4,6.6c-2.8,1.8-3.7,2.3-5.3,3.7c-2.4,2.2-1.7,2.5-5.4,6.6
		c-0.5,0.6-1.8,1.9-2.4,3.9c-0.3,0.9-0.4,1.7-0.3,2.5c0.1,0.4,0.2,1.4,0.9,2.1c0.6,0.6,1.4,0.9,3.1,0.9c2.3,0.1,4.1-0.4,5.9-0.8
		c4-1,4.6-1,5.2-1.2C100.1,221.1,105.1,200.7,101.7,199z"/>
	<path class="st18" d="M116.3,218.8c-0.4-0.3-1.6,1.3-5.9,4.7c-1.6,1.2-2,1.5-2.9,2.5c-0.5,0.5-1.9,2.1-3.2,4.5
		c-0.3,0.6-1,2.1-1.5,4.1c-0.3,1.3-0.1,1-0.5,3.1c-0.2,1-0.3,1.4-0.2,2.1c0,0.2,0.3,1.2,1.2,1.7c0.3,0.1,0.9,0.4,3-0.4
		c1.5-0.6,2.2-1.1,3.8-2.1c3.1-1.8,3.5-1.6,4-2.4c0.9-1.6-0.5-3.1-1-5.5C111.6,225,117.2,219.4,116.3,218.8z"/>
	<path class="st18" d="M143.9,221.2c-1.3,0.6-3.1,1.6-5,3.2c-2.1,1.8-3.3,3.6-4.4,5.3c-0.3,0.5-1.9,2.8-3.4,6.2
		c-1.3,3.1-2,5.6-2.2,6.5c-0.5,2-1,4.1-1,6.8c0,2.2,0.4,2.3,0.2,4.2c0,0.4-0.1,1.3,0.2,2.3c0.2,0.5,0.4,1.3,1.1,1.6
		c0.4,0.2,0.8,0.1,1.4,0c1.1-0.3,1.9-0.5,3.1-1.2c0.4-0.2,1.4-0.9,3.6-3.5c1.3-1.5,2-2.3,2.2-2.8c1.2-2.8-1-6.1-1.7-7.3
		C136.5,239.4,136.4,233.5,143.9,221.2z"/>
</g>
</svg>
