<?xml version="1.0" encoding="utf-8"?>
<!-- Generator: Adobe Illustrator 23.0.1, SVG Export Plug-In . SVG Version: 6.00 Build 0)  -->
<svg version="1.1" id="Camada_1" xmlns="http://www.w3.org/2000/svg" xmlns:xlink="http://www.w3.org/1999/xlink" x="0px" y="0px"
	 viewBox="0 0 612 792" style="enable-background:new 0 0 612 792;" xml:space="preserve">
<style type="text/css">
	.st0{fill:#CC6540;stroke:#BF5E40;stroke-width:4;stroke-miterlimit:10;}
	.st1{fill:none;stroke:#BF5E40;stroke-width:4;stroke-miterlimit:10;}
	.st2{fill:#8592A4;}
	.st3{fill:#CC6540;}
	.st4{fill:#FFFFFF;}
	.st5{fill:none;stroke:#8E8E8E;stroke-width:3;}
	.st6{fill:none;stroke:#8E8E8E;}
	.st7{fill:#2D344A;stroke:#2D344A;}
	.st8{fill:#2D344A;stroke:#000000;}
	.st9{fill:#8592A4;stroke:#8592A4;}
	.st10{stroke:#000000;}
	.st11{fill:#D19022;stroke:#000000;}
	.st12{fill:#FFFFFF;stroke:#000000;}
	.st13{fill:#2D344A;stroke:#262C3A;}
	.st14{fill:#262C3A;stroke:#262C3A;}
	.st15{fill:#8592A4;stroke:#000000;}
	.st16{fill:#6A7A8B;stroke:#6A7A8B;}
	.st17{fill:#CC6540;stroke:#CC6540;}
	.st18{fill:#D19022;stroke:#D19022;stroke-width:0.5;}
	.st19{fill:#2D344A;stroke:#2B3244;}
	.st20{fill:#F8EEE0;stroke:#F8EEE0;}
	.st21{fill:#D19022;stroke:#D19022;}
	.st22{fill:#271F1B;stroke:#271F1B;}
	.st23{fill:none;stroke:#6A7A8B;stroke-width:3;}
	.st24{fill:#2E2F29;stroke:#2E2F29;}
	.st25{fill:#6A7A8B;stroke:#6A7A8B;stroke-miterlimit:10;}
	.st26{fill:#1F2634;stroke:#1F2634;}
	.st27{fill:#4E5355;stroke:#4E5355;}
	.st28{fill:#F1E7DA;}
	.st29{fill:#1C242F;stroke:#1C242F;}
	.st30{fill:#455771;stroke:#455771;}
	.st31{fill:#DBDDE5;stroke:#F2F3F4;}
	.st32{fill:#F7F7F7;stroke:#F2F3F4;}
	.st33{fill:#C95B3A;stroke:#C95B3A;stroke-miterlimit:10;}
	.st34{fill:#D6CFC9;stroke:#D6CFC9;}
	.st35{fill:none;stroke:#D6CFC9;}
	.st36{fill:#939FAD;stroke:#939FAD;}
</style>
<g>
	<g id="Camada_5">
		<path class="st0" d="M220.1,705.4c4.3-0.1,6.4-0.1,8.6-1.1c4.7-2.1,4.8-5.7,9.4-9.4c3.3-2.7,6.4-3.6,11.2-5
			c21.9-6.5,41-2.9,41-2.9c2.6,0.5,4.5,1,5.4,0c2.9-3.4-5.5-20.2-18.7-28.4c-9.4-5.8-12.8-2-41.4-4.7c-39.1-3.7-7.5-7.9-46.8-2.2
			c-10.6,1.6-16.5,6.3-18,7.6c-0.5,0.4-0.8,0.7-1,0.9c-2.5,2.3-7.4,7.6-9,15.6c-0.7,3.6-1.6,7.9,0.7,11.5c4,6.4,15.5,6.8,15.5,6.8
			s-2.6-0.9-2.9-0.4c-0.5,0.9,4.6,6.9,11.9,9c7.6,2.2,16.4,2.9,18-0.4c0.1-0.1,0-0.4,0.2-0.5c0.7-0.6,2.8,1,3.8,1.6
			C211,705.6,214.4,705.5,220.1,705.4z"/>
		<path class="st1" d="M205.4,702.1c-1.5-0.4-6.9-7.2-9.4-10c-3.8-4.3-3.7-9.6-3.6-11.2c0.2-6.6,4.1-11,6.1-13.3
			c0.7-0.8,3.7-4,8.6-6.5c2.4-1.2,4.5-1.8,6.1-2.2"/>
		<path class="st1" d="M176.9,694.3c-1.4-1.4-5-8.5-5.4-12.2c-0.5-5.1-0.2-9.2,4-14c3-3.6,8.2-9.4,16.9-11.9c2.8-0.8,5.2-1,6.8-1.1"
			/>
		<path class="st0" d="M406.8,705.4c-4.3-0.1-6.4-0.1-8.6-1.1c-4.7-2.1-4.8-5.7-9.4-9.4c-3.3-2.7-6.4-3.6-11.2-5
			c-21.9-6.5-41-2.9-41-2.9c-2.6,0.5-4.5,1-5.4,0c-2.9-3.4,5.5-20.2,18.7-28.4c9.4-5.8,12.8-2,41.4-4.7c39.1-3.7,7.5-7.9,46.8-2.2
			c10.6,1.6,16.5,6.3,18,7.6c0.5,0.4,0.8,0.7,1,0.9c2.5,2.3,7.4,7.6,9,15.6c0.7,3.6,1.6,7.9-0.7,11.5c-4,6.4-15.5,6.8-15.5,6.8
			s2.6-0.9,2.9-0.4c0.5,0.9-4.6,6.9-11.9,9c-7.6,2.2-16.4,2.9-18-0.4c-0.1-0.1,0-0.4-0.2-0.5c-0.7-0.6-2.8,1-3.8,1.6
			C416,705.6,412.5,705.5,406.8,705.4z"/>
		<path class="st1" d="M421.6,702.1c1.5-0.4,6.9-7.2,9.4-10c3.8-4.3,3.7-9.6,3.6-11.2c-0.2-6.6-4.1-11-6.1-13.3
			c-0.7-0.8-3.7-4-8.6-6.5c-2.4-1.2-4.5-1.8-6.1-2.2"/>
		<path class="st1" d="M450,694.3c1.4-1.4,5-8.5,5.4-12.2c0.5-5.1,0.2-9.2-4-14c-3-3.6-8.2-9.4-16.9-11.9c-2.8-0.8-5.2-1-6.8-1.1"/>
	</g>
	<g id="Camada_3_2_">
		<rect x="221.3" y="235.9" class="st2" width="212.2" height="149.8"/>
		<rect x="244.4" y="360.3" class="st2" width="89.2" height="68.7"/>
		<rect x="202.5" y="226.1" class="st2" width="23" height="115"/>
		<ellipse class="st2" cx="203.6" cy="301.5" rx="18.1" ry="31.4"/>
		<ellipse class="st2" cx="291.1" cy="315" rx="18.1" ry="31.4"/>
		<ellipse class="st2" cx="201" cy="267.2" rx="4.2" ry="14"/>
		<ellipse class="st2" cx="186.9" cy="299.6" rx="2.6" ry="5.2"/>
		<circle class="st2" cx="187" cy="295" r="2.5"/>
	</g>
	<g>
		<g>
			<path class="st3" d="M216.4,659.6c-0.5,0.1-0.9,0.2-1.3,0.4"/>
			<path class="st3" d="M422.4,684.2c0.7,0.4-8.5,7.8-7.8,8"/>
			<path class="st4" d="M234.9,556.5c-14-20.5-18.7-46.2-36.4-64.2c-4.5-4.6-11.6,2.5-7.1,7.1c16.9,17.3,21.4,42.5,34.9,62.2
				C229.9,566.8,238.6,561.8,234.9,556.5z"/>
			<path class="st4" d="M212.8,573.4c-1.9-13.9-9.1-27.3-14.9-39.9c-6-12.9-11.9-25.9-14.8-39.9c-1.3-6.3-10.9-3.6-9.6,2.7
				c2.8,13.7,8.4,26.5,14.3,39.2c6,12.9,13.4,26.4,15.4,40.7C204.1,582.4,213.7,579.7,212.8,573.4z"/>
		</g>
		<g>
			<g>
				<g>
					<path class="st5" d="M217.8,396.4c14,9.7,38,23.8,70.9,31.1c28.5,6.3,52.8,5.2,68.7,3.2"/>
					<path class="st6" d="M254.7,204.1c2,1,4,2.1,5.9,3.1"/>
					<path class="st7" d="M202.8,136.8l-0.1,0.1c-3.4-1.4-6.8-2.9-10.3-4.1c-9-3-10.7-2.9-10.8-14.5c4-0.8,8.1-1.7,12.1-2.5
						c10-2,20.1-4.1,30.1-6.1l-0.2,0.1c11.7-2.1,23.5-4.1,35.2-6.4c10.4-2.1,20.7-4.5,31-6.7c20.1-3.9,40.3-7.7,60.4-11.9
						c5.7-1.2,10.7-0.7,15.8,2c21.5,11.7,43,23.2,64.5,34.8c6.7,3.5,13.5,7.1,20.2,10.6c7.7,3.1,15.4,6.1,23,9.3
						c27.3,11.5,32.2,14.2,37.8,16.4c0.6,0.2,2.3,0.6,4,1.9c1.8,1.4,4.5,4.1,2.9,6.6c-1.1,1.8-6.1,3-8.1,3.9
						c-4.5,2.2-9.4,3.8-14.3,4.8c-0.1,0-0.2,0-0.2,0l-16,4.2c-7.6,1.5-15.1,3.2-22.7,4.8c-7.9,1.7-26.5,5.8-26.5,5.6l0.2-0.1
						c0-0.2-2.5,0.1-3,0.2c-4.6,0.6-44.1,9.1-50,10.4c-18.4,3.9-28.5,6-40.2,2c-1-0.3-6.4-2.7-17.4-7.4c-10.6-4.6-14.9-6.5-20-9.1
						c-5.6-2.8-4.6-2.6-11.1-5.9c-11.1-5.6-21.5-10.2-21.6-10.1l0.2,0.1c0,0-12.5-7.7-27.6-14.3c-6.4-2.8-14.6-6-14.6-5.9
						c0,0,0.2,0.1,0.2,0.2c0,0-1.7-1-2.8-1.6c0,0-0.2-0.1-2.9-1.7c-2.8-1.6-14-7.6-18.7-10.2"/>
					<path class="st8" d="M306.4,126"/>
					<path class="st8" d="M229.7,130.1"/>
					<path class="st9" d="M433.8,251.7c1.9-0.3,3.8-0.6,5.7-0.9c0,0,0,0,0.1,0c4-0.9,8-1.9,12-2.8c0.5-0.1,0.9,0.2,1,0.6
						c4,17.2,7.9,34.4,11.9,51.6c0,0,0,0.1,0,0.2c0.1,1.3-0.1,2.6,0.3,3.9c4.8,18.5,7.7,37.1,4.7,56.2c-2.5,12-9.7,21.5-16.6,31.2
						c-3,4.3-6.1,8.4-9.2,12.6c-0.1,0.1-0.2,0.2-0.3,0.2c-2.2,1.3-4.8,2.1-5.2,5.4c-0.1,0.9-1.8,2-3,2.3c-6,2-12,4.4-18.2,5.4
						c-22.6,3.8-45.2,7.7-67.9,10.5c-15.6,1.9-31.5,1.4-47.4-0.7c-0.3,0-0.5-0.2-0.6-0.4 M295.4,425.1c0,0.2,0,0.4,0,0.4
						c0,0.5-0.5,0.9-1,0.8c-3.4-0.5-6.7-1-10-1.6c-0.1,0.4-0.6,1.1-0.3,1.2c6.1,1.5,13,1,19.2,1.8c7.8-1,19.9,1.6,29.7,1.5
						c22.1-0.4,42.6-0.2,64.2-5.2c2.1-0.5,4.4-0.2,6.6-0.2c0.4,0,0.7,0.2,0.8,0.6c0.1,0.4,0.3,0.9,0.4,1.3
						c3.3,9,10.3,14.9,17.4,20.7c9.1,7.5,10.8,13.6,6.9,24.1c-3.4,9.1-9.8,10.8-17.4,4.5c-1.3-1.1-2.6-2.2-3.9-3.3
						c-0.7-0.6-1.8,0.2-1.3,1.1c1,1.7,2.2,3.3,3.6,4.6c10.3,9.3,13.4,21.5,14.3,34.6c0.3,4.5-2.3,6.3-6.4,4.2
						c-3.4-1.7-6.8-3.7-9.5-6.4c-4.9-4.9-9.4-10.2-13.7-15.1c-0.6-0.7-1.7-0.1-1.5,0.8c1.3,4.1,4.1,7.9,8.1,12.6
						c2.9,3.4,5.8,7.8,6.2,12c1.4,15.7,2.2,31.5,2.4,47.3c0.3,29.1-7,56.2-22.5,81.1c-3.2,5.2-8,8.3-8,8.3
						c-5.4,4.7-10.8,7.6-14.4,9.5c-3.1,1.7-4.5,2.2-10.1,5.1c-3.7,2-5.5,2.9-6.2,3.4c-6.7,4.5-7.2,8.4-13.6,12.9
						c-2.7,1.9-5,2.9-7.2,3.8c-2,0.9-19.2,7.7-37,0c-3-1.3-5.2-2.6-6.4-3.4c-8.3-5.2-11.4-10.4-15.5-14.5
						c-6.7-6.8-10.2-4.6-30.3-13.8c-10.3-4.7-15.4-7-20.5-10.7c-19.5-14.2-25.9-35.2-27.3-39.7c-2.8-9.2-3.6-18.3-3.8-20.8
						c-0.1-1.3-0.4-4.7-0.3-13.5c0.3-23.6,0.4-35.5,1.7-40.3c0.7-2.8,2.9-10.2,0-12.4c-0.2-0.1-0.7-0.6-1.5-0.6
						c-2.4,0-2.9,4.2-6.9,7.3c-0.8,0.7-3.7,2.9-6.2,2.1c-1.6-0.5-2.5-2.1-3.2-3.9c-2.6-6.7-1.4-13.7-1.2-15
						c1.5-8.3,6.2-26,12.5-31.9c0.7-0.7,3.5-3.1,2.9-5.1c-0.2-0.7-0.8-1.2-0.9-1.3c-1.9-1.4-4.9,0.9-8.4,1.7
						c-4.6,1.1-10.6-0.1-12.2-3c-1.8-3.3,2.3-8.7,4.9-12c7-8.9,12.2-10.3,20.3-16.9c11.1-9.2,26.4-27.2,29.3-36.5
						c0.1-0.3,1.7-5.4,4.1-5.5c0.9,0-1.7-0.2,0,0c0.3,0-6.7-3.5,0,0c0.2,0.1-2.9-4.1-2.9-4.1s8.7,3.9,8.5,3.6
						c-0.1-0.1-8.5-3.6-8.5-3.6c-15-8-7.1-4.6-7.1-4.6c-1.3-0.6-7.4-3.5-12.8-8.9c-1.1-1.1-3.8-3.9-8.6-12.8s-7.4-13.7-9.3-21.1
						c-1-4-3.7-14.2-1.9-24.3c0.7-4.3,3.7-16.4,4.2-18.7c0,0,0,0,0-0.1c0,0,0.7-2.9,1.9-5.8c0,0,0-0.1,0.1-0.1
						c0.2-0.5,0.5-1,0.7-1.3 M274.8,535.5c0.5,0.8,1.7,0.4,1.6-0.5c-1.9-13.2,2.8-25.3,7.4-37.4c2.7-7.3,5.8-14.5,8-22
						c0.8-2.7,1.1-5.5,1.4-8.7c0.1-1-1.3-1.3-1.6-0.4c-4.1,10.5-7.8,20.1-11.4,29.8c-2.6,6.8-5.5,13.6-7.1,20.7
						C271.6,523.2,271.6,529.7,274.8,535.5z M285.4,586.6c-3.8-20.7-2.3-40.5,4.5-59.8c0.3-1-1-1.6-1.5-0.7
						c-10.4,17.3-12.5,43.3-4.6,61C284.2,588,285.6,587.6,285.4,586.6z"/>
					<path class="st9" d="M248.5,251.4c0,0-1.8-1-2.6-1.5c0,0-0.1,0-0.1-0.1c-7.3-3.4-14.5-6.8-21.8-10.2c-1.1-0.5-3.5-1.5-4.7-2
						c-4.4-2-5.7-5.6-5.1-10.3c0.3-2.4,0.3-5,0.2-7.4c-0.2-4.4-0.7-8.8-1.1-13.1c0-0.1,0-0.1,0-0.2c-0.1-0.5-0.2-1-0.3-1.5
						c0-0.1,0-0.1-0.1-0.2c-0.3-1-0.7-2.1-1.1-3.4c-0.4-1.3,0.9-2.4,2.1-1.9h0.1c1.5,0.7,2.9-1.2,1.8-2.4c-2.7-3-6.5-5.6-4.8-10.9
						c0.2-0.7,1-1.2,1.8-1c2.4,0.5,4.2,0.6,6.5,1.4c2.9,1,3.5,0.3,7.1,0.9c2.5,0.4,5,1.2,9.3,3.5c12.3,6.3,25,16.3,25,16.3
						c3.7,2.9,8.5,6.8,14,11.8"/>
					<path class="st10" d="M194.5,629.4c-2.6-1.2-5.4-2-7.6-3.7c-38.7-28.5-65.7-65.3-70.6-113.7c-4.1-40.9,9-77.5,42.5-104
						c15.5-12.2,33.5-15.9,52.8-10.3c7.1,2,7.5,3.8,4.3,10.5c-7,15-18.6,25.7-31.5,35.5c-5.8,4.4-11.6,8.9-17.1,13.8
						c-2.8,2.5-5.3,5.6-6.9,9c-2.7,5.4,0.4,10.5,6.3,11.4c2.1,0.3,4.3,0.1,6.4,0c1.9,0,3.9-0.2,6.7-0.4c-1.4,2.2-2.3,3.7-3.2,5.2
						c-7.1,11.1-11.8,23.1-12.1,36.5c-0.1,2.3,0,4.7,0.7,6.9c2.6,8.5,8.3,10.1,14.9,4.2c2-1.7,3.9-3.5,6.5-5.9
						c-1.1,9.7-2.2,18.5-2.9,27.3c-1,11.4-2.2,22.9-2.4,34.4c-0.2,12.2,3.9,23.5,9.8,34.2c1.4,2.6,2.7,5.2,4,7.9
						C195.1,628.6,194.8,629,194.5,629.4z"/>
					<path class="st11" d="M286.5,123.8"/>
					<path class="st11" d="M307.1,125.1"/>
					<path class="st11" d="M228.6,130.2"/>
					<path class="st12" d="M326,115.6"/>
					<path class="st9" d="M177.3,214.7c-5.6-4.6-14-5.5-23.5-13.6c-9.1-7.8-16-14-20.4-17.9c1.7-0.8,3.3-2.2,5-2.2
						c3.6,0,7.2,0.7,10.8,1.3c6.6,1.1,13.2,2.3,19.8,3.5c8.8,2.4,17.5,4.8,26.3,7.2c-8.7,4.8-11,13.7-13.8,22.2
						c-0.1,0-0.2-0.1-0.2,0c-0.3,0.2,0.3,1.4,0,1.7C180.6,217.5,177.3,214.7,177.3,214.7z"/>
					<path class="st10" d="M256.5,103.2"/>
					<path class="st10" d="M225.3,109.8"/>
					<path class="st10" d="M260.5,103.4"/>
					<path class="st10" d="M291.5,96.7"/>
					<path class="st10" d="M197.3,191.3"/>
					<path class="st9" d="M169,185.8c-6.6-1.2-13.2-2.4-19.8-3.5c-3.6-0.6-7.2-1.3-10.8-1.3c-1.6,0-3.3,1.4-5,2.2
						c-0.7-0.8-1.4-1.7-2.4-2.9C144.4,179.8,156.8,181.9,169,185.8z"/>
					<path class="st13" d="M432.4,189.8c2.5-0.3,4.9-0.6,8.5-1c-1.7,6.7-3.3,13.2-4.9,19.6c-9.5,2-19.1,4.1-28.6,6.1
						c-0.3-0.4-0.5-0.8-0.8-1.2c0.9-1.4,1.9-2.7,2.8-4.1c1.6-3.1,3.3-6.1,4.9-9.2c-0.4-0.3-0.9-0.6-1.3-0.9
						c-3.2,2.1-6.4,4.1-9.6,6.1c-17.2,5.5-31.9,13.5-49.4,21.6c-2,1.5-4.3,2.5-6.5,3.8c-9.9,2-19.5-0.1-29.2-1.5
						c-2-0.2-4,0.1-5.9-0.5c-10.5-3.4-21-6.9-31.5-10.4c-2.1-0.7-4.3-1.4-6.4-2.1c-2.2-1.5-4.5-2.9-6.7-4.4
						c-2.5-1.6-4.9-3.1-7.2-4.6c1-6.6,1.9-13.1,2.8-19.6l-0.1,0.2c1-4.9,1.9-9.8,3.2-14.6c0.4-1.3,1.9-2.3,3-3.4l-0.2-0.1
						c7.2,3.4,14.4,6.8,21.6,10.1c3.7,2,7.4,3.9,11.1,5.9c6.7,3,13.3,6.1,20,9.1c5.8,2.5,11.6,4.9,17.4,7.4c3.3,0.9,6.6,2.7,9.7,2.4
						c15.6-1.8,30.7-4.6,46.2-7.3c13.8-4,25-4.7,37.2-7.6L432.4,189.8z"/>
					<path class="st14" d="M269.5,169.8c-1,1.1-2.6,2.1-3,3.4c-1.3,4.8-2.2,9.8-3.2,14.6c0.7-4.9,1-9.9,2.2-14.7
						c1.1-4-0.6-5.1-3.7-6.6c-10.4-4.8-20.7-9.8-31-14.7c-1.3-0.6-2.4-1.5-3.6-2.3c4.9,1.9,9.9,3.6,14.6,5.9
						C251.2,160.1,260.3,165.1,269.5,169.8z"/>
					<path class="st14" d="M290.8,179.8c-7.2-3.4-14.4-6.8-21.6-10.1C276.5,173.1,283.6,176.4,290.8,179.8z"/>
					<path class="st9" d="M403,422.2c0.7-0.6,1.7,0,2.5-0.2c7.9-2,15.8-3.8,23.6-6c2.8-0.8,5.8-1.9,8-3.6c3-2.3,5.9-2.6,9.3-1.5
						c8.3,2.6,14.6,7.8,19.8,14.6c11.2,14.8,17.6,31.6,20.6,49.7c5.4,32.5,4.4,64.7-6.5,96.1c-9.5,27.2-25.4,48.9-53.3,59.8
						c-7.4,2.9-14.6,6.4-22,9.3c-1.6,0.6-4.5,0.7-5.4-0.3c-1-1-1-4-0.2-5.4c14.5-27.3,13.8-56.8,12.8-86.3
						c-0.4-10.6-1.9-21.2-3-32.2c2.1,1,4.1,2.1,6.1,3c7.3,3.3,11.7,0.5,12-7.4c0.3-9-2.8-17-7.8-24.3c-0.9-1.4-1.9-2.7-3.3-4.6
						c8.2-0.2,14.2-3.1,16.1-11.4c2.2-9.4,1-17.8-6.5-24.7c-7.4-6.9-14.6-14-21.9-21C403.9,425,403.2,422.8,403,422.2z"/>
					<path class="st9" d="M276,539c-5.4-6.7-5.9-14.5-4.1-22.1c1.6-7.1,4.5-13.9,7.1-20.7c4.3-11.4,8.7-22.8,13.7-35.7
						c-0.8,5.9-0.8,10.6-2.1,15c-2.2,7.5-5.3,14.7-8,22C277.6,510.9,272.4,524.2,276,539z"/>
					<path class="st9" d="M285.5,592.4c-12.1-19.2-9.3-53.6,5.8-72C281.7,543.5,279.7,567.2,285.5,592.4z"/>
					<path class="st10" d="M310.2,332.9"/>
					<path class="st10" d="M413.8,254.7"/>
					<path class="st10" d="M332.1,348.9"/>
					<path class="st10" d="M327.4,337.6"/>
					<path class="st10" d="M400.5,381.1"/>
					<path class="st15" d="M202.5,254.7c0,0-0.3,0.6-0.6,1.7"/>
					<path class="st9" d="M187.5,297c-0.2,0.5-1.1,4.4-1.1,4.4c0.8-6.5,17.1-59.3,17.8-65.5c1.1,0.4,1.8,0.7,2.6,1
						c0.9,1.8,1.5,3.7,2.7,5.3c0.4,0.5,1.9,0.1,2.9,0.1c0.8-2.1,1.5-4.2,2.2-6c1.9,0.5,3.5,1,5.1,1.4"/>
					<path class="st15" d="M220.3,238"/>
					<path class="st16" d="M274.5,216.3c2.1,0.7,4.3,1.3,6.4,2c10.5,3.5,21,7,31.5,10.4c1.8,0.6,3.9,0.4,5.9,0.5
						c1.3,0.5,2.5,1.4,3.9,1.5c6.6,0.9,13.2,1.5,19.9,2.3c-0.7,1.2-1.2,2.2-1.7,3.1c-4.1,3.6-8.1,7.2-12.2,10.8
						c-0.4-0.4-0.8-0.6-0.8-0.8c0.9-9.3-0.1-10.6-11.2-13.6c-2.4-0.7-4.8-1.2-7.2-1.8c-2.2-0.7-4.3-1.5-6.5-2.1
						c-9.7-2.2-9.8-2.1-11.1,7.4c0,0.3-1.3,0.4-2,0.5c-4.1-5.3-8.1-10.6-12.1-15.9C276.2,219.3,275.4,217.7,274.5,216.3z"/>
					<path class="st16" d="M289.3,236.6c0.7-0.2,2-0.3,2-0.5c1.3-9.5,1.4-9.6,11.1-7.4c2.2,0.5,4.4,1.4,6.5,2.1
						c-3.1-0.6-6.1-1.2-9.2-1.8c-6-1.1-8.6,1.5-7.2,7.4c0.6,2.7,1.8,5.2,2.7,7.9c-0.4,0.2-0.8,0.4-1.2,0.7
						C292.5,242.2,290.9,239.4,289.3,236.6z"/>
					<path class="st16" d="M340.3,236.2c0.5-0.9,1.1-1.9,1.7-3.1c-6.7-0.8-13.3-1.4-19.9-2.3c-1.3-0.2-2.6-1-3.9-1.5
						c9.7,1.4,19.3,3.5,29.2,1.5C345.1,232.5,342.7,234.4,340.3,236.2z"/>
					<path class="st16" d="M259.1,206.6c0.1-0.2,0.1-0.5,0.2-0.7"/>
					<path class="st10" d="M267.8,211.8"/>
					<path class="st10" d="M265.8,210.6"/>
					<path class="st10" d="M295.5,275.1"/>
					<path class="st10" d="M283,264.7"/>
					<path class="st10" d="M289.4,270"/>
					<path class="st16" d="M403.3,205.3c3.2-2.1,6.4-4.1,9.6-6.1c0.4,0.3,0.9,0.6,1.3,0.9c-1.6,3.1-3.3,6.1-4.9,9.2
						c0.9-2.4,1.7-4.8,2.8-7.8C408.9,202.9,406.1,204.1,403.3,205.3z"/>
					<path class="st9" d="M180,477.6c-1.4,2.2-2.3,3.7-3.2,5.2c-7.1,11.1-11.8,23.1-12.1,36.5c-0.1,2.3,0,4.7,0.7,6.9
						c2.6,8.5,8.3,10.1,14.9,4.2c2-1.7,3.9-3.5,6.5-5.9c-1.1,9.7-2.2,18.5-2.9,27.3c-1,11.4-2.2,22.9-2.4,34.4
						c-0.2,12.2,3.9,23.5,9.8,34.2c1.4,2.6,2.7,5.2,4,7.9c-0.3,0.4-0.6,0.8-0.8,1.2c-2.6-1.2-5.4-2-7.6-3.7
						c-38.7-28.5-65.7-65.3-70.6-113.7c-4.1-40.9,9-77.5,42.5-104c15.5-12.2,33.5-15.9,52.8-10.3c7.1,2,7.5,3.8,4.3,10.5
						c-7,15-18.6,25.7-31.5,35.5c-5.8,4.4-11.6,8.9-17.1,13.8c-2.8,2.5-5.3,5.6-6.9,9c-2.7,5.4,0.4,10.5,6.3,11.4
						c2.1,0.3,4.3,0.1,6.4,0C175.2,477.9,177.2,477.7,180,477.6z"/>
					<path class="st12" d="M225.8,338.8"/>
					<path class="st15" d="M352.3,281.2"/>
					<path class="st10" d="M353.3,355.2"/>
					<path class="st10" d="M329.4,327.6"/>
					<path class="st17" d="M309.2,415.7l-3.4,4.3c-1.2-2.9-2.1-5.1-3-7.4c-2.8-15-9.5-28.3-17.3-41.2c-0.9-1.5-1.4-4.7-0.6-5.4
						c10.9-9.9,16.9-22.5,20.9-36.3c0.9-3.5,1.8-6.9,2.8-10.6c6.4,3.3,7.4,9.6,9.5,15.3c1,2.8,2.6,5.3,4,8l0,0c3.5,9,9,16.6,17,22.2
						c0.5,0.4,1,0.8,1.5,1.3c7.7,6.6,7.6,7-0.8,12.1c-9.5,5.7-16,14.4-21.9,23.5c-2.9,4.6-5.6,9.3-8.4,13.9
						C309.4,415.4,309.3,415.5,309.2,415.7z"/>
				</g>
			</g>
			<g id="Camada_4">
			</g>
			<g id="Camada_3">
			</g>
			<path class="st18" d="M318.5,116.6c7.8-4.4,18.5-7.1,30.2-7.1c23.8,0,43.1,11.1,43.1,24.8s-19.3,24.8-43.1,24.8
				s-43.1-11.1-43.1-24.8c0-3.6,1.3-6.9,3.7-10c-10.3,0.1-18.8,0.2-24.9,0.3c-20.5,0.4-26.9,0.9-30.2,1.3c-8.3,0.8-14.5,0-21.1,2.9
				c-5.9,2.6-9.6,6.4-11,8.1c-1.2,1.5-2.1,3.1-2.1,3.1c-1.1,2-1.7,3.7-2,4.7c-3,9.8-6.6,37.2-8,45.4c-1,5.8,3.5,10.1,4.5,15.6
				c0,0,0.1,0.8,0.2,1.2c1.6,9.6,3.8,20.8,1.4,30.4c-0.6,2.4-2.5,7.5-4.6,3c-1.8-3.8-4.8-7-8.5-9.1c-0.6-0.3-1.2-0.6-1.8-0.9
				c-0.5-0.2-1-0.3-1.6-0.5c-5.2-1.4-11-0.1-15.7,2.5c-1.6,0.9-1.7,0.9-1.7,0.9c-1.4,0.8-1.6,1-1.7,1c-0.8-0.3,0.3-4.9,1.2-9.9
				c1-5.9,0.3-5.6,1.1-9.5c0.6-2.9,1.6-7.5,4.7-12.5c0,0,3.3-5.2,9.1-9.7c0.2-0.2,0.2-0.1,0.2-0.2c4.9-3.9,3.5-9.8,5.3-27.8
				c0.1-0.6,0.1-0.9,0.1-1.3c0.6-5.8,1.8-16.6,6.5-25.7c1.2-2.4,5.9-11.6,15.6-17c6.2-3.5,11.6-3.8,24.7-4
				c29.6-0.5,50.8-0.1,74.4-1.2c1,0,1.9-0.1,2.4-0.1"/>
			<ellipse class="st19" cx="347.5" cy="133.7" rx="32.5" ry="18.1"/>
		</g>
		<g id="Camada_3_1_">
		</g>
		<path class="st15" d="M186.3,298.3"/>
		<ellipse class="st20" cx="380.7" cy="319.8" rx="57.9" ry="56.2"/>
		<ellipse class="st21" cx="380.7" cy="320.3" rx="34.1" ry="33.1"/>
		<path class="st22" d="M354.7,319.6c0.1-14.7,10.9-25.3,25.7-25.2c14.2,0,26.4,11.9,26.3,25.6c-0.1,13.8-13.2,27-27.5,26.1
			C366.5,345.4,354.9,336.1,354.7,319.6z"/>
		<ellipse class="st20" cx="245.4" cy="316.8" rx="57.9" ry="56.2"/>
		<ellipse class="st21" cx="244.4" cy="315" rx="34.1" ry="33.1"/>
		<path class="st22" d="M219.4,314.4c0.1-14.7,10.9-25.3,25.7-25.2c14.2,0,26.4,11.9,26.3,25.6c-0.1,13.8-13.2,27-27.5,26.1
			C231.2,340.1,219.6,330.8,219.4,314.4z"/>
		<path class="st23" d="M436.7,411.9c1.3-0.3-1.7,1-13.7,3.9c-14.1,3.5-17,4.6-26.6,6.5c-2.8,0.6-9.4,1.9-18,3.1
			c-1.4,0.2-6.2,0.9-11.3,1.4c-11.8,1.3-20.6,1.2-37.4,1.1c-13-0.1-9.1,0.2-20-0.7c-2.2-0.2-7-0.6-13.4-1.6
			c-11.1-1.6-29.8-4.4-51.8-13.4c-21.5-8.9-26.3-13-17.9-8.5"/>
	</g>
	<g>
		<path class="st24" d="M452.4,280.2c0.4,0.8,0.5,1.3,0.5,1.3c-0.1,0-1-1.5-2.7-4.5 M453,282.1c0,0,2.8,15.9-2.6,24
			c-0.3,0.4-0.6,0.9-0.6,0.9l0,0c-2.3,2.9-5.1,3.6-6.9,4.8c-2.2,1.5-3.1,3.5-4.7,6.9c-4.4,9.5-2.8,16.2-6.7,27.5
			c-1.7,5-3.6,10.3-8.6,14.5c-3.5,3-7.2,4.3-10.3,5.2c-20.9,6-43.3,1.6-43.3,1.6c-16.2-3.2-24.3-4.8-31-11.6
			c-10.2-10.4-14.9-29.4-15.4-31.6c0-0.1-0.1-0.5-0.3-1c-2.2-8.6-4.1-16-6.9-16.2c-0.6,0-1.3,0.3-2.8,1.1c-1,0.5-1.9,1-2.7,1.9
			c-0.1,0.1-0.1,0.1-1.1,1.4c-0.6,0.8-1,1.3-1.1,1.4c-1.8,2.3-8.6,21.9-8.6,21.9c-1.5,4.3-4.4,12.4-11.5,19.3c-3.3,3.2-6.4,5.1-8,6
			c-9.9,5.8-27.5,10.8-46.7,6.1c-6.9-1.7-30.6-7.5-35.9-23.5c-1.2-3.7-4.7-18-6.3-24.7c-0.7-2.9-1.6-6.9-4.7-8.8
			c-1.3-0.8-3.2-1.2-5.5-3.1c0,0-1.3-1.1-2.3-2.4c-2.5-3.3-2.2-8.4-0.3-23.3c0.5-4.3,1-7.6,3.2-8.6c1.5-0.7,3.3-0.1,3.8,0
			c6.6,2.2,22.8,1.9,55.3,1.3c0.4,0,1.3,0,2.5,0c2.7,0,7.2,0.2,12.8,1.1c0.1,0,0.1,0,0.2,0c10.8,1.7,17.3,2.4,23.2,4
			c0.1,0,0.4,0.1,0.7,0.2c0,0,4,1.1,7.7,2.9c5.6,2.7,8,6.3,15.1,9.7c3.3,1.6,4.9,2.4,7.3,2.8c0,0,8,1.2,18.5-4.8
			c0.6-0.4,1.2-0.7,1.2-0.7c0.6-0.4,0.9-0.6,1.9-1.3c0.4-0.3,0.8-0.6,1.2-0.8c13.7-9.2,28.7-11.4,28.7-11.4c2-0.2,4.1-0.3,6.1-0.5
			c35.7-2.4,51.8-2.2,58.6-1.2c1.7,0.3,3.6,0.7,7,1c10.4,0.9,15.1-1.2,18,1.7C452.1,276.9,452.4,278.6,453,282.1z M295.8,322.7
			c2.5-8,1.7-13,1.1-15.3c-1.1-4.5-3.2-7.7-4.7-9.6c-8.6-8.5-19.1-13.5-30.8-16c-4.2-0.5-10.3-1.2-17.7-1.7
			c-16.7-1.2-25.2-1.7-30.9,1.3c-8.1,4.3-13.6,13-14.7,21.2c-0.2,1.4,0.5,6.1,1.8,15.5c1.2,8.7,2.6,16,3.1,18.8
			c0,0.2,0.1,0.3,0.1,0.3c2.9,14.3,21.3,20.3,25.3,21.6c6,2,10.9,2.3,13.8,2.5c3.7,0.2,12.8,0.7,22.4-2.7
			C287.2,350.3,294.6,326.6,295.8,322.7z M347.5,352.4C347.6,352.5,347.2,352.2,347.5,352.4c0.1,0.1,0.3,0.2,0.4,0.3 M353,289.9
			c-8.4,3.5-11.9,6.5-13.1,7.7c-1.3,1.2-3.2,3-4.6,5.5c-2.2,3.9-3.2,9-1.4,18.7c2.6,13.6,4.5,23.5,13.2,30
			c8.6,6.5,21.5,7.7,27.6,8.3c0.3,0,0.7,0.1,0.9,0.1c5.4,0.5,11.1,1,17.7,0.8c4.8-0.1,8.7-0.4,13.6-2c2.9-1,6.9-2.3,10.7-5.8
			c3.4-3.1,5-6.5,6-8.7c1.3-2.8,1.9-5.1,2.2-6.1c3-11.4,8.2-26.8,8-39.9c0-1-0.1-2.7-1-4.6c-2.4-4.5-8-5.9-10.6-6.3
			c-0.2-0.1-0.5-0.3-0.7-0.4c0,0-0.3-0.2-0.7-0.3c-24.5-8.2-54.6-1.2-54.6-1.2C364.5,286,359.4,287.2,353,289.9z"/>
	</g>
</g>
<g id="Camada_5_1_">
	<path class="st25" d="M392.8,261.9c-1.1-3.1-3.9-9.2-10.1-12.2c-6-2.9-12.4-1-18.5,0c-14.6,2.4-15.9,5.4-24.2,4.6
		c-5.6-0.6-7.2-2.1-11.8-1.2c-2.8,0.6-3.1,1.3-12.2,7.2c-7.8,5-10.7,6.5-12,10.3c-0.6,1.9-0.6,3.6-0.5,4.8c0,1.7,0,3.3,0,5
		c0.8,0.3,2.1,0.7,3.6,1c3.3,0.7,6,0.8,8.9,0.7c4.9-0.1,9.1-0.3,13.9-1.4c0.7-0.2,1.4-0.4,2-0.6c2.3-0.8,3.7-1.6,5.7-2.6
		c1.5-0.8-0.7,0.4,5.3-2.6c7.1-3.6,7.3-3.8,9.4-4.8c4.9-2.3,8.9-3.4,13.4-4.6c4.6-1.2,8-1.8,11.8-2.4c4.2-0.7,7.8-1.1,10.6-1.4"/>
	<path class="st25" d="M540.2,361.6"/>
	<path class="st26" d="M313.7,213.4c6.5,3.9,13.6,6.9,23.8,7c1.2,0,4.6-0.4,11.5-1.1c20.6-2.2,37.2-4.7,48.2-6.5l11.5,6.5l20.9-1.3
		l4.2-0.7l4.8-15.8l4-12.7l-40.9,7.7l-34.7,6.9c-8.9,0.7-12.7,1.3-14.6,1.7c-0.4,0.1-1.6,0.4-3.3,0.4c-1.3,0-2.5-0.2-4-0.5
		c-3.2-0.8-5.6-1.8-5.7-1.9c-7.7-3.5-15.8-6.3-23.4-10.1c-24-11.9-20.1-9.6-25.1-12.3c-7.8-4.2-12.8-7.5-16.4-9.6l-9.3-5.1
		l-1.1,18.1L313.7,213.4z"/>
	<path class="st10" d="M265.3,168.2c-0.4,0.2-0.7,0.5-1.1,0.9"/>
	<path class="st27" d="M301.1,311.9c0.3-1.5,1.6-7.1,3.4-9.7c2.9-4,8.1-5.8,9.5-6.3"/>
	<path class="st27" d="M178.9,283.8c0.6-3.1,1.1-5.6,1.6-8.1c0.2-1,0.4-1.8,1.1-2.3c1.2-0.9,2.8,0.1,5.8,0.9
		c1.3,0.3,3.7,0.5,8.3,0.9c1.8,0.1,3.2,0.2,5.9,0.4c3.1,0.2,5.8,0.3,8.3,0.4"/>
	<path class="st27" d="M450.2,282.3c-0.1-0.8-0.3-1.8-0.6-2.8c-0.5-1.5-0.7-2.3-1.3-2.9c-1.8-1.9-5.3-0.1-10.3,0.4
		c-3.9,0.4-4.1-0.5-12.1-1.3c-3-0.3-7.3-0.6-12.6-0.5H403h-9"/>
	
		<ellipse transform="matrix(0.5775 -0.8164 0.8164 0.5775 -146.3582 315.6702)" class="st28" cx="231.8" cy="299.2" rx="6.3" ry="10.7"/>
	
		<ellipse transform="matrix(0.5775 -0.8164 0.8164 0.5775 -93.1588 427.845)" class="st28" cx="366.8" cy="303.9" rx="6.3" ry="10.7"/>
	<path class="st28" d="M505.4,171.6c-0.3,0.1-0.6,0.2-1,0.3"/>
	<path class="st28" d="M500.2,173.3c-1,0.3-2,0.6-3,0.9"/>
	<path class="st28" d="M490.3,176.4c-0.4,0.1-0.7,0.2-1.1,0.3"/>
	<path class="st28" d="M486.3,177.7c-0.3,0.1-0.6,0.2-1,0.3"/>
	<path class="st29" d="M482.3,179c-1.6,0.5-2.6,0.8-2.6,0.8l-37.1,9l-26,4.9c-17.3,2.9-34.6,6-52.1,9.2c-1.9,0.3-6.1,2.1-12.1,2.2
		c-10.1,0.1-23.9-7.6-24.3-7.8l-137.5-64.1c-1.9-0.5-4.5-1.6-6.4-3.9c-1.2-1.4-1.7-3-2-3.7c-0.6-1.7-1.8-5.9-0.6-7.3
		s5.8-0.6,19.4,7.7l28.7,14.6L286,166c19.2,8,33.7,14.2,40,17c3.4,1.5,5.2,2.3,7.9,3.6c5.9,2.9,6.9,3.8,9.4,4.7
		c2.8,1,7.1,1.8,13.3,0.4l55.1-9.4l53.3-10.1c19.9-4.6,34.5-8,38.9-9c4.2-0.9,5-1,6.8-1.8c2.4-1,3.4-2,4.9-1.6
		c0.5,0.1,0.9,0.4,1.8,1c0.8,0.6,1.4,0.9,1.8,1.5c1.1,1.6,0.5,3.7,0.4,4.1c-0.6,2-2.3,3-2.7,3.2L482.3,179z"/>
	<path class="st28" d="M507.7,170.9"/>
	<path class="st28" d="M515,168.6"/>
	<path class="st30" d="M462.7,604.7c-5.4,6.2-9.9,11.3-17.4,16.6c-1.7,1.2-7,4.8-14.3,8.1c-3.4,1.5-4.5,1.7-11.3,4.7
		c-2.9,1.3-5.9,2.2-8.6,3.8c-1.8,1-3.5,2.1-6,2.5c-0.8,0.1-3.4,0.4-3.4,0.4c1.4,0-3.1,0.8-4-0.2c-1.2-1.2,1.6-5.6,1.8-5.9
		c7.5-11.8,63.8-37.8,65.7-33.3C465.3,601.7,464.4,602.7,462.7,604.7z"/>
	<path class="st30" d="M430.3,609.6c-5.4,6.2-9.9,11.3-17.4,16.6c-1.7,1.2-7,4.8-14.3,8.1c-3.4,1.5-4.5,1.7-11.3,4.7
		c-2.9,1.3-5.9,2.2-8.6,3.8c-1.8,1-3.5,2.1-6,2.5c-0.8,0.1-3.4,0.4-3.4,0.4c1.4,0-3.1,0.8-4-0.2c-1.2-1.2,1.6-5.6,1.8-5.9
		c7.5-11.8,63.8-37.8,65.7-33.3C432.9,606.7,432,607.7,430.3,609.6z"/>
	<path class="st30" d="M199.2,631.8c0.1,0,0.3,0.1,0.4,0.1c1.1,0.3,2.2,0.6,3.2,0.9l0,0c-1.3-0.2,3,1.2,4,0.3c1.3-1.1-0.8-5.8-1-6.1
		c-5.8-12.7-58-46.3-60.5-42c-0.2,0.3,0.5,1.4,2,3.6c4.5,6.9,8.2,12.6,15,18.9c3.4,3.1,5.6,5.2,9.2,7.4c2.4,1.5,3.9,2,6.5,4.1
		c1.7,1.3,3.2,2.7,5.4,4.7c2.9,2.7,2.9,2.8,4,3.6c1.5,1.1,3.8,2.4,7.2,3.2"/>
	<path class="st30" d="M171.3,593.1c5.4,6.2,9.9,11.3,17.4,16.6c1.7,1.2,7,4.8,14.3,8.1c3.4,1.5,4.5,1.7,11.3,4.7
		c2.9,1.3,5.9,2.2,8.6,3.8c1.8,1,3.5,2.1,6,2.5c0.8,0.1,3.4,0.4,3.4,0.4c-1.4,0,3.1,0.8,4-0.2c1.2-1.2-1.6-5.6-1.8-5.9
		c-7.5-11.8-63.8-37.8-65.7-33.3C168.8,590.1,169.6,591.1,171.3,593.1z"/>
</g>
<g id="Camada_7">
	<path class="st25" d="M386,424.1c0.9-0.1,1.6-0.2,1.8-0.3 M394.9,422.7c0.9-0.4,0.8-0.1,9.6-1.8c1.9-0.4,2.6-0.5,3.6-0.3
		c2.8,0.6,4.2,3.2,5.9,5.5c0.7,1,0.2,0.2,9.8,8.7c11.2,10.1,5.2,5.2,9.3,8.8c1,0.9,3.5,3.1,5.2,6.7c0.2,0.4,0.3,0.6,0.3,0.7
		c1.7,4.1,1.5,7.8,1.3,9.7c-0.1,1.8-0.4,4.7-2,8c-1.3,2.8-3.2,6.9-7.1,7.9c-3.4,0.9-8.2-0.6-10.7-3.4c-0.1-0.1-0.5-0.7-1.1-1.4
		c-1-1.1-2.5-2.7-2.7-2.6c-0.3,0.2,3.4,4.8,7.8,11.3c3.7,5.6,5.6,8.3,6.9,11.2c0,0,3.2,6.8,3.4,17.8c0,0.3,0.1,1.1-0.1,2.1
		c-0.3,1.6-1.2,2.7-1.6,3.2c-0.1,0.1-1.6,1.8-3.5,2.4c-1.3,0.4-3.4,0.4-8.2-3.1c-4-3-4.9-4.7-9.8-9.4c-4.6-4.4-7.4-6.2-7.4-6.1
		c0,0,0.3,0.2,0.7,0.6c1.7,1.5,2.5,2.8,3.8,4.5c1.5,1.9,1.4,1.6,2.6,3.1c1,1.3,2.1,2.7,3,4.8c0.6,1.3,0.9,2.3,1.3,3.6
		c0,0,0.5,1.5,0.8,3c4.7,18.9,2.2,46.3,2.2,46.3c0,11.9-1.9,23.1-3.2,30c-1.3,7.2-4.4,13.8-10.7,26.8c-4.5,9.5-6.9,14.6-11.5,20.6
		c-3.4,4.6-9,11.8-18.7,17.8c-8.7,5.3-15.4,6.7-15.4,6.7c-2,0.8-4.2,1.6-6.7,3.4c-3.8,2.7-5.2,5.3-7.2,7.7
		c-5.9,7.1-14.9,9.2-18.7,10.1c-7.2,1.7-13.1,0.9-15.8,0.5c-7.4-1.1-12.6-3.7-14.2-4.5c-7.3-3.9-12.4-9.4-14.2-11.3
		c-2.7-3-3.7-4.7-6.7-6.7c-2.8-1.9-5-2.4-9.6-3.8c-4.3-1.4-8.4-3.1-12.6-4.6c-9.3-3.3-22.8-8-33.8-19.1c-4.2-4.2-7.2-8.5-8.3-10.1
		c-3.4-5.1-5.4-9.4-7.2-13.3c-1.8-3.9-2.9-7-5-13c-1.4-3.8-3-8.5-3.7-10.7c-5.8-18.8,0.5-35.1-2.1-45.8c-0.3-1.2-1.5-5.8-0.4-11.4
		c0.1-0.7,0.2-0.8,0.3-1.5c0.6-2.9,1-6.9,0-12.3c-0.2-0.1-0.7-0.6-1.5-0.6c-2.4,0-3,4.2-7,7.2c-0.8,0.7-3.8,2.9-6.3,2.1
		c-1.6-0.5-2.5-2.1-3.3-3.9c-2.6-6.6-1.4-13.5-1.2-14.8c1.5-8.2,6.3-25.7,12.7-31.5c0.7-0.7,3.6-3.1,3-5c-0.2-0.7-0.8-1.2-0.9-1.3
		c-1.9-1.4-5,0.9-8.6,1.7c-4.7,1.1-10.8-0.1-12.4-3c-1.8-3.3,2.3-8.6,5-11.9c7.1-8.8,12.4-10.2,20.7-16.7c0.1-0.1,0,0,0,0
		c12.7-8.5,17.7-28.9,27.2-31.7c7.5-2.2,11.5,8.4,29.2,17.5c10.8,5.6,19.6,7,33.6,9.1c25,3.9,25.4-1.6,59,0c21.4,1,41,4.1,46.1-4.8
		C389.9,429.7,390.5,424.7,394.9,422.7z M280.6,533.2c0.5,0.8,1.7,0.4,1.6-0.5c-1.9-13,2.9-25,7.5-37c2.7-7.2,5.9-14.3,8.1-21.7
		c0.8-2.7,1.1-5.4,1.4-8.6c0.1-1-1.3-1.3-1.6-0.4c-4.2,10.4-7.9,19.9-11.6,29.5c-2.6,6.7-5.6,13.4-7.2,20.5
		C277.4,521,277.4,527.4,280.6,533.2z M291.4,583.7c-3.9-20.5-2.3-40,4.6-59.1c0.3-1-1-1.6-1.5-0.7c-10.6,17.1-12.7,42.8-4.7,60.3
		C290.2,585.1,291.6,584.7,291.4,583.7z"/>
	<path class="st25" d="M89.2,334.2"/>
	<path class="st25" d="M180.2,536.1c0.1-0.7,0.2-0.8,0.3-1.5c0.6-2.9,1-6.9,0-12.3c-0.2-0.1-0.7-0.6-1.5-0.6c-2.4,0-3,4.2-7,7.2
		c-0.8,0.7-3.8,2.9-6.3,2.1c-1.6-0.5-2.5-2.1-3.3-3.9c-2.6-6.6-1.4-13.5-1.2-14.8c1.5-8.2,6.3-25.7,12.7-31.5c0.7-0.7,3.6-3.1,3-5
		c-0.2-0.7-0.8-1.2-0.9-1.3c-1.9-1.4-5,0.9-8.6,1.7c-4.7,1.1-10.8-0.1-12.4-3c-1.8-3.3,2.3-8.6,5-11.9c7.1-8.8,12.4-10.2,20.7-16.7
		c0,0,12.4-7.6,29.7-35.6c2.1-3.5,3.2-6.9,3.2-7.2c0.3-0.9,0-1.9,0.5-2.2c0.9-0.4,2.2,1.8,5.4,3.9c1.3,0.8,1.1,0.5,5.5,2.6
		c3.4,1.6,3.4,1.8,6.2,3.1c1.7,0.8,3.2,1.4,6,2.6c2.6,1.1,4.7,2,5.8,2.4c0,0,3.6,1.5,6.7,2.6c13.2,5,29.1,7.9,29.1,7.9
		c8,1.5,16.4,2,33.3,3.1c0,0,20.4,1.3,34.3-0.1c0,0,0.4,0,0.8-0.1c0,0,1-0.1,1.9-0.1c1.2-0.1,1.9,0,3-0.1c0,0,0.8,0,3.4-0.1
		c12.9-0.5,19.9-1.6,19.9-1.6c10.1-1.7,15.1-2.5,16.4-2.9c0.6-0.2,2-0.7,3.6-0.3c2.8,0.6,4.2,3.2,5.9,5.5c0.7,1,0.2,0.2,9.8,8.7
		c11.2,10.1,5.2,5.2,9.3,8.8c1,0.9,3.5,3.1,5.2,6.7c0.2,0.4,0.3,0.6,0.3,0.7c1.7,4.1,1.5,7.8,1.3,9.7c-0.1,1.8-0.4,4.7-2,8
		c-1.3,2.8-3.2,6.9-7.1,7.9c-3.4,0.9-8.2-0.6-10.7-3.4c-0.1-0.1-0.5-0.7-1.1-1.4c-1-1.1-2.5-2.7-2.7-2.6c-0.3,0.2,3.4,4.8,7.8,11.3
		c3.7,5.6,5.6,8.3,6.9,11.2c0,0,3.2,6.8,3.4,17.8c0,0.3,0.1,1.1-0.1,2.1c-0.3,1.6-1.2,2.7-1.6,3.2c-0.1,0.1-1.6,1.8-3.5,2.4
		c-1.3,0.4-3.4,0.4-8.2-3.1c-4-3-4.9-4.7-9.8-9.4c-4.6-4.4-7.4-6.2-7.4-6.1c0,0,0.3,0.2,0.7,0.6c1.7,1.5,2.5,2.8,3.8,4.5
		c1.5,1.9,1.4,1.6,2.6,3.1c1,1.3,2.1,2.7,3,4.8c0.6,1.3,0.9,2.3,1.3,3.6c0,0,0.5,1.5,0.8,3c4.7,18.9,2.2,46.3,2.2,46.3
		c0,11.9-1.9,23.1-3.2,30c-1.3,7.2-4.4,13.8-10.7,26.8c-4.5,9.5-6.9,14.6-11.5,20.6c-3.4,4.6-9,11.8-18.7,17.8
		c-8.7,5.3-15.4,6.7-15.4,6.7c-2,0.8-4.2,1.6-6.7,3.4c-3.8,2.7-5.2,5.3-7.2,7.7c-5.9,7.1-14.9,9.2-18.7,10.1
		c-7.2,1.7-13.1,0.9-15.8,0.5c-7.4-1.1-12.6-3.7-14.2-4.5c-7.3-3.9-12.4-9.4-14.2-11.3c-2.7-3-3.7-4.7-6.7-6.7
		c-2.8-1.9-5-2.4-9.6-3.8c-4.3-1.4-8.4-3.1-12.6-4.6c-9.3-3.3-22.8-8-33.8-19.1c-4.2-4.2-7.2-8.5-8.3-10.1
		c-3.4-5.1-5.4-9.4-7.2-13.3c-1.8-3.9-2.9-7-5-13c-1.4-3.8-3-8.5-3.7-10.7c-5.8-18.8,0.5-35.1-2.1-45.8
		C180.4,546.2,179.2,541.7,180.2,536.1z M268.1,535.3c0.5,0.8,1.7,0.4,1.6-0.5c-1.9-13,2.9-25,7.5-37c2.7-7.2,5.9-14.3,8.1-21.7
		c0.8-2.7,1.1-5.4,1.4-8.6c0.1-1-1.3-1.3-1.6-0.4c-4.2,10.4-7.9,19.9-11.6,29.5c-2.6,6.7-5.6,13.4-7.2,20.5
		C264.9,523.1,264.9,529.5,268.1,535.3z M278.9,585.8c-3.9-20.5-2.3-40,4.6-59.1c0.3-1-1-1.6-1.5-0.7c-10.6,17.1-12.7,42.8-4.7,60.3
		C277.7,587.2,279.1,586.8,278.9,585.8z"/>
</g>
<g>
	<path class="st31" d="M185.5,537.1c0.1-0.7,0.2-0.8,0.3-1.5c0.6-2.9,1-6.9,0-12.3c-0.2-0.1-0.7-0.6-1.5-0.6c-2.4,0-3,4.2-7,7.2
		c-0.8,0.7-3.8,2.9-6.3,2.1c-1.6-0.5-2.5-2.1-3.3-3.9c-2.6-6.6-1.4-13.5-1.2-14.8c1.5-8.2,6.3-25.7,12.7-31.5c0.7-0.7,3.6-3.1,3-5
		c-0.2-0.7-0.8-1.2-0.9-1.3c-1.9-1.4-5,0.9-8.6,1.7c-4.7,1.1-10.8-0.1-12.4-3c-1.8-3.3,2.3-8.6,5-11.9c7.1-8.8,12.4-10.2,20.7-16.7
		c0,0,12.4-7.6,29.7-35.6c2.1-3.5,3.2-6.9,3.2-7.2c0.3-0.9,0-1.9,0.5-2.2c0.9-0.4,2.2,1.8,5.4,3.9c1.3,0.8,1.1,0.5,5.5,2.6
		c3.4,1.6,3.4,1.8,6.2,3.1c1.7,0.8,3.2,1.4,6,2.6c2.6,1.1,4.7,2,5.8,2.4c0,0,3.6,1.5,6.7,2.6c13.2,5,29.1,7.9,29.1,7.9
		c8,1.5,16.4,2,33.3,3.1c0,0,20.4,1.3,34.3-0.1c0,0,0.4,0,0.8-0.1c0,0,1-0.1,1.9-0.1c1.2-0.1,1.9,0,3-0.1c0,0,0.8,0,3.4-0.1
		c12.9-0.5,19.9-1.6,19.9-1.6c10.1-1.7,15.1-2.5,16.4-2.9c0.6-0.2,2-0.7,3.6-0.3c2.8,0.6,4.2,3.2,5.9,5.5c0.7,1,0.2,0.2,9.8,8.7
		c11.2,10.1,5.2,5.2,9.3,8.8c1,0.9,3.5,3.1,5.2,6.7c0.2,0.4,0.3,0.6,0.3,0.7c1.7,4.1,1.5,7.8,1.3,9.7c-0.1,1.8-0.4,4.7-2,8
		c-1.3,2.8-3.2,6.9-7.1,7.9c-3.4,0.9-8.2-0.6-10.7-3.4c-0.1-0.1-0.5-0.7-1.1-1.4c-1-1.1-2.5-2.7-2.7-2.6c-0.3,0.2,3.4,4.8,7.8,11.3
		c3.7,5.6,5.6,8.3,6.9,11.2c0,0,3.2,6.8,3.4,17.8c0,0.3,0.1,1.1-0.1,2.1c-0.3,1.6-1.2,2.7-1.6,3.2c-0.1,0.1-1.6,1.8-3.5,2.4
		c-1.3,0.4-3.4,0.4-8.2-3.1c-4-3-4.9-4.7-9.8-9.4c-4.6-4.4-7.4-6.2-7.4-6.1c0,0,0.3,0.2,0.7,0.6c1.7,1.5,2.5,2.8,3.8,4.5
		c1.5,1.9,1.4,1.6,2.6,3.1c1,1.3,2.1,2.7,3,4.8c0.6,1.3,0.9,2.3,1.3,3.6c0,0,0.5,1.5,0.8,3c4.7,18.9,2.2,46.3,2.2,46.3
		c0,11.9-1.9,23.1-3.2,30c-1.3,7.2-4.4,13.8-10.7,26.8c-4.5,9.5-6.9,14.6-11.5,20.6c-3.4,4.6-9,11.8-18.7,17.8
		c-8.7,5.3-15.4,6.7-15.4,6.7c-2,0.8-4.2,1.6-6.7,3.4c-3.8,2.7-5.2,5.3-7.2,7.7c-5.9,7.1-14.9,9.2-18.7,10.1
		c-7.2,1.7-13.1,0.9-15.8,0.5c-7.4-1.1-12.6-3.7-14.2-4.5c-7.3-3.9-12.4-9.4-14.2-11.3c-2.7-3-3.7-4.7-6.7-6.7
		c-2.8-1.9-5-2.4-9.6-3.8c-4.3-1.4-8.4-3.1-12.6-4.6c-9.3-3.3-22.8-8-33.8-19.1c-4.2-4.2-7.2-8.5-8.3-10.1
		c-3.4-5.1-5.4-9.4-7.2-13.3c-1.8-3.9-2.9-7-5-13c-1.4-3.8-3-8.5-3.7-10.7c-5.8-18.8,0.5-35.1-2.1-45.8
		C185.6,547.2,184.4,542.7,185.5,537.1z M273.4,536.3c0.5,0.8,1.7,0.4,1.6-0.5c-1.9-13,2.9-25,7.5-37c2.7-7.2,5.9-14.3,8.1-21.7
		c0.8-2.7,1.1-5.4,1.4-8.6c0.1-1-1.3-1.3-1.6-0.4c-4.2,10.4-7.9,19.9-11.6,29.5c-2.6,6.7-5.6,13.4-7.2,20.5
		C270.1,524.1,270.1,530.5,273.4,536.3z M284.2,586.8c-3.9-20.5-2.3-40,4.6-59.1c0.3-1-1-1.6-1.5-0.7c-10.6,17.1-12.7,42.8-4.7,60.3
		C283,588.2,284.4,587.8,284.2,586.8z"/>
	<path class="st32" d="M351.8,669.8"/>
	<path class="st33" d="M308.6,319.1c-0.3,0.1-0.5,0.9,3.7,12.3c4.1,11.1,6.2,16.6,8.2,20.2c4.7,8.3,7.7,9.8,7.7,14.9
		c0,1.8-0.4,3.2-3.8,10.1c-4.1,8.3-6.2,11.4-10.1,18.7c-3.6,6.8-5.3,10.8-6.7,15.4c-0.3,1.1-2.7,9-1.7,9.4c0.8,0.3,2.8-3.4,8.5-12.6
		c5-8,7.5-12,10.6-15.8c4.6-5.6,7.6-9.3,11.7-11.5c0.8-0.4,3.2-1.6,6.1-3.9c2.1-1.7,3.3-2.5,3.5-3.3c0.5-2.5-3.3-4.6-9.1-9.8
		c-2.5-2.3-6.3-5.7-9.6-10.4c-3.1-4.3-4.8-8.3-6.7-12.9c-2.7-6.2-2.4-7.4-4.8-11.7C313.3,323.4,309.5,318.6,308.6,319.1z"/>
	<path class="st25" d="M218,247.7c0.3,0.1,0.7,0.2,1.1,0.4c0.1,0,0.1,0.1,0.2,0.1"/>
	<path class="st25" d="M211.7,241c-0.1-0.4-0.2-0.7-0.2-0.7c-0.2-1.8-3.3-5-3.3-5c-1.4-1.7-4-4.7-5.2-4.1c-0.5,0.2-0.5,1-0.5,2.8
		c0,4.4,0.1,6.5,0.4,7.6c0.6,1.6,1.9,2.4,4,3l28.5,11.4c1.9,1.4,4.4,3,7.9,3.4c1.5,0.2,1.5-0.1,4.6,0c4,0.1,7.1,0.6,8.9,1
		c1,0.2,3.7,0.7,7.2,1.9c3.9,1.3,6.7,2.7,8.9,3.8c2.4,1.2,1.9,1.1,6,3.4c2.6,1.4,5.7,3.1,9.9,5.1c0.7,0.3,2.7,1.2,5.5,2.4
		c4,1.6,9.2,3.9,9.4,3.5c0.2-0.5-9.2-5.6-15.9-9.2c-10.9-5.7-13.2-6.4-24.8-12.2c-16.4-8.3-13.6-8-21.2-11.1
		c-4.7-2-11.7-4.6-21.1-9.7l-3.5-1.9c0,0.3-0.1,0.7-0.3,1.2c-0.1,0.3-0.3,0.6-0.8,1.3c-0.7,1-1,1.4-1.3,1.8c-0.6,0.8-0.8,1-1.1,1.2
		s-0.9,0.6-1.3,0.4C212,241.9,211.8,241.5,211.7,241z"/>
	<path class="st25" d="M212.2,246c0.2,0,0.4,0.1,0.5,0.1"/>
	<path class="st25" d="M214.4,246.6c0.4,0.1,0.8,0.2,1.2,0.4"/>
	<path class="st25" d="M438.7,411c-0.2,0.3-0.3,0.4-0.5,0.7c-1.7,2-4.7,1.4-7.8,2.2c-2.9,0.8-3.1,1.2-3.4,1
		c-1.9-1.8,15-23.2,27-45.3c1.1-2,3-5.6,4.6-10.8c2.1-7.2,2.2-12.8,2.2-19.9c0-7.5,0-24.6-5-31.4c-0.6-0.8-2-2.5-2.2-5
		c-0.2-2.9,1.4-6.5,1.4-6.5s0.1-4.6,0-8.4c-0.2-5.5-0.3-8.3-1.9-11c-0.6-1.1-2.1-3.6-4.3-3.8c-1.4-0.2-2,0.7-2.9,0.2
		c-1.6-0.9-0.1-4.3-2.2-6.2c-0.7-0.7-1.4-0.8-2.9-1.2c-2.8-0.8-5.2-0.3-5.8-0.2c-2.8,0.4-12.8,0.5-35,0c-0.6-0.2-1.5-0.4-2.6-0.7
		c-1.8-0.4-7-1.7-14.2-1.9c-2-0.1-4.7-0.1-7.9,0.2l20.7-4.3l35.3-6.4l21.6-5c2.6,13.1,4.9,23.8,6.5,31c2,9.4,4,18,6.7,31.4
		c1.7,8.2,2.9,14.7,4,22.9c2.1,15.5,1.5,20.3,1.2,22.6c-1.3,8.1-4.2,14.1-6.6,18.7c-0.4,0.7-1.4,2.5-3.5,6c-2.2,3.7-3.3,5.6-4.6,7.5
		c-1.8,2.8-1.9,2.7-5.8,8.2c-5.6,7.9-4.9,7.5-6.2,8.9C443.3,405.5,440.7,407.8,438.7,411z"/>
	<path class="st25" d="M442.1,404.5c-0.4,0.3-0.8,0.6-1.2,0.9"/>
</g>
<g id="Camada_6">
	<path class="st28" d="M320.5,115.5l-31.8,0.7l-24.5,0.2c-6.3,0.2-9.5,0.2-13.9,0.2c-5.1,0-6.6-0.2-12.4,0.4
		c-2.9,0.3-5.2,0.7-6.7,0.9"/>
	<path class="st34" d="M291.6,282.9c-1.1-1.4-2.5-3-4.2-4.8c-2.4-2.4-6.7-6.5-13.1-10c-3.4-1.9-10.5-5.4-20.3-6.9
		c-4-0.6-7.5-0.7-10.4-0.6"/>
	<path class="st34" d="M242.6,260.7"/>
	<path class="st34" d="M397.9,266.1c-2.6-0.8-5.9-1.6-9.6-2c-4.2-0.5-7.6-0.5-9.4-0.4c-1.2,0-6.5,0.3-13.2,2c-4.3,1.1-7.3,2.3-8,2.6
		c-2.5,1.1-4.7,2.2-6.3,3.1"/>
</g>
<g id="Camada_4_1_">
	<path class="st9" d="M247.8,251.3l53.6,28.5c1.6,0.8,3.4,1.4,4.4,1.6c4.7,1.1,11.6-0.1,18.2-3.3c0.1-0.1,0.3-0.1,0.4-0.2
		s0.2-0.1,0.2-0.1c24-12.1,110-26,110-26c2.5-0.4,4.1-0.8,4.1-0.8c1.3-0.3,2-0.5,4-1c1-0.2,1.4-0.3,2.4-0.5c3.6-0.8,5.3-1.2,6.4-1.5
		c2.4-0.8,3.9-2,4.7-2.6c8.1-5.7,31-13.7,30.2-17.3c-0.2-0.7-1.2-0.9-10.1-2c-9.7-1.2-17-2-17-2.4c0-0.1,0.4-0.1,5.2-0.8
		c0.5-0.1,0.9-0.1,1.5-0.2c0,0,2.1-0.3,3.7-0.6c5.5-1,15.3-9.7,15.3-9.7c6.3-5.6,10.5-9.5,11.6-13.8c0.4-1.5,0.5-3.4,1.6-6.8
		c0.6-1.8,1.3-3.5,0.9-3.7c-0.3-0.2-0.8,0.4-2.5,1.4c0,0,0,0-2,1.1c-3.8,2.1-38.9,11.6-46.8,14.6c-0.5,0.2-3.6,1.4-7.7,2.6
		c-1.8,0.6-3,0.9-3.9,1.1c-1.5,0.4-3.3,0.9-5.7,1.3c-2.7,0.5-3,0.3-4.7,0.7c-1.9,0.4-3.9,1-3.9,1s-13.8,3.9-14.3,3.1
		c0,0,0,0-0.1-0.1c-0.2-0.3-0.3-0.4-0.3-0.5c-0.3-0.4-0.4-0.6-0.4-0.6c-0.2-0.5,0.7-1.2,1.4-2c0,0,0.6-0.7,1.4-2
		c0.7-1.2,0.7-1.8,1.3-3.6c1-2.9,1.8-3.8,1.5-4.2c-0.4-0.4-1.7,0.6-4.6,2c0,0-1.4,0.6-4.2,1.8c-5.1,2.2-36.2,14.9-49.4,21.6
		c-1.3,0.7-3.6,1.9-6.5,3.8c-3.4,2.3-5.9,4.4-7.2,5.5c-7.2,6.3-10.2,11.7-12.2,10.8c-0.3-0.1-0.4-0.4-0.8-0.8c-2.1-3,0.3-6-0.8-8.7
		c-0.8-2.1-4-3-10.4-4.9c-1.1-0.3-0.4-0.1-7.2-1.8c-4.7-1.2-6.5-1.7-9.2-1.8c-3.2-0.2-5.2-0.2-6.4,1.1c-1.6,1.7-1,4.8-0.7,6.3
		c0.7,3.6,3.1,7.8,2.7,8c0,0-0.1,0-0.5,0.2c-0.1,0-0.1,0.1-0.2,0.1c-0.3,0.1-0.5,0.2-0.5,0.2c-0.5,0.1-2.1-3.5-2.4-4.1
		c-0.1-0.2-0.8-1.5-2.4-4.2c-4.4-7.7-9.8-9.5-12.1-15.9c-0.4-1-0.9-2.9-2.7-4.5c-1-0.9-1.2-0.6-3.4-2.2c0,0-2.4-1.8-3.4-2.2
		c0,0-0.1-0.1-0.3-0.1c-0.1-0.1-0.2-0.1-0.3-0.2"/>
</g>
<g id="Camada_3_3_">
	<path class="st18" d="M318.5,116.6c7.8-4.4,18.5-7.1,30.2-7.1c23.8,0,43.1,11.1,43.1,24.8s-19.3,24.8-43.1,24.8
		s-43.1-11.1-43.1-24.8c0-3.6,1.3-6.9,3.7-10c-10.3,0.1-18.8,0.2-24.9,0.3c-20.5,0.4-26.9,0.9-30.2,1.3c-8.3,0.8-14.5,0-21.1,2.9
		c-5.9,2.6-9.6,6.4-11,8.1c-1.2,1.5-2.1,3.1-2.1,3.1c-1.1,2-1.7,3.7-2,4.7c-3,9.8-6.6,37.2-8,45.4c-1,5.8,3.5,10.1,4.5,15.6
		c0,0,0.1,0.8,0.2,1.2c1.6,9.6,3.8,20.8,1.4,30.4c-0.6,2.4-2.5,7.5-4.6,3c-1.8-3.8-4.8-7-8.5-9.1c-0.6-0.3-1.2-0.6-1.8-0.9
		c-0.5-0.2-1-0.3-1.6-0.5c-5.2-1.4-11-0.1-15.7,2.5c-1.6,0.9-1.7,0.9-1.7,0.9c-1.4,0.8-1.6,1-1.7,1c-0.8-0.3,0.3-4.9,1.2-9.9
		c1-5.9,0.3-5.6,1.1-9.5c0.6-2.9,1.6-7.5,4.7-12.5c0,0,3.3-5.2,9.1-9.7c0.2-0.2,0.2-0.1,0.2-0.2c4.9-3.9,3.5-9.8,5.3-27.8
		c0.1-0.6,0.1-0.9,0.1-1.3c0.6-5.8,1.8-16.6,6.5-25.7c1.2-2.4,5.9-11.6,15.6-17c6.2-3.5,11.6-3.8,24.7-4c29.6-0.5,50.8-0.1,74.4-1.2
		c1,0,1.9-0.1,2.4-0.1"/>
	<ellipse class="st19" cx="348.5" cy="132.7" rx="32.5" ry="18.1"/>
	<path class="st35" d="M211.3,185.8c-0.2-0.1-0.2-0.2-0.2-0.3c0.1-0.7,6.6,0.1,10.4,0.6c2.7,0.4,3.3,0.5,3.7,0.7
		c0.6,0.2,1.7,0.6,3.4,1c0.2,0,0.4,0.1,0.4,0.1c3.9,0.8,9.4,4.1,9.4,4.1c3.2,1.9,2.6,1.7,6.1,3.8c0.3,0.2,6,3.7,9.6,6.1
		c1.1,0.7,1.9,1.3,2.8,2.2c0.7,0.7,1,1,1.8,1.7c1,0.8,1.8,1.4,2.4,1.8c4.3,2.9,6.4,4.3,7.2,4.7c1.2,0.6,2.7,1.3,4.6,2.7
		c0.3,0.2,0.5,0.4,0.9,0.7c1.7,1.6,2,2.7,4.1,5.9c0.7,1,1,1.5,1.2,1.7c0.8,1,1.4,1.6,2.1,2.4c0.6,0.7,1.2,1.4,2.3,2.8
		c4,5,7.4,10.4,7.4,10.4c1.6,2.5,2.7,4.4,3.6,6.2c0.1,0.3,0.3,0.5,0.3,0.7"/>
	<path class="st35" d="M330,247.1c2.2-2.4,4.5-4.8,7.1-7.2c3.4-3.3,6.6-6.4,10.3-9.1c4.2-3,7.7-4.7,13.9-7.4
		c13.2-5.8,13.6-5.4,24.2-10c6.9-3,10.8-5,24.5-10.9c0.9-0.4,1.7-0.7,2.2-0.9"/>
</g>
<path class="st36" d="M353.4,253.1c-1.4-3.6,13.2-12.5,22.6-18.2c1.4-0.9,10-6.1,11-4.8c0.9,1.1-4.8,5.7-3.8,7.2
	c2,3.4,33.4-13.3,34.8-10.8c0.6,1.1-4.6,5.7-9.8,8.9c-6.8,4-11.9,4.6-11.8,5.3c0.2,1.3,17.6-0.1,33.8-2.6c3.4-0.5,5.7-0.9,5.8-0.7
	c0.2,0.6-18.7,5.9-36.2,9.8C376.7,252.3,355.1,257.2,353.4,253.1z"/>
<path class="st36" d="M276.9,238.7c-2.1-6-6.2-9.3-13.9-15.4c-3.1-2.5-7.2-5.6-8.2-4.8c-1.3,1.1,4.7,8.3,3.4,9.6
	c-1.2,1.2-7.3-3.4-21.1-12c-8.9-5.5-9.4-5.5-9.6-5.3c-1.6,1.6,10,18.6,27.8,29.8c2.1,1.3,18,11.3,22.1,7.2
	C279.4,245.8,277.7,241.2,276.9,238.7z"/>
</svg>
