<?xml version="1.0" encoding="utf-8"?>
<!-- Generator: Adobe Illustrator 23.0.1, SVG Export Plug-In . SVG Version: 6.00 Build 0)  -->
<svg version="1.1" xmlns="http://www.w3.org/2000/svg" xmlns:xlink="http://www.w3.org/1999/xlink" x="0px" y="0px"
	 viewBox="0 0 496 487" style="enable-background:new 0 0 496 487;" xml:space="preserve">
<style type="text/css">
	.st0{fill:#8592A4;stroke:#8592A4;}
	.st1{fill:#6A7A8B;stroke:#6A7A8B;stroke-miterlimit:10;}
	.st2{fill:#DBDDE5;stroke:#DBDDE5;}
	.st3{fill:#2D344A;stroke:#2D344A;}
	.st4{fill:#FFFFFF;}
	.st5{fill:#A1FFFC;}
	.st6{font-family:'ArialMT';}
	.st7{font-size:10.6796px;}
	.st8{fill:#B5B6BC;}
	.st9{fill:#6A7A8B;stroke:#6A7A8B;}
	.st10{fill:#8592A4;}
	.st11{stroke:#000000;}
	.st12{fill:#8592A4;stroke:#000000;}
	.st13{fill:#FFFFFF;stroke:#000000;}
	.st14{fill:#F8EEE0;stroke:#F8EEE0;}
	.st15{fill:#D19022;stroke:#D19022;}
	.st16{fill:#271F1B;stroke:#271F1B;}
	.st17{fill:#F1E7DA;}
	.st18{fill:#D6CFC9;stroke:#D6CFC9;}
	.st19{fill:#939FAD;stroke:#939FAD;}
	.st20{fill:#2E2F29;stroke:#2E2F29;}
	.st21{fill:#4E5355;stroke:#4E5355;}
	.st22{fill:none;stroke:#00BED7;stroke-miterlimit:10;}
	.st23{opacity:0.87;fill:none;stroke:#676765;stroke-width:4;stroke-miterlimit:10;enable-background:new    ;}
	.st24{fill:#CC6540;stroke:#CC6540;}
	.st25{fill:#C95B3A;stroke:#C95B3A;stroke-miterlimit:10;}
	.st26{fill:#2D344A;stroke:#262C3A;}
	.st27{fill:#1F2634;stroke:#1F2634;}
	.st28{fill:#1C242F;stroke:#1C242F;}
	.st29{fill:#D19022;stroke:#D19022;stroke-width:0.5;}
	.st30{fill:#2D344A;stroke:#2B3244;}
</style>
<g id="Camada_4">
	<path class="st0" d="M345.8,377.3c7.5,6.9,8.7,15.3,6.5,24.7c-1.9,8.3-7.9,11.2-16.1,11.4c1.4,1.9,2.4,3.2,3.3,4.6
		c5,7.3,8.1,15.3,7.8,24.3c-0.3,7.9-4.7,10.7-12,7.4c-2-0.9-4-2-6.1-3c1.1,11,2.6,21.6,3,32.2c0.1,2.8,0.2,5.6,0.3,8.4h72.2
		c6.7-26.8,6.7-54.1,2.2-81.6c-3-18.1-9.4-34.9-20.6-49.7c-5.2-6.8-11.5-12-19.8-14.6c-3.4-1.1-6.3-0.8-9.3,1.5
		c-2.2,1.7-5.2,2.8-8,3.6c-7.8,2.2-15.7,4-23.6,6c-0.8,0.2-1.8-0.4-2.5,0.2c0.2,0.6,0.9,2.8,0.9,3.6
		C331.2,363.3,338.4,370.4,345.8,377.3z"/>
	<path class="st0" d="M84.1,487.3H140c0.7-8.5,1.8-17,2.8-26.3c-2.6,2.4-4.5,4.2-6.5,5.9c-6.6,5.9-12.3,4.3-14.9-4.2
		c-0.7-2.2-0.8-4.6-0.7-6.9c0.3-13.4,5-25.4,12.1-36.5c0.9-1.5,1.8-3,3.2-5.2c-2.8,0.1-4.8,0.3-6.9,0.4c-2.1,0.1-4.3,0.3-6.4,0
		c-5.9-0.9-9-6-6.3-11.4c1.6-3.4,4.1-6.5,6.9-9c5.5-4.9,11.3-9.4,17.1-13.8c12.9-9.8,24.5-20.5,31.5-35.5c3.2-6.7,2.8-8.5-4.3-10.5
		c-19.3-5.6-37.3-1.9-52.8,10.3c-33.5,26.5-46.6,63.1-42.5,104c1.4,14,4.7,27,9.6,39.2C82.5,487.5,83.2,487.3,84.1,487.3z"/>
</g>
<g id="Camada_3">
	<path class="st1" d="M149.7,349.8l2.1-3C151,347.8,150.3,348.8,149.7,349.8z"/>
	<path class="st1" d="M217.3,487.3c1-10.3,4.1-20.5,9.2-28.7c0.5-0.9,1.8-0.3,1.5,0.7c-3.3,9.2-5.4,18.6-6.3,28h128.9
		c0.2-9.7-0.1-23.6-2.8-34.6c-0.3-1.5-0.8-3-0.8-3c-0.4-1.3-0.7-2.3-1.3-3.6c-0.9-2.1-2-3.5-3-4.8c-1.2-1.5-1.1-1.2-2.6-3.1
		c-1.3-1.7-2.1-3-3.8-4.5c-0.4-0.4-0.7-0.6-0.7-0.6c0-0.1,2.8,1.7,7.4,6.1c4.9,4.7,5.8,6.4,9.8,9.4c4.8,3.5,6.9,3.5,8.2,3.1
		c1.9-0.6,3.4-2.3,3.5-2.4c0.4-0.5,1.3-1.6,1.6-3.2c0.2-1,0.1-1.8,0.1-2.1c-0.2-11-3.4-17.8-3.4-17.8c-1.3-2.9-3.2-5.6-6.9-11.2
		c-4.4-6.5-8.1-11.1-7.8-11.3c0.2-0.1,1.7,1.5,2.7,2.6c0.6,0.7,1,1.3,1.1,1.4c2.5,2.8,7.3,4.3,10.7,3.4c3.9-1,5.8-5.1,7.1-7.9
		c1.6-3.3,1.9-6.2,2-8c0.2-1.9,0.4-5.6-1.3-9.7c0-0.1-0.1-0.3-0.3-0.7c-1.7-3.6-4.2-5.8-5.2-6.7c-4.1-3.6,1.9,1.3-9.3-8.8
		c-9.6-8.5-9.1-7.7-9.8-8.7c-1.7-2.3-3.1-4.9-5.9-5.5c-1.6-0.4-3,0.1-3.6,0.3c-1.3,0.4-6.3,1.2-16.4,2.9c0,0-7,1.1-19.9,1.6
		c-2.6,0.1-3.4,0.1-3.4,0.1c-1.1,0.1-1.8,0-3,0.1c-0.9,0-1.9,0.1-1.9,0.1c-0.4,0.1-0.8,0.1-0.8,0.1c-13.9,1.4-34.3,0.1-34.3,0.1
		c-16.9-1.1-25.3-1.6-33.3-3.1c0,0-15.9-2.9-29.1-7.9c-3.1-1.1-6.7-2.6-6.7-2.6c-1.1-0.4-3.2-1.3-5.8-2.4c-2.8-1.2-4.3-1.8-6-2.6
		c-2.8-1.3-2.8-1.5-6.2-3.1c-4.4-2.1-4.2-1.8-5.5-2.6c-3.2-2.1-4.5-4.3-5.4-3.9c-0.5,0.3-0.2,1.3-0.5,2.2c-0.2,0.5-0.4,1.3-0.8,2.3
		c-1,2.6-2.1,4.4-2.3,4.7c-5.7,9.4-12.9,36.5-12.8,36.6c-5.2,19.7-9.7,36.5-13,60.5c-2.9,20.8-0.4,13.9-3.8,47.5
		c0,0.4-0.1,0.8-0.2,1.3H217.3z M210.9,449.7c1.6-7.1,4.6-13.8,7.2-20.5c3.7-9.6,7.4-19.1,11.6-29.5c0.3-0.9,1.7-0.6,1.6,0.4
		c-0.3,3.2-0.6,5.9-1.4,8.6l-8.1,21.7c-4.6,12-9.4,24-7.5,37c0.1,0.9-1.1,1.3-1.6,0.5C209.5,462.1,209.5,455.7,210.9,449.7z"/>
	<path class="st1" d="M124.7,469.7c0-0.3,0.1-0.7,0.2-1c0.1-0.7,0.2-0.8,0.3-1.5c0-0.1,0-0.2,0.1-0.4"/>
	<path class="st2" d="M105.7,406.7c3.6-0.8,6.7-3.1,8.6-1.7c0.1,0.1,0.7,0.6,0.9,1.3c0.6,1.9-2.3,4.3-3,5
		c-6.4,5.8-11.2,23.3-12.7,31.5c-0.2,1.3-1.4,8.2,1.2,14.8c0.8,1.8,1.7,3.4,3.3,3.9c2.5,0.8,5.5-1.4,6.3-2.1c4-3,4.6-7.2,7-7.2
		c0.8,0,1.3,0.5,1.5,0.6c1,5.4,0.6,9.4,0,12.3c-0.1,0.7-0.2,0.8-0.3,1.5c-1.1,5.6,0.1,10.1,0,11c0.7,2.9,0.8,6.1,0.6,9.7h91.8
		c0.8-11,3.9-22,9.4-30.8c0.5-0.9,1.8-0.3,1.5,0.7c-3.6,9.9-5.7,19.9-6.4,30.1h129c0.3-9.7,0.2-24.9-2.7-36.7c-0.3-1.5-0.8-3-0.8-3
		c-0.4-1.3-0.7-2.3-1.3-3.6c-0.9-2.1-2-3.5-3-4.8c-1.2-1.5-1.1-1.2-2.6-3.1c-1.3-1.7-2.1-3-3.8-4.5c-0.4-0.4-0.7-0.6-0.7-0.6
		c0-0.1,2.8,1.7,7.4,6.1c4.9,4.7,5.8,6.4,9.8,9.4c4.8,3.5,6.9,3.5,8.2,3.1c1.9-0.6,3.4-2.3,3.5-2.4c0.4-0.5,1.3-1.6,1.6-3.2
		c0.2-1,0.1-1.8,0.1-2.1c-0.2-11-3.4-17.8-3.4-17.8c-1.3-2.9-3.2-5.6-6.9-11.2c-4.4-6.5-8.1-11.1-7.8-11.3c0.2-0.1,1.7,1.5,2.7,2.6
		c0.6,0.7,1,1.3,1.1,1.4c2.5,2.8,7.3,4.3,10.7,3.4c3.9-1,5.8-5.1,7.1-7.9c1.6-3.3,1.9-6.2,2-8c0.2-1.9,0.4-5.6-1.3-9.7
		c0-0.1-0.1-0.3-0.3-0.7c-1.7-3.6-4.2-5.8-5.2-6.7c-4.1-3.6,1.9,1.3-9.3-8.8c-9.6-8.5-9.1-7.7-9.8-8.7c-1.7-2.3-3.1-4.9-5.9-5.5
		c-1.6-0.4-3,0.1-3.6,0.3c-1.3,0.4-6.3,1.2-16.4,2.9c0,0-7,1.1-19.9,1.6c-2.6,0.1-3.4,0.1-3.4,0.1c-1.1,0.1-1.8,0-3,0.1
		c-0.9,0-1.9,0.1-1.9,0.1c-0.4,0.1-0.8,0.1-0.8,0.1c-13.9,1.4-34.3,0.1-34.3,0.1c-16.9-1.1-25.3-1.6-33.3-3.1c0,0-15.9-2.9-29.1-7.9
		c-3.1-1.1-6.7-2.6-6.7-2.6c-1.1-0.4-3.2-1.3-5.8-2.4c-2.8-1.2-4.3-1.8-6-2.6c-2.8-1.3-2.8-1.5-6.2-3.1c-4.4-2.1-4.2-1.8-5.5-2.6
		c-3.2-2.1-4.5-4.3-5.4-3.9c-0.5,0.3-0.2,1.3-0.5,2.2c0,0.3-1.1,3.7-3.2,7.2c-17.3,28-29.7,35.6-29.7,35.6
		c-8.3,6.5-13.6,7.9-20.7,16.7c-2.7,3.3-6.8,8.6-5,11.9C94.9,406.6,101,407.8,105.7,406.7z M204.6,447.6c1.6-7.1,4.6-13.8,7.2-20.5
		c3.7-9.6,7.4-19.1,11.6-29.5c0.3-0.9,1.7-0.6,1.6,0.4c-0.3,3.2-0.6,5.9-1.4,8.6c-2.2,7.4-5.4,14.5-8.1,21.7c-4.6,12-9.4,24-7.5,37
		c0.1,0.9-1.1,1.3-1.6,0.5C203.1,460,203.1,453.6,204.6,447.6z"/>
</g>
<g id="Camada_5">
	<polygon class="st3" points="212.6,426.4 197,487.3 245.1,487.3 243.5,449.4 239.8,403.6 252.8,392.6 232,375.3 209.1,390.5 
		221,402.3 	"/>
	<polygon class="st4" points="291.6,334.5 233.9,376 189.5,403.5 183,326.8 269.8,409.2 	"/>
</g>
<g id="Camada_1">
	<g id="Camada_12">
		<g id="Camada_34">
			<text transform="matrix(0.9393 0.1063 -0.1003 0.995 230.1333 260.49)" class="st5 st6 st7">A1FFFC</text>
			<text transform="matrix(0.9393 0.1063 -0.1003 0.995 229.2977 260.3964)" class="st6 st7">D2FFFD</text>
		</g>
		<path class="st8" d="M365.2,337.4c1.3-0.7,3.7-3.7,5.5-3c1.1,0.5,1.8,2.1,1.8,3.4"/>
		<path class="st0" d="M368.8,337.9c10.3-7.6,16.7-15.8,20.5-21.4c4-5.9,13-20.1,13.9-39.6c0.3-5.9-0.4-10.3-1.1-15
			c-8-53.1-13.7-55.3-18.7-89.3c-2.1-13.8-2.6-23.5-9.1-26.8c-7.6-3.9-18.8,3.1-24.1-3.5c-1.1-1.3-0.7-1.8-1.9-3.9
			c-1.1-2.2-6.8-8.2-17.7-12.7c-0.5-0.2-1.3-0.5-2.2-0.9c-16.3-5.9-36.2-1.6-37.6-5.4c-0.7-2.1,9.8-3.5,13.8-12.3
			c2.5-5.6,2.2-13.7-1.3-16c-6.3-4.1-19.8,8.4-20.4,9c-6,5.8-7.3,12.5-8.8,12.1c-1.1-0.3,1.7-6.5-0.1-14.6c-0.9-3.8-2.2-5.4-2.6-6
			c-0.1-0.3-3.9-4.6-9.1-3.9c-0.6,0.1-2.6,0.3-4.2,1.8c-6.1,4.9-1.3,17.9-4.9,19.6c-3.1,1.4-6.6-7.1-16.6-10.3
			c-5.4-1.7-13-2-14.6,1.4c-1.5,3,2,8.3,5,11.1c4.6,4.4,9.6,4.5,9.5,5.5c-0.2,1.6-13.4-0.7-25.6,2.8c-5.4,1.6-15.3,5.7-15.9,6
			c0,0-0.6,0.3-0.8,0.4l-0.8,0.4c-5.2,2.6-5.4,2.9-9.9,5.1c-24.7,12.3-42.5,11.4-44.3,20.1c-0.5,2.5,0.8,3.7,0.4,11.1
			c0,0.4-0.2,4.5-1.2,8.9c-3.1,15.9-19.1,59.8-21.1,96.3c-0.7,13.9-1.3,22.9,2.5,34.3c2.2,6.7,5,12.1,8.3,16.6
			c9.1,12.5,19.9,18.8,35.9,27.5c5.1,2.8,12.2,6.6,22,10.3c21.4,8.1,38.5,9.1,62.9,10.6c15.2,0.9,31.2,0,63.4-1.9
			c10.8-0.6,18.3-1.2,27.4-4.9C353.9,354.4,363.3,344.7,368.8,337.9z"/>
		<g id="Camada_4_3_">
			<path class="st9" d="M263.9,173.8c-0.3,0.1-0.6,0.4-1.3,0.7c-8.8,3.8-16.9-5.1-23-3.4c-4.3,1.2-4.1,3.4-7.6,3.4
				c0,0-2.8,0.1-5.8-1.8c-6.6-4.3-23.1-35.5-42.8-41.3c-1.2-0.3-4.1-0.5-4.1-0.8c0-0.5,3.8-1.3,7.8-0.3c1.2,0.3,2.1,0.7,4.2,1.9
				c4.1,2.3,7,4.6,9.1,6.2c5.3,4.1,8,6.2,8.6,6.8c0,0,9.3,9.6,12.4,12c0.1,0.1,0.2,0.2,0.4,0.1c1,0,1.1-3,2.5-4.5
				c1.1-1.3,3-1.3,9.2-0.4c4.5,0.7,5,0.8,9.3,1.5c2.2,0.3,6.5,1,10.8,2c0.3,0.1,2.1,0.5,4.4,1.7c1.5,0.7,2.3,1.2,3,2
				c1.7,1.9,0.6,4.5,1.6,5c0.4,0.1,0.6-0.1,2-0.8c3-1.4,4.5-1.4,5.9-3.3l0,0c5.3-7.1,30.7-19.5,30.7-19.5c9.8-4.8,8.8-4.7,14.1-7
				c12.5-5.4,13.1-3.8,18-7.1c0,0,4.3-2.9,5.1-1.9c0.2,0.2,0,0.5,0.3,1.7c0.2,0.6,0.3,1,0.7,1.8c0.4,0.9,0.6,1.3,0.9,1.6
				c0.7,0.8,1.7,1,2,1.1c1.7,0.4,24.4,6.3,24.6,9.2C367.5,146.3,277.6,166,263.9,173.8z"/>
			<path class="st9" d="M275.2,160.7c-0.2,0.2-0.3,0.6-0.5,0.8"/>
			<path class="st9" d="M224.4,171.3c-1-0.8-1.9-1.8-2.8-2.9"/>
		</g>
		
			<ellipse transform="matrix(0.9996 -2.882488e-02 2.882488e-02 0.9996 -6.6068 3.6906)" class="st10" cx="124.7" cy="231" rx="2.5" ry="5.3"/>
		<ellipse class="st10" cx="124.7" cy="226.3" rx="2.4" ry="2.6"/>
		<path class="st0" d="M364,173.4c1.8-0.3,3.7-0.7,5.5-1.1c0,0,0,0,0.1,0c3.9-1.1,7.8-2.3,11.6-3.3c0.5-0.1,0.9,0.2,1,0.6
			c4.4,17.7,8.8,35.4,13.2,53c0,0,0,0.1,0,0.2c0.1,1.4,0,2.7,0.4,4c5.3,19,8.7,38.1,6.3,58c-2.1,12.5-8.8,22.6-15.2,32.8
			c-2.6,4.1-5.2,8.1-7.7,12.2"/>
		<path class="st11" d="M131.5,118.6"/>
		<path class="st0" d="M103.7,113.8c-6.5-1-13-2.1-19.4-3c-3.5-0.5-7.1-1.1-10.6-1c-1.5,0.1-3.2,1.5-4.8,2.4c-0.7-0.8-1.4-1.7-2.4-3
			C79.6,108.4,91.7,110.2,103.7,113.8z"/>
		<path class="st11" d="M246,261.5"/>
		<path class="st11" d="M344.6,177.2"/>
		<path class="st11" d="M267.8,277.3"/>
		<path class="st11" d="M262.9,265.7"/>
		<path class="st11" d="M335.6,308.3"/>
		<path class="st12" d="M155.4,166.2"/>
		<path class="st9" d="M222.6,162.5c0.7-0.2,2-0.4,1.9-0.6c1-9.8,1.1-10,10.6-8c2.2,0.4,4.4,1.3,6.4,2c-3.1-0.5-6-1-9.1-1.6
			c-5.9-0.9-8.3,1.8-6.8,7.9c0.7,2.8,1.9,5.3,2.9,8.1c-0.4,0.2-0.8,0.4-1.2,0.8C225.9,168.1,224.3,165.3,222.6,162.5z"/>
		<path class="st11" d="M200.9,137.5"/>
		<path class="st11" d="M198.9,136.3"/>
		<path class="st11" d="M229.9,202.1"/>
		<path class="st11" d="M217.4,191.8"/>
		<path class="st11" d="M223.8,197"/>
		<path class="st13" d="M163.9,270.3"/>
		<path class="st12" d="M285.5,206.6"/>
		<path class="st11" d="M288.7,283.1"/>
		<path class="st11" d="M264.6,255.3"/>
		<path class="st12" d="M124.1,229.7"/>
		
			<ellipse transform="matrix(3.132131e-02 -0.9995 0.9995 3.132131e-02 59.0272 552.1118)" class="st14" cx="314.4" cy="245.6" rx="58.2" ry="56.5"/>
		
			<ellipse transform="matrix(3.023865e-02 -0.9995 0.9995 3.023865e-02 60.6893 558.3784)" class="st15" cx="318.1" cy="247.9" rx="34.3" ry="33.3"/>
		<path class="st16" d="M292.5,248.1c-0.3-15.2,9.9-26.6,24.3-26.9c13.8-0.5,26.2,11.5,26.4,25.6c0.3,14.3-12.1,28.4-26,27.9
			C304.8,274.5,293.2,265.2,292.5,248.1z"/>
		
			<ellipse transform="matrix(3.131993e-02 -0.9995 0.9995 3.131993e-02 -70.2566 421.3718)" class="st14" cx="182.3" cy="246.9" rx="58.2" ry="56.5"/>
		
			<ellipse transform="matrix(3.023490e-02 -0.9995 0.9995 3.023490e-02 -69.6711 424.1736)" class="st15" cx="183.8" cy="248" rx="34.3" ry="33.3"/>
		<path class="st16" d="M158.6,248.6c-0.3-15.2,9.9-26.6,24.3-26.9c13.8-0.5,26.2,11.5,26.4,25.6c0.3,14.3-12.1,28.4-26,27.9
			C170.9,274.9,159.4,265.6,158.6,248.6z"/>
		<path class="st1" d="M324.4,185.3c-1.2-3.2-4.1-9.4-10.3-12.3c-6-2.8-12.1-0.7-18.1,0.6c-14.2,3-15.3,6.1-23.5,5.6
			c-5.5-0.4-7.1-2-11.6-0.9c-2.7,0.7-3,1.4-11.7,7.8c-7.5,5.4-10.3,7.1-11.3,11.1c-0.5,2-0.5,3.7-0.3,5c0.1,1.8,0.1,3.4,0.2,5.2
			c0.8,0.3,2,0.7,3.5,0.9c3.2,0.6,5.9,0.7,8.7,0.4c4.8-0.3,8.9-0.6,13.5-1.9c0.7-0.2,1.3-0.5,1.9-0.7c2.2-0.9,3.6-1.7,5.4-2.9
			c1.4-0.9-0.6,0.5,5.1-2.8c6.8-4,7-4.1,9-5.3c4.7-2.5,8.6-3.8,12.9-5.2c4.5-1.4,7.7-2.1,11.4-2.8c4.1-0.9,7.6-1.4,10.3-1.8"/>
		<path class="st17" d="M446.7,108.6c-0.3,0.1-0.6,0.2-1,0.3"/>
		<path class="st17" d="M429.3,95.3c-1,0.3-1.9,0.7-2.9,0.9"/>
		<path class="st17" d="M419.7,98.5c-0.4,0.1-0.7,0.2-1,0.3"/>
		<path class="st17" d="M415.8,99.9c-0.3,0.1-0.6,0.2-1,0.3"/>
		<path class="st17" d="M448.9,108"/>
		<path class="st1" d="M153.5,176.3c0.3,0.1,0.7,0.2,1.1,0.4c0.1,0,0.1,0.1,0.2,0.1"/>
		<path class="st1" d="M174.8,186.7c1.1,0.4,2.3,0.7,3.6,0.9c1.5,0.2,1.5-0.2,4.5-0.1c3.9,0,7,0.4,8.7,0.7c1,0.2,3.7,0.6,7.1,1.7
			c3.8,1.2,6.6,2.5,8.8,3.7c2.4,1.2,1.9,1.1,5.9,3.4c2.6,1.4,5.6,3.1,9.8,5c0.7,0.3,2.7,1.2,5.4,2.3c4,1.5,9.1,3.7,9.3,3.3
			c0.1-0.5-9.2-5.5-15.7-9c-10.8-5.5-13.1-6.2-24.6-11.8c-16.3-8-13.5-7.8-21-10.8c-4.6-2-11.6-4.4-20.9-9.3c-0.1,0-0.2-0.1-0.3-0.1
			c-4.7-2.5-15.7-8.4-17.6-5.9c-0.2,0.2-0.1,0.3-0.1,2.2c0.3,5.7-0.1,6.5,0.6,7.9c0.9,1.8,2.6,2.4,4,3c10.3,3.9,20.4,6.8,28.2,10.9
			C172.5,185.3,174,186.2,174.8,186.7"/>
		<path class="st1" d="M147.7,174.7c0.2,0,0.4,0.1,0.5,0.1"/>
		<path class="st1" d="M149.9,175.3c0.4,0.1,0.8,0.2,1.1,0.4"/>
		<path class="st1" d="M376.6,332.7c2.2-2.2,4.4-4.7,4.4-4.7c2.9-3.3,7.4-8.4,11.8-15.7c2-3.4,3.3-6,3.6-6.6
			c2.5-5,7.4-14.9,8.2-27.6c0.4-6.8-0.4-12.4-2-22.3c-0.4-3.2-1-6.4-1.3-7.7c-1-5.2-2-10.2-3.3-16c-3-13.8-5.2-22.6-7.5-32.3
			c-1.8-7.4-4.3-18.4-7.3-31.9l-20.9,5.9l-34.3,7.8l-20.1,5.2c3.1-0.5,5.7-0.5,7.7-0.5c7,0,12.1,1.1,13.9,1.5c1.1,0.3,2,0.5,2.6,0.6
			c9.8,0.6,20.6,0.4,32.3-0.9c3.9-0.5,7.5-1,11.2-1.6l4.1,8.4l6.9,34.1c0.4,0.8,0.9,1.4,1.2,1.7c5.1,6.8,5.6,24.5,5.9,32.4
			c0.2,7.4,0.3,13.1-1.5,20.7c-1.4,5.4-3.1,9.2-4.2,11.3c-6.6,13.3-11.3,24-18.9,34.3c-16.1,21.6-30.3,29.9-29.4,31.3
			C340.7,361.9,364.9,344.6,376.6,332.7z"/>
		<path class="st18" d="M226.3,210.3c-1.1-1.4-2.6-3.1-4.2-4.9c-2.4-2.4-6.7-6.5-13.1-9.9c-3.4-1.8-10.4-5.2-20-6.5
			c-3.9-0.5-7.3-0.5-10.2-0.3"/>
		<path class="st18" d="M177.8,188.9"/>
		<path class="st18" d="M329.5,189.4c-2.5-0.7-5.8-1.5-9.5-1.8c-4.1-0.4-7.4-0.3-9.2-0.1c-1.2,0-6.3,0.5-12.8,2.5
			c-4.2,1.3-7,2.6-7.7,3c-2.4,1.2-4.6,2.4-6,3.4"/>
		<g id="Camada_4_2_">
			<path class="st0" d="M285,194.4c52.7-16.5,75-20,75-20c24.2-3.8,25.6-2.3,34.6-6c16.5-6.8,27.9-18.2,35-27
				c-2.7,1.1-7,2.3-12.2,2.5c-7,0.2-15.3-2.1-15.3-4.1c0-0.7,0.9-1.2,1.3-1.5c10.8-6.3,19.8-22.9,20.8-26.5c0.1-0.3,0.2-0.7,0.6-2.4
				c0.7-3,1-3.7,0.7-3.9c-0.3-0.2-0.8,0.4-2.4,1.5c0,0,0,0-1.9,1.2c-3.6,2.3-37.6,13.3-45.2,16.6c-0.4,0.2-3.5,1.6-7.4,2.9
				c-1.8,0.7-2.9,1-3.8,1.3c-1.5,0.5-3.2,1.1-5.5,1.5c-2.6,0.6-2.9,0.4-4.6,0.9c-1.8,0.5-3.8,1.2-3.8,1.2s-13.3,4.5-13.8,3.7
				c0,0,0,0-0.1-0.1c-0.2-0.3-0.3-0.4-0.3-0.5c-0.3-0.4-0.4-0.6-0.4-0.6c-0.2-0.5,0.6-1.3,1.3-2.1c0,0,0.6-0.7,1.3-2.1
				c0.6-1.3,0.6-1.9,1.1-3.8c0.9-3,1.7-4,1.4-4.4c-0.4-0.4-1.7,0.7-4.4,2.2c0,0-1.3,0.7-4,2c-4.9,2.4-34.8,16.6-47.5,24
				c-1.3,0.8-3.4,2.1-6.2,4.1c-3.2,2.5-5.6,4.7-6.9,5.9c-6.9,6.7-9.6,12.4-11.6,11.6c-0.3-0.1-0.4-0.4-0.8-0.8c-2.1-3,0.1-6.3-1-9
				c-0.9-2.2-4-3-10.3-4.7c-1.1-0.3-0.4-0.1-7.1-1.6c-4.6-1.1-6.4-1.5-9.1-1.6c-3.1-0.1-5.1,0-6.2,1.4c-1.5,1.8-0.8,5-0.5,6.6
				c0.8,3.7,3.3,8,2.9,8.2c0,0-0.1,0-0.4,0.2c-0.1,0-0.1,0.1-0.2,0.1c-0.3,0.1-0.4,0.2-0.4,0.2c-0.5,0.1-2.2-3.6-2.5-4.1
				c-0.5-1-1.4-2.5-2.4-4.3c0,0-4.5-7.3-11.4-14.1c-19.2-18.9-54.8-31.7-54.8-31.7c-4.8-1.9-16.9-6.4-17.8-4.6
				c-0.2,0.6,0.8,1.5,2.7,3.9c1.7,2.1,7.7,9.6,6.8,11.4c-1.4,2.5-17.1-4.5-23.6-7.2c-13.6-5.7-33.5-11.3-60.7-11.3l5,5.4
				c3.5,3.8,9,9.3,16.3,15.2c15.1,12.1,27.9,17.8,49.6,27.5c30.9,13.9,46.4,20.8,47.5,21.5c13.8,7.6,23.6,13,30.9,16.8
				c11.5,6,16.8,8.7,19.7,15.4c1.6,3.8,1.9,7.7,5.5,10.5c4.4,3.5,10.2,2.4,11.5,2.2c4.3-0.8,8.1-5.6,15.7-14.5
				c4.6-5.5,6.1-7.8,10-10.5C279.7,196.2,283.2,195,285,194.4z"/>
		</g>
		<path class="st19" d="M285.7,177.5c-1.5-3.7,12.5-13.4,21.5-19.6c1.4-1,9.5-6.6,10.6-5.3c0.9,1.1-4.5,6-3.5,7.6
			c2,3.5,32.2-14.8,33.6-12.3c0.6,1.1-4.3,6-9.2,9.5c-6.5,4.4-11.4,5.2-11.3,5.9c0.2,1.4,17.1-0.7,32.8-3.8c3.3-0.6,5.5-1.1,5.7-0.9
			c0.2,0.6-18.1,6.7-35,11.4C308.3,175.8,287.5,181.6,285.7,177.5z"/>
		<g id="Camada_5_3_">
			<g>
				<path class="st20" d="M382.8,205.1c0.4,0.9,0.5,1.3,0.5,1.3c-0.1,0-1-1.5-2.7-4.6 M383.5,207c0,0,3.1,16.4-2.1,24.9
					c-0.3,0.4-0.6,0.9-0.6,0.9l0,0c-2.2,3.1-4.9,3.8-6.6,5.1c-2.1,1.6-3,3.7-4.4,7.2c-4.1,9.9-2.4,16.8-6,28.6
					c-1.5,5.2-3.3,10.7-8.1,15.2c-3.4,3.2-7,4.6-9.9,5.6c-20.3,6.7-42.2,2.6-42.2,2.6c-15.9-3-23.8-4.5-30.5-11.3
					c-10.2-10.6-15.1-30.1-15.7-32.4c0-0.1-0.1-0.6-0.3-1c-2.3-8.9-4.3-16.4-7-16.6c-0.6,0-1.3,0.3-2.7,1.2c-1,0.5-1.8,1.1-2.6,2
					c-0.1,0.1-0.1,0.1-1.1,1.5c-0.6,0.8-1,1.3-1.1,1.5c-1.7,2.4-8,22.8-8,22.8c-1.4,4.5-4,12.9-10.8,20.2c-3.1,3.4-6.1,5.4-7.7,6.4
					c-9.5,6.2-26.6,11.8-45.5,7.3c-6.8-1.6-30-7.2-35.5-23.5c-1.2-3.8-5-18.6-6.6-25.5c-0.7-2.9-1.7-7.1-4.8-9
					c-1.3-0.8-3.2-1.2-5.4-3.1c0,0-1.3-1.1-2.3-2.4c-2.5-3.3-2.3-8.7-0.8-24.1c0.4-4.4,0.8-7.9,2.9-9c1.4-0.7,3.2-0.2,3.7-0.1
					c6.5,2.2,22.3,1.4,54,0.2c0.4,0,1.3,0,2.5-0.1c2.6-0.1,7,0.1,12.5,0.9c0.1,0,0.1,0,0.2,0c10.6,1.6,17,2.1,22.7,3.6
					c0.1,0,0.4,0.1,0.7,0.2c0,0,3.9,1.1,7.6,2.8c5.5,2.7,7.9,6.4,14.9,9.7c3.2,1.6,4.8,2.3,7.2,2.8c0,0,7.8,1.1,18-5.4
					c0.5-0.4,1.2-0.8,1.2-0.8c0.5-0.4,0.8-0.6,1.8-1.4c0.4-0.3,0.7-0.6,1.2-0.9c13.2-9.8,27.8-12.4,27.8-12.4c2-0.2,4-0.4,5.9-0.7
					c34.7-3.2,50.5-3.4,57.2-2.5c1.7,0.3,3.5,0.7,6.8,0.9c10.2,0.7,14.7-1.6,17.6,1.4C382.5,201.6,382.8,203.4,383.5,207z
					 M231,252.4c2.3-8.3,1.4-13.5,0.8-15.9c-1.1-4.6-3.3-7.9-4.8-9.9c-8.6-8.6-18.9-13.6-30.4-15.9c-4.1-0.5-10-1-17.3-1.4
					c-16.3-0.9-24.6-1.3-30.1,2c-7.8,4.6-13,13.8-13.9,22.2c-0.1,1.4,0.6,6.3,2.1,16c1.4,9,2.8,16.5,3.4,19.4c0,0.2,0.1,0.3,0.1,0.3
					C144,284,162.1,289.8,166,291c5.9,1.9,10.7,2.2,13.5,2.3c3.6,0.1,12.5,0.4,21.8-3.3C223.1,281.1,229.9,256.4,231,252.4z
					 M282,282C282.1,282.1,281.7,281.8,282,282c0.1,0.1,0.3,0.2,0.4,0.3 M286.1,217.2c-8.2,3.8-11.4,6.9-12.6,8.2s-3,3.2-4.4,5.8
					c-2.1,4.1-3,9.3-1,19.4c2.8,14,4.8,24.2,13.5,30.8c8.6,6.5,21.1,7.5,27.1,8c0.3,0,0.7,0.1,0.9,0.1c5.3,0.4,10.8,0.8,17.3,0.4
					c4.7-0.2,8.5-0.6,13.3-2.4c2.8-1.1,6.7-2.6,10.4-6.3c3.3-3.3,4.7-6.8,5.7-9.1c1.2-2.9,1.7-5.4,2-6.4c2.7-11.9,7.5-27.9,7-41.5
					c0-1.1-0.1-2.8-1-4.8c-2.4-4.6-7.9-5.9-10.4-6.3c-0.2-0.1-0.5-0.3-0.7-0.4c0,0-0.3-0.2-0.7-0.3c-24-8-53.3-0.1-53.3-0.1
					C297.2,212.9,292.3,214.3,286.1,217.2z"/>
			</g>
			<path class="st21" d="M235.5,244.7c0.2-1.6,1.3-7.4,3.1-10.1c2.7-4.3,7.7-6.3,9.1-6.9"/>
			<path class="st21" d="M116.7,216.2c0.5-3.3,0.9-5.8,1.3-8.5c0.2-1.1,0.4-1.8,1-2.4c1.1-0.9,2.7,0,5.7,0.7
				c1.2,0.2,3.6,0.4,8.1,0.7c1.8,0,3.1,0.1,5.7,0.2c3,0.1,5.7,0.1,8.1,0.1"/>
			<path class="st21" d="M380.1,208.3c-0.1-0.8-0.3-1.8-0.6-2.8c-0.5-1.5-0.8-2.3-1.4-2.9c-1.8-1.9-5.2,0-10.1,0.7
				c-3.8,0.6-4-0.4-11.8-1c-2.9-0.2-7.1-0.4-12.3-0.1l-10,0.3l-8.7,0.3"/>
		</g>
		<path class="st19" d="M213.4,170.7c-19.2-19.6-32.1-27.5-39.5-31.2c-0.6-0.3-8.1-3.9-9.1-2.3c-1.2,1.9,8.2,9.5,7,11.5
			c-0.2,0.2-0.9,1-10.7-2.5c-6.3-2.2-10.1-3.9-16.1-5.2c-3.5-0.8-5.8-1.3-6-0.7c-0.8,1.7,13.4,10.6,25.5,16.7
			c5,2.5,10.1,5.1,17.1,7.5C188.9,167.1,199.7,170,213.4,170.7z"/>
		<path class="st9" d="M333.3,127"/>
		
			<ellipse transform="matrix(0.7043 -0.7099 0.7099 0.7043 -114.41 189.1411)" class="st17" cx="169.8" cy="231.9" rx="5.5" ry="9.2"/>
		
			<ellipse transform="matrix(0.7043 -0.7099 0.7099 0.7043 -75.3628 283.0452)" class="st17" cx="302.1" cy="232" rx="5.5" ry="9.2"/>
		<g id="Camada_6_1_">
			<path class="st22" d="M382.2,119.1"/>
		</g>
		<g id="Camada_3_4_">
			<path class="st23" d="M243.1,123.7"/>
		</g>
		<path class="st24" d="M245.4,353.1l-3.4,4.3c-1.2-2.9-2.1-5.1-3-7.4c-2.8-15-9.5-28.3-17.3-41.2c-0.9-1.5-1.4-4.7-0.6-5.4
			c10.9-9.9,16.9-22.5,20.9-36.3c0.9-3.5,1.8-6.9,2.8-10.6c6.4,3.3,7.4,9.6,9.5,15.3c1,2.8,2.6,5.3,4,8l0,0c3.5,9,9,16.6,17,22.2
			c0.5,0.4,1,0.8,1.5,1.3c7.7,6.6,7.6,7-0.8,12.1c-9.5,5.7-16,14.4-21.9,23.5c-2.9,4.6-5.6,9.3-8.4,13.9
			C245.6,352.8,245.5,352.9,245.4,353.1z"/>
		<path class="st25" d="M244.8,256.4c-0.3,0.1-0.5,0.9,3.7,12.3c4.1,11.1,6.2,16.6,8.2,20.2c4.7,8.3,7.7,9.8,7.7,14.9
			c0,1.8-0.4,3.2-3.8,10.1c-4.1,8.3-6.2,11.4-10.1,18.7c-3.6,6.8-5.3,10.8-6.7,15.4c-0.3,1.1-2.7,9-1.7,9.4
			c0.8,0.3,2.8-3.4,8.5-12.6c5-8,7.5-12,10.6-15.8c4.6-5.6,7.6-9.3,11.7-11.5c0.8-0.4,3.2-1.6,6.1-3.9c2.1-1.7,3.3-2.5,3.5-3.3
			c0.5-2.5-3.3-4.6-9.1-9.8c-2.5-2.3-6.3-5.7-9.6-10.4c-3.1-4.3-4.8-8.3-6.7-12.9c-2.7-6.2-2.4-7.4-4.8-11.7
			C249.5,260.7,245.7,255.9,244.8,256.4z"/>
	</g>
	<path class="st3" d="M124.6,60.9L124.6,60.9c-3.4-1.3-6.8-2.7-10.2-3.9c-8.8-2.9-10.5-2.8-10.6-14.2c3.9-0.8,7.9-1.7,11.9-2.4
		c9.8-2,19.7-4,29.5-6l-0.2,0.1c11.5-2.1,23.1-4,34.5-6.3c10.2-2.1,20.3-4.4,30.4-6.6c19.7-3.8,39.5-7.5,59.3-11.6
		c5.6-1.2,10.5-0.7,15.5,2C305.8,23.4,326.9,34.6,348,46c6.6,3.4,13.2,6.9,19.8,10.4c7.6,3,15.1,6,22.6,9.1
		c26.8,11.3,31.6,13.9,37.1,16c0.6,0.2,2.3,0.6,3.9,1.9c1.8,1.4,4.4,4,2.8,6.5c-1.1,1.8-6,2.9-7.9,3.8c-4.4,2.2-9.2,3.7-14,4.7
		c-0.1,0-0.2,0-0.2,0l-15.7,4.1c-7.5,1.5-14.8,3.1-22.3,4.7c-7.8,1.7-26,5.7-26,5.5l0.2-0.1c0-0.2-2.5,0.1-2.9,0.2
		c-4.5,0.6-43.3,8.9-49.1,10.2c-18.1,3.8-28,5.9-39.4,2c-1-0.3-6.3-2.6-17.1-7.2c-10.4-4.5-14.6-6.4-19.6-8.9
		c-5.5-2.7-4.5-2.5-10.9-5.8c-10.9-5.5-21.1-10-21.2-9.9l0.2,0.1c0,0-12.3-7.5-27.1-14c-6.3-2.7-14.3-5.9-14.3-5.8
		c0,0,0.2,0.1,0.2,0.2c0,0-1.7-1-2.7-1.6c0,0-0.2-0.1-2.8-1.7c-2.7-1.6-13.7-7.4-18.3-10"/>
	<path class="st26" d="M349.9,112.7c2.5-0.3,4.8-0.6,8.3-1c-1.7,6.6-3.2,12.9-4.8,19.2c-9.3,2-18.7,4-28.1,6
		c-0.3-0.4-0.5-0.8-0.8-1.2c0.9-1.4,1.9-2.6,2.7-4c1.6-3,3.2-6,4.8-9c-0.4-0.3-0.9-0.6-1.3-0.9c-3.1,2.1-6.3,4-9.4,6
		c-16.9,5.4-31.3,13.2-48.5,21.1c-2,1.5-4.2,2.4-6.4,3.7c-9.7,2-19.1-0.1-28.7-1.5c-2-0.2-3.9,0.1-5.8-0.5
		c-10.3-3.3-20.6-6.8-30.9-10.2c-2.1-0.7-4.2-1.4-6.3-2.1c-2.2-1.5-4.4-2.8-6.6-4.3c-2.5-1.6-4.8-3-7.1-4.5c1-6.5,1.9-12.8,2.7-19.2
		l-0.1,0.2c1-4.8,1.9-9.6,3.1-14.3c0.4-1.3,1.9-2.3,2.9-3.3l-0.2-0.1c7.1,3.3,14.1,6.7,21.2,9.9c3.6,2,7.3,3.8,10.9,5.8
		c6.6,2.9,13.1,6,19.6,8.9c5.7,2.4,11.4,4.8,17.1,7.2c3.2,0.9,6.5,2.6,9.5,2.3c15.3-1.8,30.1-4.5,45.3-7.1
		c13.5-3.9,24.5-4.6,36.5-7.4L349.9,112.7z"/>
	<path class="st27" d="M233.4,135.8c6.4,3.8,13.3,6.8,23.4,6.9c1.2,0,4.5-0.4,11.3-1.1c20.2-2.2,36.5-4.6,47.3-6.4l11.3,6.4
		l20.5-1.3l4.1-0.7l4.7-15.5l3.9-12.4l-40.1,7.5l-34,6.8c-8.7,0.7-12.5,1.3-14.3,1.7c-0.4,0.1-1.6,0.4-3.2,0.4
		c-1.3,0-2.5-0.2-3.9-0.5c-3.1-0.8-5.5-1.8-5.6-1.9c-7.6-3.4-15.5-6.2-23-9.9c-23.6-11.6-19.7-9.4-24.6-12
		c-7.7-4.1-12.6-7.3-16.1-9.4l-9.1-5l-1.1,17.7L233.4,135.8z"/>
	<path class="st28" d="M398.8,102.2c-1.6,0.5-2.6,0.8-2.6,0.8l-36.4,8.8l-25.5,4.8c-17,2.8-34,5.9-51.1,9c-1.9,0.3-6,2.1-11.9,2.2
		c-9.9,0.1-23.5-7.4-23.8-7.6L112.6,57.3c-1.9-0.5-4.4-1.6-6.3-3.8c-1.2-1.4-1.7-2.9-2-3.6c-0.6-1.7-1.8-5.8-0.6-7.1
		c1.2-1.4,5.7-0.6,19,7.5L151,64.6l55.2,24.9c18.8,7.8,33.1,13.9,39.3,16.6c3.3,1.5,5.1,2.3,7.8,3.5c5.8,2.8,6.8,3.7,9.2,4.6
		c2.7,1,7,1.8,13.1,0.4l54.1-9.2l52.3-9.9c19.5-4.5,33.9-7.8,38.2-8.8c4.1-0.9,4.9-1,6.7-1.8c2.4-1,3.3-2,4.8-1.6
		c0.5,0.1,0.9,0.4,1.8,1c0.8,0.6,1.4,0.9,1.8,1.5c1.1,1.6,0.5,3.6,0.4,4c-0.6,2-2.3,2.9-2.6,3.1L398.8,102.2z"/>
	<path class="st29" d="M238.1,41.1c7.7-4.3,18.2-6.9,29.6-6.9c23.4,0,42.3,10.9,42.3,24.3s-18.9,24.3-42.3,24.3
		c-23.4,0-42.3-10.9-42.3-24.3c0-3.5,1.3-6.8,3.6-9.8c-10.1,0.1-18.4,0.2-24.4,0.3c-20.1,0.4-26.4,0.9-29.6,1.3
		c-8.1,0.8-14.2,0-20.7,2.8c-5.8,2.5-9.4,6.3-10.8,7.9c-1.2,1.5-2.1,3-2.1,3c-1.1,2-1.7,3.6-2,4.6c-2.9,9.6-6.5,36.4-7.9,44.4
		c-1,5.7,3.4,9.9,4.4,15.3c0,0,0.1,0.8,0.2,1.2c1.6,9.4,3.7,20.4,1.4,29.7c-0.6,2.3-2.5,7.3-4.5,2.9c-1.8-3.7-4.7-6.9-8.3-8.9
		c-0.6-0.3-1.2-0.6-1.8-0.9c-0.5-0.2-1-0.3-1.6-0.5c-5.1-1.4-10.8-0.1-15.4,2.4c-1.6,0.9-1.7,0.9-1.7,0.9c-1.4,0.8-1.6,1-1.7,1
		c-0.8-0.3,0.3-4.8,1.2-9.7c1-5.8,0.3-5.5,1.1-9.3c0.6-2.8,1.6-7.3,4.6-12.2c0,0,3.2-5.1,8.9-9.5c0.2-0.2,0.2-0.1,0.2-0.2
		c4.8-3.8,3.4-9.6,5.2-27.2c0.1-0.6,0.1-0.9,0.1-1.3c0.6-5.7,1.8-16.2,6.4-25.1c1.2-2.3,5.8-11.4,15.3-16.6
		c6.1-3.4,11.4-3.7,24.2-3.9c29-0.5,49.8-0.1,73-1.2c1,0,1.9-0.1,2.4-0.1"/>
	<ellipse class="st30" cx="267.5" cy="56.9" rx="31.9" ry="17.7"/>
</g>
<g id="Camada_2">
	<g id="Camada_4_1_">
		<path class="st0" d="M280,194.4c52.7-16.5,75-20,75-20c24.2-3.8,25.6-2.3,34.6-6c16.5-6.8,27.9-18.2,35-27
			c-2.7,1.1-7,2.3-12.2,2.5c-7,0.2-15.3-2.1-15.3-4.1c0-0.7,0.9-1.2,1.3-1.5c10.8-6.3,19.8-22.9,20.8-26.5c0.1-0.3,0.2-0.7,0.6-2.4
			c0.7-3,1-3.7,0.7-3.9c-0.3-0.2-0.8,0.4-2.4,1.5c0,0,0,0-1.9,1.2c-3.6,2.3-37.6,13.3-45.2,16.6c-0.4,0.2-3.5,1.6-7.4,2.9
			c-1.8,0.7-2.9,1-3.8,1.3c-1.5,0.5-3.2,1.1-5.5,1.5c-2.6,0.6-2.9,0.4-4.6,0.9c-1.8,0.5-3.8,1.2-3.8,1.2s-13.3,4.5-13.8,3.7
			c0,0,0,0-0.1-0.1c-0.2-0.3-0.3-0.4-0.3-0.5c-0.3-0.4-0.4-0.6-0.4-0.6c-0.2-0.5,0.6-1.3,1.3-2.1c0,0,0.6-0.7,1.3-2.1
			c0.6-1.3,0.6-1.9,1.1-3.8c0.9-3,1.7-4,1.4-4.4c-0.4-0.4-1.7,0.7-4.4,2.2c0,0-1.3,0.7-4,2c-4.9,2.4-34.8,16.6-47.5,24
			c-1.3,0.8-3.4,2.1-6.2,4.1c-3.2,2.5-5.6,4.7-6.9,5.9c-6.9,6.7-9.6,12.4-11.6,11.6c-0.3-0.1-0.4-0.4-0.8-0.8c-2.1-3,0.1-6.3-1-9
			c-0.9-2.2-4-3-10.3-4.7c-1.1-0.3-0.4-0.1-7.1-1.6c-4.6-1.1-6.4-1.5-9.1-1.6c-3.1-0.1-5.1,0-6.2,1.4c-1.5,1.8-0.8,5-0.5,6.6
			c0.8,3.7,3.3,8,2.9,8.2c0,0-0.1,0-0.4,0.2c-0.1,0-0.1,0.1-0.2,0.1c-0.3,0.1-0.4,0.2-0.4,0.2c-0.5,0.1-2.2-3.6-2.5-4.1
			c-0.5-1-1.4-2.5-2.4-4.3c0,0-4.5-7.3-11.4-14.1c-19.2-18.9-54.8-31.7-54.8-31.7c-4.8-1.9-16.9-6.4-17.8-4.6
			c-0.2,0.6,0.8,1.5,2.7,3.9c1.7,2.1,7.7,9.6,6.8,11.4c-1.4,2.5-17.1-4.5-23.6-7.2c-13.6-5.7-33.5-11.3-60.7-11.3l5,5.4
			c3.5,3.8,9,9.3,16.3,15.2c15.1,12.1,27.9,17.8,49.6,27.5c30.9,13.9,46.4,20.8,47.5,21.5c13.8,7.6,23.6,13,30.9,16.8
			c11.5,6,16.8,8.7,19.7,15.4c1.6,3.8,1.9,7.7,5.5,10.5c4.4,3.5,10.2,2.4,11.5,2.2c4.3-0.8,8.1-5.6,15.7-14.5
			c4.6-5.5,6.1-7.8,10-10.5C274.7,196.2,278.2,195,280,194.4z"/>
	</g>
	<path class="st19" d="M282.7,175.5c-1.5-3.7,12.5-13.4,21.5-19.6c1.4-1,9.5-6.6,10.6-5.3c0.9,1.1-4.5,6-3.5,7.6
		c2,3.5,32.2-14.8,33.6-12.3c0.6,1.1-4.3,6-9.2,9.5c-6.5,4.4-11.4,5.2-11.3,5.9c0.2,1.4,17.1-0.7,32.8-3.8c3.3-0.6,5.5-1.1,5.7-0.9
		c0.2,0.6-18.1,6.7-35,11.4C305.3,173.8,284.5,179.6,282.7,175.5z"/>
	<path class="st19" d="M214.4,176.7c-19.2-19.6-32.1-27.5-39.5-31.2c-0.6-0.3-8.1-3.9-9.1-2.3c-1.2,1.9,8.2,9.5,7,11.5
		c-0.2,0.2-0.9,1-10.7-2.5c-6.3-2.2-10.1-3.9-16.1-5.2c-3.5-0.8-5.8-1.3-6-0.7c-0.8,1.7,13.4,10.6,25.5,16.7
		c5,2.5,10.1,5.1,17.1,7.5C189.9,173.1,200.7,176,214.4,176.7z"/>
	<path class="st29" d="M238.1,41.1c7.7-4.3,18.2-6.9,29.6-6.9c23.4,0,42.3,10.9,42.3,24.3s-18.9,24.3-42.3,24.3
		c-23.4,0-42.3-10.9-42.3-24.3c0-3.5,1.3-6.8,3.6-9.8c-10.1,0.1-18.4,0.2-24.4,0.3c-20.1,0.4-26.4,0.9-29.6,1.3
		c-8.1,0.8-14.2,0-20.7,2.8c-5.8,2.5-9.4,6.3-10.8,7.9c-1.2,1.5-2.1,3-2.1,3c-1.1,2-1.7,3.6-2,4.6c-2.9,9.6-6.5,36.4-7.9,44.4
		c-1,5.7,3.4,9.9,4.4,15.3c0,0,0.1,0.8,0.2,1.2c1.6,9.4,3.7,20.4,1.4,29.7c-0.6,2.3-2.5,7.3-4.5,2.9c-1.8-3.7-4.7-6.9-8.3-8.9
		c-0.6-0.3-1.2-0.6-1.8-0.9c-0.5-0.2-1-0.3-1.6-0.5c-5.1-1.4-10.8-0.1-15.4,2.4c-1.6,0.9-1.7,0.9-1.7,0.9c-1.4,0.8-1.6,1-1.7,1
		c-0.8-0.3,0.3-4.8,1.2-9.7c1-5.8,0.3-5.5,1.1-9.3c0.6-2.8,1.6-7.3,4.6-12.2c0,0,3.2-5.1,8.9-9.5c0.2-0.2,0.2-0.1,0.2-0.2
		c4.8-3.8,3.4-9.6,5.2-27.2c0.1-0.6,0.1-0.9,0.1-1.3c0.6-5.7,1.8-16.2,6.4-25.1c1.2-2.3,5.8-11.4,15.3-16.6
		c6.1-3.4,11.4-3.7,24.2-3.9c29-0.5,49.8-0.1,73-1.2c1,0,1.9-0.1,2.4-0.1"/>
	<ellipse class="st30" cx="267.5" cy="56.9" rx="31.9" ry="17.7"/>
</g>
</svg>
