<?xml version="1.0" encoding="utf-8"?>
<!-- Generator: Adobe Illustrator 24.1.2, SVG Export Plug-In . SVG Version: 6.00 Build 0)  -->
<svg version="1.1" xmlns="http://www.w3.org/2000/svg" xmlns:xlink="http://www.w3.org/1999/xlink" x="0px" y="0px"
	 viewBox="0 0 662.6 649.6" style="enable-background:new 0 0 662.6 649.6;" xml:space="preserve">
<style type="text/css">
	.st0{fill:#8592A4;stroke:#8592A4;}
	.st1{fill:#455771;stroke:#455771;}
	.st2{fill:#6A7A8B;}
	.st3{fill:none;stroke:#6A7A8B;stroke-miterlimit:10;}
	.st4{fill:#6A7A8B;stroke:#6A7A8B;stroke-miterlimit:10;}
	.st5{fill:#CC6540;stroke:#BF5E40;stroke-width:4;stroke-miterlimit:10;}
	.st6{fill:none;stroke:#BF5E40;stroke-width:4;stroke-miterlimit:10;}
	.st7{fill:#8592A4;}
	.st8{fill:#CC6540;}
	.st9{stroke:#000000;}
	.st10{fill:#FFFFFF;stroke:#000000;}
	.st11{fill:#8592A4;stroke:#000000;}
	.st12{fill:#F7F7F7;stroke:#F2F3F4;}
	.st13{fill:#DBDDE5;stroke:#DBDDE5;}
	.st14{fill:#B5B6BC;stroke:#B5B6BC;}
	.st15{fill:#6A7A8B;stroke:#6A7A8B;}
	.st16{fill:#A1FFFC;}
	.st17{font-family:'ArialMT';}
	.st18{font-size:10.6791px;}
	.st19{fill:#B5B6BC;}
	.st20{fill:#F8EEE0;stroke:#F8EEE0;stroke-width:1;stroke-miterlimit:4;}
	.st21{fill:#D19022;stroke:#D19022;stroke-width:1;stroke-miterlimit:4;}
	.st22{fill:#271F1B;stroke:#271F1B;}
	.st23{fill:#F1E7DA;}
	.st24{fill:#D6CFC9;stroke:#D6CFC9;}
	.st25{fill:#939FAD;stroke:#939FAD;}
	.st26{fill:#2E2F29;stroke:#2E2F29;}
	.st27{fill:#4E5355;stroke:#4E5355;}
	.st28{fill:none;stroke:#00BED7;stroke-miterlimit:10;}
	.st29{opacity:0.87;fill:none;stroke:#676765;stroke-width:4;stroke-miterlimit:10;enable-background:new    ;}
	.st30{fill:#CC6540;stroke:#CC6540;}
	.st31{fill:#C95B3A;stroke:#C95B3A;stroke-miterlimit:10;}
	.st32{opacity:0.24;fill:#1315E2;}
	.st33{opacity:0.46;fill:#FFFFFF;}
	.st34{opacity:0.4;fill:#1315E2;}
	.st35{opacity:0.22;fill:#6AB2F3;}
	.st36{opacity:0.32;fill:#84F2FF;stroke:#7E8E8A;stroke-width:2;stroke-miterlimit:10;}
	.st37{opacity:0.36;fill:#F9F9F9;}
	.st38{opacity:0.42;fill:none;stroke:#0C8778;stroke-width:7;stroke-miterlimit:10;}
	.st39{opacity:0.15;fill:#84F2FF;stroke:#7E8E8A;stroke-width:2;stroke-miterlimit:10;}
</style>
<g id="Camada_3_3_">
	<path class="st0" d="M528,346.9c0.7-0.6,1.7,0,2.5-0.2c7.9-2,15.8-3.8,23.6-6c2.8-0.8,5.8-1.9,8-3.6c3-2.3,5.9-2.6,9.3-1.5
		c8.3,2.6,14.6,7.8,19.8,14.6c11.2,14.8,17.6,31.6,20.6,49.7c5.4,32.5,4.4,64.7-6.5,96.1c-9.5,27.2-25.4,48.9-53.3,59.8
		c-7.4,2.9-14.6,6.4-22,9.3c-1.6,0.6-4.5,0.7-5.4-0.3c-1-1-1-4-0.2-5.4c14.5-27.3,13.8-56.8,12.8-86.3c-0.4-10.6-1.9-21.2-3-32.2
		c2.1,1,4.1,2.1,6.1,3c7.3,3.3,11.7,0.5,12-7.4c0.3-9-2.8-17-7.8-24.3c-0.9-1.4-1.9-2.7-3.3-4.6c8.2-0.2,14.2-3.1,16.1-11.4
		c2.2-9.4,1-17.8-6.5-24.7c-7.4-6.9-14.6-14-21.9-21C528.9,349.7,528.2,347.5,528,346.9z"/>
</g>
<g id="Camada_4_1_">
	<path class="st1" d="M588.8,528.5c-5.4,6.2-9.9,11.3-17.4,16.6c-2.3,1.6-7.3,4.9-14.3,8.1c-3.4,1.5-4.5,1.7-11.3,4.7
		c-2.9,1.3-5.9,2.2-8.6,3.8c-1.8,1-3.5,2.1-6,2.5c-0.8,0.1-3.4,0.4-3.4,0.4c1.4,0-3.1,0.8-4-0.2c-1.2-1.2,1.6-5.6,1.8-5.9
		c8.2-12.9,63.1-39.4,65.7-33.3C591.4,525.5,590.5,526.5,588.8,528.5z"/>
	<path class="st1" d="M560.6,531.5c-5.4,6.2-9.9,11.3-17.4,16.6c-1.7,1.2-7,4.8-14.3,8.1c-3.4,1.5-4.5,1.7-11.3,4.7
		c-2.9,1.3-5.9,2.2-8.6,3.8c-1.8,1-3.5,2.1-6,2.5c-0.8,0.1-3.4,0.4-3.4,0.4c1.4,0-3.1,0.8-4-0.2c-1.2-1.2,1.6-5.6,1.8-5.9
		c7.5-11.8,63.8-37.8,65.7-33.3C563.2,528.6,562.3,529.6,560.6,531.5z"/>
</g>
<g id="Camada_5_2_">
	<path class="st0" d="M360.1,319.2c0.3,5.5,0.6,13.6,0.5,23.4c-0.6,39.2-7.7,68.3-9.4,74.9c-4.3,17.1-5.7,15.2-7.9,27.4
		c-1.6,9.1-1.9,15.9-5.8,17.3c-3.5,1.3-8.1-2.7-11.5-5.5c-7.8-6.6-10.1-13.9-12.3-13.2c-1.5,0.4-0.6,3.6-2.9,8.6
		c-1.1,2.4-3.5,7.7-7.9,8.6c-4.4,1-9.3-2.7-11.5-6.5c-3.7-6.2-1.3-14.4-1.4-14.4c-0.1,0,1.1,11.1-5,18c-3.6,4-10.1,7.2-13.7,5
		c-6.4-3.8-0.5-22.9-3.6-23.8c-1.7-0.5-3.3,5.1-10.1,10.8c-3.4,2.9-6.8,5.7-11.5,5.8c-4.4,0-9.8-2.3-11.5-6.5
		c-2.3-5.6,3-11.8,1.4-13c-1.3-0.9-4.5,3.5-11.5,6.5c-3.3,1.4-9.4,4-13,1.4c-4.2-3,1.4-13.6-1.4-15.1c-1.5-0.8-3.2,1.8-9,3.2
		c-2.8,0.7-5.6,1.4-7.9,0c-2.5-1.5-3.5-4.7-3.6-7.2c-0.3-9.3,12.7-15.5,11.2-18.4c-0.7-1.3-3.5-0.3-7.9-1.1
		c-1.4-0.2-8.1-1.6-11.5-6.1c-4.6-6.2-2.7-17.8,2.2-24.8c1.8-2.6,4.5-5.2,3.6-6.8c-0.7-1.4-3.2-0.7-5.8-1.4
		c-4.4-1.3-8.3-6.4-8.6-11.9c-0.3-5,2.4-10.1,6.1-12.2c2.4-1.4,4.4-1.1,6.1-3.2c1.5-1.8,0.6-3.1,1.8-5.8c1.3-3,3.7-4.5,6.1-6.1
		c4.8-3.1,8.7-1.6,9.4-3.6c0.5-1.4-1.1-2.6-3.2-5.8c-1.3-1.9-2.3-4.4-4.3-9.4c-3.9-9.6-6.3-19-6.5-19.8c-2.2-9-5.1-20.7-4-35.6
		c0.8-10,2.8-14.8,4.3-17.6c3.4-6.5,5.5-9.6,8.6-10.8c1.1-0.4,2.5-1,4.3-0.7c5.1,0.9,7.6,8.3,9.4,13.7c1.8,5.6,2.1,9.1,2.9,14
		c1.6,10,4.2,17.3,5.4,20.9c0.3,1,3.6,11.1,7.6,18.4c2.3,4.2,2.6,3.4,4.7,7.6c0.9,1.7,1.3,2.7,2.2,2.9c1.8,0.4,3.4-3,5.8-5.4
		c5.3-5.3,13.9-4.9,18.4-4.7c7.6,0.4,13.1,3.4,15.8,5c14.8,8.5,20.3,24.3,23.8,34.2c2,5.6,4.2,13.8,5,24.1c0.8-1,1.7-1.9,2.5-2.9
		C315.1,340.4,332,327,360.1,319.2z"/>
</g>
<g id="Camada_11">
	<path class="st2" d="M311.9,358.7c0,0.1-0.7,1.5-1.5,3.4c-1.7,4-2.7,6.3-3.6,8.5c-3.2,7.6-4.6,11-5.1,10.9
		c-0.5-0.1,0.6-3.7,1.2-9.1c0.6-5.3,0.4-9.7,0.3-12.2c-0.1-2.5-0.2-4.6-0.4-6.3l6.6-7.2c1-0.8,2.6-2,4.4-3.4
		c4.4-3.5,4.4-3.7,6.8-5.5c3-2.3,5.4-3.7,9.2-6c3.5-2.1,6-3.5,6.2-3.3C337,329.4,315.8,349.9,311.9,358.7z"/>
</g>
<g id="Camada_10">
	<path class="st1" d="M192.4,338.4c14.8-5.6,21.7-4.3,25.3-1.8c0.6,0.4,2.3,1.7,5,3.4c5.8,3.6,8.7,4.7,11.4,5c1.2,0.2,1,0,2.6,0.2
		c1.8,0.2,4.8,0.6,8.2,2c1.6,0.7,3.2,1.4,5,3c1,0.9,2.7,2.5,3.6,5.2c0.3,0.8,0.9,2.7,0.5,5.2c-0.4,2.8-2,4.6-2.8,5.6
		c-2.1,2.4-4.4,3.4-6.5,4.4c-0.6,0.2-4.5,1.9-8,2c-8.4,0.3-10-9.1-21.7-13.8c-6.5-2.6-7.8-0.5-14.6-4c-2.6-1.3-10.9-5.6-10.6-11.3
		C189.9,341.3,191.3,339.5,192.4,338.4z"/>
</g>
<g id="Camada_9">
	<path class="st1" d="M211.4,319.1c-1.7,0.9-4.3,2.8-9.2,4.5c-3.6,1.3-4.7,1.2-7.6,2.6c-2.2,1.1-5.1,2.6-7.3,5.8
		c-1,1.4-2.7,3.9-2.4,7c0.3,3.4,2.6,5.5,4.2,7.1c4.1,3.9,8.9,5,11.7,5.6c1.6,0.3,5.9,1.1,13.1,0.1c2.6-0.4,10.5-1.7,20.3-6.9
		c11.3-6,18-13.3,21.4-17.1c4.4-5,8.9-11.1,8.1-11.9c-0.9-0.9-6,7.9-15.4,10.1C233.6,329.6,221.8,313.8,211.4,319.1z"/>
	<path class="st1" d="M233.5,301.3c1.1-1.1-6.4-7.7-12.7-23.9c-2.7-7-4.6-14.3-4.6-14.3c-1.4-5.3-2.3-10.2-2.5-11.6
		c-1-5.3-0.8-6.1-1.7-10c-0.4-1.6-1.3-5.6-3.4-10.2c-1.9-4.4-3.2-5.6-4.6-6.4c-0.8-0.5-2.6-1.3-4.7-1c-0.7,0.1-2.4,0.4-4.8,2.5
		c-1.2,1-3.3,3.1-5.9,9c-2,4.4-2.9,8.1-3.1,8.8C182.2,258.5,230.6,304.2,233.5,301.3z"/>
	<path class="st1" d="M191.6,383.3c2.6-2,4.9-3.6,6.6-4.8c6.8-4.8,8.3-5.3,10-5.5c0.4,0,0.3,0,6.3,0.5c3.6,0.3,5.5,0.4,6,0.5
		c4.8,0.2,8.9-0.3,12-0.7c3.7-0.5,5.5-1,8-0.1c2.6,0.8,3.5,2.2,3.7,2.5c0.9,1.4,0.8,2.8,0.8,4.6c-0.1,3-1.1,5.2-1.5,6
		c-1.4,2.9-3.3,4.6-4.5,5.7c-1.5,1.3-2.8,2.1-4.9,3.3c-2.7,1.6-4.1,2.4-5.3,2.6c-4.4,0.9-8.6-4.5-11.7-7.3
		C212.9,386.6,205.5,382.8,191.6,383.3z"/>
	<path class="st1" d="M202.2,405.3c0.1-0.5,2-0.3,6.2-0.9c1.4-0.2,5.7-0.9,10.4-2.7c1.9-0.7,3.9-1.3,5.7-2.1c1.2-0.5,1.9-0.8,3-1
		c0.8-0.1,2.6-0.3,4.4,0.7c2.1,1.3,2.8,3.5,3,4.2c0.1,0.4,0.5,1.9,0.1,3.9c-0.4,1.8-1.3,2.9-2.1,4c-1.1,1.4-1.7,1.7-4.1,3.8
		c-3.6,3.2-3.6,3.6-4.4,3.7c-2.5,0.4-3.8-3.5-7.8-7C210.2,406.3,202,406.4,202.2,405.3z"/>
</g>
<g id="Camada_6">
	<path class="st3" d="M301.1,381.3c1.2-7.1,2.1-16.2,1.2-26.8c-0.9-11.1-2-26.1-12-40.6c-3.7-5.4-11.3-16.9-25.1-21.5
		c-3.3-1.1-9.1-2.9-16.1-1.1c-2.9,0.7-5.3,1.9-11.8,6.9c-13.3,10.1-13.4,12.9-22.6,18.7c-6.3,4-9.5,6-14.5,7.8
		c-4.7,1.7-7.8,2-10.9,5.1c-0.8,0.8-4.7,4.6-4.3,9.2c0.4,5.5,6.7,9,8.6,10.1c14.6,8.1,38.3-0.1,53.3-12.5
		c8.2-6.7,13.4-14.4,16.8-20.6"/>
	<path class="st3" d="M191.2,383.7"/>
	<path class="st3" d="M191.2,383.7c1.3-1,8.8-6.9,14.3-9.4c1.5-0.7,2.7-1,4-1.2c2.7-0.4,4.6,0.1,6.1,0.4c3.5,0.7,6.1,0.4,11.5,0
		c5.3-0.4,6.2-1.2,9.7-0.9c3.2,0.3,5.1,0.3,6.5,1.6c3.2,3.1,0.9,10,0.7,10.4c-2.5,7.2-9.8,10.6-17.6,14c-5.3,2.3-13.4,5.3-24.1,6.5"
		/>
</g>
<g id="Camada_7_1_">
	<path class="st3" d="M235.7,344.2c4.1,0.7,7.2,2,9.2,3c3.2,1.6,5.9,3,7.7,6.2c0.5,0.9,2,3.7,1.4,7.2c-0.5,3.2-2.4,5.2-3.4,6.2
		c-2.3,2.4-5,3.5-7.7,4.3c-5.2,1.6-10.7,2.4-20.2,2.4c-4.1,0-8,0-13.4-0.5c-5.7-0.5-13.3-1.7-22.2-4.2"/>
	<path class="st3" d="M210.1,429.1c3.8-2.1,8.3-5,13-9c8.7-7.4,11.4-9.2,11.9-12.6c0.1-0.7,0.8-5.2-2.2-7.6c-2.5-2-5.9-1.2-6.5-1.1"
		/>
</g>
<g id="Camada_8">
	<path class="st4" d="M263.6,316.2c1.2,0.8,2.8,1.4,4.4,1.1c1.9-0.4,2.9-2,3.2-1.8c0.5,0.3-1.7,3.1-2.2,6.5
		c-0.8,5.7,3.5,9.2,2.2,11.2c-1,1.5-4.1-1.2-9-0.4c-1,0.2-5.7,1-7.9,5c-1.3,2.4-0.8,4.9,0,9.4c0.4,2.2,2,3.7,1.4,5.6
		c-0.3,0.9-0.9,2.1-1.6,2.2c-0.7,0-1.1-0.9-2-2.1c0,0-1-1.3-3.4-3.4c-2.5-2.1-5.2-3-8.1-4c-1.6-0.5-2.9-0.8-3.8-1l5.2-4.1l5.2-3.9
		l3.7-3.3l3.3-3.4l3.4-4.2l3.3-4.7L263.6,316.2z"/>
</g>
<g id="Camada_2">
	<g>
		<g id="Camada_5_5_">
			<path class="st5" d="M357,622.4c4.3-0.1,6.4-0.1,8.6-1.1c4.7-2.1,4.8-5.7,9.4-9.4c3.3-2.7,6.4-3.6,11.2-5c21.9-6.5,41-2.9,41-2.9
				c2.6,0.5,4.5,1,5.4,0c2.9-3.4-5.5-20.2-18.7-28.4c-9.4-5.8-12.8-2-41.4-4.7c-39.1-3.7-7.5-7.9-46.8-2.2
				c-10.6,1.6-16.5,6.3-18,7.6c-0.5,0.4-0.8,0.7-1,0.9c-2.5,2.3-7.4,7.6-9,15.6c-0.7,3.6-1.6,7.9,0.7,11.5c4,6.4,15.5,6.8,15.5,6.8
				s-2.6-0.9-2.9-0.4c-0.5,0.9,4.6,6.9,11.9,9c7.6,2.2,16.4,2.9,18-0.4c0.1-0.1,0-0.4,0.2-0.5c0.7-0.6,2.8,1,3.8,1.6
				C347.9,622.6,351.3,622.5,357,622.4z"/>
			<path class="st6" d="M342.3,619.1c-1.5-0.4-6.9-7.2-9.4-10c-3.8-4.3-3.7-9.6-3.6-11.2c0.2-6.6,4.1-11,6.1-13.3
				c0.7-0.8,3.7-4,8.6-6.5c2.4-1.2,4.5-1.8,6.1-2.2"/>
			<path class="st6" d="M313.8,611.3c-1.4-1.4-5-8.5-5.4-12.2c-0.5-5.1-0.2-9.2,4-14c3-3.6,8.2-9.4,16.9-11.9c2.8-0.8,5.2-1,6.8-1.1
				"/>
			<path class="st5" d="M543.7,622.4c-4.3-0.1-6.4-0.1-8.6-1.1c-4.7-2.1-4.8-5.7-9.4-9.4c-3.3-2.7-6.4-3.6-11.2-5
				c-21.9-6.5-41-2.9-41-2.9c-2.6,0.5-4.5,1-5.4,0c-2.9-3.4,5.5-20.2,18.7-28.4c9.4-5.8,12.8-2,41.4-4.7c39.1-3.7,7.5-7.9,46.8-2.2
				c10.6,1.6,16.5,6.3,18,7.6c0.5,0.4,0.8,0.7,1,0.9c2.5,2.3,7.4,7.6,9,15.6c0.7,3.6,1.6,7.9-0.7,11.5c-4,6.4-15.5,6.8-15.5,6.8
				s2.6-0.9,2.9-0.4c0.5,0.9-4.6,6.9-11.9,9c-7.6,2.2-16.4,2.9-18-0.4c-0.1-0.1,0-0.4-0.2-0.5c-0.7-0.6-2.8,1-3.8,1.6
				C552.9,622.6,549.4,622.5,543.7,622.4z"/>
			<path class="st6" d="M558.5,619.1c1.5-0.4,6.9-7.2,9.4-10c3.8-4.3,3.7-9.6,3.6-11.2c-0.2-6.6-4.1-11-6.1-13.3
				c-0.7-0.8-3.7-4-8.6-6.5c-2.4-1.2-4.5-1.8-6.1-2.2"/>
			<path class="st6" d="M586.9,611.3c1.4-1.4,5-8.5,5.4-12.2c0.5-5.1,0.2-9.2-4-14c-3-3.6-8.2-9.4-16.9-11.9c-2.8-0.8-5.2-1-6.8-1.1
				"/>
		</g>
		<g id="Camada_3_8_">
			<line class="st7" x1="362.4" y1="258.1" x2="339.4" y2="258.1"/>
			<path class="st7" d="M337.9,198.2"/>
		</g>
		<g>
			<g>
				<path class="st8" d="M353.3,576.6c-0.5,0.1-0.9,0.2-1.3,0.4"/>
				<path class="st8" d="M559.3,601.2c0.7,0.4-8.5,7.8-7.8,8"/>
			</g>
			<g>
				<g>
					<g>
						<path class="st0" d="M412.9,456c-5.4-6.7-5.9-14.5-4.1-22.1c1.6-7.1,4.5-13.9,7.1-20.7c4.3-11.4,8.7-22.8,13.7-35.7
							c-0.8,5.9-0.8,10.6-2.1,15c-2.2,7.5-5.3,14.7-8,22C414.5,427.9,409.3,441.2,412.9,456z"/>
						<path class="st0" d="M422.4,509.4c-12.1-19.2-9.3-53.6,5.8-72C418.6,460.5,416.6,484.2,422.4,509.4z"/>
						<path class="st9" d="M447.1,249.9"/>
						<path class="st9" d="M469,265.9"/>
						<path class="st9" d="M464.3,254.6"/>
						<path class="st9" d="M537.4,298.1"/>
						<path class="st0" d="M324.4,214"/>
						<path class="st10" d="M362.7,255.8"/>
						<path class="st11" d="M489.2,198.2"/>
						<path class="st9" d="M490.2,272.2"/>
						<path class="st9" d="M466.3,244.6"/>
					</g>
				</g>
				<g id="Camada_4_6_">
				</g>
				<g id="Camada_3_7_">
				</g>
			</g>
			<g id="Camada_3_6_">
			</g>
		</g>
	</g>
	<g id="Camada_5_1_">
		<path class="st4" d="M581.1,361.6"/>
	</g>
	<g id="Camada_7_2_">
		<path class="st4" d="M226.1,251.2"/>
		<path class="st4" d="M354.1,338.4c1-1.4,2-3,3.1-4.5 M360.6,328.5c0.2-0.3,1.3-2.1,2.3-4.7c0.4-1,0.6-1.8,0.8-2.3
			c0.3-0.9,0-1.9,0.5-2.2c0.9-0.4,2.2,1.8,5.4,3.9c1.3,0.8,1.1,0.5,5.5,2.6c3.4,1.6,3.4,1.8,6.2,3.1c1.7,0.8,3.2,1.4,6,2.6
			c2.6,1.1,4.7,2,5.8,2.4c0,0,3.6,1.5,6.7,2.6c13.2,5,29.1,7.9,29.1,7.9c8,1.5,16.4,2,33.3,3.1c0,0,20.4,1.3,34.3-0.1
			c0,0,0.4,0,0.8-0.1c0,0,1-0.1,1.9-0.1c1.2-0.1,1.9,0,3-0.1c0,0,0.8,0,3.4-0.1c12.9-0.5,19.9-1.6,19.9-1.6
			c10.1-1.7,15.1-2.5,16.4-2.9c0.6-0.2,2-0.7,3.6-0.3c2.8,0.6,4.2,3.2,5.9,5.5c0.7,1,0.2,0.2,9.8,8.7c11.2,10.1,5.2,5.2,9.3,8.8
			c1,0.9,3.5,3.1,5.2,6.7c0.2,0.4,0.3,0.6,0.3,0.7c1.7,4.1,1.5,7.8,1.3,9.7c-0.1,1.8-0.4,4.7-2,8c-1.3,2.8-3.2,6.9-7.1,7.9
			c-3.4,0.9-8.2-0.6-10.7-3.4c-0.1-0.1-0.5-0.7-1.1-1.4c-1-1.1-2.5-2.7-2.7-2.6c-0.3,0.2,3.4,4.8,7.8,11.3c3.7,5.6,5.6,8.3,6.9,11.2
			c0,0,3.2,6.8,3.4,17.8c0,0.3,0.1,1.1-0.1,2.1c-0.3,1.6-1.2,2.7-1.6,3.2c-0.1,0.1-1.6,1.8-3.5,2.4c-1.3,0.4-3.4,0.4-8.2-3.1
			c-4-3-4.9-4.7-9.8-9.4c-4.6-4.4-7.4-6.2-7.4-6.1c0,0,0.3,0.2,0.7,0.6c1.7,1.5,2.5,2.8,3.8,4.5c1.5,1.9,1.4,1.6,2.6,3.1
			c1,1.3,2.1,2.7,3,4.8c0.6,1.3,0.9,2.3,1.3,3.6c0,0,0.5,1.5,0.8,3c4.7,18.9,2.2,46.3,2.2,46.3c0,11.9-1.9,23.1-3.2,30
			c-1.3,7.2-4.4,13.8-10.7,26.8c-4.5,9.5-6.9,14.6-11.5,20.6c-3.4,4.6-9,11.8-18.7,17.8c-8.7,5.3-15.4,6.7-15.4,6.7
			c-2,0.8-4.2,1.6-6.7,3.4c-3.8,2.7-5.2,5.3-7.2,7.7c-5.9,7.1-14.9,9.2-18.7,10.1c-7.2,1.7-13.1,0.9-15.8,0.5
			c-7.4-1.1-12.6-3.7-14.2-4.5c-7.3-3.9-12.4-9.4-14.2-11.3c-2.7-3-3.7-4.7-6.7-6.7c-2.8-1.9-5-2.4-9.6-3.8
			c-4.3-1.4-8.4-3.1-12.6-4.6c-9.3-3.3-22.8-8-33.8-19.1c-4.2-4.2-7.2-8.5-8.3-10.1c-3.4-5.1-5.4-9.4-7.2-13.3c-1.8-3.9-2.9-7-5-13
			c-1.4-3.8-3-8.5-3.7-10.7c-4.2-13.1-2.1-33.4-1.4-39.5c3.4-33.6,0.9-26.7,3.8-47.5c3.3-24,7.8-40.8,13-60.5
			C347.6,365,354.8,337.9,360.6,328.5z M330.1,456.7c0-0.3,0.1-0.7,0.2-1c0.1-0.7,0.2-0.8,0.3-1.5c0-0.1,0-0.2,0.1-0.4 M435.4,395.7
			c0.8-2.7,1.1-5.4,1.4-8.6c0.1-1-1.3-1.3-1.6-0.4c-4.2,10.4-7.9,19.9-11.6,29.5c-2.6,6.7-5.6,13.4-7.2,20.5
			c-1.4,6-1.4,12.4,1.8,18.2c0.5,0.8,1.7,0.4,1.6-0.5c-1.9-13,2.9-25,7.5-37 M429,505.4c-3.9-20.5-2.3-40,4.6-59.1
			c0.3-1-1-1.6-1.5-0.7c-10.6,17.1-12.7,42.8-4.7,60.3C427.8,506.8,429.2,506.4,429,505.4z"/>
	</g>
	<g>
		<path class="st12" d="M488.7,586.8"/>
	</g>
	<path class="st4" d="M347.6,339.3c1-1.4,2-3,3.1-4.5 M354,329.4c0.2-0.3,1.3-2.1,2.3-4.7c0.4-1,0.6-1.8,0.8-2.3
		c0.3-0.9,0-1.9,0.5-2.2c0.9-0.4,2.2,1.8,5.4,3.9c1.3,0.8,1.1,0.5,5.5,2.6c3.4,1.6,3.4,1.8,6.2,3.1c1.7,0.8,3.2,1.4,6,2.6
		c2.6,1.1,4.7,2,5.8,2.4c0,0,3.6,1.5,6.7,2.6c13.2,5,29.1,7.9,29.1,7.9c8,1.5,16.4,2,33.3,3.1c0,0,20.4,1.3,34.3-0.1
		c0,0,0.4,0,0.8-0.1c0,0,1-0.1,1.9-0.1c1.2-0.1,1.9,0,3-0.1c0,0,0.8,0,3.4-0.1c12.9-0.5,19.9-1.6,19.9-1.6
		c10.1-1.7,15.1-2.5,16.4-2.9c0.6-0.2,2-0.7,3.6-0.3c2.8,0.6,4.2,3.2,5.9,5.5c0.7,1,0.2,0.2,9.8,8.7c11.2,10.1,5.2,5.2,9.3,8.8
		c1,0.9,3.5,3.1,5.2,6.7c0.2,0.4,0.3,0.6,0.3,0.7c1.7,4.1,1.5,7.8,1.3,9.7c-0.1,1.8-0.4,4.7-2,8c-1.3,2.8-3.2,6.9-7.1,7.9
		c-3.4,0.9-8.2-0.6-10.7-3.4c-0.1-0.1-0.5-0.7-1.1-1.4c-1-1.1-2.5-2.7-2.7-2.6c-0.3,0.2,3.4,4.8,7.8,11.3c3.7,5.6,5.6,8.3,6.9,11.2
		c0,0,3.2,6.8,3.4,17.8c0,0.3,0.1,1.1-0.1,2.1c-0.3,1.6-1.2,2.7-1.6,3.2c-0.1,0.1-1.6,1.8-3.5,2.4c-1.3,0.4-3.4,0.4-8.2-3.1
		c-4-3-4.9-4.7-9.8-9.4c-4.6-4.4-7.4-6.2-7.4-6.1c0,0,0.3,0.2,0.7,0.6c1.7,1.5,2.5,2.8,3.8,4.5c1.5,1.9,1.4,1.6,2.6,3.1
		c1,1.3,2.1,2.7,3,4.8c0.6,1.3,0.9,2.3,1.3,3.6c0,0,0.5,1.5,0.8,3c4.7,18.9,2.2,46.3,2.2,46.3c0,11.9-1.9,23.1-3.2,30
		c-1.3,7.2-4.4,13.8-10.7,26.8c-4.5,9.5-6.9,14.6-11.5,20.6c-3.4,4.6-9,11.8-18.7,17.8c-8.7,5.3-15.4,6.7-15.4,6.7
		c-2,0.8-4.2,1.6-6.7,3.4c-3.8,2.7-5.2,5.3-7.2,7.7c-5.9,7.1-14.9,9.2-18.7,10.1c-7.2,1.7-13.1,0.9-15.8,0.5
		c-7.4-1.1-12.6-3.7-14.2-4.5c-7.3-3.9-12.4-9.4-14.2-11.3c-2.7-3-3.7-4.7-6.7-6.7c-2.8-1.9-5-2.4-9.6-3.8
		c-4.3-1.4-8.4-3.1-12.6-4.6c-9.3-3.3-22.8-8-33.8-19.1c-4.2-4.2-7.2-8.5-8.3-10.1c-3.4-5.1-5.4-9.4-7.2-13.3c-1.8-3.9-2.9-7-5-13
		c-1.4-3.8-3-8.5-3.7-10.7c-4.2-13.1-2.1-33.4-1.4-39.5c3.4-33.6,0.9-26.7,3.8-47.5c3.3-24,7.8-40.8,13-60.5
		C341.1,365.9,348.3,338.8,354,329.4z M323.6,457.7c0-0.3,0.1-0.7,0.2-1c0.1-0.7,0.2-0.8,0.3-1.5c0-0.1,0-0.2,0.1-0.4 M428.8,396.7
		c0.8-2.7,1.1-5.4,1.4-8.6c0.1-1-1.3-1.3-1.6-0.4c-4.2,10.4-7.9,19.9-11.6,29.5c-2.6,6.7-5.6,13.4-7.2,20.5
		c-1.4,6-1.4,12.4,1.8,18.2c0.5,0.8,1.7,0.4,1.6-0.5c-1.9-13,2.9-25,7.5-37 M422.4,506.4c-3.9-20.5-2.3-40,4.6-59.1
		c0.3-1-1-1.6-1.5-0.7c-10.6,17.1-12.7,42.8-4.7,60.3C421.2,507.8,422.6,507.4,422.4,506.4z"/>
	<path class="st13" d="M350,338.3c1-1.4,2-3,3.1-4.5 M356.5,328.4c0.2-0.3,1.3-2.1,2.3-4.7c0.4-1,0.6-1.8,0.8-2.3
		c0.3-0.9,0-1.9,0.5-2.2c0.9-0.4,2.2,1.8,5.4,3.9c1.3,0.8,1.1,0.5,5.5,2.6c3.4,1.6,3.4,1.8,6.2,3.1c1.7,0.8,3.2,1.4,6,2.6
		c2.6,1.1,4.7,2,5.8,2.4c0,0,3.6,1.5,6.7,2.6c13.2,5,29.1,7.9,29.1,7.9c8,1.5,16.4,2,33.3,3.1c0,0,20.4,1.3,34.3-0.1
		c0,0,0.4,0,0.8-0.1c0,0,1-0.1,1.9-0.1c1.2-0.1,1.9,0,3-0.1c0,0,0.8,0,3.4-0.1c12.9-0.5,19.9-1.6,19.9-1.6
		c10.1-1.7,15.1-2.5,16.4-2.9c0.6-0.2,2-0.7,3.6-0.3c2.8,0.6,4.2,3.2,5.9,5.5c0.7,1,0.2,0.2,9.8,8.7c11.2,10.1,5.2,5.2,9.3,8.8
		c1,0.9,3.5,3.1,5.2,6.7c0.2,0.4,0.3,0.6,0.3,0.7c1.7,4.1,1.5,7.8,1.3,9.7c-0.1,1.8-0.4,4.7-2,8c-1.3,2.8-3.2,6.9-7.1,7.9
		c-3.4,0.9-8.2-0.6-10.7-3.4c-0.1-0.1-0.5-0.7-1.1-1.4c-1-1.1-2.5-2.7-2.7-2.6c-0.3,0.2,3.4,4.8,7.8,11.3c3.7,5.6,5.6,8.3,6.9,11.2
		c0,0,3.2,6.8,3.4,17.8c0,0.3,0.1,1.1-0.1,2.1c-0.3,1.6-1.2,2.7-1.6,3.2c-0.1,0.1-1.6,1.8-3.5,2.4c-1.3,0.4-3.4,0.4-8.2-3.1
		c-4-3-4.9-4.7-9.8-9.4c-4.6-4.4-7.4-6.2-7.4-6.1c0,0,0.3,0.2,0.7,0.6c1.7,1.5,2.5,2.8,3.8,4.5c1.5,1.9,1.4,1.6,2.6,3.1
		c1,1.3,2.1,2.7,3,4.8c0.6,1.3,0.9,2.3,1.3,3.6c0,0,0.5,1.5,0.8,3c4.7,18.9,2.2,46.3,2.2,46.3c0,11.9-1.9,23.1-3.2,30
		c-1.3,7.2-4.4,13.8-10.7,26.8c-4.5,9.5-6.9,14.6-11.5,20.6c-3.4,4.6-9,11.8-18.7,17.8c-8.7,5.3-15.4,6.7-15.4,6.7
		c-2,0.8-4.2,1.6-6.7,3.4c-3.8,2.7-5.2,5.3-7.2,7.7c-5.9,7.1-14.9,9.2-18.7,10.1c-7.2,1.7-13.1,0.9-15.8,0.5
		c-7.4-1.1-12.6-3.7-14.2-4.5c-7.3-3.9-12.4-9.4-14.2-11.3c-2.7-3-3.7-4.7-6.7-6.7c-2.8-1.9-5-2.4-9.6-3.8
		c-4.3-1.4-8.4-3.1-12.6-4.6c-9.3-3.3-22.8-8-33.8-19.1c-4.2-4.2-7.2-8.5-8.3-10.1c-3.4-5.1-5.4-9.4-7.2-13.3c-1.8-3.9-2.9-7-5-13
		c-1.4-3.8-3-8.5-3.7-10.7c-4.2-13.1-2.1-33.4-1.4-39.5c3.4-33.6,0.9-26.7,3.8-47.5c3.3-24,7.8-40.8,13-60.5
		C343.6,364.9,350.7,337.8,356.5,328.4z M326,456.7c0-0.3,0.1-0.7,0.2-1c0.1-0.7,0.2-0.8,0.3-1.5c0-0.1,0-0.2,0.1-0.4 M431.3,395.7
		c0.8-2.7,1.1-5.4,1.4-8.6c0.1-1-1.3-1.3-1.6-0.4c-4.2,10.4-7.9,19.9-11.6,29.5c-2.6,6.7-5.6,13.4-7.2,20.5
		c-1.4,6-1.4,12.4,1.8,18.2c0.5,0.8,1.7,0.4,1.6-0.5c-1.9-13,2.9-25,7.5-37 M424.9,505.4c-3.9-20.5-2.3-40,4.6-59.1
		c0.3-1-1-1.6-1.5-0.7c-10.6,17.1-12.7,42.8-4.7,60.3C423.7,506.8,425.1,506.4,424.9,505.4z"/>
</g>
<g id="Camada_15">
	<path class="st14" d="M353.9,333.4c2.7,1.8,6.2,3.9,10.4,6.2c7.5,4.1,13.8,6.8,17.6,8.3c6.8,2.7,11.9,4.1,17.6,5.8
		c11.9,3.4,21.1,5.1,23,5.4c3.7,0.7,14.2,2.5,28.1,3.2c13.5,0.8,23.3,0.2,37.4-0.7c16.2-1,24.3-1.4,33.8-3.2
		c11.9-2.3,21.5-5.7,28.1-8.3l-3.5-5.1l-189.4-17.7L353.9,333.4z"/>
	<path class="st15" d="M352.3,332.7c-8-4.4-9.5-6.5-9.2-7.6c0.2-0.8,1.5-0.9,4.2-1.7c3.5-1,6.4-2.1,8.4-2.9L352.3,332.7z"/>
	<path class="st15" d="M570.6,337.1c-1.6,1.8-3.6,3.8-6.1,5.8c-4.2,3.2-8.2,5.2-11.4,6.4c-1.3-0.8-3.3-2.2-3.8-4.5
		c-0.9-4.4,4.8-9,9.6-10.6c6.1-2,13.1,0.2,13.2,1.6C572.1,336.3,571.3,336.8,570.6,337.1z"/>
</g>
<g id="Camada_12">
	<g id="Camada_34">
		<text transform="matrix(0.9393 0.1063 -0.1003 0.995 431.1337 247.9897)" class="st16 st17 st18">A1FFFC</text>
		<text transform="matrix(0.9393 0.1063 -0.1003 0.995 430.2981 247.8961)" class="st17 st18">D2FFFD</text>
	</g>
	<path class="st19" d="M566.2,324.9c1.3-0.7,3.7-3.7,5.5-3c1.1,0.5,1.8,2.1,1.8,3.4"/>
	<path class="st0" d="M569.8,325.4c10.3-7.6,16.7-15.8,20.5-21.4c4-5.9,13-20.1,13.9-39.6c0.3-5.9-0.4-10.3-1.1-15
		c-8-53.1-13.7-55.3-18.7-89.3c-2.1-13.8-2.6-23.5-9.1-26.8c-7.6-3.9-18.8,3.1-24.1-3.5c-1.1-1.3-0.7-1.8-1.9-3.9
		c-1.1-2.2-6.8-8.2-17.7-12.7c-0.5-0.2-1.3-0.5-2.2-0.9c-16.3-5.9-36.2-1.6-37.6-5.4c-0.7-2.1,9.8-3.5,13.8-12.3
		c2.5-5.6,2.2-13.7-1.3-16c-6.3-4.1-19.8,8.4-20.4,9c-6,5.8-7.3,12.5-8.8,12.1c-1.1-0.3,1.7-6.5-0.1-14.6c-0.9-3.8-2.2-5.4-2.6-6
		c-0.1-0.3-3.9-4.6-9.1-3.9c-0.6,0.1-2.6,0.3-4.2,1.8c-6.1,4.9-1.3,17.9-4.9,19.6c-3.1,1.4-6.6-7.1-16.6-10.3
		c-5.4-1.7-13-2-14.6,1.4c-1.5,3,2,8.3,5,11.1c4.6,4.4,9.6,4.5,9.5,5.5c-0.2,1.6-13.4-0.7-25.6,2.8c-5.4,1.6-15.3,5.7-15.9,6
		c0,0-0.6,0.3-0.8,0.4l-0.8,0.4c-5.2,2.6-5.4,2.9-9.9,5.1c-24.7,12.3-42.5,11.4-44.3,20.1c-0.5,2.5,0.8,3.7,0.4,11.1
		c0,0.4-0.2,4.5-1.2,8.9c-3.1,15.9-19.1,59.8-21.1,96.3c-0.7,13.9-1.3,22.9,2.5,34.3c2.2,6.7,5,12.1,8.3,16.6
		c9.1,12.5,19.9,18.8,35.9,27.5c5.1,2.8,12.2,6.6,22,10.3c21.4,8.1,38.5,9.1,62.9,10.6c15.2,0.9,31.2,0,63.4-1.9
		c10.8-0.6,18.3-1.2,27.4-4.9C554.9,341.9,564.3,332.2,569.8,325.4z"/>
	<g id="Camada_4_3_">
		<path class="st15" d="M464.9,161.3c-0.3,0.1-0.6,0.4-1.3,0.7c-8.8,3.8-16.9-5.1-23-3.4c-4.3,1.2-4.1,3.4-7.6,3.4
			c0,0-2.8,0.1-5.8-1.8c-6.6-4.3-23.1-35.5-42.8-41.3c-1.2-0.3-4.1-0.5-4.1-0.8c0-0.5,3.8-1.3,7.8-0.3c1.2,0.3,2.1,0.7,4.2,1.9
			c4.1,2.3,7,4.6,9.1,6.2c5.3,4.1,8,6.2,8.6,6.8c0,0,9.3,9.6,12.4,12c0.1,0.1,0.2,0.2,0.4,0.1c1,0,1.1-3,2.5-4.5
			c1.1-1.3,3-1.3,9.2-0.4c4.5,0.7,5,0.8,9.3,1.5c2.2,0.3,6.5,1,10.8,2c0.3,0.1,2.1,0.5,4.4,1.7c1.5,0.7,2.3,1.2,3,2
			c1.7,1.9,0.6,4.5,1.6,5c0.4,0.1,0.6-0.1,2-0.8c3-1.4,4.5-1.4,5.9-3.3l0,0c5.3-7.1,30.7-19.5,30.7-19.5c9.8-4.8,8.8-4.7,14.1-7
			c12.5-5.4,13.1-3.8,18-7.1c0,0,4.3-2.9,5.1-1.9c0.2,0.2,0,0.5,0.3,1.7c0.2,0.6,0.3,1,0.7,1.8c0.4,0.9,0.6,1.3,0.9,1.6
			c0.7,0.8,1.7,1,2,1.1c1.7,0.4,24.4,6.3,24.6,9.2C568.5,133.8,478.6,153.5,464.9,161.3z"/>
		<path class="st15" d="M476.2,148.2c-0.2,0.2-0.3,0.6-0.5,0.8"/>
		<path class="st15" d="M425.4,158.8c-1-0.8-1.9-1.8-2.8-2.9"/>
	</g>
	
		<ellipse transform="matrix(0.9996 -2.882533e-02 2.882533e-02 0.9996 -6.1634 9.4798)" class="st7" cx="325.7" cy="218.5" rx="2.5" ry="5.3"/>
	<ellipse class="st7" cx="325.7" cy="213.8" rx="2.4" ry="2.6"/>
	<path class="st0" d="M565,160.9c1.8-0.3,3.7-0.7,5.5-1.1c0,0,0,0,0.1,0c3.9-1.1,7.8-2.3,11.6-3.3c0.5-0.1,0.9,0.2,1,0.6
		c4.4,17.7,8.8,35.4,13.2,53c0,0,0,0.1,0,0.2c0.1,1.4,0,2.7,0.4,4c5.3,19,8.7,38.1,6.3,58c-2.1,12.5-8.8,22.6-15.2,32.8
		c-2.6,4.1-5.2,8.1-7.7,12.2"/>
	<path class="st9" d="M332.5,106.1"/>
	<path class="st0" d="M304.7,101.3c-6.5-1-13-2.1-19.4-3c-3.5-0.5-7.1-1.1-10.6-1c-1.5,0.1-3.2,1.5-4.8,2.4c-0.7-0.8-1.4-1.7-2.4-3
		C280.6,95.9,292.7,97.7,304.7,101.3z"/>
	<path class="st9" d="M447,249"/>
	<path class="st9" d="M545.6,164.7"/>
	<path class="st9" d="M468.8,264.8"/>
	<path class="st9" d="M463.9,253.2"/>
	<path class="st9" d="M536.6,295.8"/>
	<path class="st11" d="M356.4,153.7"/>
	<path class="st15" d="M423.6,150c0.7-0.2,2-0.4,1.9-0.6c1-9.8,1.1-10,10.6-8c2.2,0.4,4.4,1.3,6.4,2c-3.1-0.5-6-1-9.1-1.6
		c-5.9-0.9-8.3,1.8-6.8,7.9c0.7,2.8,1.9,5.3,2.9,8.1c-0.4,0.2-0.8,0.4-1.2,0.8C426.9,155.6,425.3,152.8,423.6,150z"/>
	<path class="st9" d="M401.9,125"/>
	<path class="st9" d="M399.9,123.8"/>
	<path class="st9" d="M430.9,189.6"/>
	<path class="st9" d="M418.4,179.3"/>
	<path class="st9" d="M424.8,184.5"/>
	<path class="st10" d="M364.9,257.8"/>
	<path class="st11" d="M486.5,194.1"/>
	<path class="st9" d="M489.7,270.6"/>
	<path class="st9" d="M465.6,242.8"/>
	<path class="st11" d="M325.1,217.2"/>
	
		<ellipse transform="matrix(3.132102e-02 -0.9995 0.9995 3.132102e-02 266.2325 740.8443)" class="st20" cx="515.3" cy="233.1" rx="58.2" ry="56.5"/>
	
		<ellipse transform="matrix(3.023360e-02 -0.9995 0.9995 3.023360e-02 256.494 735.1421)" class="st21" cx="507.1" cy="235.4" rx="34.3" ry="33.3"/>
	<path class="st22" d="M478.5,234.6c-0.3-15.2,9.9-26.6,24.3-26.9c13.8-0.5,26.2,11.5,26.4,25.6c0.3,14.3-12.1,28.4-26,27.9
		C490.8,261,479.2,251.7,478.5,234.6z"/>
	
		<ellipse transform="matrix(3.131964e-02 -0.9995 0.9995 3.131964e-02 136.9753 610.1992)" class="st20" cx="383.3" cy="234.4" rx="58.2" ry="56.5"/>
	
		<ellipse transform="matrix(3.023360e-02 -0.9995 0.9995 3.023360e-02 129.0493 602.0148)" class="st21" cx="374.8" cy="234.5" rx="34.3" ry="33.3"/>
	<path class="st22" d="M346.6,234.1c-0.3-15.2,9.9-26.6,24.3-26.9c13.8-0.5,26.2,11.5,26.4,25.6c0.3,14.3-12.1,28.4-26,27.9
		C358.9,260.4,347.4,251.1,346.6,234.1z"/>
	<path class="st4" d="M525.4,172.8c-1.2-3.2-4.1-9.4-10.3-12.3c-6-2.8-12.1-0.7-18.1,0.6c-14.2,3-15.3,6.1-23.5,5.6
		c-5.5-0.4-7.1-2-11.6-0.9c-2.7,0.7-3,1.4-11.7,7.8c-7.5,5.4-10.3,7.1-11.3,11.1c-0.5,2-0.5,3.7-0.3,5c0.1,1.8,0.1,3.4,0.2,5.2
		c0.8,0.3,2,0.7,3.5,0.9c3.2,0.6,5.9,0.7,8.7,0.4c4.8-0.3,8.9-0.6,13.5-1.9c0.7-0.2,1.3-0.5,1.9-0.7c2.2-0.9,3.6-1.7,5.4-2.9
		c1.4-0.9-0.6,0.5,5.1-2.8c6.8-4,7-4.1,9-5.3c4.7-2.5,8.6-3.8,12.9-5.2c4.5-1.4,7.7-2.1,11.4-2.8c4.1-0.9,7.6-1.4,10.3-1.8"/>
	<path class="st23" d="M647.7,96.1c-0.3,0.1-0.6,0.2-1,0.3"/>
	<path class="st23" d="M630.3,82.8c-1,0.3-1.9,0.7-2.9,0.9"/>
	<path class="st23" d="M620.7,86c-0.4,0.1-0.7,0.2-1,0.3"/>
	<path class="st23" d="M616.8,87.4c-0.3,0.1-0.6,0.2-1,0.3"/>
	<path class="st23" d="M649.9,95.5"/>
	<path class="st4" d="M354.5,163.8c0.3,0.1,0.7,0.2,1.1,0.4c0.1,0,0.1,0.1,0.2,0.1"/>
	<path class="st4" d="M375.8,174.2c1.1,0.4,2.3,0.7,3.6,0.9c1.5,0.2,1.5-0.2,4.5-0.1c3.9,0,7,0.4,8.7,0.7c1,0.2,3.7,0.6,7.1,1.7
		c3.8,1.2,6.6,2.5,8.8,3.7c2.4,1.2,1.9,1.1,5.9,3.4c2.6,1.4,5.6,3.1,9.8,5c0.7,0.3,2.7,1.2,5.4,2.3c4,1.5,9.1,3.7,9.3,3.3
		c0.1-0.5-9.2-5.5-15.7-9c-10.8-5.5-13.1-6.2-24.6-11.8c-16.3-8-13.5-7.8-21-10.8c-4.6-2-11.6-4.4-20.9-9.3c-0.1,0-0.2-0.1-0.3-0.1
		c-4.7-2.5-15.7-8.4-17.6-5.9c-0.2,0.2-0.1,0.3-0.1,2.2c0.3,5.7-0.1,6.5,0.6,7.9c0.9,1.8,2.6,2.4,4,3c10.3,3.9,20.4,6.8,28.2,10.9
		C373.5,172.8,375,173.7,375.8,174.2"/>
	<path class="st4" d="M348.7,162.2c0.2,0,0.4,0.1,0.5,0.1"/>
	<path class="st4" d="M350.9,162.8c0.4,0.1,0.8,0.2,1.1,0.4"/>
	<path class="st4" d="M577.6,320.2c2.2-2.2,4.4-4.7,4.4-4.7c2.9-3.3,7.4-8.4,11.8-15.7c2-3.4,3.3-6,3.6-6.6c2.5-5,7.4-14.9,8.2-27.6
		c0.4-6.8-0.4-12.4-2-22.3c-0.4-3.2-1-6.4-1.3-7.7c-1-5.2-2-10.2-3.3-16c-3-13.8-5.2-22.6-7.5-32.3c-1.8-7.4-4.3-18.4-7.3-31.9
		l-20.9,5.9l-34.3,7.8l-20.1,5.2c3.1-0.5,5.7-0.5,7.7-0.5c7,0,12.1,1.1,13.9,1.5c1.1,0.3,2,0.5,2.6,0.6c9.8,0.6,20.6,0.4,32.3-0.9
		c3.9-0.5,7.5-1,11.2-1.6l4.1,8.4l6.9,34.1c0.4,0.8,0.9,1.4,1.2,1.7c5.1,6.8,5.6,24.5,5.9,32.4c0.2,7.4,0.3,13.1-1.5,20.7
		c-1.4,5.4-3.1,9.2-4.2,11.3c-6.6,13.3-11.3,24-18.9,34.3c-16.1,21.6-30.3,29.9-29.4,31.3C541.7,349.4,565.9,332.1,577.6,320.2z"/>
	<path class="st24" d="M427.3,197.8c-1.1-1.4-2.6-3.1-4.2-4.9c-2.4-2.4-6.7-6.5-13.1-9.9c-3.4-1.8-10.4-5.2-20-6.5
		c-3.9-0.5-7.3-0.5-10.2-0.3"/>
	<path class="st24" d="M378.8,176.4"/>
	<path class="st24" d="M530.5,176.9c-2.5-0.7-5.8-1.5-9.5-1.8c-4.1-0.4-7.4-0.3-9.2-0.1c-1.2,0-6.3,0.5-12.8,2.5
		c-4.2,1.3-7,2.6-7.7,3c-2.4,1.2-4.6,2.4-6,3.4"/>
	<g id="Camada_4_2_">
		<path class="st0" d="M486,181.9c52.7-16.5,75-20,75-20c24.2-3.8,25.6-2.3,34.6-6c16.5-6.8,27.9-18.2,35-27
			c-2.7,1.1-7,2.3-12.2,2.5c-7,0.2-15.3-2.1-15.3-4.1c0-0.7,0.9-1.2,1.3-1.5c10.8-6.3,19.8-22.9,20.8-26.5c0.1-0.3,0.2-0.7,0.6-2.4
			c0.7-3,1-3.7,0.7-3.9c-0.3-0.2-0.8,0.4-2.4,1.5c0,0,0,0-1.9,1.2c-3.6,2.3-37.6,13.3-45.2,16.6c-0.4,0.2-3.5,1.6-7.4,2.9
			c-1.8,0.7-2.9,1-3.8,1.3c-1.5,0.5-3.2,1.1-5.5,1.5c-2.6,0.6-2.9,0.4-4.6,0.9c-1.8,0.5-3.8,1.2-3.8,1.2s-13.3,4.5-13.8,3.7
			c0,0,0,0-0.1-0.1c-0.2-0.3-0.3-0.4-0.3-0.5c-0.3-0.4-0.4-0.6-0.4-0.6c-0.2-0.5,0.6-1.3,1.3-2.1c0,0,0.6-0.7,1.3-2.1
			c0.6-1.3,0.6-1.9,1.1-3.8c0.9-3,1.7-4,1.4-4.4c-0.4-0.4-1.7,0.7-4.4,2.2c0,0-1.3,0.7-4,2c-4.9,2.4-34.8,16.6-47.5,24
			c-1.3,0.8-3.4,2.1-6.2,4.1c-3.2,2.5-5.6,4.7-6.9,5.9c-6.9,6.7-9.6,12.4-11.6,11.6c-0.3-0.1-0.4-0.4-0.8-0.8c-2.1-3,0.1-6.3-1-9
			c-0.9-2.2-4-3-10.3-4.7c-1.1-0.3-0.4-0.1-7.1-1.6c-4.6-1.1-6.4-1.5-9.1-1.6c-3.1-0.1-5.1,0-6.2,1.4c-1.5,1.8-0.8,5-0.5,6.6
			c0.8,3.7,3.3,8,2.9,8.2c0,0-0.1,0-0.4,0.2c-0.1,0-0.1,0.1-0.2,0.1c-0.3,0.1-0.4,0.2-0.4,0.2c-0.5,0.1-2.2-3.6-2.5-4.1
			c-0.5-1-1.4-2.5-2.4-4.3c0,0-4.5-7.3-11.4-14.1c-19.2-18.9-54.8-31.7-54.8-31.7c-4.8-1.9-16.9-6.4-17.8-4.6
			c-0.2,0.6,0.8,1.5,2.7,3.9c1.7,2.1,7.7,9.6,6.8,11.4c-1.4,2.5-17.1-4.5-23.6-7.2c-13.6-5.7-33.5-11.3-60.7-11.3l5,5.4
			c3.5,3.8,9,9.3,16.3,15.2c15.1,12.1,27.9,17.8,49.6,27.5c30.9,13.9,46.4,20.8,47.5,21.5c13.8,7.6,23.6,13,30.9,16.8
			c11.5,6,16.8,8.7,19.7,15.4c1.6,3.8,1.9,7.7,5.5,10.5c4.4,3.5,10.2,2.4,11.5,2.2c4.3-0.8,8.1-5.6,15.7-14.5
			c4.6-5.5,6.1-7.8,10-10.5C480.7,183.7,484.2,182.5,486,181.9z"/>
	</g>
	<path class="st25" d="M486.7,165c-1.5-3.7,12.5-13.4,21.5-19.6c1.4-1,9.5-6.6,10.6-5.3c0.9,1.1-4.5,6-3.5,7.6
		c2,3.5,32.2-14.8,33.6-12.3c0.6,1.1-4.3,6-9.2,9.5c-6.5,4.4-11.4,5.2-11.3,5.9c0.2,1.4,17.1-0.7,32.8-3.8c3.3-0.6,5.5-1.1,5.7-0.9
		c0.2,0.6-18.1,6.7-35,11.4C509.3,163.3,488.5,169.1,486.7,165z"/>
	<g id="Camada_5_3_">
		<g>
			<path class="st26" d="M583.8,192.6c0.4,0.9,0.5,1.3,0.5,1.3c-0.1,0-1-1.5-2.7-4.6 M584.5,194.5c0,0,3.1,16.4-2.1,24.9
				c-0.3,0.4-0.6,0.9-0.6,0.9l0,0c-2.2,3.1-4.9,3.8-6.6,5.1c-2.1,1.6-3,3.7-4.4,7.2c-4.1,9.9-2.4,16.8-6,28.6
				c-1.5,5.2-3.3,10.7-8.1,15.2c-3.4,3.2-7,4.6-9.9,5.6c-20.3,6.7-42.2,2.6-42.2,2.6c-15.9-3-23.8-4.5-30.5-11.3
				c-10.2-10.6-15.1-30.1-15.7-32.4c0-0.1-0.1-0.6-0.3-1c-2.3-8.9-4.3-16.4-7-16.6c-0.6,0-1.3,0.3-2.7,1.2c-1,0.5-1.8,1.1-2.6,2
				c-0.1,0.1-0.1,0.1-1.1,1.5c-0.6,0.8-1,1.3-1.1,1.5c-1.7,2.4-8,22.8-8,22.8c-1.4,4.5-4,12.9-10.8,20.2c-3.1,3.4-6.1,5.4-7.7,6.4
				c-9.5,6.2-26.6,11.8-45.5,7.3c-6.8-1.6-30-7.2-35.5-23.5c-1.2-3.8-5-18.6-6.6-25.5c-0.7-2.9-1.7-7.1-4.8-9
				c-1.3-0.8-3.2-1.2-5.4-3.1c0,0-1.3-1.1-2.3-2.4c-2.5-3.3-2.3-8.7-0.8-24.1c0.4-4.4,0.8-7.9,2.9-9c1.4-0.7,3.2-0.2,3.7-0.1
				c6.5,2.2,22.3,1.4,54,0.2c0.4,0,1.3,0,2.5-0.1c2.6-0.1,7,0.1,12.5,0.9c0.1,0,0.1,0,0.2,0c10.6,1.6,17,2.1,22.7,3.6
				c0.1,0,0.4,0.1,0.7,0.2c0,0,3.9,1.1,7.6,2.8c5.5,2.7,7.9,6.4,14.9,9.7c3.2,1.6,4.8,2.3,7.2,2.8c0,0,7.8,1.1,18-5.4
				c0.5-0.4,1.2-0.8,1.2-0.8c0.5-0.4,0.8-0.6,1.8-1.4c0.4-0.3,0.7-0.6,1.2-0.9c13.2-9.8,27.8-12.4,27.8-12.4c2-0.2,4-0.4,5.9-0.7
				c34.7-3.2,50.5-3.4,57.2-2.5c1.7,0.3,3.5,0.7,6.8,0.9c10.2,0.7,14.7-1.6,17.6,1.4C583.5,189.1,583.8,190.9,584.5,194.5z
				 M432,239.9c2.3-8.3,1.4-13.5,0.8-15.9c-1.1-4.6-3.3-7.9-4.8-9.9c-8.6-8.6-18.9-13.6-30.4-15.9c-4.1-0.5-10-1-17.3-1.4
				c-16.3-0.9-24.6-1.3-30.1,2c-7.8,4.6-13,13.8-13.9,22.2c-0.1,1.4,0.6,6.3,2.1,16c1.4,9,2.8,16.5,3.4,19.4c0,0.2,0.1,0.3,0.1,0.3
				c3.1,14.8,21.2,20.6,25.1,21.8c5.9,1.9,10.7,2.2,13.5,2.3c3.6,0.1,12.5,0.4,21.8-3.3C424.1,268.6,430.9,243.9,432,239.9z
				 M483,269.5C483.1,269.6,482.7,269.3,483,269.5c0.1,0.1,0.3,0.2,0.4,0.3 M487.1,204.7c-8.2,3.8-11.4,6.9-12.6,8.2
				c-1.2,1.3-3,3.2-4.4,5.8c-2.1,4.1-3,9.3-1,19.4c2.8,14,4.8,24.2,13.5,30.8c8.6,6.5,21.1,7.5,27.1,8c0.3,0,0.7,0.1,0.9,0.1
				c5.3,0.4,10.8,0.8,17.3,0.4c4.7-0.2,8.5-0.6,13.3-2.4c2.8-1.1,6.7-2.6,10.4-6.3c3.3-3.3,4.7-6.8,5.7-9.1c1.2-2.9,1.7-5.4,2-6.4
				c2.7-11.9,7.5-27.9,7-41.5c0-1.1-0.1-2.8-1-4.8c-2.4-4.6-7.9-5.9-10.4-6.3c-0.2-0.1-0.5-0.3-0.7-0.4c0,0-0.3-0.2-0.7-0.3
				c-24-8-53.3-0.1-53.3-0.1C498.2,200.4,493.3,201.8,487.1,204.7z"/>
		</g>
		<path class="st27" d="M436.5,232.2c0.2-1.6,1.3-7.4,3.1-10.1c2.7-4.3,7.7-6.3,9.1-6.9"/>
		<path class="st27" d="M317.7,203.7c0.5-3.3,0.9-5.8,1.3-8.5c0.2-1.1,0.4-1.8,1-2.4c1.1-0.9,2.7,0,5.7,0.7c1.2,0.2,3.6,0.4,8.1,0.7
			c1.8,0,3.1,0.1,5.7,0.2c3,0.1,5.7,0.1,8.1,0.1"/>
		<path class="st27" d="M581.1,195.8c-0.1-0.8-0.3-1.8-0.6-2.8c-0.5-1.5-0.8-2.3-1.4-2.9c-1.8-1.9-5.2,0-10.1,0.7
			c-3.8,0.6-4-0.4-11.8-1c-2.9-0.2-7.1-0.4-12.3-0.1l-10,0.3l-8.7,0.3"/>
	</g>
	<path class="st25" d="M414.4,158.2c-19.2-19.6-32.1-27.5-39.5-31.2c-0.6-0.3-8.1-3.9-9.1-2.3c-1.2,1.9,8.2,9.5,7,11.5
		c-0.2,0.2-0.9,1-10.7-2.5c-6.3-2.2-10.1-3.9-16.1-5.2c-3.5-0.8-5.8-1.3-6-0.7c-0.8,1.7,13.4,10.6,25.5,16.7
		c5,2.5,10.1,5.1,17.1,7.5C389.9,154.6,400.7,157.5,414.4,158.2z"/>
	<path class="st15" d="M534.3,114.5"/>
	
		<ellipse transform="matrix(0.7043 -0.7099 0.7099 0.7043 -46.6021 320.8372)" class="st23" cx="361.8" cy="216.4" rx="5.5" ry="9.2"/>
	
		<ellipse transform="matrix(0.7043 -0.7099 0.7099 0.7043 -9.0277 415.3586)" class="st23" cx="494.1" cy="218.5" rx="5.5" ry="9.2"/>
	<g id="Camada_6_1_">
		<path class="st28" d="M583.2,106.6"/>
	</g>
	<g id="Camada_3_4_">
		<path class="st29" d="M444.1,111.2"/>
	</g>
	<path class="st30" d="M446.4,340.6l-3.4,4.3c-1.2-2.9-2.1-5.1-3-7.4c-2.8-15-9.5-28.3-17.3-41.2c-0.9-1.5-1.4-4.7-0.6-5.4
		C433,281,439,268.4,443,254.6c0.9-3.5,1.8-6.9,2.8-10.6c6.4,3.3,7.4,9.6,9.5,15.3c1,2.8,2.6,5.3,4,8l0,0c3.5,9,9,16.6,17,22.2
		c0.5,0.4,1,0.8,1.5,1.3c7.7,6.6,7.6,7-0.8,12.1c-9.5,5.7-16,14.4-21.9,23.5c-2.9,4.6-5.6,9.3-8.4,13.9
		C446.6,340.3,446.5,340.4,446.4,340.6z"/>
	<path class="st31" d="M445.8,243.9c-0.3,0.1-0.5,0.9,3.7,12.3c4.1,11.1,6.2,16.6,8.2,20.2c4.7,8.3,7.7,9.8,7.7,14.9
		c0,1.8-0.4,3.2-3.8,10.1c-4.1,8.3-6.2,11.4-10.1,18.7c-3.6,6.8-5.3,10.8-6.7,15.4c-0.3,1.1-2.7,9-1.7,9.4c0.8,0.3,2.8-3.4,8.5-12.6
		c5-8,7.5-12,10.6-15.8c4.6-5.6,7.6-9.3,11.7-11.5c0.8-0.4,3.2-1.6,6.1-3.9c2.1-1.7,3.3-2.5,3.5-3.3c0.5-2.5-3.3-4.6-9.1-9.8
		c-2.5-2.3-6.3-5.7-9.6-10.4c-3.1-4.3-4.8-8.3-6.7-12.9c-2.7-6.2-2.4-7.4-4.8-11.7C450.5,248.2,446.7,243.4,445.8,243.9z"/>
</g>
<g id="Camada_14">
	<circle class="st32" cx="199.1" cy="234.2" r="24.4"/>
	<ellipse class="st33" cx="199.1" cy="234" rx="19.1" ry="18.9"/>
	<circle class="st34" cx="199.1" cy="234" r="15.5"/>
</g>
<g id="Camada_13">
	<path class="st35" d="M364.1,275.4H158.1c-6.6,0-12-5.4-12-12v-63.8c0-6.6,5.4-12,12-12h206.1c6.6,0,12,5.4,12,12v63.8
		C376.1,270,370.7,275.4,364.1,275.4z"/>
	<path class="st36" d="M216.3,263.4h-36.7c-6.6,0-12-5.4-12-11v-36.7c0-7.6,5.4-13,12-13h36.7c6.6,0,12,5.4,12,12v36.7
		C228.3,258,222.9,263.4,216.3,263.4z"/>
	<path class="st37" d="M213.4,261.1h-31c-6.6,0-12-5.4-12-12v-32.2c0-6.6,5.4-12,12-12h31c6.6,0,12,5.4,12,12v32.2
		C225.4,255.7,220,261.1,213.4,261.1z"/>
	<path class="st38" d="M177.7,221.5l23.1,22.2c21.4-31.2,24.4-36.8,36.4-50.2"/>
	<path class="st35" d="M362.2,180.3H156.1c-6.6,0-12-5.4-12-12v-63.8c0-6.6,5.4-12,12-12h206.1c6.6,0,12,5.4,12,12v63.8
		C374.2,174.9,368.8,180.3,362.2,180.3z"/>
	<path class="st36" d="M215.6,167.6h-36.7c-6.6,0-12-5.4-12-12v-36.7c0-6.6,5.4-12,12-12h36.7c6.6,0,12,5.4,12,12v36.7
		C227.6,162.2,222.2,167.6,215.6,167.6z"/>
	<path class="st37" d="M212.4,165.4h-31c-6.6,0-12-5.4-12-12v-32.2c0-6.6,5.4-12,12-12h31c6.6,0,12,5.4,12,12v32.2
		C224.4,160,219,165.4,212.4,165.4z"/>
	<line class="st39" x1="244.9" y1="261.1" x2="356.4" y2="260.7"/>
	<line class="st39" x1="244.9" y1="221" x2="355" y2="221"/>
	<line class="st39" x1="244.7" y1="200.2" x2="354.9" y2="200.2"/>
	<line class="st39" x1="244.7" y1="242.3" x2="354.9" y2="242.3"/>
	<line class="st39" x1="244.2" y1="169.3" x2="355.7" y2="168.9"/>
	<line class="st39" x1="244.1" y1="129.1" x2="354.3" y2="129.1"/>
	<line class="st39" x1="243.9" y1="108.3" x2="354.1" y2="108.3"/>
	<line class="st39" x1="243.9" y1="150.4" x2="354.1" y2="150.4"/>
</g>
</svg>
