<?xml version="1.0" encoding="utf-8"?>
<!-- Generator: Adobe Illustrator 23.0.1, SVG Export Plug-In . SVG Version: 6.00 Build 0)  -->
<svg version="1.1" xmlns="http://www.w3.org/2000/svg" xmlns:xlink="http://www.w3.org/1999/xlink" x="0px" y="0px"
	 viewBox="0 0 612 792" style="enable-background:new 0 0 612 792;" xml:space="preserve">
<style type="text/css">
	.st0{fill:#E3FCFA;}
	.st1{fill:#A1FFFC;}
	.st2{font-family:'ArialMT';}
	.st3{font-size:12px;}
	.st4{fill:#DBDDE5;}
	.st5{fill:#B5B6BC;}
	.st6{fill:#6A7A8B;stroke:#6A7A8B;stroke-miterlimit:10;}
	.st7{fill:#8592A4;stroke:#8592A4;}
	.st8{fill:#CCCCCC;}
	.st9{fill:#E6ECA7;stroke:#8C5314;}
	.st10{fill:#FFFFCC;}
	.st11{fill:#DEE886;}
	.st12{fill:#FFFFCD;}
	.st13{fill:none;stroke:#8C5314;}
	.st14{fill:#511212;}
	.st15{fill:#891B1B;}
	.st16{fill:#E51C1C;}
	.st17{fill:#BC2020;}
	.st18{fill:#E51C1C;stroke:#E51C1C;}
	.st19{fill:#D32020;}
	.st20{fill:#C62222;}
	.st21{fill:none;stroke:#BC2020;}
	.st22{fill:none;stroke:#7A8591;}
	.st23{fill:#455771;stroke:#455771;}
	.st24{fill:#BF5E40;stroke:#BF5E40;}
	.st25{fill:#CC6540;stroke:#CC6540;}
	.st26{fill:#6A7A8B;stroke:#6A7A8B;}
	.st27{fill:#8592A4;}
	.st28{fill:#2D344A;stroke:#000000;}
	.st29{fill:#D19022;stroke:#000000;}
	.st30{stroke:#000000;}
	.st31{fill:#8592A4;stroke:#000000;}
	.st32{fill:#FFFFFF;stroke:#000000;}
	.st33{fill:#F8EEE0;stroke:#F8EEE0;}
	.st34{fill:#D19022;stroke:#D19022;}
	.st35{fill:#271F1B;stroke:#271F1B;}
	.st36{fill:#F1E7DA;}
	.st37{fill:#D6CFC9;stroke:#D6CFC9;}
	.st38{fill:#939FAD;stroke:#939FAD;}
	.st39{fill:#C95B3A;stroke:#C95B3A;stroke-miterlimit:10;}
	.st40{fill:#2E2F29;stroke:#2E2F29;}
	.st41{fill:#4E5355;stroke:#4E5355;}
	.st42{display:none;}
	.st43{display:inline;fill:none;stroke:#FFFF06;stroke-width:4;stroke-miterlimit:10;}
	.st44{display:inline;opacity:0.17;fill:#06FCFC;enable-background:new    ;}
	.st45{display:inline;opacity:0.18;fill:#06FCFC;enable-background:new    ;}
	.st46{fill:#00BED7;}
	.st47{fill:none;stroke:#20BFFF;stroke-width:3;stroke-miterlimit:10;}
	.st48{fill:#120200;}
	.st49{fill:#FFBE1B;}
	.st50{fill:none;stroke:#FFBE1B;stroke-miterlimit:10;}
	.st51{fill:none;stroke:#684F12;stroke-width:5;stroke-miterlimit:10;}
	.st52{fill:#684F12;}
	.st53{fill:#00889C;}
	.st54{fill:none;stroke:#00BED7;stroke-miterlimit:10;}
	.st55{opacity:0.87;fill:none;stroke:#676765;stroke-width:4;stroke-miterlimit:10;}
	.st56{opacity:0.87;fill:none;stroke:#676765;stroke-width:2;stroke-miterlimit:10;}
	.st57{opacity:0.87;fill:none;stroke:#676765;stroke-width:3;stroke-miterlimit:10;}
</style>
<g id="Camada_1">
	<g>
		<g id="Camada_34">
			<ellipse class="st0" cx="231.8" cy="350.9" rx="221.3" ry="209.9"/>
			<ellipse class="st0" cx="209.4" cy="201.2" rx="179" ry="155.2"/>
			<circle class="st0" cx="467" cy="347.2" r="133"/>
			<text transform="matrix(1 0 0 1 281 334)" class="st1 st2 st3">A1FFFC</text>
			<ellipse class="st0" cx="396.7" cy="207.8" rx="175" ry="152.9"/>
			<text transform="matrix(1 0 0 1 280 334)" class="st2 st3">D2FFFD</text>
		</g>
		<g id="Camada_35">
		</g>
		<g id="Camada_6">
			<path class="st4" d="M169.4,414.2c-2.8,6.5-6.1,14.8-9.4,24.5c-4.7,13.8-7.4,24.4-7.9,26.6c-1.6,6.4-7,29.3-7.9,55.4
				c-0.6,18.1-2,60.2,20.9,105.1c6.6,13,17.5,34,40.3,53.3c0,0,30.9,26,69.8,33.1c7.9,1.4,16.6,2.2,16.6,2.2c16.8,1.4,30,0.1,36-0.7
				c4-0.5,16.5-2.2,31.7-7.2c11.3-3.7,36.8-12.3,61.2-33.8c28.6-25.3,40-54.8,46.1-71.3c0,0,22.7-61.6-0.7-153.4
				c-2.4-9.3-7.2-22.1-12.2-33.1c-3-6.6-4.6-9.9-6.2-11.1c-12.6-8.7-36.6,23.1-73.7,37c-32.6,12.2-62.7,5.8-114.5-5
				c-31.3-6.6-56.3-15.6-72.7-22.3L169.4,414.2z"/>
		</g>
		<g id="Camada_36">
			<path class="st5" d="M169.4,414.2c1.9,1.7,5,4.4,9,7.2c2,1.4,6.5,4.9,19.4,10.1c19,7.7,23.1,10.8,33.7,14.7c26.5,9.8,54,9,83,8.1
				c17.7-0.5,37.9-1.3,63.7-8c17.8-4.6,27.8-5.7,37.1-12.9c3.8-2.9,11.3-9.6,18.4-16.6c3.6-3.6,8.4-8.6,16.2-14c1.5-1,3.9-4.6,6.1-4
				c1.3,0.4,2.4,2.1,2.5,3.6c0.2,1.3-1,5.3-0.7,4c-2.1,3-4.6,6.4-7.6,10.1c-1.4,1.8-4.4,5.4-8.6,9.7c-2.5,2.6-7.9,8.2-14,13
				c-12.6,9.7-25.3,13.7-33.8,16.2c-5.9,1.7-10.9,2.6-20.9,4.3c-17.6,3-31.7,4.2-38.9,4.7c-8.5,0.6-20.2,1.3-35.3,0.7
				c-11-0.4-26.8-1.2-46.4-5.8c-18.9-4.4-31.9-10.3-46.8-16.9c-1.8-0.8-15.6-8.8-43.2-24.8c-1.9-1.1-6.2-3.6-5.8-4.7
				C156.9,411.5,163.5,412.8,169.4,414.2z"/>
		</g>
		<g id="Camada_37">
			<path class="st5" d="M447.7,419.3c-0.2,3.3,2.7,3.8,4.9,9.8c1.3,3.8,0.7,5.1,2.3,6.7c2.4,2.5,6.5,2.1,8,2
				c3.6-0.3,9.6-2.2,10.3-5.8c0.5-2.7-2.5-3.4-6.7-10.1c-3.9-6.1-3.9-9.6-7.2-10.6c-2.4-0.7-4.8,0.4-5.9,1
				C453.1,412.5,448,415.1,447.7,419.3z"/>
		</g>
		<g id="Camada_7">
			<path class="st6" d="M459.8,391.7c2.3-0.4,4.7,1.6,13.9,14.9c8.4,12.1,12.6,18.2,17.3,27.4c7,13.7,10.6,20.5,12,28.8
				c2.2,12.8-1.4,15.5,0,35c0.2,2.4,0.7,9,0,17.8c-0.4,4.4-0.1,6-1,8.2c-2,5.1-7.2,9.9-13,10.6c-8.2,0.9-14.3-6.9-17.3-10.6
				c-12-15-9.1-35.1-7.7-41.8c2.9-14.2,12.6-15.3,12-25.4c-0.3-5.3-2.6-5.9-13-23.5c-8.7-14.8-9.9-19.1-10.1-23.5
				C452.7,401.9,455.4,392.5,459.8,391.7z"/>
			<path class="st7" d="M169.4,414.2c-2.6,5.2-4.7,10.7-7.2,15.9c-4.8,9.9-8.6,25.6-9.4,40.3c-0.8,16.6,2.7,24.9-1.4,27.4
				c-3.8,2.2-10.7-3-17.3-7.9c-9-6.7-13.8-9.7-15.1-15.1c-0.7-2.7-0.2-4.6,6.5-23c3-8.3,4.5-12.4,5-13.7c2.9-7.1,6.5-15.6,13-25.2
				c5-7.5,6.2-6.5,10.8-13.7c3-4.7,3.8-7,6.5-7.9c4.7-1.5,11.6,2.3,13,7.2c0.6,2.2-0.1,4.3-1.4,8.6
				C171.1,410.8,169.7,413.5,169.4,414.2z"/>
			<path class="st7" d="M36.9,350.9"/>
		</g>
		<g id="Camada_39">
		</g>
		<g id="Camada_38">
			<path class="st6" d="M167.2,419.3c-2.1-1.8-3.6-3.5-4.6-4.6c-2.5-2.7-4.4-5.4-8.2-10.6c-0.6-0.9-1.3-1.7-1.9-2.6l1.6-2.4l1.9-3.1
				c1.3,2.6,2.9,5.5,5,8.5c3.2,4.6,6.5,8.1,9.4,10.7L167.2,419.3z"/>
		</g>
		<g id="Camada_42">
			<path class="st8" d="M432.5,634.6l-5.4,10.6l-102.7,40.3c-1.5,1.2-3.8,2.8-6.7,4.3c-4.4,2.3-8.4,4.4-13.7,4.1
				c-0.6,0-8.9-0.6-13.9-6.2c-0.9-1-1-1.4-1.9-2.2c-2.6-2.2-5.2-1.7-10.1-3.6c-2.1-0.8-3.5-1.4-3.8-1.5
				c-4.1-1.7-27.8-10.9-84.2-32.5l-11.3-16.4"/>
		</g>
		<g id="Camada_23">
		</g>
		<g id="Camada_22">
			<path class="st9" d="M166.8,472.7c15.6,8.8,20.6,9.1,65.9,32.3c31.1,15.9,50.3,26.7,72,42.1c4.4,3.1,8.3,4.4,7.9,5.8
				c-1.5,5.9-77.1-9.2-140-28.1c0,0-20.4-6.1-78.5-41.4c-5.3-3.2-16-9.9-15.5-17.8c0.6-9.5,17.1-17.5,20.6-19.2s6.5-2.7,8.6-3.4
				c0.6,0.4,1.5,1.1,2.8,1.8c2.6,1.6,5.1,2.8,7.3,3.8L166.8,472.7z"/>
			<path class="st9" d="M352.2,551c45.2-12,80.8-25.5,105.5-36c62.4-26.5,77.8-42.9,75.9-49.4c-0.8-2.8-6.1-7.4-7.9-8.9
				c-3.1-2.7-5.6-4.1-10.4-6.8c-5-2.8-7.6-4.3-10.1-4.3c-4.5-0.1-8,2.4-9.7,4v-19.4l-15.1,6.8v-16.2c-29.4,16.9-53.8,32.5-72.7,45
				c-44.4,29.4-64,46.2-71.3,52.6c-12.1,10.6-21.7,20-28.4,26.8L352.2,551z"/>
		</g>
		<g id="Camada_27">
			<path class="st10" d="M105.5,445c-0.3-0.1-0.5-0.2-0.5-0.2c-0.5,0.3-1.1,0.6-1.6,1"/>
			<path class="st10" d="M94.4,451c1.9,0.9,4.9,2.3,8.6,4.1c34.3,16.2,49.5,22.5,74.2,34.1c5.4,2.5-0.2-0.1,38.6,18.7
				c6.1,3,53.1,25.7,65.8,32.4c1,0.5,6.1,3.2,13,6.7c0.8,0.4,2.4,2.5,4.3,2.2c1.2-0.2,2-1.1,2.2-1.4c3.3-7.3-110.4-62.9-110.4-62.9
				c-13.5-6.6-26-12.6-37.3-18c-8.6-4.1-17.3-8.3-26.1-12.7c-5.3-2.6-10.5-5.3-15.7-7.9l-4.3-2.3c-0.7,0.1-1.7,0.4-2.9,0.8
				c-1.1,0.3-2.6,0.9-6.3,3c-1.3,0.7-2.9,1.6-4.8,2.8L94.4,451z"/>
		</g>
		<g id="Camada_25">
			<path class="st11" d="M495.5,448.9v-17.7c-3.7,1.2-8.9,3.1-15.1,5.8c-14,5.9-22.6,11.2-39.2,21.1c-35.7,21.4-31.6,18.4-44.7,26.7
				c-4.3,2.7-17.5,11.1-34.5,22.6c-16.7,11.4-28.7,20.2-31.4,22.2c-9.4,6.9-17.4,13-23.8,18l8.4,0.7c3.7-2.9,9.6-7.5,17.1-12.9
				c20-14.3,39.7-25.8,91.4-51.4c13.6-6.7,31.7-15.6,53.2-25.7L495.5,448.9z"/>
		</g>
		<g id="Camada_26">
			<path class="st12" d="M340.4,531.6c0.1,0.2,6.7-3.5,15.8-8.3c10-5.3,18.1-9.1,33.8-16.6c20.1-9.5,16.6-7.5,36.5-16.9
				c16.2-7.7,25-12.1,40-18c5.2-2,9.5-3.6,12.4-4.7l39.2-15.1l-11.5-7c-8.9,3.8-19.7,8.6-31.9,14.2c-9,4.2-20.3,9.4-34.7,16.7
				c-11.3,5.7-10,5.4-35.7,18.8c-10.5,5.5-13.3,6.9-19.8,10.4c-5.4,3-14.3,7.9-25.2,14.4C351.6,524.2,340.2,531.3,340.4,531.6z"/>
		</g>
		<g id="Camada_24">
			<line class="st13" x1="98.3" y1="446.9" x2="136.2" y2="466.4"/>
			<line class="st13" x1="93" y1="454.1" x2="174.4" y2="490.1"/>
			<path class="st13" d="M106,464.2c24.8,10.7,49.6,21.4,74.4,32.2c32,13.9,64,27.8,96,41.8"/>
			<path class="st13" d="M82.9,457.4c10.7,5.8,22,11.6,33.7,17.3c22.4,10.9,44.1,20.3,64.8,28.3"/>
			<path class="st13" d="M480.4,436.9c-30.3,15.5-56.6,30.8-78.7,44.5c-10.4,6.5-37.5,23.5-71,48c-10.1,7.4-18.6,13.8-25,18.7"/>
			<path class="st13" d="M495.5,449.5c-15,6.9-28.2,13.2-39.1,18.5c-40.4,19.6-70.3,34.1-105.6,55.7c-14.4,8.8-26.4,16.7-35.5,23"/>
			<path class="st13" d="M513.5,448.9c-12,5.4-24,10.8-36,16.2"/>
			<path class="st13" d="M521.3,453.4c-1.1,0.5-20,9.2-40,18.4c-21.8,10.1-42.4,19.6-43.7,20.2"/>
			<path class="st13" d="M507.3,465.6c-27.4,12.4-55.4,24.7-84,37c-30.2,12.9-60,25.2-89.3,37"/>
			<path class="st13" d="M528.8,459.4c-11.7,5.9-23.9,11.8-36.4,17.7c-20.4,9.5-40.2,18.1-59.5,25.9"/>
		</g>
		<g id="Camada_21">
			<polyline class="st14" points="277,544.1 306,545.1 335.1,544.6 336.4,549.1 323.1,554.2 300.9,559.5 289.8,555.6 278.8,550.3 
				276.5,544.9 			"/>
		</g>
		<g id="Camada_15">
			<path class="st15" d="M271.6,549.6c1.7,0.4,4.3,1.1,7.4,2.2c3.7,1.2,5,2,7.7,2.9c2,0.6,6.6,2.1,11.8,2.9
				c5.6,0.8,6.8,0.1,13.9,0.2c13.3,0.3,15.7,3.2,19.4,0.7c5.4-3.6,6.2-13.5,4.6-14.4c-0.6-0.3-1.5,0.9-2.6,1.4
				c-2.7,1.3-7.5,3.4-16.1,4.3c-4.7,0.5-15.9,1.6-29.5-2.6c-4.8-1.5-8.5-3.2-11.2-4.6L271.6,549.6z"/>
		</g>
		<g id="Camada_20">
			<path class="st16" d="M335.5,549.1c-0.7,2.2-0.8,6.6,1.7,16.1l2.4,20.6l-12,22.1c0,0-29.5,11.6-30.3,11.9
				c-0.7,0.3-26.4-17.9-26.4-17.9v-35l-2-13.7c2.1-5.3,3.7-6.5,4.9-6.5c0.7,0,1,0.4,3.7,1.3c0.9,0.3,1.6,0.5,2.8,0.8
				c2.1,0.6,3.7,1,4.6,1.2c5.2,1.3,5,1.4,7.4,1.9c0.7,0.1,3.5,0.7,7.3,1.1c3.9,0.3,6.8,0.2,10,0.1c2.8-0.1,4.5-0.2,7.1-0.5
				c3.4-0.4,6.2-1,11.9-2.3c0.7-0.1,1.3-0.2,2.2-0.5c2.9-1,4.2-3.2,4.8-2.8C336,547.4,335.5,549,335.5,549.1z"/>
		</g>
		<g id="Camada_14">
			<path class="st15" d="M277,549.1v-6.5l-22-5.5l-98.9-35.3L74.5,461l-2.7,4.2c-0.1,0.3,1.3,1.3,1.6,1.4l85,46.9l40.8,13
				c0,0,49,16.8,49.7,16.8S277,549.1,277,549.1z"/>
			<path class="st15" d="M336.4,544.1c9.1-2.3,21.5-5.5,36-10c29-8.9,50.2-17.4,66.2-23.9c20.6-8.4,46.4-19.7,75.8-34.6l24.3-12.6
				l3.3,3.5l-13.7,13.3l-45.7,22.5l-23.9,14.6l-97,31l-22,3.3l-3.2-1.9v-4"/>
		</g>
		<g id="Camada_19">
			<path class="st17" d="M277.9,551.4"/>
		</g>
		<g id="Camada_12">
			<path class="st16" d="M72.9,466.4c35.3,55,70.6,109.9,105.8,164.9L295,674.5l-17.6-127.1c-5.9-1.5-11.7-3-17.6-4.7
				c-61.3-17-117-39.7-167-65.5L72.9,466.4z"/>
			<path class="st18" d="M336.4,547.4c-6.2,42.4-12.5,84.7-18.7,127.1l114.8-40L542,466.4c-12.6,7-25.7,13.8-39.3,20.5
				c-50.6,24.8-99.3,42.4-143.9,55.1L336.4,547.4z"/>
			<path class="st18" d="M336.4,544.1"/>
		</g>
		<g id="Camada_18">
			<path class="st19" d="M182,556.1c12.7,5.4,25.4,10.7,38.1,16.1l64.3,27.5c0.4,0.3,1.1,0.8,1.9,1.3c4.7,3,9.1,3.8,12,4.3
				s8.4,1.4,15.4-0.2c7.6-1.8,12.8-5.6,15.5-7.8l95.9-34.4l5.5,8.2v23.8l-7.6,23.5c0,0-35.8,19-37.5,19.2s-75.8,22.3-75.8,22.3
				l-63.1-20.6L211.5,623l-26-32.4L180,562L182,556.1z"/>
		</g>
		<g id="Camada_16">
			<path class="st20" d="M166.7,611.4c4.9,9,9.6,16.1,13.1,21l45.5,17.6l69.7,24.5l-4.3-31.5c-13.3-5.3-24.6-10.1-33.3-13.8
				c-43.1-18.4-34.1-16.7-42.7-19.4c0,0-5.8-1.8-14.4-7.6c-5.6-3.7-7.8-6.2-7.9-9c-0.1-2.6,1.5-3.1,1.4-6.1
				c-0.1-3.2-2.1-5.5-4.7-8.6c-3.7-4.4-5.5-4.5-6.1-7.2c-0.6-2.6,1-3.2,1.1-7.2c0-1.6,0.1-5.6-2.2-7.9c-3.4-3.4-10.3-1.2-13-0.4
				c-2.3,0.7-9.6,3-13.3,9.7c-3.9,7.1-1.5,14.7,2.2,26.3C160.4,599.7,163.4,605.4,166.7,611.4z"/>
			<path class="st20" d="M322,647l-3.9,27.6l115.3-40.9l19.4-29.2l1.9-44.9c-5.2-0.9-11.9-1.8-19-2c-2-0.1-5.3-0.1-8.6,1.7
				c-1.3,0.7-3.4,1.8-4.6,4.3c-1.1,2.4-0.8,4.7-0.7,5c0.2,1.6,0.7,1.6,0.7,2.6c0,2.3-2.6,3.4-4.6,5.5c-1.4,1.5-3.9,4.5-3.6,7.9
				c0.2,1.8,1.1,3.5,1.4,4.1c1.1,2,2,2.2,2.4,3.6c0.5,1.7-0.6,2.4-1.4,5.3c-0.5,1.7-1.5,5.9,0,9.8c0.6,1.7,1.5,2.9,2.2,3.6l-14.8,5
				L322,647z"/>
		</g>
		<g id="Camada_17">
			<path class="st20" d="M290.7,643c1.1,0.7,2.6,1.5,4.5,2.4s5.7,2.4,10.1,3.1c7.2,1.1,13.3-0.4,16.7-1.5l-3.9,27.6
				c-0.5,0.4-1.3,1.1-2.3,1.8c-1.3,0.9-2.8,2-4.1,2.7c-2.3,1.1-6,1.9-9.5,0.5c-2.2-0.9-3.8-2.3-4.7-3.4l-2.3-1.6L290.7,643z"/>
		</g>
		<g id="Camada_13">
			<path class="st21" d="M284.9,550c7.3,2.2,13.7,3,18.4,3.2c7.9,0.4,13.9-0.5,17.3-1.1c5.5-0.9,9.5-2.1,10.8-2.5
				c2-0.6,3.6-2.4,4.9-2.9L318,674.5c-0.7,0.8-4.5,5.6-10.4,5.8c-4.8,0.2-8.6-2.7-10.4-4c-0.9-0.7-1.7-1.3-2.2-1.8l-18-126.7
				L284.9,550z"/>
		</g>
		<g id="Camada_9">
			<path class="st7" d="M119.2,541.5c7.5,3.8,20.6,5.7,32.3,7.4c1.7,0.3,2.7,0.4,4.7,0.7c5.5,0.9,8.4,1.3,10.4,1.8
				c6.9,1.6,8.8,3.3,9.7,4.3c0.8,0.9,1.9,2.1,1.8,3.6c-0.1,3.5-5.8,6-6.1,6.1c-2.2,1-3.8,0.9-4,1.8c-0.2,0.8,0.7,1.5,2.9,3.2
				c4.9,3.9,5.6,4.2,7.2,5.8c1.4,1.4,2.9,2.9,4,5.4c0.7,1.6,1.8,4.2,1.1,5.8c-2.4,5.2-25.9-1.5-26.3,0c-0.2,0.7,5.9,2.3,15.8,6.8
				c2.8,1.3,6.3,3,13.3,6.5c3.6,1.8,5.6,2.5,9.4,4.7c1.2,0.7,2.6,1.6,4,3.2c0.9,1.2,2.5,3.2,2.2,5.8c-0.4,3-3.1,4.6-3.2,4.7
				c-2.4,1.4-5.1,0.6-8.6-0.4c-14-3.9-11.3-2.8-13.3-3.6c-22.6-8.4-26.1-10.7-28.8-13c-3.8-3.1-6.6-6.5-6.8-6.8
				c-2.4-3-3.9-4.7-5-7.6c-1.3-3.4-0.6-4.4-1.8-6.5c-1.7-2.9-4.1-3-7.9-5c-5.2-2.8-12.9-9.4-13-16.2c0-1.9,0.6-3.5-0.4-5.8
				c-1-2.5-2.8-3.2-4.3-4.7c-4.9-4.6-4.9-13.4-3.2-18.7c0.3-0.9,0.5-1.5,0.7-1.8c0.8-1.4,2.2-2.1,3-2.5L119.2,541.5z"/>
			<path class="st7" d="M503,528.5c1.3,2.1,2.8,5.1,3.4,8.9c0.4,2.2,0.8,5.2-0.4,8.6c-0.3,0.9-1.7,4.8-5,7.2
				c-0.7,0.5-3.2,2.2-3.2,2.2c0.5,1,1.1,2.6,1.1,4.7c-0.1,2.9-1.5,5-2.9,7.2c-1.5,2.2-3.6,4.7-3.6,4.7c0.5,0.8,1.2,2,1.4,3.6
				c0.7,3.9-1.3,7.1-2.2,8.6c-2.9,4.8-11.2,12.4-26.3,16.9c-5.2,1.6-11.7,2.1-24.5,3.2c-2.4,0.2,0.4-0.1-10.1,0
				c-3.8,0-5.5,0.1-6.5-1.1c-1.8-2.2,0.6-6.6,0.7-6.8c1.3-2.3,3.4-3.9,7.2-6.8c0.7-0.5,1-0.7,1-0.7c1.9-1.4,3.1-2,3-2.1
				c-0.1-0.3-2.8,1.4-4.7,0.4c-1.5-0.8-1.8-2.7-1.9-3.1c-0.5-2.8,1.8-5.2,4.6-8.2c1.9-2,3.4-3.7,6-4.8s4.8-1.1,4.8-1.7
				c0-0.5-2-0.5-5-1.9c-2.1-1-3.3-2-3.8-2.4c-1.5-1.3-3.4-2.9-3.1-4.6c0.1-0.7,0.6-1.4,2.9-2.9c3.9-2.5,6.5-3.4,6.5-3.4
				c5.2-1.7,9.8-2.2,13-2.6c6.4-0.8,9.6-1.2,12.7-1.7c11-1.7,16.8-3.7,18.5-4.3c2.8-1,5-2,6.5-2.6L503,528.5z"/>
		</g>
		<g id="Camada_41">
			<path class="st22" d="M498.5,555.7c-4.3,1.7-8.6,3.4-12.9,5.1"/>
			<path class="st22" d="M492.9,572.2c-3.9,2.1-7.8,4.3-11.8,6.5c-2.3,1.3-4.5,2.5-6.8,3.8"/>
			<path class="st22" d="M111.8,552.9c4.8,2.3,9.8,4.6,15.3,6.8c6.7,2.7,13.1,5,19.1,6.9"/>
			<path class="st22" d="M153.2,586.3c-6.8-2.1-13.5-4.2-20.3-6.3"/>
		</g>
		<g id="Camada_40">
			<path class="st23" d="M113.2,532.9c0.1-0.1,1.1,1.3,6,8.6l4.7,1.9c15.5,3.6,23.3,5,27.6,5.5c0,0,4,0.6,11.8,1.9
				c0.4,0.1,2.5,0.4,5.2,1.1c3.1,0.8,4.6,1.3,6.2,2.5c1.1,0.8,3.4,2.6,3.4,5c0,3.7-5.9,6-6.1,6.1c-2.8,1.1-5.3,0.7-10.2,0
				c-4.7-0.7-8.1-1.7-8.3-1.8c-12.9-4-19.4-6-24.1-9.1C117.5,546.6,113,533,113.2,532.9z"/>
			<path class="st23" d="M180.5,589.2c-2.1,0.5-5.3,0.2-5.4,0.2c-4.2-0.5-3.9-0.2-5.7-0.6c-8.1-1.5-21.5-12.4-21.5-12.4
				c-14.1-11.5-21.4-16-20.8-16.8c0.4-0.6,4.1,2.4,12.2,5c10.5,3.5,20.2,3.7,24.5,3.8c2,0,3.7,0,4.8,0c0.9,0.8,2.4,2,4.3,3.5
				c2.3,1.8,2.8,2,4.2,3.2c1.1,0.9,2.7,2.4,4.2,4.7c0.9,1.4,1.5,2.1,1.9,3.4c0.4,1.3,0.4,2.1,0.3,3c0,0.4-0.1,0.7-0.2,1.1
				c-0.3,0.6-0.8,0.9-1.2,1.2C181.3,589,180.7,589.2,180.5,589.2z"/>
			<path class="st23" d="M150,585.7c0.3-0.5,1.7,0,9.3,3c7.5,3,11.2,4.5,17,7.2c10.6,4.9,10.4,5.4,14.9,7.2c0.2,0.1,2,0.9,4.2,2.2
				c2.2,1.4,3.3,2.5,4,3.2c1.3,1.5,1.7,2.7,1.8,3c0.2,0.6,0.5,1.5,0.3,2.8c-0.2,1.6-1.1,2.7-1.5,3.1c-0.3,0.4-1.1,1.3-2.5,1.9
				c-1.2,0.5-2.2,0.4-3.3,0.4c-1.2-0.1-1.9-0.3-4.7-1.1c-2.4-0.7-3-0.8-3.2-0.9c-5.8-1.7-21.7-17.4-24-19.8
				C154.4,590.2,149.4,586.6,150,585.7z"/>
			<path class="st23" d="M492.9,542.9c-0.9,0.7-2.5,1.2-5.8,2.4c-1.4,0.5-3.5,1.2-6.2,1.9c-2.9,0.8-5,1.2-7.2,1.6
				c-3.4,0.7-6,1-7.9,1.3c-1.3,0.2-3.3,0.5-7.4,1c-5.8,0.7-6,0.7-7.1,0.9c-3.7,0.6-5.7,0.9-8.4,1.9c-2.1,0.8-1.2,0.7-5.8,2.7
				c0,0-1.7,0.7-3.3,2.2c-0.5,0.5-0.9,0.9-1,1.5c-0.1,0.8,0.3,1.4,0.6,2c0.4,0.7,0.9,1.2,1.6,1.7c1.3,1.1,2,1.7,3.2,2.4
				c1.5,0.9,2.8,1.4,3.6,1.6c0.9,0.3,1.7,0.5,2,0.6c3.3,0.8,7.6-0.5,7.9-0.6c16.9-5.4,34-15.3,34-15.3c6.4-3.7,11.1-6.7,12.4-11.9
				c0.6-2.5,0.4-5.2-0.2-5.3C497.2,535.5,496.7,540.1,492.9,542.9z"/>
			<path class="st23" d="M487.4,560.4c-0.6-0.9-6.1,2.9-19,7.4c-13.1,4.6-17.6,4.3-20.2,3.1c-0.6-0.3-2.4-1.2-4.8-1.1
				c-2.2,0.1-3.9,1.2-5.2,2.1c-1,0.6-2.3,2-5,4.7c-1.9,1.9-2.8,2.9-3.4,4.5c-0.6,1.5-0.4,2.5-0.4,2.8c0,0,0.3,1.6,1.9,3.1
				c3.4,3.1,14.4,0.2,14.4,0.2c13.2-3.8,22.6-10.3,25.4-12.2C479.6,569.1,488.2,561.5,487.4,560.4z"/>
			<path class="st23" d="M481.3,579.1c-0.3-0.5-4.7,2.9-13.3,5.9c0,0-15,5.5-34.7,4.7l0,0c0,0-0.9,0-1.6,0.2
				c-0.5,0.2-0.8,0.5-1.6,1.2c-0.9,0.9-0.9,0.7-2,1.6c-0.9,0.8-1.4,1.3-2,2c-0.3,0.3-1.1,1.4-1.8,3.1c-0.5,1.3-0.6,2.2-0.7,2.4
				c-0.1,0.7-0.1,1.3,0.1,1.9c0.1,0.2,0.4,1,1.2,1.6c0.5,0.4,1.1,0.4,2.4,0.5c1.8,0.1,3.1,0,3.3,0c2-0.1,3.3,0,3.7,0
				c9.7-0.1,26.6-10.8,26.6-10.8C467.9,589.2,481.8,580,481.3,579.1z"/>
		</g>
		<g id="Camada_8">
		</g>
		<g id="Camada_3">
			<path class="st7" d="M298.3,136.9c-0.7,0.2-3,0.7-4.8,2.5c-6.6,6.2,0.6,20.2-3.5,22.5c-3.5,2-8.6-7.1-20.9-9.4
				c-6.6-1.2-15.6-0.6-17.1,3.4c-1.4,3.5,3.4,9,7.3,11.8c6,4.3,11.9,3.8,11.9,4.9c0,1.8-15.9,0.9-29.9,6.4
				c-6.2,2.5-17.4,8.3-18.1,8.7c0,0-0.7,0.4-0.9,0.5l-0.9,0.5c-5.8,3.5-6,3.9-11.1,7c-27.8,16.9-48.9,18.1-50,28
				c-0.3,2.9,1.4,4,1.8,12.4c0,0.4,0.3,5-0.3,10.1c-1.8,18.2-15.4,69.2-13.5,110.2c0.8,15.6,1.2,25.7,7,38
				c13.3,28.4,37,33.6,57.6,43.7c48.9,23.9,94.3,21.6,122.4,20.2c22.3-1.1,54.6-3.1,83.5-20.2c15.2-9,34.5-34.3,35.4-35.2
				c10.1-10.3,16-16.4,21.7-26.5c3.7-6.6,13.1-23.8,11.7-46c-0.4-6.6-1.7-11.4-3.1-16.6c-15.8-58.3-22.8-60-32.8-97.3
				c-4.1-15.1-5.9-25.9-14-28.8c-9.4-3.4-21.9,5.8-28.9-0.9c-1.4-1.3-1.1-1.9-2.7-4.1c-1.6-2.3-9-8.3-22.5-11.9
				c-0.6-0.2-1.6-0.4-2.7-0.7c-20-4.5-43,2.8-45.1-1.3c-1.1-2.2,11.2-5.2,14.8-15.5c2.3-6.6,1-15.6-3.4-17.7
				c-7.9-3.8-22.4,11.9-23,12.6c-6.4,7.2-7.2,14.9-9,14.6c-1.3-0.2,1.2-7.5-1.9-16.3c-1.5-4.1-3.2-5.8-3.8-6.4
				C309.3,139.8,304.4,135.5,298.3,136.9z"/>
		</g>
		<g id="Camada_10">
			<path class="st24" d="M246,679.8c-1.5-0.1-0.8-7.2-4.8-9.6c-2.8-1.7-6.5-0.3-7.2,0c-9.3,3.6-11.5,19.2-12.5,26.4
				c-0.6,4.7-1.4,10.9,0.5,18.7c1.7,7,4.7,11.2,7.2,14.9c2.5,3.6,4.3,5.2,6.7,5.8c0.5,0.1,3.8,0.9,6.2-1c0.9-0.7,2.2-2.1,2.9-8.2
				c0.2-1.4-0.1-2.5,0.2-2.6s1.1,1.6,2.7,5c1.9,4.1,2.2,4.7,3.1,5.5c1.4,1.2,3.1,1.5,3.8,1.7c1.1,0.2,2.5,0.5,3.8,0
				c0.8-0.3,2.1-1.1,4.6-6.7c1.7-3.9,2.1-6.1,2.6-6c0.6,0.1,0.4,2.7,1.4,7.7c0.8,3.9,1.4,4.8,2.2,5.5c0.1,0.1,2.1,1.9,4.8,1.7
				c1.4-0.1,2.5-0.8,3.6-1.7c4-3.1,6.3-6.8,6.5-7.2c2.7-4.5,3.8-8.6,4.3-11c0.6-3,2.6-12.2-0.2-25c-0.4-1.9-2.2-10.1-7.7-17.8
				c-2-2.7-4-4.9-6.5-4.8c-2.2,0.1-3.8,1.8-4.3,2.4c-3.8,4.2-2.7,10.8-3.4,10.8c-0.5,0-0.6-3.4-2.2-7.4c-1-2.6-3-7.9-7-8.6
				c-2.3-0.4-4.3,0.9-5,1.4C247.5,673,247.5,679.8,246,679.8z"/>
			<path class="st24" d="M359,677.8c-1.5-0.1-0.8-7.2-4.8-9.6c-2.8-1.7-6.5-0.3-7.2,0c-9.3,3.6-11.5,19.2-12.5,26.4
				c-0.6,4.7-1.4,10.9,0.5,18.7c1.7,7,4.7,11.2,7.2,14.9c2.5,3.6,4.3,5.2,6.7,5.8c0.5,0.1,3.8,0.9,6.2-1c0.9-0.7,2.2-2.1,2.9-8.2
				c0.2-1.4-0.1-2.5,0.2-2.6c0.3-0.1,1.1,1.6,2.7,5c1.9,4.1,2.2,4.7,3.1,5.5c1.4,1.2,3.1,1.5,3.8,1.7c1.1,0.2,2.5,0.5,3.8,0
				c0.8-0.3,2.1-1.1,4.6-6.7c1.7-3.9,2.1-6.1,2.6-6c0.6,0.1,0.4,2.7,1.4,7.7c0.8,3.9,1.4,4.8,2.2,5.5c0.1,0.1,2.1,1.9,4.8,1.7
				c1.4-0.1,2.5-0.8,3.6-1.7c4-3.1,6.3-6.8,6.5-7.2c2.7-4.5,3.8-8.6,4.3-11c0.5-2.1,2.5-11.9-0.2-25c-0.4-1.9-2.2-10.1-7.7-17.8
				c-2-2.7-4-4.9-6.5-4.8c-2.2,0.1-3.8,1.8-4.3,2.4c-3.8,4.2-2.7,10.8-3.4,10.8c-0.5,0-0.6-3.4-2.2-7.4c-1-2.6-3-7.9-7-8.6
				c-2.3-0.4-4.3,0.9-5,1.4C360.5,671,360.5,677.8,359,677.8z"/>
		</g>
		<g id="Camada_11">
			<path class="st25" d="M235.6,671.7c1.3,0.5,1.9,3.2,2.2,4.3c0.2,0.8,0.3,1.7,0.2,3.4c-0.1,2.7-0.6,4.5-1,6.2
				c-0.6,2.9-0.9,5.1-1.2,8.2c-0.2,1.6-0.5,4.4-0.5,7.9c0,4.9,0.5,5.3,0,7.9c-0.3,1.4-0.9,3.9-2.6,6.5c-0.8,1.1-1.5,2.1-2.9,2.9
				c-0.4,0.2-2.9,1.5-5,0.5c-1.8-0.9-2.5-2.9-2.9-4.6c-1.8-7.1-0.7-14.4-0.2-17c1.4-8.7,2.1-13.1,4.3-17
				C228.8,675.8,233.4,670.8,235.6,671.7z"/>
			<path class="st25" d="M325.8,744"/>
			<path class="st25" d="M388.6,671.4c-1.3,0.5-1.9,3.2-2.2,4.3c-0.2,0.8-0.3,1.7-0.2,3.4c0.1,2.7,0.6,4.5,1,6.2
				c0.6,2.9,0.9,5.1,1.2,8.2c0.2,1.6,0.5,4.4,0.5,7.9c0,4.9-0.5,5.3,0,7.9c0.3,1.4,0.9,3.9,2.6,6.5c0.8,1.1,1.5,2.1,2.9,2.9
				c0.4,0.2,2.9,1.5,5,0.5c1.8-0.9,2.5-2.9,2.9-4.6c1.8-7.1,0.7-14.4,0.2-17c-1.4-8.7-2.1-13.1-4.3-17
				C395.4,675.5,390.8,670.5,388.6,671.4z"/>
			<path class="st25" d="M254.1,671c1.2,0.9,3.1,2.5,4.3,5c1.1,2.2,1.3,4.2,1.4,5.5c0.6,6.9,0.9,12.8,1,13.7
				c0.3,6.8,0.8,9.8,0.5,14.9c0,0-0.2,2.7-1,6.2c-0.7,3.1-1.3,4.2-1.7,4.8c-0.8,1.2-2,3-4.1,3.4c-1.8,0.3-3.3-0.9-5.3-2.4
				s-2.9-2.8-3.1-3.1c-0.3-0.4-0.8-1.3-1.2-2.6c-1-3.4-0.6-8-0.5-10.6c0.5-8.2-0.4-9.1,0.7-14.4c0.3-1.4,0.3-1,1.2-4.8
				c1.5-6.4,1.5-7.5,2.4-9.4C249.6,675.6,251.1,673.2,254.1,671z"/>
			<path class="st25" d="M369.5,668.3c-1.2,0.9-3.1,2.5-4.3,5c-1.1,2.2-1.3,4.2-1.4,5.5c-0.6,6.9-0.9,12.8-1,13.7
				c-0.3,6.8-0.8,9.8-0.5,14.9c0,0,0.2,2.7,1,6.2c0.7,3.1,1.3,4.2,1.7,4.8c0.8,1.2,2,3,4.1,3.4c1.8,0.3,3.3-0.9,5.3-2.4
				s2.9-2.8,3.1-3.1c0.3-0.4,0.8-1.3,1.2-2.6c1-3.4,0.6-8,0.5-10.6c-0.5-8.2,0.4-9.1-0.7-14.4c-0.3-1.4-0.3-1-1.2-4.8
				c-1.5-6.4-1.5-7.5-2.4-9.4C374,672.9,372.5,670.5,369.5,668.3z"/>
			<path class="st25" d="M273.6,675.2c3.8,1,5.5,5.6,6.8,9c0.8,2,1.1,3.7,1.8,7c0.4,1.9,1,5.1,1.4,9.4c0.2,2.1,0,1.3,0,13.1
				c0,1.3,0,3.6-1.4,5.8c-0.4,0.6-1.1,1.6-2.3,2.2c-2.6,1.2-5.3-0.5-5.4-0.5c-1.3-0.8-2.3-2.3-3.1-5.4c-0.9-3.8-0.6-6.1-0.4-12.6
				c0.3-9.3-0.2-10.7-0.5-11.5c-0.2-0.5-1.2-2.7-2.3-5.8c-0.9-2.3-1-2.9-1.1-3.6c-0.1-1-0.5-4.3,1.6-6.1
				C270.6,674.5,273.4,675.2,273.6,675.2z"/>
			<path class="st25" d="M349.8,670.8c-3.8,1-5.5,5.6-6.8,9c-0.8,2-1.1,3.7-1.8,7c-0.4,1.9-1,5.1-1.4,9.4c-0.2,2.1,0,1.3,0,13.1
				c0,1.3,0,3.6,1.4,5.8c0.4,0.6,1.1,1.6,2.3,2.2c2.6,1.2,5.3-0.5,5.4-0.5c1.3-0.8,2.3-2.3,3.1-5.4c0.9-3.8,0.6-6.1,0.4-12.6
				c-0.3-9.3,0.2-10.7,0.5-11.5c0.2-0.5,1.2-2.7,2.3-5.8c0.9-2.3,1-2.9,1.1-3.6c0.1-1,0.5-4.3-1.6-6.1
				C352.7,670.1,349.9,670.8,349.8,670.8z"/>
		</g>
		<g id="Camada_4">
			<path class="st26" d="M310.6,232.9c-0.3,0.2-0.7,0.5-1.4,0.9c-10,5.4-20.6-3.6-27.6-0.9c-4.9,1.9-4.5,4.3-8.6,4.8
				c0,0-3.3,0.5-7.1-1.3c-8.3-4-31.5-36.7-55.6-40.7c-1.4-0.2-4.9,0-4.9-0.4c-0.1-0.5,4.4-1.9,9.2-1.3c1.4,0.2,2.6,0.5,5.2,1.6
				c5.1,2.1,8.8,4.2,11.5,5.8c6.8,3.9,10.2,5.9,11,6.5c0,0,12.1,9.6,16.1,11.8c0.1,0.1,0.3,0.2,0.5,0.1c1.2-0.1,1-3.5,2.4-5.3
				c1.2-1.6,3.4-1.8,10.8-1.6c5.4,0.2,6,0.3,11.2,0.5c2.7,0.1,7.8,0.3,13,0.9c0.4,0.1,2.6,0.3,5.4,1.3c1.8,0.6,2.8,1,3.8,1.8
				c2.2,1.9,1.2,5,2.5,5.4c0.5,0.1,0.7-0.2,2.3-1.1c3.4-1.9,5.2-2.1,6.6-4.4l0,0c5.4-8.6,34-25.7,34-25.7c11-6.6,9.9-6.4,15.9-9.6
				c14.1-7.6,15.1-5.9,20.4-10.2c0,0,4.7-3.8,5.8-2.8c0.3,0.2,0.1,0.6,0.6,1.8c0.3,0.6,0.5,1.1,1.1,1.9c0.6,0.9,0.9,1.4,1.2,1.7
				c0.9,0.8,2.1,0.9,2.5,1c2.1,0.2,29.6,4,30.2,7.2C429.8,189.1,325.9,222.5,310.6,232.9z"/>
			<path class="st26" d="M322.4,216.9c-0.2,0.3-0.3,0.7-0.5,1"/>
			<path class="st26" d="M263.6,235.1c-1.3-0.8-2.5-1.8-3.7-2.9"/>
		</g>
		<g>
			<ellipse transform="matrix(0.9905 -0.1376 0.1376 0.9905 -41.8082 24.016)" class="st27" cx="152.8" cy="314.4" rx="3" ry="6"/>
			<ellipse class="st27" cx="152.2" cy="309.1" rx="2.9" ry="2.9"/>
			<path class="st28" d="M286,93.6"/>
			<path class="st28" d="M197.3,102"/>
			<path class="st7" d="M429,219.8c2.1-0.6,4.3-1.3,6.4-1.9c0,0,0,0,0.1,0c4.5-1.7,8.9-3.5,13.3-5.1c0.6-0.2,1.1,0.1,1.2,0.5
				c7.3,19.2,14.6,38.4,21.9,57.5c0,0,0,0.1,0,0.2c0.3,1.5,0.3,3,1,4.4c8.5,20.5,14.8,41.5,14.4,64c-1,14.2-7.7,26.3-14.1,38.6"/>
			<path class="st29" d="M262.9,92"/>
			<path class="st29" d="M286.8,92.5"/>
			<path class="st29" d="M196,102.2"/>
			<path class="st30" d="M147.4,188"/>
			<path class="st7" d="M114,186.2c-7.8-0.3-15.6-0.7-23.3-0.9c-4.2-0.1-8.5-0.3-12.6,0.2c-1.8,0.3-3.6,2.1-5.4,3.3
				c-0.9-0.8-1.9-1.7-3.2-3C84.8,183.2,99.4,183.7,114,186.2z"/>
			<path class="st30" d="M299.9,333.1"/>
			<path class="st30" d="M406.5,226.5"/>
			<path class="st30" d="M327.6,348"/>
			<path class="st30" d="M320.4,335.7"/>
			<path class="st30" d="M411.4,374.1"/>
			<path class="st31" d="M181.4,238.1"/>
			<path class="st26" d="M260.4,225.5c0.8-0.3,2.3-0.7,2.2-0.9c0-11.1,0.1-11.3,11.6-10.3c2.6,0.2,5.3,0.9,7.8,1.4
				c-3.7-0.2-7.2-0.4-10.9-0.6c-7.1-0.3-9.6,3.1-7.1,9.7c1.1,3,2.9,5.7,4.4,8.7c-0.4,0.3-0.9,0.6-1.3,1
				C265,231.4,262.7,228.5,260.4,225.5z"/>
			<path class="st30" d="M231.8,200.4"/>
			<path class="st30" d="M229.3,199.3"/>
			<path class="st30" d="M273.7,268.8"/>
			<path class="st30" d="M257.7,258.9"/>
			<path class="st30" d="M265.9,263.9"/>
			<path class="st32" d="M203.8,353.3"/>
			<path class="st31" d="M340,266.8"/>
			<path class="st30" d="M353,351.9"/>
			<path class="st30" d="M321.1,323.9"/>
			<path class="st31" d="M151.9,313"/>
			
				<ellipse transform="matrix(0.9905 -0.1376 0.1376 0.9905 -38.5989 55.0405)" class="st33" cx="378.8" cy="306.7" rx="67.2" ry="65.3"/>
			
				<ellipse transform="matrix(0.9905 -0.1376 0.1376 0.9905 -41.0103 55.3594)" class="st34" cx="379.9" cy="324.3" rx="39.6" ry="38.5"/>
			<path class="st35" d="M350.9,333.6c-2.2-16.9,8.5-30.9,25.5-33.1c16.3-2.3,32.3,9.5,34.3,25.3c2.1,15.9-10.9,33.2-27.4,34.4
				C368.6,361.5,353.8,352.6,350.9,333.6z"/>
			
				<ellipse transform="matrix(0.9905 -0.1376 0.1376 0.9905 -42.5873 33.748)" class="st33" cx="222.8" cy="324.9" rx="67.2" ry="65.3"/>
			
				<ellipse transform="matrix(0.9905 -0.1376 0.1376 0.9905 -45.1767 34.2865)" class="st34" cx="225.4" cy="343.9" rx="39.6" ry="38.5"/>
			<path class="st35" d="M197.5,353.2c-2.2-16.9,8.5-30.9,25.5-33.1c16.3-2.3,32.3,9.5,34.3,25.3c2.1,15.9-10.9,33.2-27.4,34.4
				C215.2,381,200.4,372.1,197.5,353.2z"/>
			<path class="st6" d="M383.5,238.1c-1.8-3.4-6-10-13.6-12.4c-7.4-2.4-14.4,0.8-21.3,3c-16.4,5.1-17.4,8.8-27.1,9.2
				c-6.5,0.2-8.6-1.3-13.8,0.5c-3.1,1.1-3.4,2-12.9,10.2c-8.2,7-11.3,9.2-12.1,13.8c-0.4,2.3-0.1,4.2,0.2,5.6c0.3,2,0.5,3.8,0.8,5.8
				c1,0.2,2.5,0.5,4.3,0.6c3.9,0.3,7,0,10.3-0.6c5.6-0.9,10.4-1.8,15.8-3.8c0.8-0.3,1.5-0.7,2.2-1c2.5-1.3,4-2.4,6.1-3.9
				c1.6-1.2-0.7,0.6,5.7-3.8c7.6-5.3,7.8-5.5,10-7c5.3-3.4,9.7-5.3,14.7-7.4c5.1-2.1,8.9-3.3,13.2-4.6c4.7-1.5,8.8-2.5,12-3.3"/>
			<path class="st36" d="M519,137c-0.3,0.1-0.7,0.3-1.1,0.4"/>
			<path class="st36" d="M496.9,124.4c-1.1,0.5-2.2,1-3.3,1.4"/>
			<path class="st36" d="M485.9,129.2c-0.4,0.2-0.8,0.3-1.2,0.5"/>
			<path class="st36" d="M481.4,131.2c-0.3,0.2-0.7,0.3-1.1,0.5"/>
			<path class="st36" d="M521.6,136.1"/>
			<path class="st36" d="M530,133.1"/>
			<path class="st6" d="M180.3,249.7c0.4,0.1,0.8,0.1,1.3,0.3c0.1,0,0.1,0.1,0.2,0.1"/>
			<path class="st6" d="M206.8,258.6c1.3,0.3,2.8,0.5,4.4,0.5c1.8,0,1.7-0.4,5.3-0.7c4.6-0.5,8.3-0.4,10.4-0.3
				c1.2,0.1,4.4,0.2,8.6,1c4.7,0.9,8.1,2,10.8,3c3,1,2.4,1,7.4,3c3.2,1.2,7,2.7,12.2,4.3c0.9,0.2,3.3,1,6.7,1.9
				c4.9,1.2,11.2,3,11.4,2.5c0.1-0.6-11.5-5-19.7-8.1c-13.4-4.8-16.2-5.3-30.5-10.1c-20.2-6.9-16.9-7-26.1-9.4
				c-5.7-1.6-14.2-3.4-25.8-7.8c-0.1,0-0.2-0.1-0.4-0.1c-5.8-2.2-19.6-7.4-21.5-4.4c-0.2,0.3-0.1,0.4,0.2,2.5c1,6.3,0.7,7.3,1.7,8.7
				c1.3,1.9,3.4,2.4,5.1,2.8c12.6,3.1,24.9,5,34.6,8.6C203.9,257.3,205.8,258.1,206.8,258.6"/>
			<path class="st6" d="M173.3,248.6c0.2,0,0.5,0.1,0.6,0"/>
			<path class="st6" d="M175.9,249c0.5,0.1,1,0.1,1.4,0.3"/>
			<path class="st6" d="M461.4,278.6c0.6,0.8,1.2,1.4,1.6,1.8c6.8,7,9.6,26.7,10.8,35.4c1.1,8.2,1.9,14.6,0.7,23.3
				c-1,6.2-2.6,10.7-3.6,13.2c-7,18.5-19.9,43.6-26.8,58.5l-4.8,9.6c4.9-4.7,17-16.5,27.3-30c6.8-8.9,10.2-15.2,12.1-19
				c2-4,3.2-7.1,3.5-7.8c2.4-5.9,7-17.6,6.4-31.9c-0.3-7.6-2-13.8-5-24.6c-0.9-3.5-2-7-2.4-8.4c-1.8-5.7-3.6-11.1-5.8-17.4
				c-5.2-15-8.9-24.6-12.7-35.1c-3-8-7.3-20-12.4-34.7l-24,9.2l-39.6,13l-23.1,8.3c3.6-0.9,6.7-1.3,9-1.5c8.3-0.9,14.5-0.3,16.6-0.1
				c1.3,0.2,2.4,0.3,3.1,0.4c11.6-0.6,24.4-2.2,38.1-5.1c4.5-1,8.8-2.1,13-3.2l5.8,8.9L461.4,278.6z"/>
			<path class="st37" d="M270.5,278.4c-1.5-1.4-3.4-3.1-5.6-4.9c-3.1-2.4-8.7-6.4-16.7-9.4c-4.2-1.6-12.9-4.5-24.4-4.7
				c-4.7-0.1-8.7,0.4-12.1,1"/>
			<path class="st37" d="M210.6,260.7"/>
			<path class="st37" d="M390,242.1c-3.1-0.5-7-0.9-11.4-0.8c-4.9,0.1-8.8,0.6-10.9,1c-1.4,0.2-7.4,1.4-14.9,4.4
				c-4.8,2-8,3.8-8.8,4.3c-2.7,1.7-5.1,3.3-6.7,4.6"/>
			<g id="Camada_4_2_">
				<path class="st7" d="M338,253.3c60.4-25.1,86.3-31.8,86.3-31.8c28.2-7.3,30-5.8,40.2-11.1c18.7-9.7,30.8-23.9,38.2-34.6
					c-3.1,1.6-8,3.5-14.1,4.3c-8.2,1.1-18.3-0.4-18.6-2.7c-0.1-0.8,0.9-1.4,1.4-1.8c12-8.4,20.7-28.1,21.4-32.2
					c0.1-0.3,0.1-0.8,0.4-2.8c0.5-3.4,0.7-4.2,0.4-4.4c-0.4-0.2-0.9,0.6-2.6,2c0,0,0,0-2.1,1.6c-4,3-42.9,19.6-51.5,24.3
					c-0.5,0.3-3.9,2.2-8.4,4.2c-2,1-3.3,1.5-4.3,1.9c-1.7,0.7-3.6,1.6-6.3,2.4c-3,1-3.4,0.8-5.3,1.6c-2.1,0.8-4.3,1.8-4.3,1.8
					s-15.2,6.7-15.9,5.9c0,0,0,0-0.1-0.1c-0.3-0.3-0.4-0.4-0.4-0.5c-0.4-0.4-0.6-0.6-0.6-0.6c-0.3-0.5,0.6-1.5,1.3-2.5
					c0,0,0.6-0.9,1.3-2.5c0.6-1.5,0.5-2.2,0.9-4.4c0.7-3.5,1.5-4.7,1.1-5.1c-0.5-0.4-1.9,1-5,3c0,0-1.5,0.9-4.5,2.7
					c-5.5,3.3-39.2,22.9-53.3,32.8c-1.4,1-3.8,2.8-6.9,5.4c-3.5,3.2-6.1,6-7.4,7.5c-7.3,8.4-9.9,15.1-12.3,14.4
					c-0.4-0.1-0.5-0.4-1-0.8c-2.9-3.1-0.6-7-2.3-9.9c-1.3-2.3-5.1-2.8-12.7-4c-1.3-0.2-0.5-0.1-8.6-0.9c-5.6-0.6-7.7-0.9-10.9-0.6
					c-3.7,0.3-6,0.6-7.2,2.3c-1.6,2.2-0.4,5.7,0.2,7.4c1.4,4,4.8,8.5,4.4,8.8c0,0-0.1,0-0.5,0.3c-0.1,0-0.1,0.1-0.2,0.1
					c-0.3,0.2-0.5,0.3-0.5,0.3c-0.6,0.2-3-3.7-3.4-4.3c-0.7-1-1.9-2.6-3.4-4.5c0,0-6.2-7.6-15.2-14.3c-25-18.7-68.6-28.5-68.6-28.5
					c-5.9-1.5-20.8-5-21.6-2.9c-0.2,0.7,1.1,1.6,3.6,4c2.2,2.1,10.3,9.7,9.4,11.9c-1.3,3-20.8-2.9-28.8-5c-16.8-4.6-41-8.4-73.1-5
					l6.6,5.4c4.6,3.8,11.8,9.2,21.1,14.9c19.3,11.6,35.1,16.4,61.9,24.5c38.2,11.6,57.4,17.4,58.7,18c17.2,6.8,29.5,11.5,38.6,14.9
					c14.3,5.3,20.9,7.6,25.1,14.7c2.4,4,3.2,8.4,7.7,11c5.6,3.4,12.4,1.4,13.9,1c5-1.4,8.9-7.3,16.8-18.2c4.8-6.7,6.3-9.5,10.6-13
					C332,255.9,336,254.2,338,253.3z"/>
			</g>
			<path class="st38" d="M336.8,234.3c-2.2-3.9,13.2-16.5,23.1-24.6c1.5-1.3,10.5-8.6,11.9-7.3c1.2,1.1-4.6,7.3-3.2,8.9
				c2.8,3.6,36.3-20.6,38.3-18c0.9,1.2-4.4,7.3-9.8,11.8c-7.2,5.7-12.9,7.2-12.7,8c0.4,1.5,20.2-2.9,38.4-8.4
				c3.8-1.1,6.4-1.9,6.6-1.7c0.3,0.7-20.6,9.8-40,17.1C363.4,229.6,339.4,238.7,336.8,234.3z"/>
			<path class="st25" d="M314.2,436.8l-3.5,5.9c-2-3.4-3.5-5.9-5.1-8.6c-6.1-18.1-16.9-33.4-28.9-48c-1.4-1.7-2.6-5.6-1.7-6.6
				c12-14.2,17.4-30.8,20.1-48.6c0.5-4.5,1.1-8.9,1.7-13.6c8.6,3,11,10.6,14.6,17.3c1.7,3.3,4.2,6.1,6.4,9.2l0,0
				c6,10.5,14.2,19,25.3,24.5c0.7,0.4,1.4,0.8,2.1,1.3c10.8,6.8,10.8,7.3,1.1,15.1c-11,8.7-17.7,20.7-23.5,33
				c-2.9,6.2-5.4,12.5-8.2,18.7C314.4,436.4,314.3,436.5,314.2,436.8z"/>
			<path class="st39" d="M297,316.3c-0.3,0.2-0.4,1.2,6.3,14.7c6.5,13.1,9.8,19.6,12.6,23.7c6.6,9.5,10.2,10.7,11.1,17.1
				c0.3,2.3,0.1,4.1-2.3,13.5c-3,11.3-4.7,15.6-7.7,25.6c-2.7,9.3-3.9,14.7-4.6,20.7c-0.1,1.4-1.3,11.9-0.2,12.2
				c0.9,0.2,2.5-4.8,7-17.6c4-11.1,6.1-16.6,8.8-22c4-8,6.6-13.3,10.7-16.9c0.8-0.7,3.2-2.7,6-6.2c2-2.6,3.2-3.8,3.2-4.9
				c0.1-3.2-4.4-5.1-11.7-10.4c-3.1-2.4-7.9-5.9-12.4-11.1c-4.2-4.8-6.7-9.4-9.6-14.8c-4.1-7.2-4-8.8-7.4-13.7
				C302.9,320.7,297.9,315.5,297,316.3z"/>
		</g>
		<g id="Camada_5">
			<g>
				<path class="st40" d="M455.6,258.4c0.6,0.9,0.8,1.4,0.8,1.4c-0.1,0-1.4-1.6-3.8-4.8 M456.6,260.5c0,0,5.6,17.9,0.5,28.1
					c-0.3,0.5-0.6,1.1-0.6,1.1l0,0c-2.2,3.7-5.3,4.9-7.2,6.5c-2.3,2.1-3.1,4.5-4.4,8.6c-3.7,11.6-0.8,19.1-3.7,32.7
					c-1.2,6-2.6,12.4-7.8,18c-3.6,4-7.7,6-11.1,7.5c-23.2,10-49.6,8.2-49.6,8.2c-19.1-1.3-28.7-2-37.4-8.8
					c-13.3-10.5-21.5-31.7-22.4-34.2c0-0.1-0.2-0.6-0.5-1.1c-3.8-9.6-7.1-17.8-10.3-17.7c-0.7,0.1-1.5,0.5-3.1,1.7
					c-1.1,0.7-2,1.4-2.8,2.6c-0.1,0.1-0.1,0.1-1.1,1.8c-0.6,1-1,1.6-1.1,1.8c-1.7,2.9-6.7,26.5-6.7,26.5
					c-1.1,5.2-3.2,14.9-10.4,23.9c-3.3,4.2-6.6,6.8-8.3,8.1c-10.5,8.1-30.1,16.5-52.9,13.9c-8.2-0.9-36.3-4.2-44.8-21.8
					c-1.9-4.1-8.1-20.1-10.9-27.6c-1.2-3.2-2.9-7.7-6.7-9.5c-1.6-0.7-3.9-0.9-6.8-2.8c0,0-1.7-1.1-3-2.4c-3.4-3.4-3.8-9.4-3.8-26.8
					c-0.1-5,0-8.9,2.4-10.4c1.6-1,3.8-0.6,4.4-0.6c7.9,1.6,26.5-1.2,63.9-6.6c0.5-0.1,1.5-0.2,2.9-0.4c3.1-0.4,8.3-0.8,14.9-0.6
					c0.1,0,0.1,0,0.2,0c12.7,0.4,20.3,0.2,27.3,1.2c0.1,0,0.5,0.1,0.8,0.1c0,0,4.8,0.7,9.3,2.2c6.8,2.3,10.1,6.1,18.8,9
					c4,1.4,6,2,8.8,2.2c0,0,9.4,0.2,20.6-8.3c0.6-0.5,1.3-1,1.3-1c0.6-0.5,0.9-0.8,2-1.8c0.4-0.4,0.8-0.8,1.3-1.1
					c14.4-12.6,31.4-17.4,31.4-17.4c2.3-0.5,4.7-0.9,6.9-1.5c40.7-8,59.3-10.2,67.3-10c2,0.1,4.2,0.3,8.2,0.1
					c12.1-0.5,17.2-3.6,21-0.7C454.8,254.6,455.4,256.5,456.6,260.5z M281.6,330.4c1.7-9.6,0-15.2-1-17.8c-1.9-5-4.8-8.4-6.8-10.4
					c-11.2-8.5-24-12.8-37.8-13.9c-4.9,0-12,0.1-20.6,0.6c-19.4,1.1-29.3,1.7-35.4,6c-8.7,6.1-13.7,17-13.8,26.6
					c0,1.6,1.5,7,4.4,17.6c2.7,9.9,5.3,18.1,6.3,21.2c0,0.2,0.2,0.3,0.2,0.3c5.4,16.1,27.5,20.3,32.3,21.2
					c7.2,1.4,12.9,1.1,16.3,0.9c4.3-0.3,14.8-1.1,25.4-6.4C275.7,363.5,280.8,335.1,281.6,330.4z M345.5,357.1
					C345.6,357.2,345.1,356.9,345.5,357.1c0.1,0.1,0.4,0.2,0.5,0.3 M342.6,284.2c-9.2,5.3-12.7,9.2-13.9,10.8
					c-1.3,1.6-3.2,3.9-4.5,7c-2,4.8-2.4,10.8,1.1,21.8c5,15.3,8.6,26.4,19.6,32.7c10.9,6.2,25.9,5.7,33,5.5c0.3,0,0.8,0,1.1,0
					c6.3-0.2,12.9-0.5,20.5-1.7c5.5-0.8,10-1.7,15.4-4.3c3.2-1.6,7.6-3.7,11.5-8.3c3.5-4.1,4.8-8.2,5.6-10.9
					c1.1-3.4,1.4-6.2,1.6-7.4c1.8-13.6,5.5-32.1,3.3-47.2c-0.1-1.2-0.5-3.1-1.8-5.2c-3.4-4.8-10.1-5.6-13.1-5.7
					c-0.2-0.1-0.6-0.3-0.9-0.4c0,0-0.4-0.2-0.9-0.2c-29.4-5.9-63,6.6-63,6.6C355.3,278,349.6,280.1,342.6,284.2z"/>
			</g>
			<path class="st41" d="M286.1,321.3c0.1-1.8,0.7-8.4,2.4-11.7c2.7-5.1,8.4-8,9.9-8.8"/>
			<path class="st41" d="M142.1,304.5c0.2-3.7,0.4-6.6,0.5-9.6c0.1-1.2,0.2-2.1,0.9-2.8c1.2-1.2,3.2-0.3,6.8,0.1
				c1.5,0.1,4.3,0,9.7-0.3c2.1-0.2,3.7-0.3,6.8-0.5c3.6-0.3,6.7-0.6,9.6-0.9"/>
			<path class="st41" d="M452.7,262.4c-0.2-0.9-0.6-2-1.1-3.1c-0.8-1.6-1.2-2.5-2-3.1c-2.4-1.9-6.1,0.7-11.8,2.1
				c-4.4,1.1-4.8,0.1-14.1,0.4c-3.5,0.1-8.5,0.5-14.6,1.4l-11.8,1.6l-10.3,1.4"/>
		</g>
		<g id="Camada_33" class="st42">
			<path class="st43" d="M304.7,488.3"/>
			<circle class="st44" cx="88" cy="344.6" r="62.3"/>
			<circle class="st44" cx="537.5" cy="320" r="62.3"/>
			<circle class="st45" cx="482.5" cy="139.8" r="90.2"/>
			<circle class="st44" cx="276" cy="112.7" r="109.3"/>
			<circle class="st44" cx="103.4" cy="182.6" r="63.9"/>
		</g>
		<path class="st38" d="M250.5,235.8c-25.1-19.5-41.2-26.7-50.4-29.8c-0.8-0.3-10.1-3.3-11-1.4c-1.2,2.3,10.8,9.6,9.6,12
			c-0.2,0.3-0.9,1.2-13-1.4c-7.7-1.7-12.4-3.1-19.7-3.8c-4.2-0.4-7-0.7-7.2,0c-0.7,2,17.1,10.1,32.2,15.4c6.2,2.2,12.5,4.4,21.1,6.2
			C221.1,234.9,234.2,236.8,250.5,235.8z"/>
		<path class="st26" d="M387.1,171.9"/>
		
			<ellipse transform="matrix(0.5775 -0.8164 0.8164 0.5775 -187.2602 309.4966)" class="st36" cx="205.4" cy="335.7" rx="6.3" ry="10.7"/>
		
			<ellipse transform="matrix(0.5775 -0.8164 0.8164 0.5775 -104.516 426.809)" class="st36" cx="360.1" cy="314.4" rx="6.3" ry="10.7"/>
	</g>
</g>
<g id="Camada_2">
	<ellipse class="st46" cx="508.6" cy="343.2" rx="10.7" ry="7.7"/>
	<ellipse class="st46" cx="523.5" cy="336.6" rx="13.2" ry="8.3"/>
	<ellipse class="st46" cx="547" cy="335.4" rx="15.1" ry="8.3"/>
	<ellipse class="st46" cx="571.7" cy="338.6" rx="13.2" ry="8.3"/>
	
		<ellipse transform="matrix(0.1534 -0.9882 0.9882 0.1534 147.2067 866.2142)" class="st46" cx="579.1" cy="347.2" rx="8.3" ry="13.2"/>
	
		<ellipse transform="matrix(0.9982 -5.991349e-02 5.991349e-02 0.9982 -20.3554 34.8133)" class="st46" cx="570.4" cy="356.8" rx="12" ry="8.2"/>
	
		<ellipse transform="matrix(0.172 -0.9851 0.9851 0.172 74.4804 795.2058)" class="st46" cx="510.3" cy="353.3" rx="7.7" ry="10.7"/>
	<circle class="st46" cx="519.2" cy="361.1" r="4.3"/>
	<ellipse class="st46" cx="516.8" cy="368.1" rx="4.3" ry="3.3"/>
	<ellipse class="st46" cx="519.2" cy="373.9" rx="3.4" ry="3.2"/>
	<ellipse class="st46" cx="518.4" cy="377.8" rx="2.9" ry="2"/>
	<ellipse class="st46" cx="523.2" cy="378.7" rx="4" ry="2.8"/>
	<ellipse class="st46" cx="529" cy="376.9" rx="3.2" ry="2.9"/>
	
		<ellipse transform="matrix(0.9977 -6.818797e-02 6.818797e-02 0.9977 -23.4553 38.5059)" class="st46" cx="552.3" cy="362.8" rx="11" ry="6.9"/>
	<ellipse class="st46" cx="533.4" cy="372.5" rx="5.1" ry="4.4"/>
	<ellipse class="st46" cx="542" cy="371.3" rx="5.2" ry="3.7"/>
	<ellipse class="st46" cx="543.6" cy="351.2" rx="32.3" ry="13.6"/>
	<ellipse class="st46" cx="533.4" cy="364.8" rx="15.8" ry="9"/>
	<ellipse class="st46" cx="524.2" cy="372.9" rx="5.8" ry="4.9"/>
	<rect x="30.7" y="398.1" transform="matrix(0.834 -0.5517 0.5517 0.834 -215.1181 96.1597)" width="43.2" height="15.1"/>
	<rect x="70.6" y="384.8" transform="matrix(0.595 0.8038 -0.8038 0.595 344.4066 98.4986)" width="7.8" height="12.4"/>
	<ellipse cx="100" cy="374.1" rx="28.7" ry="29"/>
	<ellipse class="st46" cx="100" cy="374.1" rx="21.1" ry="21.2"/>
	<ellipse class="st47" cx="103.4" cy="233" rx="18.7" ry="41.1"/>
	
		<ellipse transform="matrix(0.8156 -0.5786 0.5786 0.8156 -115.2918 102.6533)" class="st47" cx="103.4" cy="232.2" rx="48.7" ry="16.7"/>
	
		<ellipse transform="matrix(0.5786 -0.8156 0.8156 0.5786 -147.6856 183.1395)" class="st47" cx="103.4" cy="234.5" rx="16.7" ry="48.7"/>
	<ellipse class="st48" cx="103.3" cy="234.2" rx="8" ry="7.2"/>
	<ellipse class="st48" cx="69.5" cy="243.1" rx="6.4" ry="5.5"/>
	<ellipse class="st48" cx="98.2" cy="195.3" rx="6.1" ry="5.2"/>
	<ellipse class="st48" cx="143.6" cy="252" rx="6.1" ry="5.2"/>
	<g id="XMLID_1_">
		<g>
			<path class="st49" d="M276.4,83l60.2,131.3L209.4,135L276.4,83z M296.9,171.9l-31-59.4l-28.1,20.6L296.9,171.9z"/>
		</g>
		<g>
			<polygon class="st50" points="276.4,83 336.6,214.3 209.4,135 			"/>
			<polygon class="st50" points="237.8,133.1 296.9,171.9 265.9,112.5 			"/>
		</g>
	</g>
	<line class="st51" x1="456.4" y1="123.8" x2="450.6" y2="220"/>
	<path class="st51" d="M439.8,137.5c3.7-1.1,7.7-1.7,11.9-1.7c21.8,0,39.5,16.6,39.5,37.1S473.5,210,451.6,210
		c-7.5,0-14.6-2-20.6-5.4"/>
	<polygon class="st52" points="487.7,215.4 474.3,222.8 465.1,207.6 478.5,200.2 	"/>
</g>
<g id="Camada_4_1_">
	<path class="st52" d="M502.5,207c-1.6-1-4.6-2.4-8.4-2.4c-3.3,0-5.7,1-8.9,2.4c-2.1,0.9-2.3,1.2-10.6,6.2c-4,2.5-4.3,2.6-5.3,3.4
		c-1.7,1.4-4.4,3.6-6.2,7.4c-1.4,3-1.9,5.8-1.9,7.9L502.5,207z"/>
</g>
<g id="Camada_5_1_">
	<ellipse class="st46" cx="451.8" cy="171.9" rx="29.2" ry="29.1"/>
</g>
<g id="Camada_6_1_">
	<path class="st53" d="M480.7,165.7c-2.9-13-14.6-22.7-28.5-22.7c-5.1,0-9.9,1.3-14.1,3.6l-0.7,2.8l3.7,6.3l3.4,1.7l5,0.2l3.7-3.3
		l4.1-1.5l7.4,7.6l0.6,3.9l9.7,6l4-1.8L480.7,165.7z"/>
	<path class="st53" d="M452,201.1c-12.1-0.1-22.4-7.5-26.7-18l0.9-3.6l5.4-3l1.8-4.1l3.1,2.8l-0.3,4.6l-4.2,4.8l-0.1,4.3l5.2,0.7
		l2.8-1l4.6,2.7l-3.1-8.3v-3.5l5.7,0.9l1.9-2.6l2.7,4.2l5.3-2.3l-0.5,4.4l-4.7,3.3l3.2,0.1l1.4,1.9l0.5,0.7l-3.1,1.8l-1.7,4.6
		L452,201.1z"/>
	<path class="st54" d="M444,156.9"/>
</g>
<g id="Camada_3_1_">
	<line class="st55" x1="273.6" y1="168.8" x2="270.8" y2="174"/>
	<line class="st56" x1="252.4" y1="156.4" x2="249.6" y2="160.8"/>
	<line class="st56" x1="261.4" y1="162.3" x2="258.9" y2="166.5"/>
	<line class="st55" x1="232.4" y1="143.2" x2="229.4" y2="147.9"/>
	<line class="st55" x1="221.1" y1="137" x2="218.6" y2="141.4"/>
	<line class="st55" x1="242.1" y1="149.1" x2="239.1" y2="154.1"/>
	<line class="st55" x1="282.8" y1="174.9" x2="280" y2="179.6"/>
	<line class="st55" x1="292.2" y1="181.5" x2="289.7" y2="185.6"/>
	<line class="st56" x1="302" y1="188" x2="299.9" y2="192"/>
	<line class="st55" x1="293.1" y1="153.9" x2="288.3" y2="156.6"/>
	<line class="st56" x1="289.6" y1="146.6" x2="284.7" y2="149.6"/>
	<line class="st56" x1="285.2" y1="137" x2="279.8" y2="140.2"/>
	<line class="st55" x1="281.7" y1="128.4" x2="275.4" y2="131.7"/>
	<line class="st57" x1="277.3" y1="118.7" x2="270.5" y2="122.6"/>
	<line class="st57" x1="273" y1="110.5" x2="266.3" y2="114.5"/>
	<line class="st55" x1="296.5" y1="161.7" x2="292.2" y2="163.9"/>
	<line class="st56" x1="298.7" y1="168.3" x2="295.1" y2="169.6"/>
	<line class="st57" x1="229.4" y1="126" x2="225.8" y2="121.6"/>
	<line class="st57" x1="239.1" y1="117.1" x2="236.3" y2="113.4"/>
	<line class="st57" x1="248.6" y1="112.5" x2="244.1" y2="107.3"/>
	<line class="st57" x1="257.2" y1="103.5" x2="254" y2="99.6"/>
	<line class="st56" x1="265.5" y1="98.9" x2="261.7" y2="93.6"/>
</g>
</svg>
