<?xml version="1.0" encoding="utf-8"?>
<!-- Generator: Adobe Illustrator 23.0.1, SVG Export Plug-In . SVG Version: 6.00 Build 0)  -->
<svg version="1.1" id="Camada_1" xmlns="http://www.w3.org/2000/svg" xmlns:xlink="http://www.w3.org/1999/xlink" x="0px" y="0px"
	 viewBox="0 0 612 792" style="enable-background:new 0 0 612 792;" xml:space="preserve">
<style type="text/css">
	.st0{display:none;}
	.st1{display:inline;fill:none;stroke:#6D6A69;stroke-miterlimit:10;}
	.st2{fill:#DBDDE5;stroke:#455771;stroke-miterlimit:10;}
	.st3{fill:#8592A4;stroke:#8592A4;stroke-miterlimit:10;}
	.st4{fill:#D6CFC9;}
	.st5{fill:#6A7A8B;stroke:#6A7A8B;stroke-miterlimit:10;}
	.st6{fill:#CC6540;stroke:#CC6540;stroke-miterlimit:10;}
	.st7{fill:#F8EEE0;stroke:#F8EEE0;stroke-miterlimit:10;}
	.st8{fill:#D19022;stroke:#D19022;stroke-miterlimit:10;}
	.st9{fill:#271F1B;stroke:#271F1B;stroke-miterlimit:10;}
	.st10{fill:#2E2F29;stroke:#2E2F29;}
	.st11{fill:#F1E7DA;}
	.st12{fill:#4E5355;stroke:#4E5355;}
	.st13{fill:none;stroke:#000000;stroke-miterlimit:10;}
	.st14{fill:none;stroke:#6A7A8B;stroke-width:3;stroke-miterlimit:10;}
	.st15{opacity:0.46;fill:none;stroke:#6A7A8B;stroke-width:3;stroke-miterlimit:10;enable-background:new    ;}
	.st16{fill:#455771;stroke:#455771;stroke-miterlimit:10;}
	.st17{fill:#939FAD;stroke:#939FAD;stroke-miterlimit:10;}
	.st18{opacity:0.35;fill:#6A7A8B;stroke:#6A7A8B;stroke-miterlimit:10;enable-background:new    ;}
	.st19{fill:none;stroke:#000000;stroke-width:3;stroke-miterlimit:10;}
	.st20{fill:#FFFFFF;}
	.st21{opacity:0.47;fill:url(#SVGID_1_);enable-background:new    ;}
	.st22{fill:#DDDBCE;stroke:#B5A8A1;stroke-miterlimit:10;}
	.st23{fill:url(#SVGID_2_);stroke:#9B9B9B;stroke-miterlimit:10;}
	.st24{fill:url(#SVGID_3_);stroke:#9B9B9B;stroke-miterlimit:10;}
	.st25{opacity:0.47;fill:#FFFFFF;enable-background:new    ;}
	.st26{opacity:0.47;fill:url(#SVGID_4_);enable-background:new    ;}
	.st27{fill:#CC6540;stroke:#BF5E40;stroke-width:3;stroke-miterlimit:10;}
	.st28{fill:none;stroke:#BF5E40;stroke-width:3;stroke-miterlimit:10;}
	.st29{fill:none;stroke:#BF5E40;stroke-width:4;stroke-miterlimit:10;}
	.st30{opacity:0.61;fill:none;stroke:#6D6B61;stroke-miterlimit:10;enable-background:new    ;}
	.st31{fill:#BF5E40;stroke:#BF5E40;stroke-width:3;stroke-miterlimit:10;}
	.st32{opacity:0.36;fill:#908A85;enable-background:new    ;}
	.st33{fill:none;stroke:#6D6A69;stroke-miterlimit:10;}
	.st34{fill:none;stroke:#DDDBCE;stroke-miterlimit:10;}
	.st35{fill:#C95B3A;stroke:#C95B3A;stroke-miterlimit:10;}
	.st36{fill:#DBDDE5;stroke:#C1CCD6;stroke-miterlimit:10;}
	.st37{fill:none;stroke:#D6CFC9;}
	.st38{fill:#FFFFFF;stroke:#FFFFFF;stroke-miterlimit:10;}
</style>
<g class="st0">
	
		<image style="display:inline;overflow:visible;opacity:0.61;enable-background:new    ;" width="450" height="447" xlink:href="35416128-ilustración-de-un-búho-que-sonríe-feliz-durante-el-uso-de-su-computadora-portátil.jpg"  transform="matrix(1.259 0 0 1.2706 22.7152 111.6575)">
	</image>
	<line class="st1" x1="306" y1="565" x2="343.4" y2="588.6"/>
	<line class="st1" x1="324.7" y1="557.3" x2="350.2" y2="573.1"/>
	<polyline class="st1" points="343.4,551.7 354.7,560.1 285.5,587.2 	"/>
	<line class="st1" x1="349" y1="576.8" x2="300.3" y2="596.6"/>
</g>
<g id="Camada_12">
	<path class="st2" d="M471.4,462.8C481.8,448,450,411.7,430,389c-8.2-9.4-15-15.8-23.8-15.8c-10.9,0-15.7,9.9-30.2,18.7
		c-11.1,6.8-20.6,8.3-39.6,11.5c-12.9,2.2-45.2,7.5-82.8-2.2c-16.5-4.3-23.2-8.6-37.3-7.2c-3.5,0.3-29.2,3.2-34.7,17.3
		c-5.1,13.3,12.3,24.4,35.3,59c29.4,44.2,23.4,59.7,45.4,73.4c21.3,13.3,45.5,10.3,64.8,7.9c4.3-0.5,8.9-1.3,14.2-2.7
		c4.8-1.3,11.7-3.2,16.5-6.3c10.8-7,7.6-18,19.7-43.5c4.6-9.6,6.8-14.4,10.8-18c8.6-7.8,18.3-8.3,41.8-10.8
		C456,467.5,469.1,466,471.4,462.8z"/>
	<path class="st2" d="M411.5,518.1c0.7-0.3,1.3-0.6,2-0.9"/>
</g>
<g id="Camada_13">
	<path class="st3" d="M466.6,428.7c1.3-6.8-4.7-31.2-15.1-47.9c-9.3-15-24.4-27.5-30.2-24.5c-3.5,1.8-2.4,8.8-9,13
		c-3.2,2-5.7,1.9-6.1,3.6c-0.5,2.4,4,4.5,9.4,9c6.8,5.8,10.6,11.7,13,15.5c1.4,2.2,3.4,7.1,7.6,16.9c4.9,11.7,6.5,16.5,6.5,22.7
		c0,2.7,0,4.9-1.1,7.6c-1.7,4.4-4.4,5.8-7.2,11.2c-1.1,2.2-1.8,4.2-2.2,5.4l-0.6,2.8c9-2.6,30.1-8.8,34.3-10
		c12.2-3.6,12.1-3.6,12.2-3.6c6.3-1.4,9.4-1.3,9.7-2.9c0.7-2.7-7.9-7.3-8.9-7.8c-5.2-2.8-7.2-3.4-7.2-3.4c-2.1-0.7-3.4-0.9-4.3-2.2"
		/>
</g>
<g id="Camada_14">
	<path class="st3" d="M220.5,392.5c1.9,0.2,7.6,0.6,15.2,2.2c7.9,1.7,12.3,3.6,17.9,5.3c9.1,2.8,16.1,3.6,26,4.6
		c24.5,2.7,44.4-0.4,56.8-2.5c13.6-2.2,20.4-3.3,29.9-6.7c22.6-8.1,37.8-21,50.1-31.6c13.3-11.5,18.5-15.6,22.2-22.1
		c2.5-4.3,6.8-13.2,7.6-24.8c0.9-14.9-4.7-26.4-7.6-32.4c-42.1-87.7-27.3-59.2-36.7-81c-2.1-4.8-6.4-15.1-15.1-27
		c-5.2-7.1-7.7-10.6-11.9-14c-13.7-11.3-31.9-11.6-58.3-11.9c-6.3-0.1-22.7,0-22.7,0c-2.1-7.2-8-11.9-14-11.9
		c-4.2,0-9.3,2.4-10.8,6.5c-1.9,5.3,3.2,11.2,2.2,11.9c-1.2,0.8-6.3-8.4-16.2-11.9c-5.2-1.8-12.8-2.3-15.1,1.1
		c-2.8,4,3.1,11.3,1.1,13c-2.3,1.9-9.8-7.6-16.2-5.4c-3.5,1.2-3.4,4.8-7.6,8.6c-4.9,4.5-10.7,4.8-14,5.4c-9.8,1.8-16.6,9.1-27,20.5
		c-1.5,1.6-26.7,29.7-28.1,65.9c-0.2,4-0.2,13.7-2.2,27c-1.6,11-2.5,16.6-5.4,21.6c-3.6,6.1-7.5,8.3-8.6,15.1
		c-0.2,1.2-1.5,8.4,2.2,10.8c2.6,1.7,6.6,0,8.7-1c6.1-2.7,9.5-7.8,9.7-7.7c0.3,0.2-13.7,12.6-10.8,20.5c1.3,3.6,6.1,6.3,9.7,5.4
		c5.9-1.4,7.4-12.2,8.6-11.9c1.3,0.3-3.4,11.5-1.1,21.6C164.1,378.8,204.5,391,220.5,392.5z"/>
	<path class="st4" d="M324.9,258.5c0.8,0.6,5-6.3,12.2-12.2c1.2-1,12.1-9.7,25.9-11.9c2.5-0.4,6.3-0.8,11.9-2.2
		c3.2-0.8,2.7-0.9,8.8-2.5c4.5-1.2,6-1.5,5.9-2c0-1-6.1-1.6-9.7-1.8c-6.3-0.3-11.1,0.3-12.6,0.5c-2.6,0.4-8.4,1.4-15.3,4.3
		c-3.8,1.6-8.4,3.5-13.5,7.7c-3.9,3.2-6.3,6.3-7.9,8.5c-1.4,1.8-2.8,3.9-4.1,6.7C325.7,255.4,324.4,258.1,324.9,258.5z"/>
</g>
<g id="Camada_41">
</g>
<g id="Camada_19">
	<path class="st5" d="M429.2,284.1c-1-3-2.5-7.2-4.9-11.9c-0.7-1.4-1.3-2.4-1.4-2.7c-11.1-20.5-7.4-30.9-18.3-37.9
		c-7.2-4.7-15.5-4.4-20.2-4.2c-5.5,0.2-8.9,1.4-25.3,7.6c-13.7,5.2-20.6,7.8-21.1,8.2c-14.5,12-7.4,34.4-17.3,37.9
		c-5.1,1.8-7.2-4-22.8-8.1c-9.8-2.6-10.9-0.8-20.4-3.4c-7.5-2-9.9-4-13.7-6.1"/>
	<path class="st5" d="M213.2,267c-0.2,0.2-0.5,0.4-0.7,0.6"/>
	<path class="st5" d="M204.4,272.1c-0.3,0.1-0.6,0.2-0.9,0.3"/>
	<path class="st5" d="M202.9,272.6c-10.5,1.2-21.1,1-31.6,2.1c-13,1.4-22.4,3.2-24.3-0.5c-1-1.9,1.4-6.4,3.2-8.8c0,0,0.7-1,1.4-1.8
		c5.2-5.5,33.9,1.9,51.8-5.3c12.8-5.1,8.8-13.1,20.2-17.3c21.3-7.8,38.1,19.2,63.8,13.9c3.9-0.8,3.6-1.4,25-16.3
		c21.7-15.1,44.9-30.4,68.6-36c4.8-1.1,16.6-3.5,20.9,1.9c0.6,0.7,0.7,1.3,2.4,5.8c1.5,4.1,3.1,8.1,4.6,12.2
		c1.5,4.2,2.5,6.1,8.8,19.2c12,25.1,12.7,27.3,17.5,36.8c0.5,0.9,1.8,3.5,3.3,7c2.2,4.8,3.9,8.5,5.2,12.7c2.5,8.1,2.5,15,2.5,17.2
		c0,3.2-0.4,9.2-2.7,16.3c-0.9,2.9-2,5.2-2.5,6.4c-0.7,1.4-2.1,4.5-4.3,7.6c-4.7,6.8-10.8,10.7-10.4,11.2c0.1,0.1,0.6-0.2,0.7-0.1
		c0.3,0.4-6.6,5.2-14.6,11.6c-4.2,3.4-5.8,4.9-6,4.7c-0.4-0.4,5.9-6.9,14.5-17.3c7.2-8.7,10.8-13,12.5-16.3
		c6.1-12,5.6-23.5,5.3-27.4c0,0-1-12.2-7.7-23C406.5,249.2,241.7,268.1,202.9,272.6z"/>
</g>
<g id="Camada_15">
	<path class="st6" d="M318,297.5c-1.6,0.6,0.9,7.9-1.4,19.2c-0.9,4.2-3.5,17.1-12.2,24.8c-2.1,1.8-3,2.1-3.2,3.4
		c-1,5.8,14.1,11.2,22.9,25.2c4.3,6.8,6.1,12,6.1,12c1.6,4.7,1.6,7,2.5,7.3c2.8,0.8,6.9-25.1,14-35.1c1.3-1.8,2.5-3.7,3.9-5.5
		c3.5-4.5,5.6-6,5.4-8c-0.2-2.1-2.6-3.4-3.5-3.8c0,0-10.5-5.6-22.3-18.3C321.1,309,320.1,296.8,318,297.5z"/>
	<ellipse class="st7" cx="245.4" cy="306.8" rx="53.2" ry="46.4"/>
	<ellipse class="st7" cx="375.9" cy="272.8" rx="53.2" ry="46.4"/>
</g>
<g id="Camada_39">
</g>
<g id="Camada_16">
	<circle class="st8" cx="386.9" cy="287.3" r="26.9"/>
	
		<ellipse transform="matrix(0.3162 -0.9487 0.9487 0.3162 -130.8239 462.8936)" class="st8" cx="255.7" cy="322.2" rx="26.9" ry="26.9"/>
	<circle class="st9" cx="257.6" cy="324.3" r="22.1"/>
	<circle class="st9" cx="388.9" cy="289.3" r="22.1"/>
</g>
<g id="Camada_33">
	<path class="st5" d="M236.6,254.8c0.4-0.1,0.9-0.2,1.3-0.3"/>
	<path class="st5" d="M241.2,253.8c3-0.6,6-1.2,9-1.9"/>
	<path class="st5" d="M369.7,163c-1.8,0.1-3-0.7-3.6-1c-3.8-1.7-11.7,6.2-16.2,10.1c-9.7,8.4-15,12.2-18.2,15.4
		c-4.9,4.7-8.4,8.1-12.5,13.4c-3.5,4.6-6.8,10.8-9.1,14.4c-2.1,3.4-2.7,5.4-3.8,5.2c-1.6-0.2-0.8-6.3-3.4-11
		c-4.6-8.5-17.1-9.5-18.7-9.6c-11.7-0.8-19.6,6.3-21.1,7.7c-3.6,3.3-6.3,5.8-6.7,9.6c-0.8,7.7,8.4,13.1,6.7,15.8
		c-0.4,0.7-1.5,1.1-12-0.5c-7-1.1-9.7-1.8-14.4-2.4c0,0-6.2-0.8-12.5-1c-6.1-0.1-9,0.5-25.4,3.4c-7.7,1.3-15.3,3.3-23,4.3
		c-5.5,0.7-11.8,1.4-16.3,6.2c-1.1,1.1-2.8,3-2.4,4.8c1.1,5,19.7,3.8,19.7,4.8c0,1.1-24-0.8-28.5,9.1c-1,2.1-1.1,4.9-0.3,6.8
		c3.5,7.7,24.6,7.4,40.2-0.3c6.5-3.2,5.5-4.5,13.6-9.8c19.7-12.9,45.9-18.8,54.7-10.1c1.3,1.3,2.5,3.1,5.3,4.2
		c6,2.3,12.6-1.7,14.4-2.7c19.6-11.1,41.5,4.1,57.2-10c8.8-7.9,7.4-17.5,15.5-19.1c6.9-1.3,15.7,4,19.8-0.4c0.2-0.3,0.4-0.5,0.6-0.7
		c7.3-10.7,14.4-34.9,12.5-41.8c-0.6-2.1-3.7-5.3-2.8-6.4c0.7-0.8,2.7,0.2,3-0.4c0.4-0.7-1.7-2-4.9-5.7c-1.8-2.1-2.3-3-3.5-3.2
		C372,162,371.5,162.9,369.7,163z"/>
	<path class="st5" d="M232.7,454.6c-8.5,2.8-18.3,6.9-28.4,13.2c-4.8,3-11.2,7.1-18.4,14c-4.3,4.2-6.8,7.5-7.2,7.2
		c-0.6-0.4,4.6-8.7,16.6-27.4c15.5-24.2,23.4-36.6,24.8-49c0.1-1.2,0.5-5,1.1-5c1.1,0,2.1,12.2,2.5,18.7c0.3,6,0.4,11.2,0.4,11.2
		c0,3.9,0,5.8,0,6.1c-0.2,2.4-0.5,3.5,0,5.4c0.2,0.8,0.6,2.3,1.8,3.6C228.3,455.2,232.1,454.6,232.7,454.6z"/>
</g>
<g id="Camada_18">
	<path class="st3" d="M242.8,252.2c1.2,0,2.5,0,3.9,0.1"/>
	<path class="st3" d="M275.2,261.2c1.8,1.1,2.9,1.7,2.9,1.7c3.9,2.5,5,3.7,8,5.4c1,0.6,2.2,1.1,3.5,1.7c3.8,1.6,9.4,4,15.2,2.9
		c6-1.2,9.7-5.6,14-11.1c15.5-19.8,13.5-21.1,19.4-27c11.3-11.1,26.7-14.8,42.1-18.4c9.6-2.2,9.3-1.1,16.2-3.2
		c5.8-1.8,21.8-7,32.4-21.6c4.6-6.4,8.7-15.2,6.5-17.3c-1.6-1.5-5.5,1.9-14,4.3c-9.9,2.9-20.1,2.8-20.5,1.1
		c-0.5-2.1,15.4-3.7,25.9-16.2c8.2-9.8,10.9-23.7,7.6-25.9c-2.6-1.7-8,4.2-18.4,11.9c-23.8,17.7-48.2,26.1-49.7,23.8
		c-0.9-1.4,6.5-5.9,14-18.4c1-1.6,7-11.6,5.4-13c-1.6-1.3-9.6,6.9-27,22.7c-25.3,22.8-25.6,20.9-32.4,29.2
		c-13.7,16.8-17.8,31.3-22.7,30.2c-4.8-1.1-1.2-15.5-9.7-21.6c-10.7-7.6-34,2.5-34.6,10.8c-0.2,2.4,2.8,5.9,8.6,13
		c5.8,7,8.1,8.5,7.6,9.7c-1.2,2.8-15.4-2.9-33.5-5.4c-24.3-3.4-43.2,0.8-59.4,4.3c-4.7,1-21.9,4.8-21.6,7.6c0.4,4,36.4,2,36.7,5.4
		c0.2,1.9-14.2,3.5-32.4,8.6c-17.1,4.8-37.2,11.9-36.7,14s19.6-1.7,46.4-3.2c0.8,0,2.2-0.1,4.1-0.3c0,0,4.6-0.3,9.2-0.8
		c7-0.7,26.6-5.3,32.4-6.6C220.8,259.7,258.7,251.4,275.2,261.2z"/>
</g>
<g id="Camada_44">
</g>
<g id="Camada_40">
	<path class="st4" d="M270,265.1c-0.8-0.4-1.9-0.9-3.2-1.4c-0.9-0.4-4.8-1.9-11.2-2.9c-2.3-0.4-6.6-1-12.2-0.9
		c-4.2,0.1-12.8,0.4-22.7,4.9c-3.1,1.4-7.5,3.8-12.1,7.6L270,265.1z"/>
</g>
<g id="Camada_17">
	<g>
		<path class="st10" d="M438.5,222.2c0.6,0.7,0.8,1.1,0.8,1.1c-0.1,0-1.4-1.2-3.8-3.6 M439.6,223.9c0,0,6.9,14.6,3.8,23.8
			c-0.2,0.5-0.3,1-0.3,1l0,0c-1.5,3.4-4,4.8-5.4,6.5c-1.7,2-2.1,4.2-2.7,7.9c-1.7,10.3,1.6,16.4,0.8,28.3
			c-0.3,5.3-0.8,10.9-4.5,16.3c-2.6,3.8-5.8,6-8.6,7.7c-18.6,11.3-41.3,13-41.3,13c-16.5,1.2-24.7,1.8-33-3
			c-12.6-7.3-22.1-24.4-23.2-26.4c0-0.1-0.2-0.5-0.6-0.9c-4.4-7.7-8.2-14.3-10.9-13.8c-0.6,0.2-1.2,0.6-2.4,1.8
			c-0.8,0.7-1.6,1.5-2.1,2.5c-0.1,0.1-0.1,0.1-0.7,1.6c-0.4,0.9-0.6,1.5-0.7,1.6c-1.1,2.7-2.5,23.4-2.5,23.4c-0.3,4.5-1,13.1-6,21.7
			c-2.3,4-4.8,6.6-6.1,7.9c-8,8.2-23.7,17.7-43.4,18.2c-7.1,0.2-31.5,0.8-40.8-13.2c-2.1-3.3-9.3-16.1-12.6-22.2
			c-1.4-2.6-3.4-6.2-6.9-7.2c-1.5-0.4-3.4-0.3-6.1-1.5c0,0-1.5-0.7-2.9-1.7c-3.3-2.5-4.3-7.5-6.4-22.4c-0.7-4.3-1-7.6,0.8-9.1
			c1.3-1.1,3.2-1,3.7-1c6.9,0.4,22.5-4.2,53.7-13.3c0.4-0.1,1.3-0.3,2.4-0.7c2.6-0.7,7-1.7,12.6-2.3c0.1,0,0.1,0,0.2-0.1
			c10.9-1.2,17.3-2.3,23.4-2.3c0.1,0,0.4,0,0.7,0c0,0,4.1,0,8.2,0.8c6.1,1.1,9.4,4,17.1,5.4c3.6,0.7,5.4,1,7.8,0.8c0,0,8-1,16.6-9.5
			c0.5-0.5,1-1,1-1c0.5-0.5,0.7-0.8,1.5-1.8c0.3-0.4,0.6-0.8,0.9-1.1c10.8-12.5,24.7-18.6,24.7-18.6c1.9-0.7,3.9-1.4,5.8-2.1
			c33.8-11.7,49.4-15.8,56.2-16.6c1.7-0.2,3.7-0.3,7-0.9c10.3-1.9,14.2-5.1,17.8-3.1C437.4,219.1,438.1,220.7,439.6,223.9z
			 M298.7,304.6c0.3-8.4-1.8-13-3-15c-2.2-4-5.1-6.6-7.1-8c-10.5-5.9-22-8-33.9-7.3c-4.2,0.6-10.3,1.6-17.5,3
			c-16.4,3.3-24.8,5-29.5,9.4c-6.7,6.3-9.7,16.1-8.6,24.3c0.2,1.4,2.1,5.8,5.8,14.5c3.5,8.1,6.7,14.7,8,17.3
			c0.1,0.2,0.2,0.3,0.2,0.3c6.6,13,25.9,14,30.1,14.2c6.3,0.3,11.1-0.7,14-1.2c3.6-0.8,12.5-2.7,20.9-8.5
			C297.7,333.5,298.6,308.7,298.7,304.6z M356.4,319.6C356.6,319.6,356.1,319.5,356.4,319.6c0.1,0.1,0.3,0.1,0.5,0.2 M345.2,257.8
			c-7.2,5.6-9.8,9.4-10.6,10.9c-0.9,1.5-2.3,3.7-3,6.5c-1.1,4.3-0.7,9.5,3.6,18.4c6.1,12.4,10.5,21.5,20.7,25.4
			c10,4,22.8,1.7,28.8,0.7c0.3-0.1,0.7-0.1,0.9-0.1c5.3-0.9,11-2,17.3-3.9c4.6-1.4,8.3-2.7,12.6-5.5c2.5-1.7,6-4,8.8-8.4
			c2.5-3.9,3.1-7.6,3.5-10c0.5-3,0.5-5.4,0.5-6.5c-0.1-11.8,0.8-28-2.8-40.6c-0.3-1-0.8-2.6-2.2-4.2c-3.5-3.7-9.3-3.6-11.9-3.3
			c-0.2,0-0.6-0.2-0.8-0.2c0,0-0.3-0.1-0.8-0.1c-25.8-1.4-53,13.3-53,13.3C355.3,251,350.7,253.5,345.2,257.8z"/>
	</g>
	<path class="st11" d="M236.5,310.5c1.5-2.4,5.5-2,9,0.9s5.2,7.2,3.7,9.6s-6.5,2-10-0.9C235.7,317.2,235.1,312.9,236.5,310.5z"/>
	<path class="st11" d="M369.6,273.8c1.5-2.4,5.5-2,9,0.9s5.2,7.2,3.7,9.6s-6.5,2-10-0.9S368.1,276.2,369.6,273.8z"/>
	<path class="st12" d="M299.5,290.1c0.3-1.5,2.1-6.8,3.4-9.7c2.2-4.4,8.1-5.8,9.5-6.3"/>
	<path class="st12" d="M177,298.9c-0.3-3.1-0.5-5.7-0.7-8.2c-0.1-1-0.1-1.8,0.4-2.5c0.9-1.2,2.7-0.7,5.8-0.7
		c1.3-0.1,3.7-0.5,8.2-1.4c1.8-0.4,3.1-0.7,5.8-1.3c3-0.7,5.7-1.3,8.1-1.9"/>
	<path class="st12" d="M436.5,225.6c-0.3-0.7-0.8-1.6-1.4-2.5c-0.9-1.3-1.3-2-2.1-2.4c-2.3-1.3-5.1,1.4-9.8,3.3
		c-3.6,1.5-4.1,0.7-12,2.1c-3,0.5-7.2,1.5-12.2,3l-9.9,2.9l-8.6,2.5"/>
</g>
<g id="Camada_3">
	<path class="st3" d="M135.9,552.2c-21.6,0.5-37.4,0.1-39.4-1.3c-1.1-0.8-1.6-1.8-1.6-1.8c-0.8-1.6-0.3-3.2-0.3-3.6
		c0.3-1.4,1.4-2.6,3.7-4.5c2.4-1.9,5.1-2.9,9.6-3.8c5.8-1.2,10.6-1.4,13.4-1.4c3.9-0.1,9.1,0.1,15.4,1c1.4-0.4,3.5-0.7,5.8,0
		c2.9,0.8,4.5,2.8,6.2,4.8c6,6.8,4,3.4,9.1,9.6c5.9,7.1,8.8,10.7,11,15.4c3.7,7.7,4.5,14.4,4.8,17.8c0.8,8,1.3,12.5-1.4,16.3
		c-2.6,3.6-6.8,4.9-17.8,6.2c-15.6,2-26.9,1.9-26.9,1.9c-25.1-0.1-22.9,1.8-48,1.4c-15.9-0.2-11.5-0.9-29.3-1.4c0,0-3.8-0.1-9.1-1
		c-11.1-1.8-14-4.4-14.9-5.3c-0.9-0.9-3.9-3.8-3.6-7.7c0.2-2.2,1.4-3.9,2.6-5.3c9.2-10.4,21.1-12.5,21.1-12.5
		c4.9-0.8,8.7-0.9,9.5-0.8c12.4,0.4,41.9,1,81.7,1.9"/>
	<path class="st3" d="M272,490.1c4.9,0.7,16.3,3.5,25,10.8c2.3,1.9,8.9,10.7,12.6,18.9c2.4,5.2-1.9,15.7-12.2,14.9
		c-5.1-0.4-13.2-11.2-12.6-11.3c0.9-0.2-7.3-16.8-20-18.2"/>
	<path class="st3" d="M285.5,474.4c5.9,0.3,16.2,1.7,25.4,8.6c5,3.8,8.1,7.9,10.1,10.6c1.6,2.2,6.4,8.9,9.6,19.2
		c1.9,6,3.9,12.7,2.4,21.1c0,0.1,0,0.1,0,0.3c-0.5,2.9-3.6,4.7-4.9,5.3c-3.7,1.5-9.1-2.1-11.9-6.1c-3.4-4.8-1.5-8.2-4.7-15.1
		c-1.8-3.9-13.7-15.4-15.4-17"/>
	<path class="st13" d="M312.9,527.2"/>
	<path class="st13" d="M323.4,541.1"/>
	<path class="st3" d="M138.4,578.9l-80.6-3.4c-0.8-0.5-3.2-0.4-4.6-2.4c-1.4-2-1.1-4.5-1-5.8c0.4-3.6,2.4-6.1,3.4-7.2
		c0.6-0.7,3.4-4,10.1-6.2c9-3.1,17.5-2.3,22.2-2.7l50.6,0.4"/>
	<path class="st5" d="M470.3,597L403,617.2c3.2,0.7,9.5,1.3,15.1,2.2c9.8,1.5,14.7,2.3,21.1,2.4c6.7,0.1,12.3-0.6,23.5-1.9
		c4.4-0.5,12.8-1.8,15.3-2.2"/>
</g>
<g id="Camada_37">
	<path class="st5" d="M25.4,589.6c2.1-0.7,3.6,3.6,8.6,7.2c3.7,2.6,7.3,3.3,22.1,4.8c8.9,0.9,13.4,1.2,18.2,1.4
		c12.9,0.5,26.5,1.1,43.2,0c4.8-0.3,12-0.9,22.1-0.5c0.4,0,2.1,0.4,4.6,0.6c2.2,0.2,4.1,0.2,5.1,0.1c6.4-0.3,7.9-3.6,12.4-3.1
		c3.2,0.4,6.4,2.5,6.2,3.9c-0.3,1.9-6.8,2.4-13.4,2.9c-25.7,1.8-47,2.4-47.1,2.5c-17.5,0.5-17.5,1-27.8,0.9
		c-11-0.1-8.7-0.5-29.3-1.4c0,0-4.2-0.2-11.1-1.3c-4.7-0.8-6.9-1.4-9.1-2.6c-2.3-1.2-4.7-2.5-6-5.2
		C22.1,595.9,23.2,590.3,25.4,589.6z"/>
	<path class="st5" d="M55.6,560.1c0.9,0.1,0.4,2.6,1.8,4.9c2.1,3.3,6.6,4,9,4.3c20.6,2.7,62.3,2.2,62.3,2.2c5.9-0.1,5.7,0.2,9.7,0
		c7.7-0.4,10.8-1.6,12.6,0.4c1.4,1.6,1.4,4.7,0,6.1c-1.4,1.4-3.5,0.6-9.1,0.2c-2.5-0.2-5,0-7.4-0.1c-44.6-1.5-66.9-2.3-67.3-2.2
		c0,0-4.3,0.8-9.3-0.4c-2.7-0.7-3.9-1.5-4.6-2.4c-1.4-1.8-1.1-4.1-1-5.8C52.6,563.7,54.5,559.9,55.6,560.1z"/>
	<path class="st5" d="M105.2,537.9c0.5,0.6-3.7,3.2-3.1,5.7c0.4,1.7,2.9,2.6,4.3,3.1c1.8,0.6,3.3,0.7,3.6,0.7
		c19.1,0.8,27.7,0,27.7,0c5.4-0.5,10-1.1,10.5,0.2c0.2,0.7-0.8,1.7-0.9,1.8c-1.3,1.3-3.1,1.2-4.9,1.3c-3.5,0.1-3,0.7-7,0.9
		c-10,0.7-19.4-0.8-27.5-0.2c-2.9,0.2-5.8-0.5-8.6-0.1c-0.4,0.1-1.6,0.3-2.7-0.3c-1.2-0.6-1.7-1.9-1.8-2.2c-0.5-1.4-0.2-2.7-0.1-3.2
		c0.7-2.9,3.5-4.5,6.2-6C102.3,538.7,104.8,537.4,105.2,537.9z"/>
</g>
<g id="Camada_31">
	<path class="st14" d="M167,369.6c4.9-0.5,12.9-0.7,22.1,2.3c13.9,4.5,23.7,18,27.2,22.1"/>
</g>
<g id="Camada_32">
	<path class="st14" d="M216.3,394c2,0.1,7.6,0,10.8,0.5c1,0.1,5,0.7,11,2.2c4.8,1.2,5.1,1.6,12.5,3.8c3.6,1,6,1.7,9,2.4
		c2.3,0.5,6.1,1.3,13.8,2.3c6.4,0.8,13.5,1.6,23.1,1.8c8.1,0.1,14.1-0.3,18-0.6c2.7-0.2,11.9-1,24.7-3.3c13.7-2.5,20.8-3.8,30.3-7.5
		c10.1-3.9,17.5-8.4,21.7-11c7.4-4.5,16.3-11,16-11.5c-0.1-0.1-0.4,0-0.8,0.2"/>
</g>
<g id="Camada_11">
	<path class="st3" d="M140.8,516.7c-1.2,11.5-2.2,13.9-2.8,19.8c-1.4,13.3,0.7,25,2.5,34.6c2.6,14.1,4.8,26.6,13,40.3
		c1.4,2.3,7.2,11.9,18.7,22.3c33,29.8,76,33.7,93.6,35.3c9.8,0.9,37.6,3.4,50.4-3.6c1.9-1.1,7-4.2,14.2-4.7c7.1-0.5,10.1,2,12.4,0.6
		c5.2-2.9,2.4-21.2-5.1-40.5c-24.8-64.7-84.8-101.6-90.7-105.1c0,0-48.8-29.2-85-21.6c-4.2,0.9-15.4,3.2-19.4,11.5
		C141.5,508.1,141.6,509.8,140.8,516.7z"/>
</g>
<g id="Camada_26">
	<path class="st5" d="M201,558.8c0.9,0.2,2.2,0.5,4.4,1c7.4,1.9,10.9,3.3,16.5,4.1c0.9,0.1,1.9,0.2,3.2,0.2
		c11.9,0.1,14.9-4.4,34.7-10.1c14.9-4.3,25.7-5.3,25.8-8.6c0-1-1.1-1.5-8.1-7.3c-1.8-1.5-3.6-3.1-5.4-4.6
		c-12.6-10.3-19.8-21.9-29.2-25c-11.8-3.9-14.1,9.8-37.9,14.4c-18.6,3.6-38.7-0.6-56.2-4.3c-3.3-0.7-6-1.4-7.9-1.8
		c0,0.3,0,0.7,0,1.3C142.4,541.5,191.7,556.7,201,558.8z"/>
</g>
<g id="Camada_36">
</g>
<g id="Camada_29">
	<path class="st3" d="M323.4,497.1c3.5,4.4,8.7,8.6,10.1,11.4c4.2,8.2,6.2,12.3,7.7,18.2c0.5,2,0.8,3.8,2.4,5.3
		c2.6,2.4,7.4,2.9,10.6,1c3.8-2.3,4.1-7.6,4.3-11c0.6-12-5.3-21.9-8.6-26.9c-15-22.4-37-33.4-41.3-35.5c-14.9-7.4-36.3-18-58.6-11.5
		c-10.9,3.2-18.1,9.3-23,5.8c-4.3-3.1-1.9-10-2.9-25.2c-0.7-9.9-1-14.9-2.8-20.7c-3.8-12.4-11.2-20.4-13.5-22.8
		c-4.6-4.7-13.5-13.9-27.4-15.4c-18.2-2-31.6,10.7-35.2,14.1c-9.9,9.3-13.3,19.7-16.8,31c-8.6,27.4-5,50.9-3.6,58.3
		c3.1,16.6,6.8,36.9,24.5,52.6c15.9,14.1,34.1,16.6,39.6,17.3c12,1.5,26.3,3.3,37.4-5c6.8-5.1,10.4-12.4,20.9-15.1
		c2.8-0.7,6.4-1.6,10.1,0c5.1,2.2,4.8,6.8,10.1,9.4c3.4,1.6,8.8,2.2,12.2-0.7c4.1-3.5,3-9.9,2.9-10.8c-1.1-6-6.2-9.5-10.1-12.2
		c-3.3-2.3-6.4-3.6-8.6-4.3"/>
</g>
<g id="Camada_34">
	<path class="st15" d="M219,394"/>
</g>
<g id="Camada_35">
	<path class="st16" d="M313.7,462.2c-0.3,0.3,2.6,3,16.6,17.1c4.3,4.3,13.6,14.1,14.4,23.5c0,0.2,0,0.5,0,0.6
		c0.2,7.8-3.2,15.1-3.2,15.1l-1.7,3.2c-0.1,1.4,0.1,3.5,1.5,4.9c3.8,3.9,14.9,1.1,17.3-4.8c0.8-1.9,0.4-3.9-0.5-7.9
		c-1.5-6.9-3.9-11.7-4.2-12.3c-6.2-12.3-16.9-22.3-19.5-24.6C324.3,468,314.2,461.6,313.7,462.2z"/>
	<path class="st16" d="M323.4,497.1c0.6-0.1,1.3,1.4,2.7,4.6c2.5,6,3.9,9.1,5.6,14.8c2.6,8.1,2.6,9.6,1.8,11
		c-0.9,1.6-2.5,2.3-5.6,3.8c-4.3,2.1-9.2,3.1-9.2,3.1l0,0c0,0-3-1.3-3.6-3c-0.7-1.8,1.6-3.3,3.6-7.1c1.4-2.6,1.8-4.7,2.5-8.3
		c0.5-2.5,0.7-5.3,1.1-10.8C322.8,499.3,322.8,497.2,323.4,497.1z"/>
	<path class="st16" d="M297,500.9c1,1.2,2.3,2.9,3.9,4.9c1.4,1.8,2.7,3.5,4.1,5.7c2.5,3.7,3.8,5.6,4.5,8.3c0.8,2.9,0.5,4.9,0.4,5.3
		c-0.1,0.4-0.4,2.2-1.7,4.2c-1.4,2.3-3.2,3.4-3.7,3.7c-0.9,0.5-3.7,2.3-7.3,1.6c-1.2-0.2-3.5-0.5-4.1-1.9c-0.7-1.8,2-4.5,2.8-5.3
		C298.9,524.5,301,517.6,297,500.9z"/>
	<path class="st16" d="M268,505.9c0.9-0.8,5.5,2.5,8,4.8c2.1,1.9,3.2,3.4,3.5,3.9c1,1.4,2.3,3.3,2.9,6.1c0.2,1.1,0.6,3.2,0,5.7
		c-0.3,1.1-1.1,4.1-4.1,6c-2,1.2-5.2,2.3-6.3,1.2c-0.9-1,0.7-2.9,1.4-6.7c0.7-3.9-0.1-7.1-0.7-9.7
		C270.9,510.1,267.1,506.7,268,505.9z"/>
</g>
<g id="Camada_30">
	<path class="st17" d="M156.9,396.4c1-1.6,5.4-7.9,13.9-10.1c0.8-0.2,8.8-2.2,16.8,1.9c4.5,2.3,7.3,5.7,10.6,9.6
		c2.2,2.6,3.8,5,4.8,6.7"/>
	<path class="st17" d="M323.9,219c-4.3-5.9,26.4-36.4,28.8-34.6c1.3,0.9-5.7,10.1-3.4,12.5c4.2,4.2,33.6-18.7,35-16.8
		c0.8,1.1-8.6,8.6-7.2,11c1.4,2.3,11.6-2.2,12-1.4C390.1,191.7,329.4,226.6,323.9,219z"/>
	<path class="st17" d="M257.2,239.7c-11.3-2.1-20-3.5-25.9-4.3c-0.6-0.1-7-1-7.2,0c-0.3,1.1,7.8,2.9,7.7,5.3c0,0.7-0.8,2.3-20.2,7.2
		c-5.4,1.4-6.7,1.6-6.7,1.9c0.1,1,15.5,1.9,31.2-1.9C245.1,245.6,252.2,242.4,257.2,239.7z"/>
</g>
<g id="Camada_21">
	<path class="st18" d="M438.9,449c0.2-0.2,0.6-0.8,1.2-1.7c0.3-0.4,1.5-2.5,2.2-5.5s0.5-5.8,0.1-8.4c-0.3-2.4-1.1-6-5.3-16.7
		c-1.3-3.4-2.4-6.1-4.1-9.7c-2.9-6.4-4.4-9.6-6.8-13.2c-4.7-6.9-10.1-11.5-11.3-12.4c-4.9-4-7-4.4-7.8-5.8c-0.2-0.4-0.3-0.7-0.3-0.8
		c-0.5-1.9,1.1-2.8,2.2-3.4c2.6-1.4,8.1,3.4,11.7,7.1c3,3.1,5,5.7,5.4,6.2c3,3.9,7.6,9.8,11.8,18.6c5.2,10.7,7.2,20.1,8.5,26.4
		c0.5,2.2,0,4.6,1.1,7.8c0.4,1.2,3.2,9.3,10,12.1c2,0.8,6.2,1.9,6.2,1.9s4.4,4,4.3,6.2c-0.1,2.1-2.6,2.5-19.7,7.7
		c-3.2,1-7.5,2.3-12.5,1c-2.1-0.5-3.6-1-4.3-2.3C429.8,460.6,435,454,438.9,449z"/>
</g>
<g id="Camada_6">
	<path class="st19" d="M387.2,488.3"/>
</g>
<g id="Camada_25">
	<path class="st5" d="M299.1,627.8c-1.2,1.8,6.6,6.2,6.6,14.6c0,7.5-6.3,12.6-6.7,13c-5.7,4.6-13,4.1-17.3,3.8
		c-34.8-2.5-52.2-3.8-61.9-7.2c-10.4-3.6-20.8-7-31.2-10.6c-6-2-10.2-3.5-10.5-2.8c-0.6,1.1,9.7,7.4,17.1,11.3
		c10,5.3,18.3,8.4,23,10c8.3,2.8,14.7,4.2,18.9,5.1c9.2,2,16,2.7,24,3.6c8.3,0.9,18.7,1.7,30.8,1.5c4.8-0.1,9.2-0.3,14.5-1.4
		c5.8-1.3,10.2-2.2,14.3-5.5c4.3-3.4,9.3-10.2,8.6-17.4C327.7,630.3,301.2,624.7,299.1,627.8z"/>
</g>
<g id="Camada_28">
</g>
<g id="Camada_24">
	<path class="st5" d="M317.1,627.8c-2.3-0.7-3.9-1.3-15.7-7.9c-23.2-12.9-40.8-23.1-40.8-23.1c-13.1-7.6-28.9-11.7-39.4-22.6
		c-1.5-1.5-5.4-5.8-8.6-4.8c-2.9,0.9-4.6,5.7-3.8,9.6c1.1,5.3,6.9,7.9,13.4,11c10.1,4.8,19.6,10.8,29.8,15.4
		c17.1,7.6,25.6,11.3,30.7,13.9c23.5,12,35.2,18,35.5,18.2c1,0.9,3.8,3.6,6.2,2.9c2.7-0.8,4.7-5.4,3.4-8.2
		C326.6,629.4,322.7,629.4,317.1,627.8z"/>
</g>
<g id="Camada_9">
	<polygon class="st20" points="219.3,567.5 333.6,624.6 367.6,518.1 	"/>
	<linearGradient id="SVGID_1_" gradientUnits="userSpaceOnUse" x1="219.3" y1="571.35" x2="367.6" y2="571.35">
		<stop  offset="0" style="stop-color:#FFFFFF"/>
		<stop  offset="4.556743e-02" style="stop-color:#E0E0E0"/>
		<stop  offset="0.1031" style="stop-color:#C1C1C1"/>
		<stop  offset="0.1683" style="stop-color:#A6A6A5"/>
		<stop  offset="0.2419" style="stop-color:#90908F"/>
		<stop  offset="0.328" style="stop-color:#7F7F7E"/>
		<stop  offset="0.4343" style="stop-color:#747473"/>
		<stop  offset="0.5834" style="stop-color:#6D6D6C"/>
		<stop  offset="0.9975" style="stop-color:#6B6B6A"/>
		<stop  offset="1" style="stop-color:#000000"/>
	</linearGradient>
	<polygon class="st21" points="219.3,567.5 333.6,624.6 367.6,518.1 	"/>
</g>
<g id="Camada_8">
	<path class="st22" d="M368.9,543.7c-3,0.9-5.4,1.6-5.4,1.6l-47.4,15c-0.6,0.2-1.3,0.1-1.9-0.2l-17.4-9.8c-1.8-1-1.6-3.6,0.3-4.3
		l56.3-22.3c0.6-0.2,1.3-0.2,1.9,0.1c0,0,9.8,4.5,17.2,8L368.9,543.7z"/>
	<path class="st22" d="M376,538.9c0.3-0.2,0.5-0.4,0.7-0.6"/>
	<path class="st22" d="M337.9,553.8"/>
</g>
<g id="Camada_10">
	<linearGradient id="SVGID_2_" gradientUnits="userSpaceOnUse" x1="209.5952" y1="528.1296" x2="589.5829" y2="528.1296">
		<stop  offset="0" style="stop-color:#9E9E9E"/>
		<stop  offset="0.1216" style="stop-color:#A3A3A2"/>
		<stop  offset="0.2656" style="stop-color:#B1B1AD"/>
		<stop  offset="0.4205" style="stop-color:#C9C8BF"/>
		<stop  offset="0.5228" style="stop-color:#DDDBCE"/>
		<stop  offset="0.6904" style="stop-color:#CAC9C0"/>
		<stop  offset="0.9975" style="stop-color:#9E9E9E"/>
	</linearGradient>
	<path class="st23" d="M286.6,541c-12.8,3.3-28.2,7.5-40.6,11.4c-8,2.5-17.8,5.7-29.9,11.2c-0.5,0.2-3,0.4-4.7,2.2
		c-0.4,0.4-1.9,2.1-1.8,4.7c0.1,2.8,2.2,4.4,2.5,4.7l106.2,53.4c1,0.4,2.5,1,4.3,1.5s3.2,0.7,5.5,1c4,0.5,5.4,0.6,7.9,1
		c1.7,0.2,4,0.6,7,1.1l19.2-62.9l24.9-81.7L588.3,432c0.4-0.7,1.9-3.4,1-5.6c-1.2-2.9-6.4-4.6-12-2.2l-74.5,19.1
		c-65.5,19.2-108.9,31.9-112.3,32.8c-1.7,0.4-2.7,0.8-4.7,1.4c-3.4,1.1-4,1.6-4.3,1.8c-0.8,0.6-2.4,2.1-2.9,5.8l-45,139.6L268.3,592
		c0,0-20-10-34.4-17.2l-10.2-5.2L366.3,518L286.6,541z"/>
	<linearGradient id="SVGID_3_" gradientUnits="userSpaceOnUse" x1="232.9388" y1="561.8" x2="234.5264" y2="561.8">
		<stop  offset="0" style="stop-color:#9E9E9E"/>
		<stop  offset="0.1216" style="stop-color:#A3A3A2"/>
		<stop  offset="0.2656" style="stop-color:#B1B1AD"/>
		<stop  offset="0.4205" style="stop-color:#C9C8BF"/>
		<stop  offset="0.5228" style="stop-color:#DDDBCE"/>
		<stop  offset="0.6904" style="stop-color:#CAC9C0"/>
		<stop  offset="0.9975" style="stop-color:#9E9E9E"/>
	</linearGradient>
	<path class="st24" d="M232.9,562.1c0.5-0.2,1.1-0.4,1.6-0.6"/>
</g>
<g id="Camada_27">
</g>
<g id="Camada_7">
	<polygon class="st25" points="387.2,488.3 342.7,634.2 505.4,586.2 534,580.5 587.7,432.5 	"/>
	<linearGradient id="SVGID_4_" gradientUnits="userSpaceOnUse" x1="343.4" y1="532.8" x2="588.3" y2="532.8">
		<stop  offset="0" style="stop-color:#FFFFFF"/>
		<stop  offset="4.556743e-02" style="stop-color:#E0E0E0"/>
		<stop  offset="0.1031" style="stop-color:#C1C1C1"/>
		<stop  offset="0.1683" style="stop-color:#A6A6A5"/>
		<stop  offset="0.2419" style="stop-color:#90908F"/>
		<stop  offset="0.328" style="stop-color:#7F7F7E"/>
		<stop  offset="0.4343" style="stop-color:#747473"/>
		<stop  offset="0.5834" style="stop-color:#6D6D6C"/>
		<stop  offset="0.9975" style="stop-color:#6B6B6A"/>
		<stop  offset="1" style="stop-color:#000000"/>
	</linearGradient>
	<polygon class="st26" points="387.8,487.8 343.4,633.6 506,585.7 534.6,579.9 588.3,432 	"/>
</g>
<g id="Camada_22">
	<path class="st5" d="M235.9,453.5c-8.5,2.8-21.6,9.5-31.7,15.8c-4.8,3-11.2,7.1-18.4,14c-4.3,4.2-6.8,7.5-7.2,7.2
		c-0.6-0.4,4.6-8.7,16.6-27.4c15.5-24.2,23.4-36.6,24.8-49c0.1-1.2,0.5-5,1.1-5c1.1,0,2.1,12.2,2.5,18.7c0.3,6,0.4,11.2,0.4,11.2
		c0,3.9,0,5.8,0,6.1c-0.2,2.4-0.5,3.5,0,5.4c0.2,0.8,0.6,2.3,1.8,3.6C228.3,456.6,235.4,453.6,235.9,453.5z"/>
</g>
<g>
	<path class="st27" d="M318.6,631.5c-0.1,0.1-0.2,0.1-0.2,0.1c-0.5,0.2-1.2,0.6-1.8,1.3c-1.4,1.6-0.5,3.7-0.9,7.2
		c-0.1,0.9-0.1,3.8,0,9.6c0,4.7,0.1,5.9,1,7.2c1.7,2.6,4.8,3.4,6.7,3.8c4.9,1.1,6.9-0.4,11.5-0.5c8.3-0.2,18,4.4,22.1,11
		c0.9,1.4,1.3,2.6,2.9,4.3c3.5,3.7,7.9,4.7,9.6,5.1c6.9,1.5,12.4-1,14.9-2.2c3-1.4,6.1-2.8,7.7-6.2c0.7-1.4,0.8-2.7,1-5.3
		c0.4-5.2-0.6-7.1-0.5-12.5c0-2.3,0.3-4,0.5-5.8c1-7.7,2.7-9.5,4.8-18.2c1-4.3,0.8-4.9,2.4-11.5c1.6-6.7,2.5-9.2,4.8-10.6
		c1.4-0.8,1.9-0.3,6.2-1c4.4-0.7,6.8-1.1,8.6-2.4c4.5-3.2,4.4-10.4,4.3-12c0-1.4-0.1-9.8-6.7-14.4c-1.4-0.9-5.5-3.9-10.6-2.4
		c-4.6,1.3-4.8,7.8-7.7,7.7c-1.6-0.1-1.7-2-4.3-3.8c-4.1-2.8-9.5-1.6-12.5-1c-2.8,0.6-4.8,1.1-6.2,2.9c-1.8,2.3-1.3,5-2.4,5.3
		c-1.2,0.3-2-2.5-4.3-4.3c-4-3.2-11.6-2.9-16.3,1c-3.2,2.6-4.2,6.1-4.8,8.2c-0.3,1.1-0.7,2.9,0,11c0.4,4.6,0.6,6.9,1,9.1
		c0.8,4.2,2,8.7,3.4,16.3c0.3,1.8,0.6,3.7-0.4,4.8c-0.9,0.9-2.2,0.6-6.2,0.7c-2.6,0.1-3,0.2-3.9,0.2c0,0-0.6,0-1.2,0
		c-1.3,0-2.5-0.2-2.7-0.3c-16.8-3-14.7-1.9-16-2.4C321.8,631.4,320.1,630.7,318.6,631.5z"/>
	<path class="st28" d="M364.2,606c0.5,0.1,6.5,0.6,10.1-3.8c3.3-4,3.2-10.2-0.5-14.9"/>
	<path class="st28" d="M383.9,605.5c0.5,0.2,6.1,2.1,11-1.4c3.8-2.7,4.3-7.3,4.8-11c0.5-3.9,0-7.1-0.5-9.1"/>
	<path class="st29" d="M400.7,602.6c0.7,0.9,1.9,2.3,3.8,3.4c2.9,1.6,5.6,1.5,6.7,1.4"/>
	<path class="st27" d="M470.8,596.2c0,0.3-0.1,0.6-0.1,0.8c-0.1,0.7-0.1,3.7,0,9.6c0,4.7,0.1,5.9,1,7.2c1.7,2.6,4.8,3.4,6.7,3.8
		c4.9,1.1,6.9-0.4,11.5-0.5c8.3-0.2,18,4.4,22.1,11c0.9,1.4,1.3,2.6,2.9,4.3c3.5,3.7,7.9,4.7,9.6,5.1c6.9,1.5,12.4-1,14.9-2.2
		c3-1.4,6.1-2.8,7.7-6.2c0.7-1.4,0.8-2.7,1-5.3c0.4-5.2-0.6-7.1-0.5-12.5c0-2.3,0.3-4,0.5-5.8c1-7.7,2.7-9.5,4.8-18.2
		c1-4.3,0.8-4.9,2.4-11.5c1.6-6.7,2.5-9.2,4.8-10.6c1.4-0.8,1.9-0.3,6.2-1c4.4-0.7,6.8-1.1,8.6-2.4c4.5-3.2,4.4-10.4,4.3-12
		c0-1.4-0.1-9.8-6.7-14.4c-1.4-0.9-5.5-3.9-10.6-2.4c-4.6,1.3-4.8,7.8-7.7,7.7c-1.6-0.1-1.7-2-4.3-3.8c-4.1-2.8-9.5-1.6-12.5-1
		c-2.8,0.6-4.8,1.1-6.2,2.9c-1.8,2.3-1.3,5-2.4,5.3c-1.2,0.3-2-2.5-4.3-4.3c-4-3.2-11.6-2.9-16.3,1c-3.2,2.6-4.2,6.1-4.8,8.2
		c-0.3,1.1-0.7,2.9,0,11c0.4,4.6,0.6,6.9,1,9.1c1.2,6.5,2.8,9.4,3.4,16.3c0.3,4.1-0.1,4.6-0.5,4.8c-0.9,0.4-2.2-1.1-4.3-3.3"/>
	<path class="st29" d="M519.2,563c0.5,0.1,6.5,0.6,10.1-3.8c3.3-4,3.2-10.2-0.5-14.9"/>
	<path class="st29" d="M538.9,562.5c0.5,0.2,6.1,2.1,11-1.4c3.8-2.7,4.3-7.3,4.8-11c0.5-3.9,0-7.1-0.5-9.1"/>
	<path class="st28" d="M555.7,559.6c0.7,0.9,1.9,2.3,3.8,3.4c2.9,1.6,5.6,1.5,6.7,1.4"/>
	<path class="st30" d="M463.7,599.2"/>
	<path class="st30" d="M505.4,586.2"/>
</g>
<g id="Camada_23">
	<path class="st31" d="M480.4,594c5.9,1.9,9.9,4,12.5,5.7c1.3,0.9,4.3,2.8,8.6,4.8c3.1,1.4,3.9,2.3,4.8,1.9c0,0,1.5-0.6,1.9-11.5
		c-1.3-2.1-2.5-4.2-3.8-6.3"/>
</g>
<g id="Camada_38">
	<polygon class="st32" points="359.5,544.2 305.8,564.5 287.5,571.4 267.9,578.7 336.2,616.4 361.4,559.6 	"/>
	<path class="st33" d="M331.6,599.9"/>
	<path class="st33" d="M305.8,564.5"/>
	<path class="st33" d="M343.4,589.5"/>
	<path class="st33" d="M348.8,577"/>
	<path class="st33" d="M321.3,558.6"/>
	<path class="st33" d="M353,563.9"/>
	<path class="st33" d="M337.9,553.8"/>
	<line class="st34" x1="287.5" y1="571.4" x2="336.2" y2="597.6"/>
	<line class="st34" x1="305.8" y1="564.5" x2="345.6" y2="587.1"/>
	<line class="st34" x1="339.6" y1="551.7" x2="354.7" y2="560.4"/>
	<line class="st34" x1="317.3" y1="606" x2="343.4" y2="594"/>
	<polyline class="st34" points="300.3,596.6 350.2,573.1 323.4,558.6 	"/>
	<line class="st34" x1="282.7" y1="586.2" x2="351.6" y2="558.6"/>
</g>
<g id="Camada_4">
	<path class="st3" d="M475.7,450.2c-0.4,0.1-0.9,0.2-1.3,0.4"/>
</g>
<g id="Camada_20">
	<path class="st35" d="M318,297.5c-0.5,0.1,0.6,5.2,2.1,9.8c1.7,5.3,3.7,9.3,4.9,11.6c3.8,7,8.6,13.3,10.3,15.4
		c3.2,4.1,3.9,4.5,4.5,6.6c1.1,3.7-0.4,5.9-2.4,13.5c-1.6,6.1-2.2,11-2.6,13.9c-0.8,6-0.4,6.2-1.3,12.9c-0.7,5-1.4,8-0.9,8.2
		c0.6,0.2,2.7-4.7,2.9-5.3c1.7-4.2,2.4-7.4,2.9-9.6c0,0,1.8-7.6,5.1-14.6c1.1-2.3,3.8-7.8,7-11.1c1.3-1.3,2.2-2.9,3.5-4.2
		c0.8-0.9,1.6-1.6,1.8-2.8c0,0,0-0.5-0.6-2.8c-0.6-0.5-1.5-1.2-2.8-2.1c-2.6-2-5.2-3.4-6-3.9c-3.5-2-9.5-6.8-14.5-12.6
		c-1.1-1.3-5.7-6.6-9.7-14.6C319.7,301.1,318.5,297.3,318,297.5z"/>
	<path class="st27" d="M507.8,588.4c0.2,2.2,0.3,4.3,0.5,6.5"/>
	<path class="st31" d="M318.2,637.6c9.8,2.8,16.9,4.8,21.5,5.9c4.6,1.1,6.3,1.3,9,2.9c2,1.2,2.9,2.2,4,1.8c2.4-0.9,1.5-8,1.4-8.6
		c-0.3-2-0.4-3.3-1.4-4c-1.5-0.9-3.2,0.4-6.1,1.1c-2.1,0.5-4.9,0.1-10.4-0.7c-6.2-0.9-9.3-1.4-10.8-1.8c-2.2-0.6-4-1.3-5.4-0.4
		C318.6,634.6,318.2,636.4,318.2,637.6z"/>
	<path class="st31" d="M353,630.8"/>
	<path class="st31" d="M352.7,628.5"/>
	<path class="st31" d="M352.7,628.5c1.3,6.6,2.4,11.2,3.5,14.6c0.4,1.1,1.1,3.4,0,5c-0.8,1.2-2.3,1.6-3.2,1.8"/>
</g>
<g id="Camada_5">
</g>
<g id="Camada_42">
	<g id="Camada_43">
		<path class="st36" d="M519.2,396c0,7.6,0,15.2,0,22.9c9.1-7.7,17.2-14.1,23.8-19.1c11.4-8.5,14.7-10.3,18.7-15.8
			c2.2-3,10.5-14.6,7.9-29.5c-0.3-1.8-3-16.2-15.1-23c-1.8-1-4.1-2-15.8-3.6c-26.1-3.5-38.2-1.5-42.5-0.7
			c-6.9,1.3-11.6,2.9-15.8,6.5c-4.1,3.5-6.2,7.3-7.2,9.4c-5.6,11-3.5,21.9-2.9,25.2c1.1,5.2,2.9,14,10.8,20.2
			c6.4,5,13.5,5.7,16.6,5.8L519.2,396z"/>
		<path class="st37" d="M195.3,233.2c8.4-1.6,15.4-2.1,20.3-2.3c9.1-0.4,15.8,0.2,28.1,1.3c9,0.8,14.1,1.6,17.2,2.1
			c4.9,0.8,9.1,1.7,12.1,2.4"/>
		<path class="st37" d="M161.3,241.9c2.8-1.5,6-2.9,9.7-4.2c1.8-0.6,8-2.7,16.5-3.8c3.2-0.4,5.9-0.5,7.9-0.6"/>
		<path class="st37" d="M383.6,142.6c-1.6,1.3-4.1,3.3-7,5.8c-3.3,2.8-4.7,4.2-9.7,8.9c-4.3,3.9-7.5,6.9-9.6,8.8
			c-4.1,3.7-6.7,6.1-10.3,9.1c-6.1,5.2-6.7,5.5-11.1,9.4c-4.3,3.8-6.4,5.7-8.8,8.5c-3.3,3.7-5.6,7.2-8.3,11.2
			c-0.8,1.3-2.4,3.6-3.7,5.9l0,0c-1.4,2.4-2.2,3.8-2.7,4.7c-0.4,0.6-1.3,2.2-2.5,4c-1.2,1.7-2.3,3.1-3.3,4.3"/>
	</g>
	<path class="st38" d="M538.2,357.3h-35.7c-2.3,0-4.1-1.8-4.1-4.1l0,0c0-2.3,1.8-4.1,4.1-4.1h35.7c2.3,0,4.1,1.8,4.1,4.1l0,0
		C542.3,355.4,540.5,357.3,538.2,357.3z"/>
	<path class="st38" d="M525.4,369.6h-23.8c-1.8,0-3.2-1.4-3.2-3.2l0,0c0-1.8,1.4-3.2,3.2-3.2h23.8c1.8,0,3.2,1.4,3.2,3.2l0,0
		C528.6,368.1,527.2,369.6,525.4,369.6z"/>
</g>
</svg>
