<svg xmlns="http://www.w3.org/2000/svg" viewBox="0 0 149.27 201.12"><defs><style>.a{fill:#2c3e50;}</style></defs><title>Ativo 8</title><path class="a" d="M91.46,112.84,88.06,94H81.51A12.71,12.71,0,0,0,85,95.77a.05.05,0,0,1,0,.1c-1,.71-9.57,7.26-10.34,13.61a.06.06,0,0,1-.12,0c-.77-6.35-9.38-12.9-10.35-13.61a.06.06,0,0,1,0-.1A12.71,12.71,0,0,0,67.77,94h-5l-3.47,19.23L43.47,201.12H60.76l3.39-21h21.2v-.31l3.39,21.27h18.65Zm-25.1,52.78L74.14,115l.36-2.37h.34l.37,2.37,7.93,50.58Z"/><path class="a" d="M31.55,188.63c.66,2.14,1.4,4.17,2.19,6.07A74.39,74.39,0,0,1,2.93,152.49a7.5,7.5,0,0,0,5.82-1.16,6.22,6.22,0,0,0,1.51-1.71c-2.32.66-5.25.14-8.41-1.35A74.83,74.83,0,0,1,.29,138c4.3,2.11,8.23,2.44,10.79.49a6,6,0,0,0,1.51-1.7c-3.31.93-7.88-.52-12.57-3.79,0-.54,0-1.09,0-1.64a78.67,78.67,0,0,1,.55-9.25c5.54,3.7,10.84,4.81,14,2.38a5.88,5.88,0,0,0,1.51-1.7c-3.83,1.09-9.36-1-14.82-5.49a75.34,75.34,0,0,1,18-36.78A48.89,48.89,0,0,0,21.38,85,55.86,55.86,0,0,0,40,104.88c-7.84,9.87-13.15,28.74-13.15,50.4A112.07,112.07,0,0,0,31.55,188.63Z"/><path class="a" d="M136.68,136.8a6.19,6.19,0,0,0,1.52,1.7c2.55,1.95,6.47,1.62,10.78-.49a73.32,73.32,0,0,1-1.56,10.26c-3.16,1.49-6.1,2-8.41,1.35a6.09,6.09,0,0,0,1.52,1.71,7.47,7.47,0,0,0,5.82,1.16,74.43,74.43,0,0,1-30.81,42.21c.79-1.9,1.52-3.93,2.19-6.07a112.41,112.41,0,0,0,4.72-33.35c0-21.66-5.3-40.53-13.14-50.4A55.94,55.94,0,0,0,127.9,85q1.18-2.17,2.16-4.43A75.33,75.33,0,0,1,148,117.31c-5.45,4.45-11,6.58-14.82,5.49a5.92,5.92,0,0,0,1.52,1.7c3.18,2.43,8.47,1.32,14-2.38a78.68,78.68,0,0,1,.54,9.25c0,.55,0,1.1,0,1.64C144.55,136.28,140,137.73,136.68,136.8Z"/><path class="a" d="M53.65,56.74A11.66,11.66,0,1,1,42,45.07c.29,0,.59,0,.87,0a5.25,5.25,0,1,0,9,5.39A11.65,11.65,0,0,1,53.65,56.74Z"/><path class="a" d="M119,56.74a11.66,11.66,0,1,1-11.66-11.67c.29,0,.58,0,.86,0a5.25,5.25,0,1,0,9,5.4A11.59,11.59,0,0,1,119,56.74Z"/><path class="a" d="M101.3,12.33c1,.07,2,.09,3.08.09,14,0,26.29-4.93,32.85-12.27-1.39,13.74-6.52,25.05-13.38,30.22Z"/><path class="a" d="M24.88,31.11C18.09,25.59,13.08,14,11.92,0c6.51,7.42,18.84,12.42,33,12.42,1,0,2.06,0,3.08-.09Z"/><path class="a" d="M128.36,78.68a26.41,26.41,0,0,1-3.42,2.64A28,28,0,0,1,81.63,57.9a3.39,3.39,0,0,1,0-.45c0-.2,0-.4,0-.59a28,28,0,0,1,39.1-24.63h0A27.82,27.82,0,0,1,128,36.76a53.8,53.8,0,0,0-4.11-6.39A60,60,0,0,0,95.42,10,63.83,63.83,0,0,0,80.27,6.83c-1.85-.16-3.73-.24-5.63-.24s-3.78.08-5.64.24A65,65,0,0,0,54.17,9.88,61.75,61.75,0,0,0,48,12.33a58.11,58.11,0,0,0-23.1,18.78,46.88,46.88,0,0,0-2.66,4.09,28,28,0,1,1-1.8,44,28.49,28.49,0,0,1-2.72-2.66c.45,1.34,1,2.67,1.52,4A48.89,48.89,0,0,0,21.38,85,55.86,55.86,0,0,0,40,104.88a61.55,61.55,0,0,0,19.36,8.35,64.56,64.56,0,0,0,11.49,1.7c1.1.07,2.2.11,3.32.11h1.07c1.09,0,2.17,0,3.24-.11a63.67,63.67,0,0,0,13-2.09,61.42,61.42,0,0,0,17.85-8A55.94,55.94,0,0,0,127.9,85q1.18-2.17,2.16-4.43a47.42,47.42,0,0,0,2.16-6.13A26.63,26.63,0,0,1,128.36,78.68ZM85,95.87c-1,.71-9.57,7.26-10.34,13.61a.06.06,0,0,1-.12,0c-.77-6.35-9.38-12.9-10.35-13.61a.06.06,0,0,1,0-.1A12.71,12.71,0,0,0,67.77,94C73,90.29,74.3,83.49,74.58,81.68a.06.06,0,0,1,.12,0C75,83.49,76.32,90.29,81.51,94A12.71,12.71,0,0,0,85,95.77.05.05,0,0,1,85,95.87Z"/></svg>