<?xml version="1.0" encoding="utf-8"?>
<!-- Generator: Adobe Illustrator 23.0.1, SVG Export Plug-In . SVG Version: 6.00 Build 0)  -->
<svg version="1.1" xmlns="http://www.w3.org/2000/svg" xmlns:xlink="http://www.w3.org/1999/xlink" x="0px" y="0px"
	 viewBox="0 0 1366 768" style="enable-background:new 0 0 1366 768;" xml:space="preserve">
<style type="text/css">
	.st0{fill:#F9F9F9;}
	.st1{fill:none;stroke:#C1C1C1;stroke-miterlimit:10;}
	.st2{font-family:'Corbel-Bold';}
	.st3{font-size:48px;}
</style>
<g id="Camada_2">
	<rect class="st0" width="1366" height="768"/>
</g>
<g id="Camada_1">
	<g id="Camada_3">
		<path class="st1" d="M349.5,134.9l5.1,6.7c1.1,1.7,2.1,2.7,3.5,2.6c1.2-0.1,1.9-0.9,2.9-1.8c6.5-6.1,14.8-8.4,20-10
			c7.7-2.4,9.5-0.7,19-2c7.3-1,23.6-3.1,35-15c7.5-7.8,9.9-16.7,11-21c5.2-20.1-3.6-36.5-5-39c-1.4-2.6-10.8-18.9-31-25
			c-4.3-1.3-18.3-5.5-33,1c-10.3,4.6-15.9,12.1-18,15c-9.6,13.2-11.7,30.2-13,41c-0.9,7.1-1,12.7-5,19c-2.4,3.8-5.4,6.6-8.2,8.6
			c0.7,1,1.8,2.6,3.2,4.4c0.6,0.8,2.3,2.7,4.2,4.9C344.2,128.9,349.5,134.9,349.5,134.9z"/>
		<path class="st1" d="M398,104.4l-38,13l-2-3c0,0,16-35,17-36"/>
		<circle class="st1" cx="359.5" cy="115.9" r="2.5"/>
		<line class="st1" x1="369" y1="101.4" x2="374" y2="107.4"/>
		<line class="st1" x1="370.3" y1="103" x2="344" y2="128.6"/>
		<line class="st1" x1="346" y1="130.9" x2="372.3" y2="105.4"/>
		<line class="st1" x1="375" y1="78.4" x2="397.5" y2="104.9"/>
		<path class="st1" d="M346.5,118.9c-4.8,4.2-5.9,5.1-6,5s5.4-4.1,9-8c0.4-0.5,1.4-1.6,3-2c0,0,1.4-0.4,3,0c2.8,0.7,4.6,3.5,5,6
			c0.1,0.9,0.1,1.6,0,2c-0.3,2.1-1.5,3.4-2,4l-9,9"/>
	</g>
	<g>
		<path class="st1" d="M836.7,656.4c7.3,29.3,14.7,58.7,22,88c1.7-5.5,4.9-12.6,11-19c12.8-13.4,33-18,50-13c8.6,2.5,14.6,7,18,10
			c0.8-3.6,2.4-8.8,6-14c14.6-21,45.4-18.2,47-18c5.3,0.6,14.6,2.3,25,9l-13-91c-1.9-1.8-4.6-4.2-8-7c-11.9-9.7-18.1-14.8-26-17
			c-14.1-3.9-29.5,2.6-39,11c-9,7.9-12.6,17.4-14,22c-2.8-3.7-7.7-8.8-15-12c-17.5-7.8-40.1-1-52,14c-6.2,7.8-8.3,16.2-9,22
			L836.7,656.4z"/>
		<path class="st1" d="M868.2,684.9c1.9-2.8,8.2-11.4,20-15c16.5-5,30.1,3.7,32,5"/>
		<path class="st1" d="M942.2,662.9c2.5-2.9,9.4-10.2,21-13c16.6-4,29.8,4.5,32,6"/>
		<path class="st1" d="M937.2,650.9c2.4-2.9,9.2-10.7,21-14c14.9-4.2,27.1,1.5,30,3"/>
		<path class="st1" d="M933.2,634.9c2.4-2.9,9.2-10.7,21-14c14.9-4.2,27.1,1.5,30,3"/>
		<path class="st1" d="M931.2,621.9c2.4-2.9,9.2-10.7,21-14c14.9-4.2,27.1,1.5,30,3"/>
		<path class="st1" d="M860.2,656.9c2.4-2.9,9.2-10.7,21-14c14.9-4.2,27.1,1.5,30,3"/>
		<path class="st1" d="M855.2,643.9c2.4-2.9,9.2-10.7,21-14c14.9-4.2,27.1,1.5,30,3"/>
		<path class="st1" d="M863.2,669.9c2.4-2.9,9.2-10.7,21-14c14.9-4.2,27.1,1.5,30,3"/>
	</g>
	<g id="Camada_4">
		<path class="st1" d="M840.2,641.9c7.7,26,15.3,52,23,78c2.4-3,6.4-7.2,12-11c4-2.7,19.2-13,38-9c9.8,2.1,16.8,7.2,21,11
			c2.7-4.2,7.1-10.2,14-16c6.1-5.2,18.1-15.3,35-15c4.3,0.1,13,0.9,23,7l-11-85"/>
		<line class="st1" x1="914.2" y1="618.9" x2="933.2" y2="710.9"/>
		<path class="st1" d="M362.2,404.7l-33.9,8.5c-6.4,1.6-13-2.3-14.6-8.7l-18.5-73.7c-1.6-6.4,2.3-13,8.7-14.6l33.9-8.5
			c6.4-1.6,13,2.3,14.6,8.7l18.5,73.7C372.5,396.6,368.6,403.1,362.2,404.7z"/>
		
			<rect x="308.5" y="323.5" transform="matrix(0.9677 -0.2522 0.2522 0.9677 -79.3037 95.2701)" class="st1" width="47" height="67"/>
		<ellipse transform="matrix(0.9733 -0.2296 0.2296 0.9733 -82.5623 89.4252)" class="st1" cx="343" cy="399.5" rx="8.5" ry="3"/>
		<line class="st1" x1="314.2" y1="382" x2="349.5" y2="330.9"/>
		<line class="st1" x1="338.5" y1="320.7" x2="309.9" y2="365.4"/>
		<line class="st1" x1="356.5" y1="360.5" x2="333.5" y2="391.2"/>
		<path class="st1" d="M328.5,282.5c5.5,8.6,7.4,10.3,8,10c0.8-0.4-1.3-4.4,0-10c0.6-2.4,1.2-5,3.3-6.6c2.8-2.1,6.8-1,7.7-1.2
			c26.2-5.5,44.1-26,39.9-45.8s-28.8-31.2-55-25.7s-44.1,26-39.9,45.8c3,14.1,16.4,23.9,33.3,26.4L328.5,282.5z"/>
		<path class="st1" d="M304.5,234.5c0.7,1,2.3,2.8,5,4c1.4,0.6,2.7,1.3,4,1c3.1-0.8,1.9-8.6,4-9c0.9-0.2,1.3,1.1,4,3
			c1.9,1.3,3.7,2.6,5,2c1-0.5,1.4-2.3,2-6c0.5-2.9,0.4-3.6,1-4c1.7-1,4.6,3,7,2c1.8-0.7,1.3-3.5,3-4s2.8,2,5,2s3.6-2.4,5-4
			c2-2.4,5.7-5,13-6"/>
		<path class="st1" d="M315.5,253.5c9.7-4.6,17.4-6.8,23-8c3.4-0.7,8.7-1.7,13-6c2-2,1.6-5.1,4-6c0.7-0.3,1-0.2,6,0
			c3.6,0.1,3.7,0.1,4,0c2.7-1,2.3-4.2,5-6c1-0.6,2.5-1.2,5-1"/>
		<path class="st1" d="M325.5,264.5c5.2-4.4,9.7-5.7,13-6c3.7-0.4,6.1,0.5,10-1c3.2-1.2,4.5-3,7-5c2.8-2.3,7.2-5.1,14-7"/>
		<path class="st1" d="M165.3,345.9L43.5,335.4c-7.3-0.6-12.7-6.7-12.1-13.5l17.7-177.5c0.7-6.8,7.2-11.9,14.5-11.2l121.8,10.6
			c7.3,0.6,12.7,6.7,12.1,13.5l-17.7,177.5C179.1,341.5,172.6,346.6,165.3,345.9z"/>
		<polygon class="st1" points="46.6,317.3 167.9,330.6 181.4,161.7 60.1,148.4 		"/>
		
			<rect x="65.5" y="274.5" transform="matrix(9.361586e-02 -0.9956 0.9956 9.361586e-02 -211.1472 336.0635)" class="st1" width="27" height="19"/>
		
			<rect x="69.5" y="231.5" transform="matrix(9.361586e-02 -0.9956 0.9956 9.361586e-02 -164.7107 301.0717)" class="st1" width="27" height="19"/>
		
			<rect x="73.5" y="186.5" transform="matrix(9.361586e-02 -0.9956 0.9956 9.361586e-02 -116.2831 264.2673)" class="st1" width="27" height="19"/>
		<polyline class="st1" points="66.5,231.5 79.5,247.5 101.5,221.5 		"/>
		<path class="st1" d="M112.5,200.5c5.3,1.1,11,2.2,17,3c10.1,1.4,19.5,1.9,28,2"/>
		<path class="st1" d="M113.5,189.5c5.3,1.1,11,2.2,17,3c10.1,1.4,19.5,1.9,28,2"/>
		<path class="st1" d="M111.5,211.5c5.3,1.1,11,2.2,17,3c10.1,1.4,19.5,1.9,28,2"/>
		<path class="st1" d="M107.5,245.5c5.3,1.1,11,2.2,17,3c10.1,1.4,19.5,1.9,28,2"/>
		<path class="st1" d="M108.5,234.5c5.3,1.1,11,2.2,17,3c10.1,1.4,19.5,1.9,28,2"/>
		<path class="st1" d="M106.5,256.5c5.3,1.1,11,2.2,17,3c10.1,1.4,19.5,1.9,28,2"/>
		<path class="st1" d="M104.5,289.5c5.3,1.1,11,2.2,17,3c10.1,1.4,19.5,1.9,28,2"/>
		<path class="st1" d="M105.5,278.5c5.3,1.1,11,2.2,17,3c10.1,1.4,19.5,1.9,28,2"/>
		<path class="st1" d="M103.5,300.5c5.3,1.1,11,2.2,17,3c10.1,1.4,19.5,1.9,28,2"/>
		<ellipse transform="matrix(0.9815 -0.1917 0.1917 0.9815 -10.1663 100.9232)" class="st1" cx="516.5" cy="103" rx="16" ry="5.5"/>
		<path class="st1" d="M531.8,101.8l8.7,32.7l-1,2c-2.1,2-5,4.3-9,6s-7.2,1.9-8,2c-2,0.1-4.8,0.3-8-1c-0.9-0.4-1.5-0.7-2-1
			c0,0-10-34-10.7-35"/>
		<path class="st1" d="M512.2,139.8c-6.3,3.3-10.1,7.1-9.4,10c1.1,4.6,13,5.3,26.7,1.5c13.6-3.7,23.8-10.5,22.7-15.1
			c-0.7-2.9-5.6-4.2-12.6-3.9"/>
		<polyline class="st1" points="526.8,152 539.5,194.5 548.5,205.5 547.5,192.5 532.5,150.4 		"/>
		
			<ellipse transform="matrix(0.5805 -0.8142 0.8142 0.5805 32.9326 473.1491)" class="st1" cx="475.7" cy="204.6" rx="14.2" ry="4.8"/>
		<path class="st1" d="M484.7,194.5l24.9,16.2l0.5,1.9c-0.1,2.6-0.7,5.9-2.2,9.4c-1.6,3.5-3.5,5.6-4,6.2c-1.2,1.3-2.9,3.1-5.7,4.2
			c-0.8,0.3-1.4,0.5-1.9,0.6c0,0-26.5-16.3-27.5-16.5"/>
		<path class="st1" d="M494.6,231.4c-2.1,6-2.3,10.7-0.1,12.2c3.4,2.4,11.5-4.4,18-15.1c6.5-10.7,9.1-21.3,5.6-23.6
			c-2.1-1.5-6.1,0.6-10.4,5"/>
		<polyline class="st1" points="511.2,230.5 544.4,250.8 556.7,252.6 548.4,244.6 513.9,226.1 		"/>
		<circle class="st1" cx="550" cy="368" r="7.5"/>
		<path class="st1" d="M539,298.4c0.3-0.5,1.5-2,2.5-2.9c0.4-0.4,2.6-2.3,5-2c2.8,0.4,4.3,3.6,5,5c1.4,3,1.2,5.8,1,7
			c-0.4,2.9-1.8,4.9-4,8c-2.6,3.7-3.3,3.5-5,6c-3.1,4.6-3.7,9.3-4,12c-0.6,5.4,0.4,9.4,1,12c0.7,2.7,1.4,4.5,3,6
			c0.9,0.8,1.7,1.8,3,2c2.9,0.5,6.2-2.7,7-6c0.5-2.1-0.2-3.4-1-7c-1.6-7.4-1.1-9.3-1-10c0.2-1.1,0.5-1.7,3-6c3.4-5.7,4.3-7.1,6-10
			c3.1-5.3,4.6-8,5-11c0.7-5.1-1.1-9.1-2-11c-1-2.1-3.3-7.1-9-10c-3.7-1.9-7.1-2-9-2c-2.1,0.1-5,0.5-8,2c-5.2,2.6-7.6,6.7-9,9
			c-1.7,2.8-2,4.6-2,6c0,1.1,0,2.7,1,4c1.7,2.2,4.9,2.1,6,2c0.8,0,3.1-0.2,4.5-1.7C538.4,299.4,538.3,299.4,539,298.4z"/>
	</g>
	<path class="st1" d="M351.9,152l-26.3-30.9c-1.4-1.7-1.2-4.2,0.5-5.6l0,0c1.7-1.4,4.2-1.2,5.6,0.5l26.3,30.9
		c1.4,1.7,1.2,4.2-0.5,5.6l0,0C355.8,153.9,353.3,153.7,351.9,152z"/>
	<path class="st1" d="M351.4,151c-0.3,0.5-0.6,1-1,1.4"/>
	<path class="st1" d="M348.1,154.7c-0.6,0.5-1.7,1.4-2.8,2.4"/>
	<path class="st1" d="M343.1,158.9c-0.9,0.7-1.6,1.3-2.1,1.7"/>
	<path class="st1" d="M338.5,162.4c-5.3,3-12.1,1.8-16.1-3.1l-8.6-10.6c-3.6-4.5-3.8-10.7-0.9-15.3"/>
	<path class="st1" d="M315.9,130.1c0.3-0.3,0.9-0.7,1.5-1.3"/>
	<path class="st1" d="M319.6,127c0.9-0.7,1.8-1.5,2.5-2.1"/>
	<path class="st1" d="M325.1,122.6c0.4-0.3,0.6-0.5,0.6-0.5c0.2-0.2,0.4-0.3,0.6-0.5"/>
	<path class="st1" d="M349.2,156.7l-28.7-33.2c-0.7-0.8-0.6-1.9,0.2-2.6l0,0c0.8-0.7,1.9-0.6,2.6,0.2l28.7,33.2
		c0.7,0.8,0.6,1.9-0.2,2.6l0,0C351,157.5,349.8,157.4,349.2,156.7z"/>
	<path class="st1" d="M343.8,160.3l-28-32.5c-0.6-0.8-0.6-1.9,0.2-2.5l0,0c0.7-0.6,1.9-0.6,2.5,0.2l28,32.5c0.6,0.8,0.6,1.9-0.2,2.5
		l0,0C345.6,161.1,344.5,161,343.8,160.3z"/>
	<path class="st1" d="M339.4,163.7l-27-31.5c-0.6-0.7-0.5-1.8,0.2-2.5l0,0c0.7-0.6,1.8-0.5,2.4,0.2l27,31.5c0.6,0.7,0.5,1.8-0.2,2.5
		l0,0C341.1,164.6,340,164.5,339.4,163.7z"/>
	<ellipse class="st1" cx="134" cy="534.3" rx="60.1" ry="49.8"/>
	<ellipse class="st1" cx="134.3" cy="531.9" rx="53.1" ry="40.9"/>
	
		<rect x="81.5" y="577.6" transform="matrix(0.5902 -0.8073 0.8073 0.5902 -430.5192 309.6221)" class="st1" width="16.4" height="2.4"/>
	<polygon class="st1" points="182.4,585.3 184.8,584 172.9,572.4 170.6,573.6 	"/>
	<path class="st1" d="M155.9,487.4c11.8-8.7,27.9-8.2,37.5,1.9c9.6,10,9.4,26.1,0.2,37.5"/>
	<path class="st1" d="M115.1,486.6c-12-10.9-29.8-11.1-40.1-0.3c-9.7,10.2-9.4,26.6,0.3,38.1"/>
	<path class="st1" d="M106.2,533.6c0.2,0,0.5,0,0.7,0"/>
	<line class="st1" x1="103.3" y1="547.1" x2="96.6" y2="550.2"/>
	<line class="st1" x1="117" y1="557.4" x2="112.4" y2="563.4"/>
	<line class="st1" x1="154" y1="557.4" x2="159" y2="563.4"/>
	<line class="st1" x1="103.3" y1="520.2" x2="96.6" y2="515.7"/>
	<line class="st1" x1="117" y1="509.9" x2="112.4" y2="504"/>
	<line class="st1" x1="154" y1="509.9" x2="159" y2="504"/>
	<line class="st1" x1="167.9" y1="520.2" x2="176" y2="516.6"/>
	<line class="st1" x1="176" y1="550.2" x2="167.9" y2="547.1"/>
	<ellipse class="st1" cx="135.6" cy="533.9" rx="3.7" ry="2"/>
	<polyline class="st1" points="135.6,537.3 129.5,563.4 128,568.1 128,563.4 135.6,535.8 	"/>
	<polygon class="st1" points="154,516.6 149.6,521.7 138.3,532.9 136.3,531.9 146.6,522.4 	"/>
	<polyline class="st1" points="137,535.8 159.9,548.7 167.9,552 160.1,547.1 138.2,535.3 	"/>
	<g>
		<g>
			<path class="st1" d="M132.4,510.1h-1.8v-10.8l-1.8,1.1v-1.9l1.8-1.2h1.8V510.1z"/>
			<path class="st1" d="M135.2,508.5l4.5-5.9c0.3-0.3,0.5-0.7,0.6-1.1s0.2-0.7,0.2-1l0,0c0-0.5-0.1-0.9-0.4-1.2s-0.7-0.4-1.3-0.4
				c-0.5,0-0.9,0.2-1.3,0.5c-0.3,0.3-0.5,0.7-0.6,1.3l0,0H135l0,0c0.1-0.7,0.3-1.4,0.6-1.9s0.7-0.9,1.3-1.2c0.5-0.3,1.1-0.4,1.8-0.4
				c0.8,0,1.4,0.1,2,0.4s0.9,0.6,1.2,1.1s0.4,1.1,0.4,1.8l0,0c0,0.5-0.1,0.9-0.3,1.4s-0.4,1-0.8,1.4l-3.7,5h4.8v1.7h-7.2
				L135.2,508.5L135.2,508.5z"/>
		</g>
	</g>
	<g>
		<g>
			<path class="st1" d="M94.8,532.8v0.3c-0.1,0.3-0.4,0.5-0.7,0.6s-0.6,0.2-1.1,0.2c-0.6,0-1.1-0.2-1.6-0.5s-0.8-0.7-1.1-1.3
				c-0.3-0.6-0.4-1.2-0.4-2l0,0c0-0.8,0.1-1.5,0.4-2.1s0.7-1,1.2-1.3s1.2-0.5,1.9-0.5s1.4,0.2,1.9,0.5s0.9,0.8,1.2,1.4
				s0.4,1.3,0.4,2.1l0,0c0,0.5-0.1,0.9-0.2,1.5c-0.1,0.5-0.3,1-0.5,1.5c0,0.1-0.1,0.2-0.1,0.2c0,0.1-0.1,0.2-0.1,0.2l-2.7,5.5h-1.9
				L94.8,532.8z M94.9,531.6c0.3-0.4,0.5-0.9,0.5-1.6l0,0c0-0.7-0.2-1.2-0.5-1.6s-0.7-0.6-1.3-0.6c-0.6,0-1,0.2-1.3,0.6
				s-0.5,0.9-0.5,1.6l0,0c0,0.7,0.2,1.2,0.5,1.6c0.3,0.4,0.7,0.6,1.3,0.6C94.2,532.2,94.6,532,94.9,531.6z"/>
		</g>
	</g>
	<g>
		<g>
			<path class="st1" d="M172.7,540.4c0,0-0.3-0.1-0.8-0.4c-0.5-0.3-1-0.6-1.3-1.1s-0.5-1.1-0.6-1.8h1.8c0.1,0.4,0.2,0.7,0.3,0.9
				s0.4,0.4,0.7,0.5s0.6,0.2,1,0.2c0.6,0,1.1-0.2,1.4-0.5s0.5-0.8,0.5-1.3v-0.4c0-0.6-0.2-1.1-0.5-1.5c-0.3-0.3-0.8-0.5-1.3-0.5H173
				v-1.7h0.9c0.5,0,0.9-0.1,1.2-0.4s0.4-0.7,0.4-1.3v-0.4c0-0.5-0.1-0.9-0.4-1.2s-0.7-0.4-1.2-0.4c-0.3,0-0.6,0.1-0.8,0.2
				c-0.2,0.1-0.4,0.3-0.6,0.5c-0.2,0.2-0.3,0.5-0.4,0.9h-1.8c0.1-0.7,0.3-1.3,0.7-1.8s0.7-0.9,1.2-1.1s1.1-0.4,1.7-0.4
				c1.1,0,2,0.3,2.6,0.9s0.9,1.4,0.9,2.5v0.2c0,0.6-0.2,1.2-0.5,1.7s-0.8,0.8-1.5,1c0.7,0.2,1.2,0.5,1.6,1s0.6,1.2,0.6,2v0.2
				c0,0.7-0.1,1.4-0.4,1.9s-0.7,0.9-1.3,1.2s-1.2,0.4-2,0.4C173.1,540.4,172.7,540.4,172.7,540.4z"/>
		</g>
	</g>
	<g>
		<g>
			<path class="st1" d="M134.7,568c-0.5-0.3-0.9-0.7-1.2-1.3s-0.4-1.3-0.4-2.1l0,0c0-0.5,0.1-1,0.2-1.5s0.3-1,0.5-1.5
				c0-0.1,0.1-0.2,0.1-0.3s0.1-0.2,0.1-0.3l2.8-5.5h1.9l-3.3,6.4v-0.3c0.1-0.3,0.4-0.5,0.6-0.6s0.6-0.2,1-0.2c0.7,0,1.2,0.1,1.7,0.4
				s0.8,0.7,1.1,1.3c0.2,0.6,0.4,1.3,0.4,2.1l0,0c0,0.8-0.1,1.5-0.4,2.1s-0.7,1-1.2,1.3s-1.2,0.5-1.9,0.5S135.2,568.3,134.7,568z
				 M137.9,566.2c0.3-0.4,0.5-0.9,0.5-1.5l0,0c0-0.7-0.2-1.3-0.5-1.7s-0.8-0.6-1.4-0.6c-0.5,0-0.9,0.2-1.2,0.6s-0.4,0.9-0.4,1.7l0,0
				c0,0.7,0.2,1.2,0.5,1.5s0.7,0.5,1.3,0.5C137.2,566.7,137.6,566.5,137.9,566.2z"/>
		</g>
	</g>
	<line class="st1" x1="63.5" y1="447" x2="76" y2="456.6"/>
	<line class="st1" x1="63.5" y1="473.9" x2="48.6" y2="464.8"/>
	<line class="st1" x1="59.2" y1="487.4" x2="44.3" y2="484.4"/>
	<path class="st1" d="M77.6,484c-0.7-1.6-2.3-2.7-4.2-2.7c-2.5,0-4.5,2-4.5,4.5c0,1.9,1.2,3.6,2.9,4.2"/>
	<path class="st1" d="M196.1,492.4c1.3-0.8,2.2-2.2,2.2-3.9c0-2.5-2-4.5-4.5-4.5c-1.6,0-2.9,0.8-3.8,2"/>
	<path class="st1" d="M239.9,622.4c-22.6,5.7-38.8,22-38.8,41.2c0,24,25.3,43.4,56.5,43.4c17.9,0,33.9-6.4,44.2-16.4"/>
	<ellipse class="st1" cx="256.6" cy="663.7" rx="48.6" ry="36.8"/>
	<ellipse class="st1" cx="251.6" cy="725.2" rx="31.9" ry="5.8"/>
	<polygon class="st1" points="247.6,707 247.6,719.2 251.6,726.2 253.6,721.1 257.6,707 240.5,705 	"/>
	<line class="st1" x1="297.1" y1="694.7" x2="291.5" y2="689.3"/>
	<line class="st1" x1="240.5" y1="629" x2="235.8" y2="623.6"/>
	<path class="st1" d="M251.6,627.1c1.6-0.1,3.3-0.2,5-0.2c26.8,0,48.6,16.5,48.6,36.8s-21.8,36.8-48.6,36.8
		c-18.5,0-36.1-9.3-35.6-11.8c0.3-1.6,8.3-1.3,10.5-1.2c4.6,0.2,7,1.1,10.6,1.9c6.5,1.4,11.3,1.2,20.9,0.7
		c13.3-0.6,15.3-2.7,15.8-4.1c0.6-1.8,0-3.4,0-3.4c-0.6-1.5-1.8-1.7-2.6-2.6c-2.3-2.6-1-9.4,2.9-12.7c2.3-1.9,5.3-2.5,6-2.6
		c3.2-0.6,5.5,0.2,6.5-1.2c0.6-0.8,0-1.4,0.2-3.1c0.5-3.8,3.8-5,3.4-6.7c-0.3-1.3-2.3-1.3-5.5-2.4c-1.6-0.6-4.5-2.6-10.3-6.5
		c-5.4-3.7-6.9-4.8-6.7-6.2c0.2-1.6,2.3-2,2.2-3.1c-0.1-1.4-3.4-1.9-9.1-3.1c-10.6-2.3-11.3-3.2-13.9-2.4c-2.9,0.9-4.3,2.6-7.2,2.2
		c-1.3-0.2-2.7-0.8-4.1,0c-1,0.5-1,1.3-1.9,1.7c-1.6,0.7-3.6-0.6-4.1-1c-0.8-0.5-1.3-0.9-1.4-1.3c0-1,3.7-2.4,18.3-4.4"/>
	<path class="st1" d="M268.2,658c-2.2,2-3.9,4-5.1,5.7c-1.8,2.4-2.7,3.6-3.3,5.3c-0.3,1-0.6,3.2-1.2,7.7c-0.1,0.4-0.2,1.9-1,3.6
		c-0.5,1.1-1.1,2.6-1.9,2.6c-0.9,0-1.6-1.6-1.9-2.4c-2.5-5.8-4.8-11.5-5-12c-3.1-7.2-8.4-9.8-7.2-12c0.6-1.1,2.1-0.7,4.3-2.9
		c1.5-1.4,1.2-2,2.2-2.4c2.8-1.2,7.4,2.9,7.4,2.9l0,0c0,0,4.2-0.8,7.2,0C264.2,654.5,266.2,655.5,268.2,658z"/>
	<path class="st1" d="M247.8,635.2c0.4-0.7,0.8-1.6,0.5-2.2c-1-1.6-7.2,0.6-7.4,0.7c-4.3,1.6-7.1,4-9.4,6c-2.6,2.3-2.6,2.9-8.4,8.6
		c0,0-0.9,0.9-3.1,3.1c-2.4,2.4-3.8,2.9-3.6,3.6c0.3,1.4,5,1.3,5,1.9c0,0.7-5.7,0.7-6,2.2c-0.2,1.1,2.9,3.3,6,3.1
		c0.7,0,1.4-0.2,4.8-2.2c6.4-3.7,7.5-5.3,7.9-6c1-1.7,0.6-1.9,1.4-2.9c2.4-2.5,7-1.9,10.1-1.4c4.5,0.6,5.1,1.7,8.4,1.9
		c3.4,0.2,5.1-0.5,8.4-1.7c0.9-0.3,1.9-0.8,2.2-1.7c0.3-1.2-1-2.5-1.2-2.6c-1.6-1.4-3.7-1-4.1-1"/>
	<ellipse class="st1" cx="87.5" cy="678.9" rx="6.7" ry="5.9"/>
	<polygon class="st1" points="80.8,689.7 85.1,692.6 86.3,699 96.6,697.1 94.2,689.7 99.5,687.5 105.5,690.2 107.6,685.8 109.3,682 
		102.4,678.9 101.6,674.3 107.4,670.7 104.3,666.9 100.7,663.8 95,668.6 90.4,666.2 89.4,660.2 79.4,661.7 80.8,668.7 77.5,670.7 
		69.5,668.2 67.6,673 66.7,677 73.9,678.9 73.9,683.1 68.1,687.6 70.8,691.1 74.9,694.7 	"/>
	<path class="st1" d="M390.1,701.3c6.4-10.9,17.5-25.9,35.6-36.7c13.5-8,26.4-11.1,74.5-15.1c56.9-4.8,57.4-2.1,81-6.5
		c47.6-8.8,66.7-23.5,73.4-29.2c10.9-9.2,29.2-24.6,25.9-43.2c-2.4-13.5-16-27.7-32.4-27c-17.3,0.7-29.9,17.6-30.2,31.3
		c-0.5,22.7,33,39,55.1,43.2c20.7,4,37.6-1.4,46.4-4.3c25.4-8.4,41.3-24.1,48.6-32.4"/>
	<polygon class="st1" points="820.9,477.8 810.4,560.8 774.4,543.6 	"/>
	<polygon class="st1" points="820.9,477.8 757.1,537.3 716.3,532 	"/>
	<polyline class="st1" points="820.9,477.8 774.4,543.6 768.6,569.9 757.1,537.3 818,479.2 	"/>
	<polygon class="st1" points="782.7,547.6 768.6,569.9 774.4,543.6 	"/>
	<path class="st1" d="M844.1,569.9"/>
	<polygon class="st1" points="660.1,337.4 620.5,365.4 635.6,448 745.1,448 782.7,424.8 778.2,397.6 754.7,398.1 752.3,375.5 
		725.4,375.5 722,351.6 694.2,354.9 691.3,337.4 	"/>
	<polyline class="st1" points="624.8,362.4 651,362.4 653.9,380.8 678.4,380.8 683,401 713.4,403.8 716.3,418.7 743.6,420.6 
		747.4,446.6 	"/>
	<polyline class="st1" points="743.6,420.6 778.6,399.9 774.4,430 	"/>
	<line class="st1" x1="719.6" y1="419" x2="754.7" y2="398.1"/>
	<line class="st1" x1="713.4" y1="403.8" x2="752.3" y2="375.5"/>
	<line class="st1" x1="725.4" y1="375.5" x2="683" y2="401"/>
	<line class="st1" x1="722" y1="351.6" x2="678.4" y2="380.8"/>
	<line class="st1" x1="691.3" y1="337.4" x2="651" y2="362.4"/>
	<line class="st1" x1="694.2" y1="354.9" x2="653.9" y2="380.8"/>
	<line class="st1" x1="769.7" y1="405.2" x2="763.9" y2="436.4"/>
	<line class="st1" x1="761.1" y1="410.3" x2="757.1" y2="440.6"/>
	<line class="st1" x1="753.2" y1="415" x2="747.4" y2="443.9"/>
	<line class="st1" x1="750.3" y1="376.9" x2="746.3" y2="403.1"/>
	<line class="st1" x1="742.1" y1="382.9" x2="737.2" y2="408.5"/>
	<line class="st1" x1="733.7" y1="389" x2="727.4" y2="414.3"/>
	<line class="st1" x1="723.2" y1="396.7" x2="720.8" y2="419"/>
	<line class="st1" x1="688" y1="374.4" x2="684.7" y2="399.9"/>
	<line class="st1" x1="700.2" y1="366.2" x2="694" y2="394.4"/>
	<line class="st1" x1="710.7" y1="359.1" x2="703.3" y2="388.8"/>
	<line class="st1" x1="722.3" y1="353.7" x2="713" y2="382.9"/>
	<line class="st1" x1="658" y1="358" x2="655" y2="380.1"/>
	<line class="st1" x1="670.4" y1="350.3" x2="662.9" y2="375"/>
	<line class="st1" x1="679.8" y1="344.5" x2="672.1" y2="369.1"/>
	<line class="st1" x1="690.7" y1="337.8" x2="682.5" y2="362.4"/>
	<polyline class="st1" points="631.6,373.9 635.9,370.5 637.1,384 631.6,384 641.2,384 	"/>
	<path class="st1" d="M658.7,392.8c-0.1-0.2-0.7-1.7,0-2.9c0.8-1.4,2.9-1.6,4.3-1c1.1,0.5,1.9,1.5,2.2,2.6c0.4,1.9-0.9,3.6-1.7,4.6
		c-1.1,1.4-1.7,1.3-2.9,2.9c-0.8,1-1.7,2.3-1.4,3.1c0.6,1.7,6.2,1,8.6,0.7"/>
	<path class="st1" d="M692,411c0.2-0.4,0.9-1.6,2.4-2.2c0.5-0.2,2.1-0.8,3.2,0c0.9,0.7,1.2,2.1,1,3.2c-0.7,2.9-5.4,3.8-5.2,4.4
		c0.1,0.3,1.2-0.1,2.6,0.4c0.4,0.1,2.5,0.8,3.1,2.9c0.1,0.3,0.5,1.8-0.4,3.2c-0.8,1.3-2.2,1.6-2.8,1.7c-1.8,0.4-3.3-0.4-3.8-0.7
		c-1.4-0.8-2.2-1.9-2.5-2.5"/>
	<path class="st1" d="M730.9,439.8c-0.5-10.6-1.9-12.4-2.9-12.6c-0.9-0.1-2.1,1.1-4.4,3.5c-1.5,1.5-2.3,2.3-2.2,2.8
		c0.2,1,3.2,1.7,14,0.7"/>
	<path class="st1" d="M779.6,267.5c-9.9,1.6-20.8,2.9-32.4,3.6c-14.5,0.9-22.1,3.7-23.8,0.7c-0.4-0.8-0.1-2.1,10.1-15.8
		c3.5-4.8,5-6.6,4.3-7.9c-1.4-2.8-10.6-0.9-15.1,0c-35.4,7.4-49,12.2-49,12.2c-27.4,9.9-37.9,15.3-38.9,13.7
		c-0.7-1.2,3.6-5.9,25.9-21.6"/>
	<line class="st1" x1="674" y1="274.3" x2="634.9" y2="274"/>
	<path class="st1" d="M819.7,114.5l-139.6,17.8c-6.1,0.8-11.6-4.6-12.3-11.9l-6.5-73.9c-0.6-7.3,3.8-13.9,9.9-14.7L810.8,14
		c6.1-0.8,11.6,4.6,12.3,11.9l6.5,73.9C830.3,107.1,825.8,113.7,819.7,114.5z"/>
	
		<rect x="674.9" y="35.4" transform="matrix(0.9928 -0.1194 0.1194 0.9928 -3.5416 89.5453)" class="st1" width="141.2" height="77.9"/>
	<polyline class="st1" points="742.1,124.4 743.6,138.6 719.6,143 722,158.6 795,150.4 793.1,135.5 767.6,137 766.7,123.2 	"/>
	<polyline class="st1" points="719.6,146.6 701.6,150.4 707.2,170.6 822.8,160.5 824.3,170.6 740.8,180.2 742.7,190.7 816.6,184.5 
		818.9,212.6 803.6,213.8 836.8,211.4 	"/>
	<path class="st1" d="M803.1,217.1c0,11,7.6,20,16.9,20c9.3,0,16.9-9,16.9-20c0-2.9-0.6-5.6-0.6-5.6s-0.3-1.1-0.6-2.1
		c-0.9-2.5-6.9-12.3-15.6-12.4C810.7,197,803.1,207.3,803.1,217.1z"/>
	<polyline class="st1" points="721.1,152.4 729,151.5 794.2,144.2 	"/>
	<line class="st1" x1="730.4" y1="157.6" x2="729" y2="151.5"/>
	<line class="st1" x1="737.2" y1="150.6" x2="738.1" y2="156.8"/>
	<line class="st1" x1="745.5" y1="149.7" x2="745.5" y2="155.9"/>
	<line class="st1" x1="754" y1="148.7" x2="754" y2="154.6"/>
	<line class="st1" x1="761.9" y1="147.8" x2="761.9" y2="153.7"/>
	<line class="st1" x1="769.7" y1="146.9" x2="769.7" y2="152.8"/>
	<line class="st1" x1="778.5" y1="145.9" x2="778.5" y2="151.5"/>
	<line class="st1" x1="786.1" y1="145.1" x2="786.1" y2="151.4"/>
	<line class="st1" x1="772.1" y1="31.9" x2="683" y2="121"/>
	<line class="st1" x1="805.5" y1="27.9" x2="726.2" y2="115.8"/>
	<line class="st1" x1="815.6" y1="66.1" x2="782.6" y2="109"/>
	<path class="st1" d="M835.6,209.4c1.1,1.5,2.6,3.3,3.7,6.2c0.6,1.6,2.1,4.2,2.3,8c0.1,2,0.2,5-1.3,8.4c-1.3,2.9-3.1,4.6-4,5.5
		c-2.6,2.4-5.1,3.5-6,3.9c-1,0.4-4.2,1.5-8.5,1.1c-5.4-0.6-9-3.4-10.7-4.8c-1.5-1.2-3.1-2.8-4.7-6.2c-1.1-2.4-1.6-4.8-1.7-6.2"/>
	<line class="st1" x1="835.2" y1="225.6" x2="840.9" y2="230.3"/>
	<line class="st1" x1="831.4" y1="231.8" x2="836.3" y2="237.5"/>
	<line class="st1" x1="825.7" y1="235.9" x2="829.3" y2="241.7"/>
	<line class="st1" x1="819.2" y1="237.1" x2="821.7" y2="242.5"/>
	<text transform="matrix(0.9862 -0.1654 0.1654 0.9862 63.5001 78.3779)" class="st1 st2 st3">4 + 5</text>
	<path class="st1" d="M670.8,709.8c0,0-0.3,0-0.7,0c-0.3,0-0.6,0-0.8,0c-0.1,0-79.6,0-82.7,0c-0.5,0-1,0-1.6,0.1
		c-0.5,0.1-1,0.2-1.5,0.3c0.4,0.9,0.8,1.8,1.1,2.8c0.5,0.7,0.7,1.6,0.8,2.5c0.5,1.1,0.6,2.4,0.3,3.6c0.4,1.1,0.3,2.4,0,3.5
		c0,0.8-0.2,1.5-0.6,2.2c0,0.9-0.3,1.8-0.8,2.6c-0.2,0.7-0.5,1.3-0.9,1.8c-0.1,0.5-0.3,1-0.5,1.4c1.1,0.4,2.2,0.6,3.5,0.6h84.2
		c5.9,0,10.7-4.8,10.7-10.7S676.7,709.8,670.8,709.8z"/>
	<path class="st1" d="M560.2,724.5c0.3,0,0.4,0,0.4,0c2.3,0,4.1-1.8,4.1-4v-0.1c0-2.2-1.9-4-4.1-4c0,0-0.2,0-0.4,0l-10.4,3v1
		L560.2,724.5z"/>
	<polyline class="st1" points="583.5,710.2 559.8,717 558.8,720.5 560.3,724 583.1,730.6 	"/>
	<path class="st1" d="M584.7,713"/>
	<path class="st1" d="M671.1,710c0.1,0.1,0.2,0.4,0.3,0.6c0.6,1.3,0.7,2.4,0.7,3c0.3,4.2,0.5,6.3,0.4,7.6c-0.1,2.3-0.6,5.1-1.1,8.5
		c-0.1,0.6-0.2,1.1-0.2,1.4L668,731l0.1-0.3c0.1-0.3,0.2-0.8,0.3-1.3c0.4-2.2,0.4-3.9,0.5-5.3c0.2-2.6,0.3-4,0.3-6
		c-0.1-3.4-0.5-5.3-0.8-6.4c-0.2-0.6-0.3-1.1-0.5-1.4V710H671.1z"/>
	<line class="st1" x1="584.3" y1="711.9" x2="668.4" y2="711.7"/>
	<line class="st1" x1="583.6" y1="729.2" x2="668" y2="729.2"/>
	<line class="st1" x1="585.2" y1="724.7" x2="668.9" y2="724.1"/>
	<line class="st1" x1="586" y1="719.6" x2="668.9" y2="718.8"/>
	<path class="st1" d="M585.5,715.5"/>
	<g>
		<g id="Camada_12_2_">
			<path class="st1" d="M382.4,506c-1.8,3.2-3.4,6.6-4.7,9.9c-1.7,4.7-3,7.9-2.9,12.3c0,2.6,0.5,4.8,1.1,6.8c1.8,5.5,4.9,9,9.5,13.9
				c1.5,1.6,3.6,3.8,6.6,6.3c6.6,5.4,12.4,7.9,20.8,11.4c5.2,2.2,10.9,3.8,22.3,7c3.8,1.1,6.5,1.8,10.1,1.6c5.6-0.6,10-2.8,12.6-4.5
				c4.5-1.4,7.6-3.5,9.5-5c2-1.5,6.7-5.4,9.2-12.1c0.7-2,1-3.6,1.3-5.3c3-19.5,1.3-21,3.3-33.4c0-0.2,0.1-0.5,0.1-0.7"/>
			<path class="st1" d="M471.8,496.9c-0.4-0.8-1-1.7-1.9-2.7"/>
			<path class="st1" d="M468.2,492.4c-0.2-0.1-0.3-0.3-0.5-0.4c-0.1-0.1-0.4-0.3-0.6-0.6c-5.1-4-12.5-5-12.5-6.4
				c0-0.8,3.8-0.1,6.2-2.6c1.5-1.6,2.2-4.5,1.3-5.8c-1.8-2.2-7.8,0.6-8.1,0.6c-2.7,1.3-3.9,3.5-4.4,3.1c-0.3-0.2,1.3-2.1,1.6-5.1
				c0.1-1.4-0.2-2.1-0.2-2.4c0-0.1-0.8-2.1-2.8-2.4c-0.2-0.1-0.9-0.2-1.7,0.1c-2.7,1-2.4,6.1-3.9,6.3c-1.3,0.1-1.5-3.3-4.6-5.6
				c-1.7-1.3-4.3-2.3-5.2-1.3c-0.8,0.8-0.2,3.1,0.5,4.5c1.1,2.1,2.8,2.7,2.7,3.1c-0.2,0.5-4.6-1.9-9.3-2.1c-2-0.1-6,0.2-6.2,0.2
				c0,0-0.2,0-0.3,0.1l-0.3,0.1c-1.9,0.3-2.1,0.3-3.5,0.5"/>
			<path class="st1" d="M397.6,480.6c-0.1,0.4-0.2,0.8-0.4,1.3c0,0.2-0.6,1.5-1.4,3c-1.2,2.2-3.8,5.9-6.7,10.4"/>
			<g id="Camada_4_3_">
				<path class="st1" d="M425.7,494.9"/>
			</g>
			<path class="st1" d="M399.1,465.2"/>
			<path class="st1" d="M389.9,460.2c-2.2-1.1-4.3-2.3-6.5-3.4c-1.2-0.6-2.3-1.2-3.6-1.6c-0.5-0.2-1.3,0.2-2,0.3
				c-0.1-0.4-0.3-0.8-0.5-1.3C382.1,455.3,386.1,457.4,389.9,460.2z"/>
			<path class="st1" d="M423.3,529"/>
			<path class="st1" d="M466.9,511.6"/>
			<path class="st1" d="M429.2,537.1"/>
			<path class="st1" d="M428.8,532.5"/>
			<path class="st1" d="M449.4,556.2"/>
			<path class="st1" d="M402.2,484.7"/>
			<path class="st1" d="M421.2,480.3"/>
			<path class="st1" d="M420.6,479.6"/>
			<path class="st1" d="M424.2,506.3"/>
			<path class="st1" d="M421,501.2"/>
			<path class="st1" d="M422.6,503.8"/>
			<path class="st1" d="M393.7,522.1"/>
			<path class="st1" d="M443.2,514.6"/>
			<path class="st1" d="M435.9,541.7"/>
			<path class="st1" d="M430.5,529.1"/>
			<path class="st1" d="M435.5,515.3c5.1-4.4,12.1-6.2,19-4.1c4.7,1.4,8.6,4.4,11.3,8.3"/>
			<path class="st1" d="M469,537.5c0,0.1,0,0.2-0.1,0.3c-1.1,4.1-3.3,7.5-6.1,10.1"/>
			<path class="st1" d="M454,552.6c-3.4,0.9-7.1,0.8-10.7-0.3c-9.6-2.9-15.8-12.3-15.2-22.2"/>
			
				<ellipse transform="matrix(0.99 -0.1411 0.1411 0.99 -70.6744 68.6676)" class="st1" cx="448.9" cy="532.7" rx="12.2" ry="12.7"/>
			<path class="st1" d="M440.2,530.1c1.6-5.3,6.4-8,11.5-6.5c4.9,1.5,7.9,7.2,6.4,12.2s-7.3,8.4-12.2,6.6
				C441.6,540.8,438.5,536.2,440.2,530.1z"/>
			<path class="st1" d="M421.8,524.9c-4,9.6-14.5,14.9-24.6,11.8c-11-3.3-17.5-15.2-14.4-26.6c0.2-0.7,0.4-1.4,0.7-2.1"/>
			<path class="st1" d="M394.5,496.4c4.2-1.8,9-2.2,13.8-0.8c7.4,2.2,12.8,8.3,14.6,15.6"/>
			
				<ellipse transform="matrix(0.99 -0.1411 0.1411 0.99 -68.8329 62.0572)" class="st1" cx="403.2" cy="516.4" rx="12.2" ry="12.7"/>
			<path class="st1" d="M394.5,513.2c1.6-5.3,6.4-8,11.5-6.5c4.9,1.5,7.9,7.2,6.4,12.2s-7.3,8.4-12.2,6.6
				C395.9,523.9,392.9,519.2,394.5,513.2z"/>
			<path class="st1" d="M400.8,488.4"/>
			<path class="st1" d="M400.4,488.1"/>
			<path class="st1" d="M398.6,486.8"/>
			<path class="st1" d="M407.5,495.4"/>
			<g id="Camada_4_2_">
				<path class="st1" d="M444.3,510.4c20.2,0.7,28.4,2.1,28.4,2.1c8.8,1.6,9.2,2.3,12.7,2.1c6.5-0.3,11.8-3,15.2-5.2
					c-1.1,0.1-2.7-0.1-4.6-0.6c-2.5-0.8-5.1-2.6-4.9-3.3c0.1-0.2,0.4-0.3,0.6-0.4c4.5-0.9,9.4-5.6,10.2-6.7c0-0.1,0.1-0.2,0.5-0.8
					c0.5-0.9,0.8-1.2,0.6-1.2c0-0.1-0.3,0.1-1,0.3c0,0,0,0-0.8,0.2c-1.5,0.3-14.6,0.1-17.6,0.3c-0.2,0-1.4,0.1-2.9,0.1
					c-0.7,0-1.1,0-1.5,0c-0.6,0-1.2,0-2.1-0.1c-1-0.1-1.1-0.2-1.7-0.3c-0.6-0.1-1.5-0.1-1.5-0.1s-5.1-0.1-5.2-0.4l0,0
					c0-0.1,0-0.2,0-0.2c0-0.2-0.1-0.3-0.1-0.3c0-0.2,0.4-0.4,0.7-0.5c0,0,0.3-0.2,0.7-0.5s0.4-0.6,0.8-1.2c0.6-0.9,1-1.2,1-1.4
					c-0.1-0.2-0.7,0-1.8,0.2c0,0-0.5,0.1-1.6,0.2c-2,0.3-13.9,1.5-19.2,2.6c-0.5,0.2-1.4,0.3-2.6,0.7c-1.4,0.5-2.4,1-3.1,1.2
					c-3.2,1.5-4.7,3.2-5.3,2.6c-0.1,0-0.1-0.2-0.2-0.4c-0.4-1.3,0.7-2.2,0.6-3.2c-0.1-0.9-1.1-1.5-3.1-2.9c-0.3-0.2-0.1-0.1-2.3-1.4
					c-1.5-1-2-1.3-3-1.7c-1.1-0.4-1.8-0.6-2.3-0.3c-0.7,0.4-0.8,1.6-0.9,2.3c-0.1,1.4,0.3,3.2,0.1,3.2c0,0,0,0-0.2,0c0,0,0,0-0.1,0
					s-0.2,0-0.2,0c-0.1-0.1-0.3-1.5-0.4-1.7c0-0.4-0.2-1-0.3-1.8c0,0-0.7-3.1-2.4-6.3c-4.6-9-15.7-17.7-15.7-17.7
					c-1.5-1.3-5.2-4.3-5.7-3.8c-0.1,0.2,0.1,0.6,0.5,1.7c0.4,0.9,1.6,4.3,1.1,4.8c-0.8,0.7-5.5-3.6-7.4-5.4
					c-4.1-3.7-10.4-8-19.9-11.3l1.2,2.5c0.8,1.8,2.1,4.4,4,7.3c3.9,6,7.8,9.6,14.3,15.6c9.3,8.6,13.9,12.9,14.2,13.2
					c4,4.3,6.8,7.4,9,9.6c3.3,3.5,4.9,5.1,5.2,7.8c0.2,1.5-0.2,3,0.8,4.3c1.2,1.8,3.3,2.1,3.7,2.2c1.6,0.2,3.4-1,7.1-3.2
					c2.2-1.4,3-2,4.6-2.4C442.2,510.3,443.6,510.3,444.3,510.4z"/>
			</g>
			<g id="Camada_5_2_">
				<g>
					<path class="st1" d="M477.2,526c0,0.4,0,0.5,0,0.5 M477.3,526.7c0,0-0.7,6.1-3.5,8.5c-0.1,0.1-0.3,0.2-0.3,0.2l0,0
						c-1.1,0.8-2.1,0.7-2.9,1c-0.9,0.3-1.5,1-2.3,1.9c-2.5,2.9-2.6,5.6-5.2,9.2c-1.1,1.6-2.4,3.3-4.5,4.3c-1.5,0.7-3,0.8-4.1,0.7
						c-7.8-0.1-15-4.2-15-4.2c-5.2-2.9-7.8-4.4-9.4-7.7c-2.4-5-1.9-12.3-1.9-13.2c0,0,0.1-0.2,0-0.3c0.2-3.4,0.3-6.3-0.6-6.6
						c-0.2-0.1-0.5-0.1-1.1,0.1c-0.4,0-0.7,0.2-1.1,0.4c0,0,0,0-0.5,0.4c-0.3,0.2-0.5,0.3-0.5,0.4c-0.9,0.6-5.3,7-5.3,7
						c-1,1.4-2.8,4-6,5.8c-1.5,0.8-2.7,1.1-3.4,1.3c-4,1-10.5,0.9-16.7-3c-2.2-1.4-9.7-6.2-9.8-12.5c0-1.5,0.3-7.1,0.5-9.7
						c0.1-1.1,0.2-2.7-0.7-3.7c-0.3-0.5-1-0.8-1.5-1.7c0,0-0.3-0.5-0.5-1.1c-0.5-1.5,0.1-3.3,2.3-8.5c0.6-1.5,1.2-2.6,2-2.8
						c0.6-0.1,1.1,0.3,1.3,0.4c2,1.6,7.6,3.2,18.8,6.7c0.1,0.1,0.4,0.2,0.9,0.3c0.9,0.3,2.4,0.9,4.3,1.8c0,0,0,0,0.1,0
						c3.5,1.8,5.7,2.8,7.5,4c0,0,0.1,0.1,0.2,0.2c0,0,1.2,0.9,2.3,1.9c1.6,1.6,2,3.2,4.1,5.2c0.9,0.9,1.5,1.4,2.2,1.9
						c0,0,2.6,1.3,6.9,0.3c0.2-0.1,0.5-0.2,0.5-0.2c0.2-0.1,0.4-0.1,0.7-0.3c0.2,0,0.3-0.2,0.5-0.2c5.7-1.8,11.1-1,11.1-1
						c0.7,0.2,1.5,0.3,2.1,0.5c12.5,3.1,18,5,20.2,6.1c0.6,0.3,1.2,0.7,2.3,1.1c3.5,1.5,5.3,1.2,6,2.6
						C477.5,524.7,477.4,525.4,477.3,526.7z M419,524c1.7-2.6,2-4.6,2-5.4c0.1-1.8-0.3-3.1-0.6-4c-2.1-4.1-5.1-7-8.8-9.2
						c-1.4-0.6-3.4-1.5-5.9-2.6c-5.6-2.3-8.4-3.5-10.7-3c-3.2,0.7-6,3.3-7.3,6.1c-0.1,0.5-0.5,2.3-1,5.9c-0.5,3.3-0.9,6.1-0.9,7.2
						c0,0.1,0,0.1,0,0.1c-0.5,5.5,5.1,9.7,6.3,10.7c1.8,1.4,3.5,2.1,4.5,2.4c1.3,0.4,4.3,1.7,8,1.5C413.2,533,418.2,525.3,419,524z
						 M433.6,540.5C433.6,540.6,433.6,540.4,433.6,540.5c0,0,0,0.1,0.1,0.1 M442.1,518.4c-3.3,0.3-4.8,1-5.3,1.4
						c-0.6,0.3-1.4,0.7-2.2,1.5c-1.2,1.1-2.1,2.9-2.5,6.6c-0.6,5.2-0.9,9,1.4,12.4c2.3,3.3,6.6,5.2,8.6,6.1c0.1,0,0.2,0.1,0.3,0.1
						c1.8,0.8,3.7,1.6,6,2.3c1.7,0.5,3,0.8,4.9,0.8c1.1-0.1,2.7-0.1,4.3-0.9c1.5-0.8,2.4-1.8,3-2.5c0.8-0.9,1.2-1.7,1.4-2
						c2.3-3.8,5.6-8.8,7-13.6c0.1-0.4,0.3-1,0.2-1.8c-0.3-1.9-2.1-3-2.9-3.4c-0.1,0-0.1-0.1-0.2-0.2c0,0,0-0.1-0.2-0.2
						c-7.5-5.7-18.6-6.5-18.6-6.5C446.5,518.3,444.7,518.2,442.1,518.4z"/>
				</g>
				<path class="st1" d="M421.5,521.9c0.2-0.5,1.3-2.4,2.2-3.1c1.4-1.1,3.3-1.3,3.9-1.3"/>
			</g>
			<path class="st1" d="M468.5,492.7"/>
			
				<ellipse transform="matrix(0.8876 -0.4606 0.4606 0.8876 -189.4723 241.3023)" class="st1" cx="399.7" cy="508.9" rx="2" ry="3.4"/>
			
				<ellipse transform="matrix(0.8876 -0.4606 0.4606 0.8876 -192.0959 264.3444)" class="st1" cx="445.6" cy="525.8" rx="2" ry="3.4"/>
			<g id="Camada_6_1_">
				<path class="st1" d="M486.5,495.9"/>
			</g>
			<g id="Camada_3_2_">
				<path class="st1" d="M437.5,480.6"/>
			</g>
			<path class="st1" d="M413,560.9l-1.6,1.1c-0.1-1.2-0.2-2-0.2-2.9c0.7-5.5-0.2-11-1.5-16.5c-0.1-0.6,0-1.8,0.4-1.9
				c4.8-2.1,8.4-5.8,11.3-10.1c0.7-1.1,1.4-2.2,2.1-3.4c1.9,1.9,1.5,4.2,1.6,6.5c0.1,1.1,0.3,2.2,0.5,3.3l0,0
				c0.3,3.6,1.3,6.8,3.5,9.8c0.1,0.2,0.3,0.4,0.4,0.6c1.9,3.3,1.9,3.3-1.6,4.1c-4,0.9-7.1,3.1-10.2,5.5c-1.5,1.3-3,2.6-4.5,3.8
				C413.1,560.8,413.1,560.8,413,560.9z"/>
		</g>
	</g>
	<path class="st1" d="M1291,33.5c-21.1-9.9-44-7.6-56.2,7.2c-15.2,18.5-8,49.6,16.2,69.4c13.9,11.4,30.3,16.5,44.6,15.4"/>
	
		<ellipse transform="matrix(0.6343 -0.7731 0.7731 0.6343 408.5632 1015.6568)" class="st1" cx="1277.8" cy="76" rx="36.8" ry="48.6"/>
	
		<ellipse transform="matrix(0.6343 -0.7731 0.7731 0.6343 358.5387 998.7375)" class="st1" cx="1234.9" cy="120.4" rx="5.8" ry="31.9"/>
	<polygon class="st1" points="1243.3,103.8 1235.6,113.2 1234.2,121.2 1239,118.4 1251,110.1 1239.1,97.7 	"/>
	<line class="st1" x1="1289.4" y1="125.6" x2="1288.5" y2="117.9"/>
	<line class="st1" x1="1287.3" y1="38.9" x2="1287.1" y2="31.8"/>
	<path class="st1" d="M1297.1,44.5c1.4,0.9,2.7,2,4,3c20.7,17,27.1,43.5,14.2,59.3c-12.9,15.7-40.1,14.6-60.9-2.4
		c-14.3-11.7-22-30.1-20.1-31.7c1.2-1,7.2,4.3,8.9,5.7c3.5,3,4.7,5.3,6.9,8.2c4.1,5.2,8,8.1,15.7,13.8c10.7,7.9,13.5,7.7,14.8,6.9
		c1.6-1,2.1-2.6,2.1-2.6c0.5-1.5-0.3-2.4-0.4-3.7c-0.2-3.5,5.2-7.9,10.3-8c3,0,5.7,1.4,6.3,1.8c2.9,1.6,4.1,3.6,5.8,3.2
		c1-0.3,0.9-1.1,2.2-2.3c2.8-2.6,6.1-1.5,6.9-3.1c0.6-1.2-1-2.4-2.7-5.4c-0.9-1.5-1.9-4.9-3.9-11.6c-1.8-6.3-2.3-8.1-1.2-9.1
		c1.1-1.1,3-0.1,3.6-1c0.8-1.2-1.4-3.6-5.1-8.2c-6.7-8.5-6.7-9.6-9.2-10.7c-2.8-1.2-5-0.7-6.9-2.9c-0.9-1-1.6-2.3-3.2-2.6
		c-1.1-0.2-1.6,0.3-2.5,0.1c-1.7-0.5-2.4-2.7-2.5-3.3c-0.3-0.9-0.5-1.5-0.3-1.8c0.6-0.8,4.3,0.5,16.9,8.2"/>
	<path class="st1" d="M1290.3,78.9c-3,0.2-5.5,0.6-7.6,1.2c-2.9,0.7-4.3,1.1-5.9,2.1c-0.9,0.6-2.5,2.1-5.8,5.2
		c-0.3,0.3-1.4,1.3-3,2.2c-1,0.6-2.5,1.3-3.2,0.8s-0.2-2.2,0-3.1c1.8-6,3.6-11.9,3.7-12.5c2.2-7.6-0.3-12.9,2-13.8
		c1.2-0.5,2.1,0.8,5.2,0.5c2-0.2,2.2-0.8,3.2-0.5c2.9,0.8,3.9,6.9,3.9,6.9l0,0c0,0,3.7,2.1,5.6,4.6
		C1289.4,73.7,1290.3,75.7,1290.3,78.9z"/>
	<path class="st1" d="M1289,48.4c0.8-0.3,1.6-0.7,1.7-1.4c0.3-1.9-5.9-4.1-6.2-4.2c-4.3-1.5-8-1.4-11-1.3c-3.5,0.1-3.9,0.5-12,1.4
		c0,0-1.2,0.1-4.4,0.4c-3.3,0.3-4.7-0.2-5.1,0.5c-0.7,1.2,3.1,4.2,2.7,4.7c-0.4,0.6-4.9-3.1-6-2.1c-0.9,0.8,0.2,4.4,2.7,6.2
		c0.5,0.4,1.2,0.7,5.1,1.4c7.3,1.2,9.2,0.7,9.9,0.4c1.9-0.6,1.7-1.1,2.9-1.3c3.4-0.5,6.6,3,8.7,5.3c3.1,3.3,2.9,4.6,5.3,6.8
		c2.5,2.3,4.2,2.9,7.6,4c0.9,0.3,2,0.6,2.7,0.1c1-0.7,0.8-2.6,0.7-2.8c-0.3-2.1-2.2-3.2-2.5-3.3"/>
	<g>
		<g id="Camada_12_1_">
			<path class="st1" d="M997.1,122.7c0.9,2.7,1.9,5.3,3.1,7.7c1.8,3.4,2.9,5.7,5.4,8c1.5,1.3,3,2.2,4.4,2.9c4,1.8,7.6,1.9,12.8,1.9
				c1.7,0,4,0,6.9-0.4c6.5-0.9,10.9-2.9,17.3-5.7c3.9-1.8,7.8-4.1,15.6-8.8c2.6-1.6,4.4-2.7,6.2-4.8c2.6-3.4,3.6-7,4-9.3
				c1.5-3.2,2-6,2.2-7.9s0.4-6.5-2-11.4c-0.8-1.4-1.5-2.4-2.3-3.5c-9.4-11.8-11.1-11.5-17.1-19.1c-0.1-0.1-0.2-0.3-0.3-0.4"/>
			<path class="st1" d="M1038.6,68.1c-0.6-0.2-1.5-0.3-2.5-0.3"/>
			<path class="st1" d="M1034.2,67.8c-0.2,0-0.3,0-0.5,0c-0.1,0-0.4,0.1-0.7,0.1c-4.9,0.7-9.3,4.4-10.1,3.6
				c-0.4-0.4,1.9-2.1,1.7-4.8c-0.1-1.7-1.4-3.6-2.6-3.7c-2.2-0.1-3.8,4.6-3.9,4.8c-0.7,2.2-0.1,4-0.6,4.1c-0.3,0.1-0.5-1.8-2-3.5
				c-0.7-0.8-1.3-1-1.5-1.1c0-0.1-1.6-0.6-2.8,0.3c-0.2,0.1-0.6,0.4-0.8,1c-0.9,2,2.2,4.5,1.5,5.4c-0.6,0.7-2.6-0.9-5.6-0.3
				c-1.6,0.3-3.5,1.2-3.5,2.2c0,0.9,1.6,1.7,2.8,2c1.8,0.5,3-0.2,3.2,0.1c0.2,0.4-3.4,1.6-6,4.1c-1.1,1.1-3,3.4-3.1,3.5
				c0,0-0.1,0.1-0.2,0.2l-0.2,0.2c-0.9,1.2-0.9,1.4-1.5,2.2"/>
			<path class="st1" d="M990.7,101.1c0.1,0.2,0.3,0.5,0.5,0.9c0.1,0.1,0.6,1.1,0.9,2.3c0.6,1.8,1.3,5.2,2.3,9.1"/>
			<g id="Camada_4_4_">
				<path class="st1" d="M1013.4,92.8"/>
			</g>
			<path class="st1" d="M982.8,92.3"/>
			<path class="st1" d="M975.2,94.8c-1.8,0.6-3.5,1.2-5.3,1.9c-1,0.4-1.9,0.7-2.8,1.2c-0.4,0.2-0.6,0.8-0.9,1.2
				c-0.3-0.1-0.6-0.2-1-0.4C968.4,96.7,971.7,95.5,975.2,94.8z"/>
			<path class="st1" d="M1031.3,111.7"/>
			<path class="st1" d="M1044.3,78.4"/>
			<path class="st1" d="M1039,112.7"/>
			<path class="st1" d="M1036.2,110.5"/>
			<path class="st1" d="M1060.3,111.2"/>
			<path class="st1" d="M995.4,100.6"/>
			<path class="st1" d="M1002.8,87.8"/>
			<path class="st1" d="M1002.1,87.7"/>
			<path class="st1" d="M1019.1,99.5"/>
			<path class="st1" d="M1014.5,98.7"/>
			<path class="st1" d="M1016.8,99.1"/>
			<path class="st1" d="M1012,124.7"/>
			<path class="st1" d="M1033.6,93.3"/>
			<path class="st1" d="M1045.1,111.3"/>
			<path class="st1" d="M1035.2,107.8"/>
			<path class="st1" d="M1030,97.9c0.2-5.1,2.9-9.9,7.6-12.7c3.3-1.9,7-2.5,10.5-2"/>
			<path class="st1" d="M1060,90.6c0,0.1,0.1,0.1,0.1,0.2c1.7,2.7,2.5,5.7,2.5,8.6"/>
			<path class="st1" d="M1060.7,106.8c-1.3,2.3-3.2,4.4-5.7,5.8c-6.6,3.9-15.1,2.5-20.4-3"/>
			
				<ellipse transform="matrix(0.4736 -0.8807 0.8807 0.4736 463.451 974.2866)" class="st1" cx="1046.8" cy="99.4" rx="9.3" ry="9.7"/>
			<path class="st1" d="M1040.8,102.9c-2.2-3.6-1.2-7.7,2.3-9.7c3.4-1.9,8.2-0.7,10.2,2.7c2,3.4,0.9,8.4-2.6,10.2
				C1047.5,107.6,1043.3,107,1040.8,102.9z"/>
			<path class="st1" d="M1028.3,110.5c3.3,7.2,0.8,15.8-6.2,19.8c-7.6,4.5-17.7,1.9-22.5-5.7c-0.3-0.5-0.6-0.9-0.8-1.4"/>
			<path class="st1" d="M998,111c1.2-3.3,3.5-6.2,6.7-8.1c5.1-3,11.4-2.8,16.4-0.1"/>
			
				<ellipse transform="matrix(0.4736 -0.8807 0.8807 0.4736 431.1078 954.1649)" class="st1" cx="1013.8" cy="116.4" rx="9.3" ry="9.7"/>
			<path class="st1" d="M1007.4,119.7c-2.2-3.6-1.2-7.7,2.3-9.7c3.4-1.9,8.2-0.7,10.2,2.7c2,3.4,0.9,8.4-2.6,10.2
				C1014.2,124.4,1010,123.6,1007.4,119.7z"/>
			<path class="st1" d="M996.8,103.3"/>
			<path class="st1" d="M996.4,103.4"/>
			<path class="st1" d="M994.7,103.7"/>
			<path class="st1" d="M1004.2,103.2"/>
			<g id="Camada_4_1_">
				<path class="st1" d="M1031.8,90.4c10.9-10.9,16-14.7,16-14.7c5.5-4.1,6.1-3.9,7.8-6c3.2-3.8,4.5-8.1,5-11.1
					c-0.5,0.6-1.4,1.5-2.7,2.2c-1.7,1-4.1,1.5-4.4,1c-0.1-0.2,0.1-0.4,0.1-0.5c1.8-2.9,1.7-8.1,1.5-9.1c0-0.1,0-0.2-0.2-0.7
					c-0.2-0.8-0.3-1.1-0.4-1c-0.1,0-0.2,0.2-0.4,0.7c0,0,0,0-0.3,0.5c-0.6,1-7.5,8.2-9,9.9c-0.1,0.1-0.7,0.9-1.5,1.7
					c-0.3,0.4-0.6,0.6-0.8,0.8c-0.3,0.3-0.6,0.7-1.2,1.1c-0.5,0.5-0.7,0.5-1,0.8c-0.4,0.3-0.8,0.8-0.8,0.8s-2.7,2.8-2.9,2.7l0,0
					c-0.1,0-0.1-0.1-0.1-0.1c-0.1-0.1-0.2-0.1-0.2-0.1c-0.1-0.1,0-0.4,0-0.7c0,0,0.1-0.2,0-0.7c0-0.4-0.1-0.6-0.3-1.1
					c-0.2-0.8-0.1-1.2-0.2-1.3c-0.2-0.1-0.3,0.4-0.8,1.1c0,0-0.2,0.3-0.7,1c-0.9,1.2-6.4,8.6-8.5,12.1c-0.2,0.4-0.6,0.9-1,1.8
					c-0.5,1-0.7,1.9-0.9,2.3c-0.8,2.5-0.6,4.3-1.3,4.3c-0.1,0-0.2-0.1-0.3-0.1c-0.9-0.4-0.9-1.5-1.5-2c-0.5-0.4-1.4-0.2-3.3,0.2
					c-0.3,0.1-0.1,0.1-2,0.5c-1.3,0.3-1.8,0.5-2.5,0.8c-0.8,0.4-1.3,0.7-1.4,1.1c-0.1,0.6,0.5,1.3,0.8,1.7c0.7,0.8,2,1.5,1.9,1.6
					c0,0,0,0-0.1,0.1c0,0,0,0-0.1,0s-0.1,0.1-0.1,0.1c-0.1,0.1-1-0.6-1.2-0.6c-0.2-0.2-0.7-0.4-1.2-0.7c0,0-2.1-1.2-4.8-1.9
					c-7.5-2-18.2-0.4-18.2-0.4c-1.5,0.2-5.1,0.7-5.1,1.2c0,0.2,0.4,0.3,1.2,0.6c0.7,0.3,3.2,1.3,3.3,1.9c0,0.8-4.9,1.2-6.9,1.4
					c-4.2,0.4-10,1.7-16.8,5.2l2,0.6c1.4,0.4,3.5,1.1,6.2,1.5c5.4,0.9,9.5,0.6,16.2,0.1c9.7-0.7,14.5-1.1,14.9-1.1
					c4.5,0,7.7,0,10.1,0c3.7-0.1,5.4-0.1,7.1,1.1c1,0.7,1.6,1.6,2.8,1.8c1.6,0.3,2.9-0.7,3.2-1c0.9-0.8,1.2-2.4,1.9-5.6
					c0.4-2,0.5-2.7,1-3.8C1030.7,91.6,1031.4,90.8,1031.8,90.4z"/>
			</g>
			<g id="Camada_5_1_">
				<g>
					<path class="st1" d="M1057.8,80.1c0.2,0.2,0.3,0.3,0.3,0.3 M1058.2,80.5c0,0,3.1,3.6,2.9,6.3c0,0.1,0,0.3,0,0.3l0,0
						c-0.1,1-0.7,1.6-0.9,2.1c-0.3,0.7-0.2,1.3-0.1,2.3c0.4,2.9,1.7,4.3,2.5,7.7c0.3,1.4,0.6,3,0.1,4.7c-0.4,1.2-1.1,2.1-1.7,2.7
						c-4.2,4.3-10.2,6.2-10.2,6.2c-4.4,1.4-6.6,2-9.2,1.3c-4-1.2-8-5.3-8.4-5.7c0,0-0.1-0.2-0.2-0.2c-1.8-1.8-3.4-3.4-4-3.1
						c-0.2,0.1-0.3,0.2-0.5,0.6c-0.2,0.2-0.3,0.5-0.4,0.8c0,0,0,0,0,0.5c0,0.3-0.1,0.5,0,0.5c-0.1,0.8,1.2,6.6,1.2,6.6
						c0.2,1.3,0.8,3.7,0.1,6.3c-0.3,1.2-0.8,2.1-1,2.6c-1.5,2.8-5,6.3-10.4,7.8c-1.9,0.5-8.5,2.2-12.1-1c-0.8-0.7-3.9-3.8-5.2-5.3
						c-0.6-0.6-1.4-1.5-2.5-1.5c-0.4,0-1,0.1-1.8-0.1c0,0-0.5-0.1-0.9-0.3c-1.1-0.5-1.8-1.8-3.6-5.7c-0.5-1.1-0.9-2-0.5-2.5
						c0.3-0.4,0.8-0.5,0.9-0.5c2-0.3,5.8-2.6,13.6-7.1c0.1-0.1,0.3-0.2,0.6-0.3c0.6-0.3,1.8-0.9,3.3-1.4c0,0,0,0,0.1,0
						c2.9-1,4.5-1.7,6.2-2.1c0,0,0.1-0.1,0.2,0c0,0,1.1-0.2,2.3-0.3c1.8-0.1,2.9,0.5,5,0.4c1,0,1.5-0.1,2.2-0.2c0,0,2.1-0.8,3.8-3.7
						c0-0.2,0.2-0.4,0.2-0.4c0-0.2,0.1-0.3,0.2-0.5c0.1-0.1,0.1-0.2,0.2-0.4c1.9-4.1,5.2-6.7,5.2-6.7c0.4-0.3,0.9-0.6,1.4-0.9
						c8.3-5.3,12.2-7.4,14-8.1c0.5-0.2,1-0.3,1.8-0.7c2.6-1.2,3.4-2.3,4.6-2C1057.2,79.3,1057.6,79.7,1058.2,80.5z M1026.3,111.5
						c-0.6-2.3-1.5-3.5-2-3.9c-0.9-1-1.9-1.4-2.6-1.7c-3.4-1-6.6-0.8-9.8,0.2c-1.1,0.4-2.6,1.1-4.5,2c-4.2,1.9-6.3,2.9-7.3,4.4
						c-1.3,2.2-1.3,5-0.4,7.2c0.2,0.3,1,1.4,2.8,3.6c1.6,2,3,3.6,3.6,4.2c0,0.1,0,0.1,0,0.1c2.8,3.1,8.2,2.2,9.3,2
						c1.8-0.3,3-0.9,3.7-1.2c0.9-0.5,3.2-1.5,5-3.7C1028.3,119.5,1026.6,112.7,1026.3,111.5z M1043.2,111.9
						C1043.3,112,1043.1,111.9,1043.2,111.9L1043.2,111.9 M1035.2,95.8c-1.5,2-1.9,3.2-2,3.6c-0.1,0.5-0.3,1.1-0.3,2
						c0,1.2,0.6,2.7,2.4,4.8c2.6,3,4.6,5.2,7.7,5.6s6.4-1,7.9-1.6c0.1,0,0.2-0.1,0.2-0.1c1.4-0.6,2.8-1.2,4.4-2.2
						c1.1-0.7,2-1.3,3-2.4c0.5-0.6,1.3-1.5,1.7-2.9c0.4-1.3,0.2-2.2,0.2-3c-0.1-0.9-0.3-1.5-0.4-1.8c-1-3.2-2-7.7-4-10.9
						c-0.2-0.3-0.4-0.7-0.9-1c-1.2-0.8-2.8-0.4-3.5-0.1c-0.1,0-0.1,0-0.2,0c0,0-0.1,0-0.2,0c-7.1,1.2-13.3,7-13.3,7
						C1037.5,93.3,1036.4,94.2,1035.2,95.8z"/>
				</g>
				<path class="st1" d="M1026.4,109c-0.2-0.4-0.7-1.9-0.6-2.8c0.1-1.4,1-2.5,1.3-2.9"/>
			</g>
			<path class="st1" d="M1034.5,67.8"/>
			
				<ellipse transform="matrix(0.2605 -0.9655 0.9655 0.2605 634.7593 1057.5773)" class="st1" cx="1007.7" cy="114.4" rx="1.5" ry="2.6"/>
			
				<ellipse transform="matrix(0.2605 -0.9655 0.9655 0.2605 675.715 1077.3907)" class="st1" cx="1041.2" cy="97.6" rx="1.5" ry="2.6"/>
			<g id="Camada_6_2_">
				<path class="st1" d="M1045.7,59.4"/>
			</g>
			<g id="Camada_3_1_">
				<path class="st1" d="M1011.5,78.9"/>
			</g>
			<path class="st1" d="M1043.9,133.9l-0.3,1.5c-0.7-0.5-1.2-1-1.8-1.4c-2.8-3.2-6.3-5.6-10.1-7.7c-0.4-0.3-1-0.9-0.9-1.2
				c1.3-3.8,1.1-7.7,0.2-11.5c-0.3-1-0.5-1.9-0.8-2.9c2.1,0,3.2,1.3,4.5,2.5c0.7,0.6,1.4,1,2.1,1.4l0,0c2.1,1.7,4.5,2.8,7.4,3.2
				c0.2,0.1,0.4,0.1,0.6,0.1c2.8,0.6,2.9,0.7,1.5,3c-1.6,2.7-2,5.6-2.2,8.5C1044,130.9,1044,132.4,1043.9,133.9
				C1044,133.9,1044,133.9,1043.9,133.9z"/>
		</g>
	</g>
	<path class="st1" d="M1011.4,453.9l-92.3,34.5c-5.5,2.1-11.4-0.2-13.1-5L862.6,357c-1.6-4.8,1.5-10.5,7-12.6l92.3-34.5
		c5.5-2.1,11.4,0.2,13.1,5l43.4,126.4C1020.1,446.2,1017,451.9,1011.4,453.9z"/>
	<polygon class="st1" points="915.7,475.1 1008.5,442.7 964.7,323.6 871.9,356.1 	"/>
	<polygon class="st1" points="924.9,453.7 918.2,434.6 932.6,429.3 939.3,448.4 	"/>
	<polygon class="st1" points="914.2,423.2 907.5,404.1 921.9,398.8 928.6,417.9 	"/>
	<polygon class="st1" points="902.8,391.3 896.1,372.2 910.5,366.9 917.2,386 	"/>
	<polyline class="st1" points="903,410.2 917.5,416.6 925.3,391.4 	"/>
	<path class="st1" d="M926.7,373.4c4.2-1.1,8.7-2.3,13.4-3.8c7.8-2.5,14.8-5.4,21.1-8.2"/>
	<path class="st1" d="M923.9,365.6c4.2-1.1,8.7-2.3,13.4-3.8c7.8-2.5,14.8-5.4,21.1-8.2"/>
	<path class="st1" d="M929.5,381.2c4.2-1.1,8.7-2.3,13.4-3.8c7.8-2.5,14.8-5.4,21.1-8.2"/>
	<path class="st1" d="M937.3,405.7c4.2-1.1,8.7-2.3,13.4-3.8c7.8-2.5,14.8-5.4,21.1-8.2"/>
	<path class="st1" d="M934.6,397.9c4.2-1.1,8.7-2.3,13.4-3.8c7.8-2.5,14.8-5.4,21.1-8.2"/>
	<path class="st1" d="M940.1,413.5c4.2-1.1,8.7-2.3,13.4-3.8c7.8-2.5,14.8-5.4,21.1-8.2"/>
	<path class="st1" d="M949.1,436.5c4.2-1.1,8.7-2.3,13.4-3.8c7.8-2.5,14.8-5.4,21.1-8.2"/>
	<path class="st1" d="M946.4,428.7c4.2-1.1,8.7-2.3,13.4-3.8c7.8-2.5,14.8-5.4,21.1-8.2"/>
	<path class="st1" d="M951.9,444.3c4.2-1.1,8.7-2.3,13.4-3.8c7.8-2.5,14.8-5.4,21.1-8.2"/>
	<path class="st1" d="M1174,734.2l-51.2-13.5c-9.7-2.6-15.7-13.1-13.3-23.5l27.2-119.7c2.4-10.4,12.2-16.9,21.9-14.4l51.2,13.5
		c9.7,2.6,15.7,13.1,13.3,23.5l-27.2,119.7C1193.4,730.4,1183.6,736.7,1174,734.2z"/>
	<polygon class="st1" points="1144.3,581.3 1213.3,598.7 1190.2,704.5 1121.2,687.1 	"/>
	
		<ellipse transform="matrix(0.2747 -0.9615 0.9615 0.2747 150.6998 1624.2467)" class="st1" cx="1152" cy="712.2" rx="4.8" ry="12.9"/>
	<line class="st1" x1="1125.9" y1="665.3" x2="1209" y2="618.7"/>
	<line class="st1" x1="1201.5" y1="595.7" x2="1131.9" y2="638.2"/>
	<line class="st1" x1="1197.5" y1="666.5" x2="1145.2" y2="693.1"/>
	<path class="st1" d="M1215,533.4c1.3,16.5,2.6,20.4,3.6,20.4c1.3,0,1.4-7.3,7-14.3c2.5-3,5.1-6.3,9-7c5.2-0.9,9.8,3.7,11.1,4.1
		c38.8,12,77.1-3.9,85.4-35.5s-16.4-66.6-55.2-78.5c-38.8-12-77.1,3.9-85.4,35.5c-5.9,22.5,5,46.7,25.8,63.1L1215,533.4z"/>
	<path class="st1" d="M1216.8,446.3c0.2,2,1.1,5.8,3.9,9.5c1.4,1.9,2.7,3.9,4.6,4.5c4.7,1.2,8.6-10.9,11.7-9.9
		c1.3,0.4,1,2.6,3.2,7.3c1.6,3.3,3.1,6.5,5.3,6.7c1.7,0,3.5-2.2,6.9-7.1c2.7-3.8,3.1-4.9,4.1-5c3-0.1,4,7.8,7.9,8.2
		c2.9,0.4,4.2-4,6.8-3.5c2.6,0.6,2.3,5,5.3,6.7c2.9,1.7,6.5-0.7,9.5-2c4.4-1.9,11.1-2.9,21.6,1.2"/>
	<path class="st1" d="M1218.1,481.9c16.2,0.7,28,3.4,36.3,5.9c5,1.6,12.8,4.1,21.6,1.2c4.1-1.4,5.7-6.1,9.6-5.6
		c1.1,0.1,1.5,0.5,8,4.5c4.7,2.9,4.9,2.9,5.3,3c4.3,0.6,6-4.3,10.9-4.8c1.8-0.1,4.2,0.2,7.4,2.4"/>
	<path class="st1" d="M1223.7,505.3c10-2.4,16.9-0.8,21.6,1.2c5.2,2.2,7.8,5.3,14,6.1c5.1,0.7,8.1-0.9,12.9-1.9
		c5.4-1.2,13.2-1.9,23.6,0.6"/>
	<ellipse class="st1" cx="1074.5" cy="526.7" rx="6.7" ry="5.9"/>
	<polygon class="st1" points="1067.8,537.5 1072.1,540.4 1073.3,546.8 1083.6,544.9 1081.2,537.5 1086.5,535.3 1092.5,538 
		1094.7,533.6 1096.3,529.8 1089.4,526.7 1088.7,522.1 1094.4,518.5 1091.3,514.7 1087.7,511.6 1082.1,516.4 1077.4,514 1076.4,508 
		1066.5,509.5 1067.8,516.5 1064.5,518.5 1056.6,516 1054.6,520.8 1053.7,524.8 1060.9,526.7 1060.9,530.9 1055.1,535.4 
		1057.8,538.9 1062,542.5 	"/>
	<g id="Camada_3_3_">
		<path class="st1" d="M1107.1,398.7l3.6,4.5c0.8,1.1,1.5,1.8,2.5,1.8c0.8-0.1,1.3-0.6,2-1.2c4.6-4.1,10.4-5.7,14.1-6.8
			c5.4-1.6,6.7-0.5,13.4-1.4c5.1-0.7,16.6-2.1,24.6-10.1c5.3-5.3,7-11.3,7.7-14.2c3.7-13.6-2.5-24.7-3.5-26.4
			c-1-1.8-7.6-12.8-21.8-16.9c-3-0.9-12.9-3.7-23.2,0.7c-7.2,3.1-11.2,8.2-12.7,10.1c-6.7,8.9-8.2,20.4-9.1,27.7
			c-0.6,4.8-0.7,8.6-3.5,12.8c-1.7,2.6-3.8,4.5-5.8,5.8c0.5,0.7,1.3,1.8,2.2,3c0.4,0.5,1.6,1.8,3,3.3
			C1103.4,394.7,1107.1,398.7,1107.1,398.7z"/>
		<path class="st1" d="M1141.2,378.1l-26.7,8.8l-1.4-2c0,0,11.2-23.7,12-24.3"/>
		<ellipse class="st1" cx="1114.1" cy="385.9" rx="1.8" ry="1.7"/>
		<line class="st1" x1="1120.8" y1="376.1" x2="1124.3" y2="380.1"/>
		<line class="st1" x1="1121.7" y1="377.1" x2="1103.2" y2="394.4"/>
		<line class="st1" x1="1104.6" y1="396" x2="1123.1" y2="378.8"/>
		<line class="st1" x1="1125" y1="360.5" x2="1140.8" y2="378.4"/>
		<path class="st1" d="M1105,387.9c-3.4,2.8-4.1,3.4-4.2,3.4s3.8-2.8,6.3-5.4c0.3-0.3,1-1.1,2.1-1.4c0,0,1-0.3,2.1,0
			c2,0.5,3.2,2.4,3.5,4.1c0.1,0.6,0.1,1.1,0,1.4c-0.2,1.4-1.1,2.3-1.4,2.7l-6.3,6.1"/>
	</g>
	<path class="st1" d="M1108.8,410.3l-18.5-20.9c-1-1.1-0.8-2.8,0.4-3.8l0,0c1.2-0.9,3-0.8,3.9,0.3l18.5,20.9c1,1.1,0.8,2.8-0.4,3.8
		l0,0C1111.5,411.6,1109.8,411.4,1108.8,410.3z"/>
	<path class="st1" d="M1108.4,409.6c-0.2,0.3-0.4,0.7-0.7,0.9"/>
	<path class="st1" d="M1106.1,412.1c-0.4,0.3-1.2,0.9-2,1.6"/>
	<path class="st1" d="M1102.6,414.9c-0.6,0.5-1.1,0.9-1.5,1.1"/>
	<path class="st1" d="M1099.4,417.3c-3.7,2-8.5,1.2-11.3-2.1l-6-7.2c-2.5-3-2.7-7.2-0.6-10.3"/>
	<path class="st1" d="M1083.5,395.5c0.2-0.2,0.6-0.5,1.1-0.9"/>
	<path class="st1" d="M1086.1,393.4c0.6-0.5,1.3-1,1.8-1.4"/>
	<path class="st1" d="M1089.9,390.4c0.3-0.2,0.4-0.3,0.4-0.3c0.1-0.1,0.3-0.2,0.4-0.3"/>
	<path class="st1" d="M1106.9,413.5l-20.2-22.4c-0.5-0.5-0.4-1.3,0.1-1.8l0,0c0.6-0.5,1.3-0.4,1.8,0.1l20.2,22.4
		c0.5,0.5,0.4,1.3-0.1,1.8l0,0C1108.1,414,1107.3,413.9,1106.9,413.5z"/>
	<path class="st1" d="M1103.1,415.9l-19.7-22c-0.4-0.5-0.4-1.3,0.1-1.7l0,0c0.5-0.4,1.3-0.4,1.8,0.1l19.7,22
		c0.4,0.5,0.4,1.3-0.1,1.7l0,0C1104.3,416.4,1103.6,416.4,1103.1,415.9z"/>
	<path class="st1" d="M1100,418.2l-19-21.3c-0.4-0.5-0.4-1.2,0.1-1.7l0,0c0.5-0.4,1.3-0.3,1.7,0.1l19,21.3c0.4,0.5,0.4,1.2-0.1,1.7
		l0,0C1101.2,418.8,1100.4,418.7,1100,418.2z"/>
	<path class="st1" d="M1049.7,247.1c0,0-0.3-0.1-0.5-0.3c-0.2-0.1-0.5-0.3-0.6-0.4c-0.1,0-58-34.3-60.3-35.7
		c-0.3-0.2-0.7-0.4-1.2-0.6c-0.4-0.2-0.8-0.3-1.2-0.4c-0.1,0.8-0.3,1.5-0.5,2.3c0,0.7-0.2,1.4-0.6,2c-0.2,0.9-0.7,1.8-1.5,2.5
		c-0.3,0.9-0.9,1.7-1.7,2.3c-0.4,0.5-0.9,0.9-1.4,1.2c-0.5,0.6-1.1,1.1-1.8,1.4c-0.4,0.4-1,0.6-1.5,0.8c-0.3,0.2-0.7,0.5-1,0.7
		c0.6,0.7,1.4,1.4,2.2,1.9l61.4,36.3c4.3,2.5,10.1,1.5,13-2.4S1054,249.6,1049.7,247.1z"/>
	<path class="st1" d="M962,209c0.2,0.1,0.3,0.2,0.3,0.2c1.7,1,3.9,0.6,4.9-0.8v-0.1c1.1-1.4,0.6-3.4-1.1-4.4c0,0-0.1-0.1-0.3-0.2
		l-9-2.5l-0.5,0.7L962,209z"/>
	<polyline class="st1" points="985.9,209.7 965.3,203.9 962.9,205.8 962.3,208.7 975.7,222.8 	"/>
	<path class="st1" d="M985.3,212"/>
	<path class="st1" d="M1049.7,247.3c0,0.1,0,0.3-0.1,0.5c-0.2,1.1-0.7,1.9-0.9,2.3c-1.8,2.9-2.7,4.3-3.4,5.1c-1.2,1.4-2.8,3.1-4.9,5
		c-0.4,0.4-0.7,0.6-0.9,0.8l-2.3-1.5l0.2-0.1c0.2-0.2,0.5-0.4,0.9-0.7c1.4-1.2,2.2-2.3,3-3.2c1.4-1.6,2.2-2.5,3.1-3.8
		c1.6-2.2,2.2-3.6,2.5-4.5c0.2-0.5,0.3-0.9,0.4-1.1l0.1-0.2L1049.7,247.3z"/>
	<line class="st1" x1="985.6" y1="211.1" x2="1047" y2="247.2"/>
	<line class="st1" x1="976.8" y1="222.1" x2="1038.3" y2="258.5"/>
	<line class="st1" x1="980.1" y1="219.9" x2="1041.4" y2="255.6"/>
	<line class="st1" x1="983.1" y1="216.9" x2="1044" y2="252.2"/>
	<path class="st1" d="M984.7,214"/>
	
		<ellipse transform="matrix(0.8748 -0.4845 0.4845 0.8748 31.4365 651.1205)" class="st1" cx="1275.5" cy="264.7" rx="61.9" ry="50.2"/>
	
		<ellipse transform="matrix(0.8614 -0.5079 0.5079 0.8614 43.1765 683.6336)" class="st1" cx="1274.3" cy="262.7" rx="54.7" ry="41.3"/>
	<polygon class="st1" points="1263.3,318.3 1265.8,318.3 1265.5,334.6 1263,334.6 	"/>
	<polygon class="st1" points="1347.4,278.6 1348.7,276.1 1331.6,273.5 1330.3,275.8 	"/>
	<path class="st1" d="M1266,214c4.8-13.8,18.9-22.7,33.1-20c14.2,2.6,23.7,15.9,22.7,30.4"/>
	<path class="st1" d="M1230.7,236.8c-16.8-2-32.1,8-34.4,22.7c-2.1,13.9,8,27,23.1,30.9"/>
	<path class="st1" d="M1251.3,280.2c0.2-0.1,0.4-0.3,0.6-0.4"/>
	<line class="st1" x1="1257" y1="292.8" x2="1253.1" y2="299.2"/>
	<line class="st1" x1="1274.8" y1="293.3" x2="1274.5" y2="300.9"/>
	<line class="st1" x1="1306.4" y1="272.1" x2="1314.3" y2="274.2"/>
	<line class="st1" x1="1240.8" y1="270.9" x2="1232.4" y2="271.1"/>
	<line class="st1" x1="1246.3" y1="254.7" x2="1238.8" y2="252.5"/>
	<line class="st1" x1="1277.9" y1="233.5" x2="1278.6" y2="225.8"/>
	<line class="st1" x1="1295.9" y1="233.9" x2="1300.7" y2="226.3"/>
	<line class="st1" x1="1320.9" y1="253.7" x2="1312.1" y2="255.8"/>
	<ellipse transform="matrix(0.8396 -0.5432 0.5432 0.8396 61.591 735.7247)" class="st1" cx="1276.6" cy="263.6" rx="3.8" ry="2"/>
	<polyline class="st1" points="1278.6,266.3 1289.1,291.1 1290.7,295.8 1287.8,291.9 1277.7,265.1 	"/>
	<polygon class="st1" points="1281.9,238.9 1281.2,245.6 1278.3,261.2 1276,261.5 1279.1,247.9 	"/>
	<polyline class="st1" points="1278.9,264.3 1306.2,261.7 1315,259.8 1305.4,260.2 1279.7,263.2 	"/>
	<g>
		<g>
			<path class="st1" d="M1259.6,246l-1.5,1l-6.5-8.8l-0.9,1.9l-1.1-1.5l0.8-2l1.5-1L1259.6,246z"/>
			<path class="st1" d="M1261,243.1l0.3-7.4c0.1-0.4,0-0.9-0.1-1.2c-0.2-0.4-0.2-0.7-0.4-0.9l0,0c-0.3-0.4-0.6-0.7-1.1-0.7
				c-0.4-0.1-0.8,0.1-1.3,0.4c-0.4,0.3-0.6,0.7-0.8,1.2c-0.1,0.4,0,0.9,0.3,1.4l0,0l-1.6,1.1l0,0c-0.3-0.6-0.6-1.3-0.6-1.9
				c0-0.6,0.1-1.1,0.4-1.7c0.2-0.5,0.7-1,1.3-1.4c0.7-0.5,1.3-0.7,1.9-0.8c0.7-0.1,1.1,0,1.7,0.2s1,0.7,1.4,1.2l0,0
				c0.3,0.4,0.5,0.8,0.6,1.3s0.3,1,0.2,1.6l-0.2,6.2l4.1-2.8l1,1.4l-6.1,4.1L1261,243.1L1261,243.1z"/>
		</g>
	</g>
	<g>
		<g>
			<path class="st1" d="M1241.1,286l0.2,0.2c0.1,0.3,0,0.6-0.2,0.9s-0.4,0.5-0.8,0.8c-0.5,0.3-1.1,0.5-1.7,0.5s-1.1-0.1-1.7-0.4
				s-1.1-0.7-1.5-1.4l0,0c-0.5-0.7-0.8-1.3-0.9-1.9c-0.1-0.7,0-1.2,0.2-1.7s0.7-1.1,1.3-1.5c0.6-0.4,1.3-0.6,1.9-0.7
				c0.6,0,1.2,0.1,1.9,0.5s1.1,0.8,1.6,1.5l0,0c0.3,0.4,0.5,0.8,0.7,1.3s0.3,1,0.5,1.5c0.1,0.1,0,0.2,0,0.2c0.1,0.1,0,0.2,0,0.2l1,6
				l-1.6,1.1L1241.1,286z M1240.5,285c0-0.5-0.1-1-0.5-1.6l0,0c-0.4-0.6-0.9-0.9-1.4-1c-0.5-0.2-1-0.1-1.5,0.3
				c-0.5,0.3-0.7,0.7-0.7,1.2s0.1,1,0.5,1.6l0,0c0.4,0.6,0.9,0.9,1.4,1c0.5,0.2,1,0.1,1.5-0.3C1240.3,285.9,1240.5,285.5,1240.5,285
				z"/>
		</g>
	</g>
	<g>
		<g>
			<path class="st1" d="M1312.2,247.6c0,0-0.3,0.1-0.9,0.1s-1.2,0.1-1.8-0.2c-0.6-0.2-1.1-0.6-1.6-1.1l1.5-1
				c0.3,0.3,0.6,0.5,0.8,0.6c0.2,0.1,0.6,0.1,0.9,0s0.6-0.2,1-0.4c0.5-0.3,0.8-0.8,0.9-1.2s-0.1-0.9-0.4-1.3l-0.2-0.3
				c-0.4-0.5-0.8-0.8-1.3-0.9c-0.4-0.1-1,0.1-1.4,0.3l-0.8,0.5l-1-1.4l0.8-0.5c0.4-0.3,0.7-0.6,0.8-1c0.1-0.4-0.1-0.8-0.4-1.3
				l-0.2-0.3c-0.3-0.4-0.6-0.7-1.1-0.7c-0.4-0.1-0.8,0.1-1.3,0.4c-0.3,0.2-0.5,0.4-0.6,0.6c-0.1,0.2-0.2,0.5-0.2,0.8
				c-0.1,0.3,0,0.6,0.2,1l-1.5,1c-0.3-0.6-0.5-1.2-0.5-1.9c0-0.6,0.1-1.1,0.4-1.6s0.7-1,1.2-1.3c0.9-0.6,1.9-0.9,2.8-0.8
				c0.9,0.1,1.6,0.6,2.3,1.5l0.1,0.2c0.4,0.5,0.6,1.1,0.6,1.7s-0.2,1.1-0.7,1.7c0.7-0.2,1.3-0.3,2-0.1c0.6,0.2,1.2,0.6,1.7,1.3
				l0.1,0.2c0.4,0.6,0.8,1.2,0.8,1.8s-0.1,1.1-0.4,1.7c-0.3,0.6-0.8,1-1.5,1.5C1312.5,247.3,1312.2,247.6,1312.2,247.6z"/>
		</g>
	</g>
	<g>
		<g>
			<path class="st1" d="M1296.3,291.8c-0.6,0-1.2-0.1-1.8-0.4s-1.1-0.8-1.6-1.5l0,0c-0.3-0.4-0.5-0.9-0.7-1.3s-0.3-1-0.5-1.5
				c-0.1-0.1,0-0.2-0.1-0.3c-0.1-0.1,0-0.2-0.1-0.3l-0.9-6.1l1.6-1.1l1,7.1l-0.2-0.2c-0.1-0.3,0-0.6,0.2-0.8s0.4-0.5,0.7-0.7
				c0.6-0.4,1.1-0.6,1.7-0.6s1.1,0.1,1.7,0.4c0.5,0.4,1.1,0.8,1.6,1.5l0,0c0.5,0.7,0.8,1.3,0.9,1.9s0,1.2-0.2,1.7s-0.7,1.1-1.3,1.5
				C1297.7,291.5,1296.9,291.8,1296.3,291.8z M1298,288.5c0-0.5-0.1-1-0.5-1.5l0,0c-0.4-0.6-1-0.9-1.4-1.1c-0.5-0.2-1,0-1.6,0.3
				c-0.4,0.3-0.6,0.7-0.7,1.2c0,0.5,0.2,1,0.7,1.6l0,0c0.4,0.6,0.9,0.9,1.3,0.9c0.4,0.1,0.9,0,1.4-0.3
				C1297.7,289.3,1297.9,288.9,1298,288.5z"/>
		</g>
	</g>
	<line class="st1" x1="1162.9" y1="234.1" x2="1179.3" y2="234.8"/>
	<line class="st1" x1="1179" y1="256" x2="1160.9" y2="257.2"/>
	<line class="st1" x1="1183.5" y1="269.5" x2="1169" y2="275.6"/>
	<path class="st1" d="M1197.1,256.2c-1.6-0.9-3.6-0.9-5.2,0.2c-2.1,1.4-2.6,4.2-1.1,6.2c1.1,1.5,3.2,2.2,5,1.8"/>
	<path class="st1" d="M1303.3,195.1c0.6-1.4,0.6-3.1-0.5-4.4c-1.5-2-4.4-2.5-6.5-1.1c-1.4,0.9-2,2.3-2,3.8"/>
	<text transform="matrix(0.9426 -0.334 0.334 0.9426 1260.954 709.7786)" class="st1 st2 st3">4 + 5</text>
	
		<ellipse transform="matrix(0.2621 -0.965 0.965 0.2621 -203.915 504.1619)" class="st1" cx="227.7" cy="385.4" rx="2.9" ry="10.3"/>
	<path class="st1" d="M236.8,389l-6.1,16.9l-1.2,0.6c-1.9,0.3-4.3,0.6-7.1,0.3c-2.8-0.3-4.7-1.1-5.2-1.2c-1.2-0.5-2.8-1.1-4.2-2.6
		c-0.4-0.4-0.6-0.7-0.8-1c0,0,5.9-17.8,5.8-18.4"/>
	<path class="st1" d="M212.9,400.7c-4.7-0.2-8.1,0.5-8.7,1.9c-0.9,2.3,5.5,5.8,14.5,7.8c8.9,2,17,1.7,17.9-0.7
		c0.6-1.5-1.7-3.4-5.8-5.1"/>
	<polyline class="st1" points="217,410 209.8,432.3 211.2,439.6 215,433.5 220.8,410.8 	"/>
	<ellipse class="st1" cx="454.4" cy="368.8" rx="6.7" ry="5.9"/>
	<polygon class="st1" points="447.7,379.6 452,382.4 453.2,388.9 463.5,387 461.1,379.6 466.4,377.4 472.4,380 474.6,375.7 
		476.3,371.9 469.3,368.8 468.6,364.2 474.3,360.6 471.2,356.8 467.6,353.6 462,358.4 457.3,356 456.3,350 446.4,351.6 447.7,358.6 
		444.4,360.6 436.5,358.1 434.5,362.9 433.6,366.9 440.8,368.8 440.8,373 435,377.5 437.7,380.9 441.9,384.5 	"/>
	<path class="st1" d="M257.9,552c-0.2,0-0.3,0-0.3,0v-24.6h24.6c0,0,0,0.2,0,0.5"/>
	<rect x="269.9" y="539.7" class="st1" width="22.7" height="22.7"/>
	<line class="st1" x1="257.6" y1="527.4" x2="269.9" y2="539.7"/>
	<line class="st1" x1="282.2" y1="527.4" x2="292.6" y2="539.7"/>
	<line class="st1" x1="257.6" y1="552" x2="269.9" y2="562.4"/>
	<path class="st1" d="M555.3,463.5c-0.1-0.2-0.2-0.2-0.2-0.2l19.8-14.6l14.6,19.8c0,0-0.1,0.1-0.4,0.3"/>
	
		<rect x="558.6" y="470.4" transform="matrix(0.8057 -0.5923 0.5923 0.8057 -174.6066 431.1628)" class="st1" width="22.7" height="22.7"/>
	<line class="st1" x1="574.9" y1="448.7" x2="572.3" y2="465.9"/>
	<line class="st1" x1="589.5" y1="468.6" x2="585.7" y2="484.2"/>
	<line class="st1" x1="555.1" y1="463.3" x2="554" y2="479.4"/>
	<path class="st1" d="M248.8,55.6c0.1-0.1,0.2-0.2,0.2-0.2l17.1,17.7l-17.7,17.1c0,0-0.1-0.1-0.3-0.4"/>
	
		<rect x="221.2" y="61.1" transform="matrix(0.7208 -0.6931 0.6931 0.7208 14.7183 181.4314)" class="st1" width="22.7" height="22.7"/>
	<line class="st1" x1="266.1" y1="73.1" x2="248.7" y2="72.7"/>
	<line class="st1" x1="248.3" y1="90.1" x2="232.3" y2="88.5"/>
	<line class="st1" x1="249" y1="55.4" x2="232.9" y2="56.4"/>
	<ellipse class="st1" cx="757.1" cy="671.8" rx="6.7" ry="5.9"/>
	<polygon class="st1" points="750.4,682.5 754.7,685.4 755.9,691.9 766.3,689.9 763.8,682.5 769.1,680.3 775.1,683 777.3,678.7 
		779,674.8 772,671.8 771.3,667.1 777.1,663.5 773.9,659.7 770.3,656.6 764.7,661.4 760,659 759.1,653 749.1,654.5 750.4,661.6 
		747.1,663.5 739.2,661 737.2,665.8 736.3,669.8 743.5,671.8 743.5,676 737.8,680.5 740.5,683.9 744.6,687.5 	"/>
	<path class="st1" d="M1119.2,168.3c-0.1-0.2-0.2-0.2-0.2-0.2l19.8-14.6l14.6,19.8c0,0-0.1,0.1-0.4,0.3"/>
	
		<rect x="1122.5" y="175.2" transform="matrix(0.8057 -0.5923 0.5923 0.8057 109.8097 707.8345)" class="st1" width="22.7" height="22.7"/>
	<line class="st1" x1="1138.9" y1="153.5" x2="1136.3" y2="170.7"/>
	<line class="st1" x1="1153.5" y1="173.3" x2="1149.7" y2="189"/>
	<line class="st1" x1="1119.1" y1="168.1" x2="1118" y2="184.1"/>
	<path class="st1" d="M890.3,273.3c-0.2,0-0.3,0-0.3,0v-24.6h24.6c0,0,0,0.2,0,0.5"/>
	<rect x="902.3" y="261" class="st1" width="22.7" height="22.7"/>
	<line class="st1" x1="890" y1="248.7" x2="902.3" y2="261"/>
	<line class="st1" x1="914.6" y1="248.7" x2="925" y2="261"/>
	<line class="st1" x1="890" y1="273.3" x2="902.3" y2="283.7"/>
</g>
</svg>
