<svg xmlns="http://www.w3.org/2000/svg" viewBox="0 0 600.67 203.03"><defs><style>.a{fill:#2c3e50;}</style></defs><title>Ativo 5</title><path class="a" d="M304.26,112.84,300.86,94h-6.55a12.71,12.71,0,0,0,3.51,1.77.05.05,0,0,1,0,.1c-1,.71-9.57,7.26-10.34,13.61a.06.06,0,0,1-.12,0c-.77-6.35-9.38-12.9-10.35-13.61a.06.06,0,0,1,0-.1A12.71,12.71,0,0,0,280.57,94h-5l-3.47,19.23-15.86,87.89h17.29l3.39-21h21.2v-.31l3.39,21.27h18.65Zm-25.1,52.78L286.94,115l.36-2.37h.34L288,115l7.93,50.58Z"/><path class="a" d="M7.89,195.13Q0,187.23,0,172.45V165.5H20v8.34q0,11.82,11,11.82c3.6,0,6.32-1,8.19-2.87s2.79-5,2.79-9.3A23.89,23.89,0,0,0,38.12,160q-3.85-5.82-14.25-14Q10.78,135.62,5.58,127.18a35.5,35.5,0,0,1-5.2-19q0-14.43,8.09-22.33T32,77.92q15.2,0,23,7.91t7.8,22.68v5h-20v-6.25q0-6.26-2.7-9.12T32.15,95.3q-10.59,0-10.59,11.64a21.34,21.34,0,0,0,4,12.34q3.94,5.73,14.34,13.9,13.27,10.42,18.29,18.94a38.79,38.79,0,0,1,5,20q0,15-8.18,22.94t-23.77,8Q15.79,203,7.89,195.13Z"/><path class="a" d="M87.21,79.66h21.17V201.3H87.21Z"/><path class="a" d="M136.1,79.66h26.57l20.59,72.81h.39V79.66h18.87V201.3H180.76l-25.41-88.8H155v88.8H136.1Z"/><path class="a" d="M372.36,79.66h31.19q15.78,0,23.68,7.65t7.89,22.41v12q0,14.78-7.89,22.42t-23.68,7.64h-10V201.3H372.36Zm31.19,54.74q5.19,0,7.8-2.61t2.59-8.86V108.51q0-6.26-2.59-8.87t-7.8-2.6h-10V134.4Z"/><path class="a" d="M463.61,195.13q-7.91-7.9-7.89-22.68V165.5h20v8.34q0,11.82,11,11.82,5.39,0,8.18-2.87t2.79-9.3A23.81,23.81,0,0,0,493.83,160q-3.85-5.82-14.24-14-13.09-10.42-18.29-18.86a35.41,35.41,0,0,1-5.2-19q0-14.43,8.09-22.33t23.48-7.91q15.21,0,23,7.91t7.79,22.68v5h-20v-6.25q0-6.26-2.69-9.12t-7.9-2.87q-10.58,0-10.58,11.64a21.33,21.33,0,0,0,3.94,12.34q3.94,5.73,14.34,13.9,13.29,10.42,18.29,18.94a38.7,38.7,0,0,1,5,20q0,15-8.18,22.94t-23.78,8Q471.5,203,463.61,195.13Z"/><path class="a" d="M542.92,79.66h57.75V97H564.1v32.14h29.07v17.38H564.1v37.36h36.57V201.3H542.92Z"/><path class="a" d="M244.35,188.63c.66,2.14,1.4,4.17,2.19,6.07a74.43,74.43,0,0,1-30.81-42.21,7.49,7.49,0,0,0,5.82-1.16,6.09,6.09,0,0,0,1.52-1.71c-2.32.66-5.25.14-8.41-1.35A73.32,73.32,0,0,1,213.1,138c4.3,2.11,8.23,2.44,10.78.49a6.19,6.19,0,0,0,1.52-1.7c-3.31.93-7.88-.52-12.57-3.79,0-.54,0-1.09,0-1.64a78.67,78.67,0,0,1,.55-9.25c5.54,3.7,10.85,4.81,14,2.38a5.92,5.92,0,0,0,1.52-1.7c-3.84,1.09-9.37-1-14.82-5.49A75.33,75.33,0,0,1,232,80.53c.64,1.5,1.37,3,2.16,4.43a55.94,55.94,0,0,0,18.59,19.92c-7.84,9.87-13.14,28.74-13.14,50.4A112.08,112.08,0,0,0,244.35,188.63Z"/><path class="a" d="M349.48,136.8a6.19,6.19,0,0,0,1.52,1.7c2.55,1.95,6.47,1.62,10.79-.49a73.33,73.33,0,0,1-1.57,10.26c-3.16,1.49-6.1,2-8.4,1.35a6.06,6.06,0,0,0,1.51,1.71,7.49,7.49,0,0,0,5.82,1.16,74.39,74.39,0,0,1-30.81,42.21c.79-1.9,1.53-3.93,2.19-6.07a112.07,112.07,0,0,0,4.73-33.35c0-21.66-5.31-40.53-13.15-50.4A55.94,55.94,0,0,0,340.7,85c.79-1.45,1.52-2.93,2.16-4.43a75.43,75.43,0,0,1,17.95,36.78c-5.46,4.45-11,6.58-14.83,5.49a5.92,5.92,0,0,0,1.52,1.7c3.18,2.43,8.48,1.32,14-2.38a78.67,78.67,0,0,1,.55,9.25c0,.55,0,1.1,0,1.64C357.35,136.28,352.79,137.73,349.48,136.8Z"/><path class="a" d="M266.45,56.74a11.65,11.65,0,1,1-11.66-11.67c.29,0,.58,0,.86,0a5.19,5.19,0,0,0-.86,2.88,5.24,5.24,0,0,0,9.85,2.51A11.65,11.65,0,0,1,266.45,56.74Z"/><path class="a" d="M331.76,56.74a11.67,11.67,0,1,1-11.67-11.67c.3,0,.59,0,.87,0a5.24,5.24,0,0,0,4.38,8.13A5.26,5.26,0,0,0,330,50.51,11.59,11.59,0,0,1,331.76,56.74Z"/><path class="a" d="M314.1,12.33c1,.07,2,.09,3.08.09,14,0,26.3-4.93,32.85-12.27-1.39,13.74-6.52,25.05-13.38,30.22Z"/><path class="a" d="M237.68,31.11C230.89,25.59,225.89,14,224.72,0c6.51,7.42,18.85,12.42,33,12.42,1,0,2.07,0,3.08-.09Z"/><path class="a" d="M341.16,78.68a26.41,26.41,0,0,1-3.42,2.64A28,28,0,0,1,294.43,57.9a3.39,3.39,0,0,1,0-.45c0-.2,0-.4,0-.59a28,28,0,0,1,39.1-24.63h0a27.82,27.82,0,0,1,7.19,4.53,53.8,53.8,0,0,0-4.11-6.39A60,60,0,0,0,308.22,10a63.83,63.83,0,0,0-15.15-3.16c-1.85-.16-3.73-.24-5.63-.24s-3.78.08-5.64.24A65,65,0,0,0,267,9.88a61.75,61.75,0,0,0-6.19,2.45,58.11,58.11,0,0,0-23.1,18.78A46.88,46.88,0,0,0,235,35.2a28,28,0,1,1-1.8,44,28.49,28.49,0,0,1-2.72-2.66c.45,1.34,1,2.67,1.52,4A48.89,48.89,0,0,0,234.18,85a55.86,55.86,0,0,0,18.59,19.92,61.55,61.55,0,0,0,19.36,8.35,64.56,64.56,0,0,0,11.49,1.7c1.1.07,2.2.11,3.32.11H288c1.09,0,2.17,0,3.24-.11a63.67,63.67,0,0,0,13-2.09,61.42,61.42,0,0,0,17.85-8A55.94,55.94,0,0,0,340.7,85q1.19-2.17,2.16-4.43A47.42,47.42,0,0,0,345,74.4,26.63,26.63,0,0,1,341.16,78.68ZM297.84,95.87c-1,.71-9.57,7.26-10.34,13.61a.06.06,0,0,1-.12,0c-.77-6.35-9.38-12.9-10.35-13.61a.06.06,0,0,1,0-.1A12.71,12.71,0,0,0,280.57,94c5.19-3.71,6.53-10.51,6.81-12.32a.06.06,0,0,1,.12,0c.27,1.81,1.62,8.61,6.81,12.32a12.71,12.71,0,0,0,3.51,1.77A.05.05,0,0,1,297.84,95.87Z"/></svg>