<?xml version="1.0" encoding="utf-8"?>
<!-- Generator: Adobe Illustrator 23.0.1, SVG Export Plug-In . SVG Version: 6.00 Build 0)  -->
<svg version="1.1" id="Camada_1" xmlns="http://www.w3.org/2000/svg" xmlns:xlink="http://www.w3.org/1999/xlink" x="0px" y="0px"
	 viewBox="0 0 1366 1366" style="enable-background:new 0 0 1366 1366;" xml:space="preserve">
<style type="text/css">
	.st0{opacity:0.42;}
	.st1{opacity:0.53;fill:#0EAD69;stroke:#FFFFFF;stroke-miterlimit:10;enable-background:new    ;}
	.st2{fill:#2D2D2D;}
</style>
<g class="st0">
	
		<ellipse transform="matrix(0.8574 -0.5146 0.5146 0.8574 -272.2151 453.8205)" class="st1" cx="682.9" cy="718.2" rx="561.9" ry="453.7"/>
	
		<ellipse transform="matrix(0.8574 -0.5146 0.5146 0.8574 -271.7931 481.4073)" class="st1" cx="732.9" cy="731.2" rx="561.9" ry="453.7"/>
	
		<ellipse transform="matrix(0.8938 -0.4485 0.4485 0.8938 -162.7503 133.2294)" class="st1" cx="199.9" cy="410.2" rx="63.8" ry="50.5"/>
	
		<ellipse transform="matrix(0.9245 -0.3812 0.3812 0.9245 -303.9134 540.3077)" class="st1" cx="1211.9" cy="1037.3" rx="43" ry="33"/>
	
		<ellipse transform="matrix(0.8437 -0.5369 0.5369 0.8437 -610.7874 312.9837)" class="st1" cx="232" cy="1205.2" rx="33.5" ry="27.2"/>
</g>
<g>
	<ellipse class="st2" cx="723.5" cy="818.3" rx="40" ry="33.2"/>
	<ellipse class="st2" cx="723.5" cy="906.9" rx="40" ry="33.2"/>
	<ellipse class="st2" cx="643.5" cy="973.4" rx="40" ry="33.2"/>
	<ellipse class="st2" cx="536.9" cy="973.4" rx="40" ry="33.2"/>
	<path class="st2" d="M566.3,1093.1c89.5,10.1,179.3-17.8,238.2-73.8c50.6-48.2,73.6-112.6,63.1-176.6
		C853.4,756.4,775.4,683,673.4,660c-23-5.2-46.5-7.8-69.8-7.8h-3.8c-27.5,0.4-52.6,12.2-67.1,31.6c-14.4,19.4-16,43.3-4.1,63.8
		l5.3,9.2c11.1,19.2,3.2,34.8-2.5,42.4c-14.4,19-43.4,26.8-68.7,16.7l-11-4.4c-11-4.4-22.7-6.6-34.7-6.6
		c-43.5,0-79.4,29.5-80.1,65.7c-0.4,20.4,2.8,41,9.4,61.1C374.2,1016.5,462.5,1081.4,566.3,1093.1z M428.8,851.4l11,4.4
		c48.7,19.5,108.5,4.4,136.9-33.1c19.7-26.1,21.7-57.1,5.4-85.1l-5.3-9.2c-4-7-3.5-14.7,1.4-21.3s13.1-10.5,22.5-10.6h3
		c18.5,0,37.3,2.1,55.8,6.3c81.6,18.4,144,77.1,155.3,145.9c8.6,52.2-9.4,102.4-50.5,141.5c-40.5,38.6-99.1,60.7-160.7,60.7
		c-10,0-20.1-0.6-30.1-1.7c-82.8-9.4-153.4-61.2-175.5-129.1c-5.3-16.2-7.8-32.7-7.5-48.9C390.7,853.3,412.9,845,428.8,851.4z"/>
	<path class="st2" d="M996.5,398.2l-101.8-17c-11.2-1.9-22,0.6-30.8,6c-6.7-8-16.2-13.9-27.4-15.7l-101.8-17
		c-8-1.3-15.5,3.8-16.7,11.5l-32.9,208.9c-1.2,7.7,4.3,15,12.3,16.4l83.7,14c7.6,1.3,14.7,5.5,19.3,11.6l13.8,18.3
		c0.1,0.1,0.3,0.2,0.4,0.4c1.1,1.3,2.3,2.5,3.8,3.4l0,0c1.6,1,3.5,1.7,5.4,2s3.8,0.3,5.7-0.1l0,0c1.7-0.4,3.3-1.1,4.7-2
		c0.2-0.1,0.3-0.1,0.5-0.2l18.8-12.9c6.2-4.3,14.2-6,21.8-4.7l83.7,14c8,1.3,15.5-3.8,16.7-11.5l32.9-208.9
		C1010.1,406.9,1004.5,399.5,996.5,398.2z M785.6,577.4l-69.2-11.6l28.5-181.1l87.2,14.6c8,1.3,13.6,8.7,12.3,16.4l-27.8,176.7
		C808.1,584.6,797.2,579.3,785.6,577.4z M949,604.7l-69.2-11.6c-11.6-1.9-23.6-0.4-34.1,4.1l27.8-176.7c1.2-7.7,8.7-12.8,16.7-11.5
		l87.2,14.6L949,604.7z"/>
</g>
</svg>
