<?xml version="1.0" encoding="utf-8"?>
<!-- Generator: Adobe Illustrator 23.0.1, SVG Export Plug-In . SVG Version: 6.00 Build 0)  -->
<svg version="1.1" xmlns="http://www.w3.org/2000/svg" xmlns:xlink="http://www.w3.org/1999/xlink" x="0px" y="0px"
	 viewBox="0 0 1366 1366" style="enable-background:new 0 0 1366 1366;" xml:space="preserve">
<style type="text/css">
	.st0{opacity:0.42;}
	.st1{opacity:0.44;fill:#C53849;stroke:#FFFFFF;stroke-miterlimit:10;enable-background:new    ;}
	.st2{fill:#2D2D2D;}
</style>
<g id="Camada_1" class="st0">
	
		<ellipse transform="matrix(0.8574 -0.5146 0.5146 0.8574 -272.2122 453.8063)" class="st1" cx="682.9" cy="718.2" rx="561.9" ry="453.7"/>
	
		<ellipse transform="matrix(0.8574 -0.5146 0.5146 0.8574 -271.7755 481.4219)" class="st1" cx="732.9" cy="731.2" rx="561.9" ry="453.7"/>
	
		<ellipse transform="matrix(0.8938 -0.4485 0.4485 0.8938 -162.7365 133.2439)" class="st1" cx="199.9" cy="410.2" rx="63.8" ry="50.5"/>
	
		<ellipse transform="matrix(0.9245 -0.3812 0.3812 0.9245 -303.8919 540.307)" class="st1" cx="1211.9" cy="1037.3" rx="43" ry="33"/>
	
		<ellipse transform="matrix(0.8437 -0.5369 0.5369 0.8437 -610.8019 312.965)" class="st1" cx="232" cy="1205.2" rx="33.5" ry="27.2"/>
</g>
<g id="Camada_2">
	<path class="st2" d="M816.8,678.6c5.9,5.4,13.5,8.2,21.5,7.7c7.9-0.4,15.2-4,20.5-10l60.9-69c10.8,2.8,21.9,3.9,33.2,3.3
		c29.7-1.6,57.1-14.9,77-37.4c30.1-34.1,37.1-83,17.6-124.5l-9.6-20.5l-59.6,67.5l-33.2-30.4l59.6-67.5l-21.1-7.5
		c-13.8-4.9-28.2-7-42.9-6.2c-29.7,1.6-57.1,14.9-76.9,37.4c-27.9,31.6-35.9,75.7-21.6,115.1l-60.9,69c-11,12.4-9.9,31.6,2.3,42.7
		L816.8,678.6z M877.2,542.2l-4.3-9.1c-14.3-30.5-9.2-66.3,12.9-91.3c14.6-16.5,34.6-26.2,56.4-27.4c2.6-0.1,5.2-0.2,7.8,0
		l-47.1,53.3l77.5,70.8l47.1-53.4c3.6,24.2-3.4,49.1-20,68c-21.8,24.6-57.2,33.8-87.9,22.8l-9.3-3.4l-73.8,83.6l0,0l0.8,15.1
		l-0.8-15.1l-33.2-30.4L877.2,542.2z"/>
	<path class="st2" d="M767.9,717.2h-73.4v-47.4c0-26.2-22-47.4-48.9-47.4H498.7c-27,0-48.9,21.3-48.9,47.4v47.4h-73.4
		c-27,0-48.9,21.3-48.9,47.4v260.9c0,26.2,22,47.4,48.9,47.4h391.6c27,0,48.9-21.3,48.9-47.4V764.6
		C816.9,738.4,794.9,717.2,767.9,717.2z M645.6,669.7v47.4H498.7v-47.4H645.6z M376.4,764.6h97.9H670h24.5h73.4v94.9h-73.4V812
		h-48.9v47.4H498.7V812h-48.9v47.4h-73.4V764.6z M376.4,1025.5V906.9h73.4v47.4h48.9v-47.4h146.8v47.4h48.9v-47.4h73.4v118.6H376.4z
		"/>
</g>
</svg>
