<?xml version="1.0" encoding="utf-8"?>
<!-- Generator: Adobe Illustrator 24.1.1, SVG Export Plug-In . SVG Version: 6.00 Build 0)  -->
<svg version="1.1" xmlns="http://www.w3.org/2000/svg" xmlns:xlink="http://www.w3.org/1999/xlink" x="0px" y="0px"
	 viewBox="0 0 600.7 203" style="enable-background:new 0 0 600.7 203;" xml:space="preserve">
<style type="text/css">
	.st0{fill:#FFFFFF;}
	.st1{fill:none;stroke:#BF1EBC;stroke-miterlimit:10;}
</style>
<g id="Camada_1">
	<path class="st0" d="M304.3,112.8L300.9,94h-6.5c1.1,0.8,2.3,1.4,3.5,1.8c0,0,0,0,0,0.1c0,0,0,0,0,0c-1,0.7-9.6,7.3-10.3,13.6
		c0,0,0,0.1-0.1,0.1c0,0-0.1,0-0.1-0.1c-0.8-6.3-9.4-12.9-10.4-13.6c0,0,0-0.1,0-0.1c0,0,0,0,0,0c1.3-0.4,2.5-1,3.6-1.8h-5
		l-3.5,19.2l-15.9,87.9h17.3l3.4-21h21.2v-0.3l3.4,21.3h18.6L304.3,112.8z M279.2,165.6l7.8-50.6l0.4-2.4h0.3l0.4,2.4l7.9,50.6
		L279.2,165.6z"/>
	<path class="st0" d="M7.9,195.1C2.6,189.9,0,182.3,0,172.4v-6.9h20v8.3c0,7.9,3.7,11.8,11,11.8c3.6,0,6.3-1,8.2-2.9s2.8-5,2.8-9.3
		c0.1-4.8-1.3-9.5-3.9-13.5c-2.6-3.9-7.3-8.5-14.3-14c-8.7-6.9-14.8-13.2-18.3-18.8c-3.5-5.7-5.3-12.3-5.2-19
		c0-9.6,2.7-17.1,8.1-22.3c5.4-5.3,13.2-7.9,23.5-7.9c10.1,0,17.8,2.6,23,7.9c5.2,5.3,7.8,12.8,7.8,22.7v5h-20v-6.3
		c0-4.2-0.9-7.2-2.7-9.1c-1.8-1.9-4.5-2.9-7.9-2.8c-7.1,0-10.6,3.9-10.6,11.6c0,4.4,1.4,8.7,4,12.3c2.6,3.8,7.4,8.5,14.3,13.9
		c8.8,6.9,14.9,13.3,18.3,18.9c3.4,6.1,5.2,13,5,20c0,10-2.7,17.6-8.2,22.9s-13.4,8-23.8,8C20.9,203,13.2,200.4,7.9,195.1z"/>
	<rect x="87.2" y="79.7" class="st0" width="21.2" height="121.6"/>
	<path class="st0" d="M136.1,79.7h26.6l20.6,72.8h0.4V79.7h18.9v121.6h-21.8l-25.4-88.8H155v88.8h-18.9V79.7z"/>
	<path class="st0" d="M372.4,79.7h31.2c10.5,0,18.4,2.5,23.7,7.7c5.3,5.1,7.9,12.6,7.9,22.4v12c0,9.9-2.6,17.3-7.9,22.4
		c-5.3,5.1-13.2,7.6-23.7,7.6h-10v49.5h-21.2V79.7z M403.5,134.4c3.5,0,6.1-0.9,7.8-2.6s2.6-4.7,2.6-8.9v-14.4
		c0-4.2-0.9-7.1-2.6-8.9c-1.7-1.7-4.3-2.6-7.8-2.6h-10v37.4L403.5,134.4z"/>
	<path class="st0" d="M463.6,195.1c-5.3-5.3-7.9-12.8-7.9-22.7v-7h20v8.3c0,7.9,3.7,11.8,11,11.8c3.6,0,6.3-1,8.2-2.9
		c1.9-1.9,2.8-5,2.8-9.3c0.1-4.8-1.2-9.5-3.9-13.5c-2.6-3.9-7.3-8.5-14.2-14c-8.7-6.9-14.8-13.2-18.3-18.9c-3.5-5.7-5.3-12.3-5.2-19
		c0-9.6,2.7-17.1,8.1-22.3c5.4-5.3,13.2-7.9,23.5-7.9c10.1,0,17.8,2.6,23,7.9c5.2,5.3,7.8,12.8,7.8,22.7v5h-20v-6.3
		c0-4.2-0.9-7.2-2.7-9.1c-1.8-1.9-4.4-2.9-7.9-2.9c-7.1,0-10.6,3.9-10.6,11.6c0,4.4,1.4,8.7,3.9,12.3c2.6,3.8,7.4,8.5,14.3,13.9
		c8.9,6.9,15,13.3,18.3,18.9c3.4,6.1,5.2,13,5,20c0,10-2.7,17.6-8.2,22.9c-5.5,5.3-13.4,8-23.8,8C476.6,203,468.9,200.4,463.6,195.1
		z"/>
	<path class="st0" d="M542.9,79.7h57.8V97h-36.6v32.1h29.1v17.4h-29.1v37.4h36.6v17.4h-57.8V79.7z"/>
	<path class="st0" d="M244.4,188.6c0.7,2.1,1.4,4.2,2.2,6.1c-15-9.9-26-24.9-30.8-42.2c2,0.4,4.1,0,5.8-1.2c0.6-0.5,1.1-1,1.5-1.7
		c-2.3,0.7-5.3,0.1-8.4-1.4c-0.8-3.4-1.3-6.8-1.6-10.3c4.3,2.1,8.2,2.4,10.8,0.5c0.6-0.5,1.1-1,1.5-1.7c-3.3,0.9-7.9-0.5-12.6-3.8
		c0-0.5,0-1.1,0-1.6c0-3.1,0.2-6.2,0.6-9.3c5.5,3.7,10.9,4.8,14,2.4c0.6-0.5,1.1-1,1.5-1.7c-3.8,1.1-9.4-1-14.8-5.5
		c2.5-13.7,8.7-26.4,17.9-36.8c0.6,1.5,1.4,3,2.2,4.4c4.5,8.1,10.8,14.9,18.6,19.9c-7.8,9.9-13.1,28.7-13.1,50.4
		C239.5,166.6,241.1,177.8,244.4,188.6z"/>
	<path class="st0" d="M349.5,136.8c0.4,0.7,0.9,1.2,1.5,1.7c2.5,1.9,6.5,1.6,10.8-0.5c-0.3,3.5-0.8,6.9-1.6,10.3
		c-3.2,1.5-6.1,2-8.4,1.4c0.4,0.7,0.9,1.2,1.5,1.7c1.7,1.2,3.8,1.6,5.8,1.2c-4.8,17.3-15.8,32.3-30.8,42.2c0.8-1.9,1.5-3.9,2.2-6.1
		c3.2-10.8,4.8-22.1,4.7-33.4c0-21.7-5.3-40.5-13.1-50.4c7.7-5,14.1-11.8,18.6-19.9c0.8-1.4,1.5-2.9,2.2-4.4
		c9.3,10.4,15.5,23.1,18,36.8c-5.5,4.4-11,6.6-14.8,5.5c0.4,0.7,0.9,1.2,1.5,1.7c3.2,2.4,8.5,1.3,14-2.4c0.4,3.1,0.5,6.2,0.5,9.3
		c0,0.6,0,1.1,0,1.6C357.4,136.3,352.8,137.7,349.5,136.8z"/>
	<path class="st0" d="M266.5,56.7c0,6.4-5.2,11.6-11.7,11.6c-6.4,0-11.6-5.2-11.6-11.7c0-6.4,5.2-11.6,11.6-11.6c0.3,0,0.6,0,0.9,0
		c-0.6,0.9-0.9,1.9-0.9,2.9c0,2.9,2.3,5.2,5.2,5.3c1.9,0,3.7-1,4.6-2.7C265.8,52.3,266.5,54.5,266.5,56.7z"/>
	<path class="st0" d="M331.8,56.7c0,6.4-5.2,11.7-11.7,11.7c-6.4,0-11.7-5.2-11.7-11.7c0-6.4,5.2-11.7,11.7-11.7c0.3,0,0.6,0,0.9,0
		c-1.6,2.4-0.9,5.7,1.5,7.3c0.9,0.6,1.9,0.9,2.9,0.9c1.9,0,3.7-1,4.7-2.7C331.2,52.4,331.8,54.5,331.8,56.7z"/>
	<path class="st0" d="M314.1,12.3c1,0.1,2,0.1,3.1,0.1c14,0,26.3-4.9,32.9-12.3c-1.4,13.7-6.5,25-13.4,30.2L314.1,12.3z"/>
	<path class="st0" d="M237.7,31.1c-6.8-5.5-11.8-17.1-13-31.1c6.5,7.4,18.9,12.4,33,12.4c1,0,2.1,0,3.1-0.1L237.7,31.1z"/>
	<path class="st0" d="M341.2,78.7c-1.1,1-2.2,1.9-3.4,2.6c-12.9,8.5-30.3,4.8-38.8-8.1c-3-4.5-4.6-9.9-4.6-15.3c0-0.1,0-0.3,0-0.5
		c0-0.2,0-0.4,0-0.6c0.6-15.5,13.6-27.5,29-26.9c3.5,0.1,6.9,0.9,10.1,2.3l0,0c2.6,1.1,5,2.7,7.2,4.5c-1.2-2.2-2.6-4.4-4.1-6.4
		c-7.2-9.5-17.1-16.5-28.4-20.4c-4.9-1.7-10-2.7-15.1-3.2c-1.9-0.2-3.7-0.2-5.6-0.2s-3.8,0.1-5.6,0.2c-5,0.4-10,1.5-14.8,3
		c-2.1,0.7-4.2,1.5-6.2,2.4c-9.2,4.1-17.2,10.6-23.1,18.8c-1,1.3-1.9,2.7-2.7,4.1c12.5-9,30-6.2,39.1,6.3c9,12.5,6.2,30-6.3,39.1
		c-10.5,7.6-24.7,7-34.6-1.4c-1-0.8-1.9-1.7-2.7-2.7c0.4,1.3,1,2.7,1.5,4c0.7,1.5,1.4,3,2.2,4.5c4.5,8.1,10.8,14.9,18.6,19.9
		c5.9,3.9,12.5,6.7,19.4,8.3c3.8,0.9,7.6,1.5,11.5,1.7c1.1,0.1,2.2,0.1,3.3,0.1h1.1c1.1,0,2.2,0,3.2-0.1c4.4-0.2,8.8-0.9,13-2.1
		c6.3-1.7,12.4-4.4,17.9-8c7.7-5,14.1-11.8,18.6-19.9c0.8-1.4,1.5-2.9,2.2-4.4c0.9-2,1.6-4.1,2.1-6.2
		C343.9,76,342.6,77.4,341.2,78.7z M297.8,95.9c-1,0.7-9.6,7.3-10.3,13.6c0,0,0,0.1-0.1,0.1c0,0-0.1,0-0.1-0.1
		c-0.8-6.3-9.4-12.9-10.4-13.6c0,0,0-0.1,0-0.1c0,0,0,0,0,0c1.3-0.4,2.5-1,3.5-1.8c5.2-3.7,6.5-10.5,6.8-12.3c0,0,0-0.1,0.1-0.1
		c0,0,0.1,0,0.1,0.1c0.3,1.8,1.6,8.6,6.8,12.3c1.1,0.8,2.3,1.4,3.5,1.8C297.8,95.8,297.9,95.8,297.8,95.9
		C297.9,95.8,297.9,95.9,297.8,95.9z"/>
	<path class="st0" d="M322-2c-6.4,0-6.4,10,0,10C328.4,8,328.4-2,322-2z"/>
	<path class="st1" d="M124,106"/>
	<path class="st0" d="M148-127c-6.4,0-6.4,10,0,10C154.4-117,154.4-127,148-127z"/>
</g>
<g id="Camada_2">
</g>
</svg>
